<svg width="397" height="404" viewBox="0 0 397 404" fill="none" xmlns="http://www.w3.org/2000/svg">
<mask id="mask0_7_417" style="mask-type:luminance" maskUnits="userSpaceOnUse" x="0" y="-26" width="409" height="430">
<path d="M409 -26H0V404H409V-26Z" fill="white"/>
</mask>
<g mask="url(#mask0_7_417)">
<path d="M408.938 388.784C407.853 383.649 390.877 384.491 386.536 384.206C376.965 383.575 367.384 383.127 357.78 382.729C343.484 382.148 329.176 381.788 314.874 381.36L313.708 381.321C266.364 379.588 218.938 379.568 171.556 380.272C119.253 381.05 63.1519 377.609 11.4402 384.25C8.57547 384.619 -0.734918 384.358 0.0463733 388.814C0.44787 391.108 4.21326 391.91 6.22075 392.418C11.9828 393.87 18.0758 393.895 24.0005 394.219C37.7491 395.007 51.5356 395.357 65.3113 395.529C99.8455 395.952 134.374 396.469 168.908 396.883C185.959 397.09 203.01 397.265 220.061 397.41C227.359 397.464 234.71 397.237 242.013 397.552C248.562 397.833 254.861 399.625 261.388 400.836C268.398 402.133 275.462 403.149 282.581 403.884C285.706 404.908 288.348 406.759 291.804 407.33C295.261 407.901 297.48 406.345 300.225 405.149C301.603 405.203 302.976 405.257 304.354 405.292C309.805 405.423 315.259 405.392 320.718 405.198C322.014 405.356 323.268 405.479 324.451 405.528C333.207 405.883 342.512 405.622 350.759 402.663C351.004 402.574 351.237 402.476 351.476 402.387C355.787 401.731 360.081 400.989 364.356 400.162C373.211 398.404 381.751 395.554 390.692 394.963C394.034 394.741 409.193 394.283 408.998 389.089C408.989 388.986 408.969 388.884 408.938 388.784Z" fill="#393939"/>
<path d="M83.1994 302.507L83.3545 302.459C84.8411 301.994 86.451 302.14 87.8302 302.865C89.2094 303.589 90.2448 304.833 90.7087 306.323L114.166 381.64C114.63 383.129 114.484 384.742 113.761 386.124C113.038 387.506 111.796 388.543 110.31 389.008L110.155 389.057C108.667 389.522 107.056 389.376 105.675 388.651C104.295 387.925 103.259 386.681 102.794 385.19L79.3372 309.873C78.8733 308.383 79.019 306.77 79.7421 305.388C80.4653 304.006 81.7067 302.969 83.1933 302.504L83.1994 302.507Z" fill="#948E8E"/>
<path d="M89.0843 337C87.4896 331.888 85.8966 326.774 84.3052 321.659C84.0247 320.752 81.6524 321.407 81.928 322.3C83.5227 327.412 85.1157 332.524 86.7071 337.636C86.9876 338.548 89.3599 337.888 89.0843 337Z" fill="#6A79A8"/>
<path d="M94.3409 322.039L108.279 366.839L111.725 377.771C112.251 379.477 113.073 381.321 113.201 383.116C113.364 385.247 112.217 387.638 110.091 388.353C107.359 389.261 104.908 387.17 103.997 384.773C103.761 384.157 103.599 383.496 103.402 382.865L99.8385 371.454C97.3087 363.328 94.7773 355.199 92.2442 347.069C91.9637 346.162 89.5913 346.818 89.867 347.71L96.9593 370.512C98.2717 374.77 99.5973 379.025 100.936 383.279C102.112 387.056 104.14 390.36 108.752 389.995C113.511 389.616 116.538 385.301 115.194 380.749C114.432 378.156 113.585 375.577 112.778 372.993C109.661 362.982 106.544 352.97 103.426 342.957C101.192 335.77 98.9542 328.586 96.7132 321.403C96.4326 320.495 94.0603 321.151 94.3359 322.039H94.3409Z" fill="#6A79A8"/>
<path d="M19.2786 385.173L42.7407 309.859C42.974 309.119 43.0592 308.341 42.9913 307.568C42.9235 306.796 42.704 306.044 42.3455 305.357C41.9869 304.67 41.4964 304.06 40.902 303.563C40.3077 303.066 39.6212 302.692 38.882 302.462L38.7295 302.413C37.9933 302.183 37.2191 302.1 36.4512 302.17C35.6832 302.24 34.9365 302.461 34.2537 302.82C33.5709 303.179 32.9653 303.669 32.4716 304.262C31.9779 304.856 31.6057 305.541 31.3763 306.279L7.91419 381.622C7.68394 382.359 7.60099 383.135 7.67009 383.904C7.73919 384.674 7.95898 385.422 8.31689 386.106C8.67481 386.79 9.16383 387.397 9.75598 387.892C10.3481 388.387 11.0318 388.76 11.7679 388.989L11.9254 389.039C12.6616 389.269 13.4358 389.351 14.2037 389.281C14.9717 389.211 15.7184 388.991 16.4012 388.632C17.084 388.273 17.6896 387.782 18.1833 387.189C18.677 386.595 19.0492 385.91 19.2786 385.173Z" fill="#948E8E"/>
<path d="M35.3778 337.187C36.9987 332 38.6147 326.814 40.2257 321.629C40.5112 320.717 38.1094 321.023 37.8387 321.891L32.976 337.429C32.6905 338.341 35.0874 338.035 35.3581 337.168L35.3778 337.187Z" fill="#6A79A8"/>
<path d="M25.2978 322.113C20.2678 338.257 15.2394 354.402 10.2126 370.547C9.22824 373.752 8.22747 376.961 7.2103 380.173C6.10782 383.708 6.37852 387.604 10.2569 389.379C14.6422 391.381 19.2834 388.674 20.6812 384.369C21.8231 380.868 22.8714 377.332 23.969 373.816C26.7383 364.94 29.5076 356.051 32.2769 347.148C32.5575 346.236 30.1606 346.547 29.8899 347.415C27.7538 354.266 25.6211 361.115 23.4916 367.963C22.1266 372.325 20.7665 376.689 19.4114 381.055C18.4024 384.285 17.3639 389.877 12.5603 388.324C8.13068 386.889 8.76559 382.589 9.81885 379.201L12.7719 369.713C15.7545 360.15 18.7338 350.587 21.7099 341.024C23.7048 334.633 25.6965 328.241 27.6849 321.846C27.9704 320.934 25.5685 321.245 25.2978 322.113Z" fill="#6A79A8"/>
<path d="M94.3949 339.258C95.0267 339.258 95.6326 339.51 96.0794 339.957C96.5261 340.405 96.7771 341.012 96.7771 341.645C96.7771 341.958 96.7155 342.269 96.5957 342.558C96.476 342.848 96.3006 343.111 96.0794 343.333C95.8582 343.554 95.5956 343.73 95.3065 343.85C95.0175 343.97 94.7078 344.032 94.3949 344.032H26.3907C26.0779 344.032 25.7681 343.97 25.4791 343.85C25.1901 343.73 24.9275 343.554 24.7063 343.333C24.4851 343.111 24.3096 342.848 24.1899 342.558C24.0702 342.269 24.0085 341.958 24.0085 341.645C24.0085 341.012 24.2595 340.405 24.7063 339.957C25.153 339.51 25.7589 339.258 26.3907 339.258H94.3949Z" fill="#948E8E"/>
<path d="M93.9469 339.993C95.5858 340.215 96.2552 342.735 94.6458 343.302C94.257 343.354 93.8631 343.354 93.4744 343.302H28.438C27.9811 343.341 27.5217 343.341 27.0648 343.302C25.6965 343.055 23.9838 340.289 26.2478 339.983C27.4438 339.821 28.1771 338.317 26.5382 338.538C24.791 338.775 22.8764 339.756 22.8173 341.778C22.7632 343.593 24.2938 344.633 25.9476 344.737C26.9073 344.816 27.9163 344.737 28.8662 344.737H89.7388C91.1169 344.737 92.5097 344.806 93.8878 344.737C98.096 344.535 99.6758 339.155 94.8427 338.504C93.8583 338.371 92.3522 339.751 93.9469 339.983V339.993Z" fill="#6A79A8"/>
<path d="M100.05 307.319H21.4296C18.5238 307.319 16.1682 309.679 16.1682 312.59V313.976C16.1682 316.887 18.5238 319.248 21.4296 319.248H100.05C102.956 319.248 105.312 316.887 105.312 313.976V312.59C105.312 309.679 102.956 307.319 100.05 307.319Z" fill="#959595"/>
<path d="M91.7176 314.306C83.07 314.139 73.9155 313.143 65.829 309.937C62.1278 308.458 58.2987 307.319 54.4548 307.319H21.4247C20.734 307.319 20.05 307.455 19.412 307.72C18.7739 307.985 18.1942 308.374 17.7061 308.863C17.2179 309.353 16.8308 309.934 16.5669 310.574C16.3031 311.213 16.1676 311.898 16.1682 312.59V313.976C16.1682 315.373 16.7219 316.713 17.7075 317.702C18.6931 318.69 20.0301 319.246 21.4247 319.248H100.05C100.742 319.249 101.428 319.113 102.067 318.849C102.707 318.585 103.289 318.197 103.779 317.707C104.269 317.218 104.657 316.636 104.923 315.996C105.189 315.356 105.326 314.669 105.326 313.976V313.759C105.326 314.41 93.135 314.316 92.0719 314.297L91.7176 314.306Z" fill="#948E8E"/>
<path d="M104.12 314.297C103.83 318.991 100.183 318.572 96.8753 318.572H22.9748C22.2243 318.623 21.4703 318.58 20.7304 318.444C16.5715 317.359 15.7102 308.951 20.4548 308.019C21.4167 307.922 22.3855 307.914 23.3488 307.995H61.1727C62.0685 307.995 63.6976 306.639 62.098 306.639H31.6125C28.0787 306.639 24.2987 306.244 20.7846 306.698C13.2297 307.684 12.8113 319.519 20.7846 319.923C27.9605 320.278 35.2448 319.923 42.4404 319.923H97.0082C101.177 319.923 106.168 319.341 106.497 314.006C106.561 313.02 104.174 313.513 104.12 314.307V314.297Z" fill="#6A79A8"/>
<path d="M305.185 233.469L329.464 144.521L335.454 146.163C336.787 146.528 337.92 147.409 338.605 148.61C339.291 149.812 339.473 151.237 339.111 152.573L316.21 236.487L305.185 233.469Z" fill="#676767"/>
<path d="M319.069 226.59L315.978 239.19H223.941V233.272C223.941 229.584 226.653 226.59 230.005 226.59H319.089H319.069Z" fill="#959595"/>
<path d="M319.069 226.014L315.978 235.496H223.941V231.058C223.941 228.277 226.653 226.023 230.005 226.023H319.089L319.069 226.014Z" fill="#8F8B8B"/>
<path d="M309.235 222.862C315.47 199.992 321.712 177.122 327.963 154.255C328.859 150.967 329.756 147.68 330.655 144.392L328.745 145.221C333.072 146.404 339.081 147.46 337.698 153.545C337.496 154.437 337.206 155.32 336.97 156.208L332.171 173.792C327.666 190.279 323.166 206.764 318.671 223.247L315.348 235.427C315.092 236.364 317.494 236.039 317.73 235.161C320.828 223.783 323.93 212.417 327.038 201.062C331.126 186.081 335.214 171.101 339.303 156.124C339.731 154.565 340.371 152.879 340.287 151.247C340.006 145.758 334.381 144.974 330.178 143.85C329.557 143.677 328.46 143.973 328.268 144.674C322.034 167.541 315.791 190.409 309.541 213.276C308.645 216.564 307.747 219.851 306.848 223.139C306.592 224.08 308.994 223.755 309.235 222.877V222.862Z" fill="#6A79A8"/>
<path d="M294.859 226.748H303.812C304.796 226.748 306.307 225.269 304.703 225.269H295.755C294.77 225.269 293.259 226.748 294.859 226.748Z" fill="#6A79A8"/>
<path d="M225.132 235.353C225.132 231.665 224.975 227.024 229.921 226.734C232.559 226.576 235.251 226.734 237.894 226.734H255.362C256.346 226.734 257.857 225.254 256.258 225.254H235.753C233.292 225.254 230.31 224.874 227.928 225.634C226.81 225.968 225.787 226.562 224.942 227.369C224.098 228.175 223.456 229.171 223.07 230.274C222.538 231.936 222.76 233.879 222.76 235.6C222.76 236.67 225.147 236.201 225.147 235.338L225.132 235.353Z" fill="#6A79A8"/>
<path d="M261.839 199.444V209.06H259.919C258.934 209.058 257.959 209.251 257.048 209.627C256.137 210.002 255.309 210.554 254.611 211.251C253.913 211.947 253.359 212.775 252.98 213.686C252.602 214.597 252.406 215.574 252.404 216.56C252.4 218.55 253.184 220.46 254.583 221.872C255.983 223.283 257.884 224.081 259.87 224.09H261.785L261.755 235.782L291.37 235.846L291.453 199.499L261.839 199.444Z" fill="#8FB1A5"/>
<path d="M292.561 235.846C292.59 223.683 292.618 211.519 292.644 199.355C292.644 198.941 292.285 198.734 291.896 198.734L262.301 198.67C261.873 198.67 260.663 198.887 260.663 199.543C260.663 202.748 260.663 205.953 260.663 209.159L262.297 208.286C259.969 208.286 257.759 208.286 255.657 209.474C254.402 210.146 253.337 211.126 252.562 212.322C251.788 213.518 251.328 214.892 251.227 216.314C251.158 217.617 251.41 218.916 251.96 220.099C252.51 221.281 253.342 222.31 254.382 223.094C256.494 224.697 258.812 224.805 261.366 224.81L260.618 224.194L260.589 235.896C260.589 236.985 262.976 236.532 262.981 235.644C262.981 231.739 262.989 227.836 263.005 223.937C263.005 223.528 262.646 223.321 262.257 223.321C260.672 223.321 259.092 223.405 257.611 222.715C256.551 222.2 255.636 221.429 254.948 220.47C254.261 219.512 253.823 218.397 253.674 217.226C253.529 216.109 253.662 214.974 254.061 213.922C254.459 212.869 255.11 211.931 255.957 211.19C257.591 209.839 259.403 209.819 261.371 209.824C261.799 209.824 263.01 209.607 263.01 208.952C263.01 205.746 263.01 202.541 263.01 199.336L261.376 200.209L290.966 200.278L290.218 199.656C290.188 211.82 290.16 223.983 290.134 236.147C290.134 237.232 292.521 236.778 292.521 235.891L292.561 235.846Z" fill="#6A79A8"/>
<path d="M274.173 189.439H273.631C273.108 189.439 272.585 189.39 272.071 189.291C271.255 189.13 270.463 188.867 269.714 188.507C268.121 187.723 266.763 186.532 265.776 185.055C265.576 184.77 265.396 184.472 265.235 184.163C265.146 184.01 265.072 183.842 264.999 183.669L264.88 183.418L264.826 183.295V183.265L264.802 183.196V183.142C264.743 182.994 264.688 182.841 264.629 182.693C264.57 182.545 264.516 182.323 264.462 182.136C264.344 181.731 264.285 181.371 264.206 180.982C264.087 180.194 264.048 179.396 264.088 178.6C264.189 176.913 264.662 175.27 265.471 173.787C265.889 173.009 266.405 172.288 267.007 171.642L267.238 171.396L267.267 171.366L267.341 171.292L267.391 171.248L267.489 171.149C267.637 171.021 267.735 170.912 267.917 170.76L268.459 170.311L268.951 169.931C270.261 169.053 271.652 168.302 273.105 167.687C274.434 167.076 275.669 166.548 276.742 165.932L276.84 165.878H276.806L276.86 165.843L277.077 165.7L277.51 165.424C277.761 165.251 277.967 165.099 278.204 164.931C278.44 164.763 278.671 164.561 278.893 164.374L279.537 163.792C280.328 163.03 281.04 162.191 281.664 161.287C282.199 160.503 282.673 159.678 283.081 158.821C283.17 158.624 283.253 158.432 283.342 158.244L283.559 157.697C283.711 157.347 283.805 157.011 283.908 156.711C284.085 156.099 284.238 155.606 284.302 155.266L284.43 154.738L284.528 155.271C284.62 155.78 284.672 156.296 284.686 156.814C284.716 157.639 284.667 158.465 284.538 159.28C284.367 160.347 284.079 161.392 283.682 162.396C283.192 163.604 282.549 164.742 281.767 165.784C281.565 166.065 281.329 166.331 281.098 166.612C280.866 166.893 280.605 167.145 280.35 167.416C280.094 167.687 279.764 167.964 279.483 168.205L279.08 168.526L278.878 168.688L278.829 168.733L278.725 168.807L278.607 168.886C277.99 169.334 277.345 169.744 276.678 170.114C276.028 170.493 275.369 170.834 274.709 171.159C273.481 171.749 272.295 172.425 271.161 173.181L270.782 173.452L270.462 173.703C270.358 173.782 270.201 173.94 270.073 174.054L269.97 174.147L269.915 174.192L269.95 174.157L269.797 174.315C269.39 174.731 269.032 175.193 268.729 175.691C268.424 176.192 268.165 176.72 267.957 177.269C267.76 177.818 267.609 178.382 267.504 178.955C267.419 179.515 267.378 180.08 267.381 180.647C267.381 180.918 267.381 181.214 267.44 181.445C267.449 181.576 267.465 181.706 267.489 181.835C267.523 181.993 267.553 182.151 267.587 182.328V182.387C267.587 182.387 267.587 182.446 267.587 182.348V182.372L267.617 182.466L267.666 182.659C267.696 182.787 267.734 182.914 267.779 183.038C267.856 183.288 267.947 183.533 268.05 183.773C268.249 184.241 268.484 184.693 268.754 185.124C269.661 186.532 270.878 187.713 272.312 188.576C272.743 188.818 273.187 189.037 273.641 189.232L274.173 189.439Z" fill="#BEBEBE"/>
<path d="M279.641 193.764L279.887 193.571C280.106 193.399 280.314 193.211 280.507 193.009C281.13 192.375 281.6 191.605 281.88 190.76C282.21 189.772 282.174 188.697 281.777 187.733C281.577 187.241 281.294 186.787 280.94 186.391C280.534 185.989 280.066 185.656 279.552 185.405C278.725 184.98 277.948 184.464 277.234 183.867L277.008 183.66C276.978 183.66 276.924 183.576 276.87 183.521L276.712 183.354C276.514 183.138 276.332 182.909 276.166 182.668C276.028 182.446 275.88 182.234 275.757 182.013C275.634 181.791 275.536 181.554 275.433 181.332C275.09 180.471 274.904 179.556 274.881 178.63C274.873 177.832 274.989 177.039 275.226 176.278C275.435 175.655 275.735 175.066 276.117 174.532L276.363 174.201L276.629 173.92C276.779 173.756 276.943 173.606 277.121 173.472C277.259 173.363 277.404 173.263 277.554 173.171L277.898 172.988L278.184 172.855L278.061 173.151L277.913 173.482C277.864 173.615 277.82 173.772 277.765 173.94C277.7 174.119 277.651 174.304 277.618 174.492L277.549 174.798C277.549 174.907 277.549 175.015 277.51 175.133C277.45 175.624 277.44 176.12 277.48 176.613C277.534 177.162 277.646 177.705 277.815 178.23C277.996 178.77 278.242 179.285 278.548 179.764C278.638 179.869 278.721 179.98 278.799 180.094C278.883 180.203 278.981 180.301 279.07 180.405L279.134 180.479L279.198 180.528L279.306 180.622L279.355 180.671C279.377 180.699 279.404 180.722 279.434 180.74L279.675 180.928C280.261 181.314 280.869 181.665 281.496 181.978C281.933 182.229 282.352 182.509 282.751 182.816C284.02 183.844 284.872 185.298 285.148 186.909C285.325 187.869 285.276 188.856 285.005 189.794C284.767 190.602 284.358 191.349 283.804 191.983C283.038 192.874 282 193.487 280.851 193.729C280.549 193.79 280.24 193.816 279.931 193.808L279.641 193.764Z" fill="#BEBEBE"/>
<path d="M259.378 217.492C259.099 217.297 258.891 217.015 258.788 216.689C258.685 216.364 258.692 216.014 258.807 215.693C258.837 215.628 259.024 215.426 259.024 215.387C259.024 215.347 258.827 215.387 258.841 215.431C258.856 215.476 259.216 215.693 259.235 215.717C259.351 215.86 259.431 216.029 259.467 216.21C259.693 217.113 262.07 216.486 261.844 215.569C261.352 213.597 258.758 213.651 257.414 214.647C255.938 215.742 256.056 217.66 257.508 218.706C258.197 219.199 260.372 218.212 259.383 217.488L259.378 217.492Z" fill="#6A79A8"/>
<path d="M215.785 249.866H213.797C211.484 249.866 209.609 251.745 209.609 254.062V385.089C209.609 387.407 211.484 389.285 213.797 389.285H215.785C218.099 389.285 219.974 387.407 219.974 385.089V254.062C219.974 251.745 218.099 249.866 215.785 249.866Z" fill="#959595"/>
<path d="M209.609 385.089V255.078H219.974V385.089C219.974 386.202 219.533 387.269 218.747 388.056C217.962 388.843 216.896 389.285 215.785 389.285H213.817C213.265 389.288 212.718 389.181 212.208 388.972C211.697 388.762 211.233 388.453 210.842 388.063C210.451 387.673 210.141 387.21 209.929 386.699C209.718 386.189 209.609 385.642 209.609 385.089Z" fill="#ACA7A7"/>
<path d="M218.783 254.195V371.065C218.783 375.725 219.167 380.572 218.783 385.222C218.38 390.035 211.189 389.512 210.805 384.946C210.77 384.556 210.805 384.152 210.805 383.762V308.897C210.805 290.878 210.839 272.86 210.805 254.841C210.805 254.54 210.805 254.235 210.805 253.934C210.805 252.864 208.418 253.332 208.418 254.195V382.973C208.418 385.439 208.295 388.038 210.938 389.428C214.831 391.48 221.032 389.428 221.165 384.635C221.219 382.717 221.165 380.784 221.165 378.861V311.58C221.165 292.683 221.2 273.787 221.165 254.871V253.919C221.165 252.849 218.783 253.318 218.783 254.18V254.195Z" fill="#6A79A8"/>
<path d="M375.026 249.866H373.037C370.724 249.866 368.849 251.745 368.849 254.062V385.089C368.849 387.407 370.724 389.285 373.037 389.285H375.026C377.339 389.285 379.214 387.407 379.214 385.089V254.062C379.214 251.745 377.339 249.866 375.026 249.866Z" fill="#959595"/>
<path d="M368.854 385.089V255.078H379.219V385.089C379.219 386.202 378.778 387.269 377.992 388.056C377.207 388.843 376.141 389.285 375.031 389.285H373.062C372.51 389.288 371.963 389.181 371.453 388.972C370.943 388.762 370.478 388.453 370.087 388.063C369.696 387.673 369.386 387.21 369.174 386.699C368.963 386.189 368.854 385.642 368.854 385.089Z" fill="#ACA7A7"/>
<path d="M378.023 254.195V371.065C378.023 375.725 378.412 380.572 378.023 385.222C377.619 390.035 370.429 389.512 370.045 384.946C370.01 384.556 370.045 384.152 370.045 383.762V308.897C370.045 290.878 370.079 272.86 370.045 254.841V253.934C370.045 252.864 367.658 253.332 367.658 254.195V382.973C367.658 385.439 367.54 388.038 370.178 389.428C374.071 391.48 380.272 389.428 380.41 384.635C380.459 382.717 380.41 380.784 380.41 378.861V311.58C380.41 292.683 380.41 273.78 380.41 254.871C380.41 254.555 380.41 254.235 380.41 253.919C380.41 252.849 378.023 253.318 378.023 254.18V254.195Z" fill="#6A79A8"/>
<path d="M401.609 239.298H189.005C186.282 239.298 184.075 241.177 184.075 243.495V247.43C184.075 249.747 186.282 251.626 189.005 251.626H401.609C404.332 251.626 406.539 249.747 406.539 247.43V243.495C406.539 241.177 404.332 239.298 401.609 239.298Z" fill="#ACA7A7"/>
<path d="M238.692 250.641H191.794C191.213 250.641 190.591 250.69 190.011 250.641C185.602 250.259 185.904 246.721 185.945 243.967C185.974 241.663 187.2 239.963 189.9 239.84C193.338 239.684 196.835 239.84 200.273 239.84H400.547C401.348 239.804 402.152 239.862 402.934 240.012C406.657 240.855 406.221 244.285 406.152 246.873C406.099 248.926 404.99 250.406 402.51 250.636C399.287 250.93 395.825 250.636 392.584 250.636H238.675C237.513 250.636 235.73 252.106 237.618 252.106H398.764C401.743 252.106 404.932 252.351 407.249 250.401C409.224 248.735 408.992 246.569 408.992 244.413C408.992 242.256 408.597 240.125 406.018 238.988C403.695 237.968 400.152 238.405 397.631 238.405H192.206C191.486 238.405 190.76 238.405 190.04 238.405C187.862 238.463 185.724 239.105 184.348 240.595C182.768 242.31 183.122 244.515 183.128 246.529C183.128 250.161 185.748 252.072 189.912 252.106C193.397 252.136 196.841 252.106 200.308 252.106H237.635C238.774 252.091 240.58 250.641 238.692 250.641Z" fill="#6A79A8"/>
<path d="M275.984 355.25C283.682 345.975 296.734 344.259 309.029 346.655C318.518 348.509 328.042 352.05 334.292 359.807C341.675 368.964 344.978 383.674 335.542 392.629C331.231 396.717 325.369 398.852 319.488 399.651C313.606 400.449 307.636 400.025 301.715 399.591C297.148 399.261 289.79 397.15 285.39 398.245C281.29 399.266 279.818 406.426 275.182 400.972C273.558 399.059 273.43 396.273 273.961 393.925L275.984 355.25Z" fill="#BEBEBE"/>
<path d="M334.292 359.807C328.042 352.05 318.518 348.509 309.029 346.655C296.724 344.259 283.682 345.975 275.984 355.25L274.015 392.382L274.183 392.269C276.471 390.888 277.987 388.595 280.089 387.002C281.851 385.676 284.479 385.967 286.487 386.509C287.698 386.839 288.353 387.135 289.007 388.245C289.663 389.4 290.138 390.649 290.415 391.948C290.907 394.049 291.03 396.199 289.622 397.974C293.663 398.196 298.398 399.35 301.691 399.591C307.597 400.025 313.582 400.454 319.463 399.651C325.345 398.847 331.206 396.717 335.518 392.629C344.978 383.674 341.67 368.988 334.292 359.807Z" fill="#959595"/>
<path d="M334.292 359.807C339.288 366.01 342.364 374.166 341.05 382.16C340.405 386.158 338.47 389.835 335.542 392.629C331.231 396.717 325.369 398.852 319.488 399.651C313.606 400.45 307.636 400.025 301.715 399.591C298.422 399.35 293.688 398.196 289.647 397.974C291.054 396.199 290.922 394.029 290.439 391.948C290.162 390.649 289.687 389.4 289.032 388.245C288.902 388.025 288.754 387.817 288.589 387.623C293.766 387.658 298.924 387.84 304.117 387.964C309.309 388.087 314.576 388.56 319.552 387.056C321.887 386.326 324.17 385.435 326.383 384.389C328.111 383.59 330.251 382.835 330.758 380.74C330.936 380.02 330.606 379.122 329.892 378.945C330.537 379.107 328.558 380.335 328.613 380.306C327.628 380.843 326.565 381.213 325.566 381.691C323.398 382.79 321.149 383.718 318.838 384.468C313.96 385.947 308.625 385.395 303.58 385.271C298.166 385.133 292.807 384.941 287.417 384.931C287.231 384.927 287.045 384.965 286.875 385.04C286.704 385.116 286.552 385.229 286.43 385.37C286.307 385.511 286.217 385.677 286.166 385.857C286.114 386.037 286.103 386.226 286.133 386.41C284.193 385.917 281.772 385.75 280.113 386.997C277.997 388.59 276.481 390.883 274.207 392.264L274.04 392.377L276.009 355.245C283.706 345.97 296.759 344.254 309.053 346.65C318.518 348.509 328.042 352.05 334.292 359.807Z" fill="#ACA7A7"/>
<path d="M260.569 394.004C259.801 394.645 259.422 395.977 259.944 396.835C260.241 397.265 260.644 397.611 261.114 397.84C261.584 398.068 262.105 398.17 262.626 398.137C263.674 398.121 264.694 397.793 265.555 397.195C266.239 396.702 267.292 395.824 267.1 394.882C267.042 394.647 266.935 394.427 266.786 394.237C266.636 394.046 266.448 393.89 266.234 393.778C265.805 393.556 265.337 393.42 264.856 393.378C263.655 393.23 261.903 393.201 260.8 393.837C260.719 393.887 260.642 393.943 260.569 394.004Z" fill="#BEBEBE"/>
<path d="M258.91 394.848C258.113 395.513 257.404 396.564 257.98 397.599C258.472 398.512 259.708 398.817 260.662 398.881C261.903 398.947 263.142 398.718 264.279 398.214C265.415 397.711 266.417 396.946 267.203 395.982C267.804 395.242 265.456 395.459 265.013 395.982C264.236 396.939 263.182 397.737 261.888 397.639C260.49 397.53 259.491 396.194 260.785 395.104C261.77 394.261 259.437 394.379 258.91 394.823V394.848Z" fill="#6A79A8"/>
<path d="M276.604 391.672C277.254 392.875 279.557 393.309 280.684 392.895C281.391 392.619 281.992 392.127 282.403 391.488C282.814 390.85 283.013 390.098 282.973 389.34C282.919 388.634 282.934 386.603 282.018 386.465C281.689 386.441 281.361 386.515 281.073 386.677C279.71 387.285 278.468 388.135 277.406 389.187C277.025 389.523 276.727 389.943 276.535 390.415C276.457 390.617 276.422 390.834 276.434 391.051C276.446 391.268 276.504 391.479 276.604 391.672Z" fill="#BEBEBE"/>
<path d="M275.511 392.067C276.988 393.916 279.675 393.931 281.678 392.944C282.608 392.503 283.361 391.759 283.814 390.834C284.4 389.542 284.056 388.151 283.814 386.82C283.716 386.292 281.319 386.82 281.437 387.456C281.713 388.935 282.087 390.449 281.157 391.771C280.665 392.441 280.251 392.713 279.424 392.456C278.756 392.233 278.172 391.809 277.751 391.243C277.382 390.779 275.128 391.583 275.516 392.067H275.511Z" fill="#6A79A8"/>
<path d="M283.889 349.851C294.367 344.5 307.223 346.078 317.942 349.974C327.747 353.529 335.587 360.62 338.801 370.714C341.921 380.493 339.249 390.735 329.799 395.75C319.527 401.204 306.445 399.611 295.406 397.846C291.503 397.22 286.408 396.189 282.904 398.64C281.703 399.483 280.365 401.796 278.967 402.146C277.382 402.535 275.713 399.902 275.3 398.729C274.817 397.126 274.771 395.423 275.167 393.797C275.364 392.757 272.952 393.107 272.775 394.044C272.061 397.742 273.568 404.399 278.603 403.729C280.202 403.517 281.374 402.422 282.481 401.347C283.081 400.681 283.74 400.07 284.45 399.522C285.926 398.536 287.762 398.645 289.44 398.743C292.133 398.901 294.785 399.424 297.443 399.848C300.894 400.355 304.371 400.663 307.858 400.77C314.256 401.046 320.723 400.77 326.802 398.655C331.95 396.855 336.837 393.684 339.731 388.955C342.349 384.68 342.994 379.551 342.276 374.654C340.661 363.668 333.077 354.614 323.14 350.063C310.993 344.495 295.174 342.409 282.919 348.672C281.442 349.412 282.781 350.428 283.903 349.851H283.889Z" fill="#6A79A8"/>
<path d="M253.964 386.943L248.663 384.97C248.063 384.744 247.334 384.344 247.393 383.762C247.434 383.607 247.505 383.461 247.602 383.333C247.699 383.206 247.821 383.098 247.959 383.018L252.733 379.334L251.813 376.583C251.321 372.855 251.768 369.063 253.113 365.554C254.458 362.044 256.66 358.927 259.516 356.488C260.761 355.433 262.611 354.767 263.729 353.667L264.526 352.188C264.506 349.887 264.485 347.585 264.462 345.284C265.844 345.417 267.185 345.831 268.404 346.499C269.622 347.166 270.692 348.075 271.549 349.17L273.572 351.004C275.595 351.404 277.721 350.807 279.7 351.641C287.348 354.861 289.661 366.74 284.868 378.17C280.074 389.601 269.984 396.263 262.331 393.038C260.288 392.18 258.561 390.528 256.878 388.851L253.964 386.943Z" fill="#ACA7A7"/>
<path d="M264.265 347.538C264.265 346.798 264.364 346.009 264.964 345.807C265.565 345.605 266.303 345.999 267.012 346.369C267.955 346.816 268.848 347.36 269.679 347.991C270.546 348.652 271.217 349.537 271.618 350.551C271.213 351.01 270.779 351.443 270.319 351.848C269.837 352.195 269.289 352.442 268.71 352.573C267.522 352.928 266.244 352.815 265.137 352.257C263.99 351.631 264.256 348.771 264.265 347.538Z" fill="#BEBEBE"/>
<path d="M248.855 385.454C248.166 385.202 247.457 384.847 247.467 384.211C247.477 383.575 248.097 383.013 248.678 382.465C249.415 381.728 250.225 381.067 251.094 380.493C251.587 380.192 252.571 379.566 253.137 379.66C253.811 379.763 254.515 380.789 254.786 381.341C255.578 382.973 254.909 385.035 253.59 386.213C252.615 387.081 250.026 385.873 248.855 385.454Z" fill="#BEBEBE"/>
<path d="M273.159 377.717C273.833 377.411 274.586 377.164 275.019 377.623C275.452 378.082 275.413 378.925 275.379 379.724C275.367 380.767 275.25 381.806 275.029 382.825C274.891 383.383 274.645 384.507 274.158 384.857C273.671 385.207 272.386 385.02 271.805 384.813C270.097 384.206 269.138 382.263 269.256 380.498C269.34 379.191 272.047 378.225 273.159 377.717Z" fill="#BEBEBE"/>
<path d="M276.486 378.175C275.782 378.387 275.009 378.53 274.631 378.013C274.252 377.495 274.424 376.676 274.562 375.887C274.714 374.854 274.971 373.84 275.329 372.859C275.541 372.327 275.935 371.247 276.466 370.966C276.998 370.685 278.248 371.05 278.789 371.331C280.404 372.164 281.093 374.22 280.734 375.951C280.473 377.233 277.662 377.825 276.486 378.175Z" fill="#BEBEBE"/>
<path d="M254.653 386.203L252 385.217L250.233 384.556C249.042 384.556 248.691 384.203 249.18 383.496C249.456 382.224 252.487 380.562 253.486 379.793C253.708 379.625 254.013 379.334 253.905 379.014C251.764 372.603 253.132 365.621 257.237 360.201C258.397 358.608 259.822 357.227 261.45 356.118C262.582 355.383 263.985 354.846 264.836 353.751C266.549 351.537 265.668 347.73 265.643 345.161L264.014 346.058C266.795 346.418 268.532 347.745 270.442 349.663C271.039 350.316 271.698 350.909 272.411 351.433C273.641 352.232 275.26 351.828 276.668 351.927C278.622 352.057 280.462 352.891 281.851 354.274C287.265 359.461 286.836 368.574 284.804 375.138C282.599 382.278 277.456 390.207 269.955 392.525C268.393 393.034 266.729 393.145 265.113 392.848C263.498 392.551 261.982 391.855 260.702 390.824C258.684 389.271 257.035 387.683 254.889 386.292C254.112 385.799 251.971 386.884 253.034 387.574C257.281 390.331 260.515 394.562 265.978 394.611C271.589 394.665 276.732 391.297 280.354 387.244C285.263 381.711 288.149 374.67 288.539 367.277C288.776 361.592 287.245 354.979 282.116 351.749C280.608 350.82 278.867 350.34 277.096 350.363C276.358 350.363 275.088 350.59 274.512 350.363C274.089 350.186 273.528 349.471 273.178 349.15C270.654 346.734 268.513 344.969 264.905 344.505C264.452 344.446 263.266 344.762 263.271 345.403L263.31 349.348C263.31 350.161 263.576 351.399 263.355 352.203C262.976 353.569 261.701 354.175 260.589 354.831C257.627 356.667 255.179 359.226 253.472 362.267C250.391 367.613 249.569 373.826 251.503 379.645C251.646 379.383 251.788 379.122 251.926 378.861C250.563 379.916 249.19 380.957 247.831 382.022C247.255 382.47 246.168 383.102 246.163 383.994C246.158 384.887 247.098 385.345 247.807 385.671C249.529 386.479 251.439 387.037 253.221 387.702C254.141 388.013 256.026 386.741 254.653 386.203Z" fill="#6A79A8"/>
<path d="M265.382 379.763C266.623 378.777 268.109 377.692 267.981 375.912C267.927 375.148 265.52 375.641 265.604 376.548C265.604 376.834 265.486 377.115 265.51 377.416C265.51 377.303 265.565 377.189 265.594 377.076C265.377 377.558 265.092 378.006 264.748 378.407C264.354 378.767 263.896 379.048 263.478 379.393C263.059 379.739 263.256 380.113 263.699 380.227C263.996 380.275 264.299 380.26 264.589 380.183C264.879 380.106 265.149 379.968 265.382 379.778V379.763Z" fill="#6A79A8"/>
<path d="M270.408 371.331C272.549 370.207 273.316 368.14 273.622 365.842C273.656 365.571 271.338 365.764 271.244 366.483C271.043 368.022 270.555 370.236 269.044 371.03C268.749 371.188 268.331 371.41 268.749 371.642C269.167 371.873 270.078 371.508 270.408 371.331Z" fill="#6A79A8"/>
<path d="M280.168 375.33C279.705 376.982 278.568 377.968 276.722 377.904C276.255 377.904 274.754 378.067 274.754 378.738C274.778 379.794 274.689 380.851 274.488 381.889C274.409 382.248 274.302 382.601 274.168 382.944C274.074 383.166 273.326 384.236 273.597 384.216C272.923 384.265 271.023 385.36 272.583 385.247C276.457 384.966 277.106 381.395 277.131 378.096L275.162 378.93C278.031 379.033 281.595 378.027 282.461 374.936C282.614 374.378 280.291 374.694 280.108 375.33H280.168Z" fill="#6A79A8"/>
<path d="M288.333 387.624C302.896 389.137 321.259 392.949 331.851 379.694C332.535 378.846 330.138 378.964 329.627 379.605C319.931 391.741 302.463 387.579 289.238 386.203C288.254 386.105 286.733 387.461 288.333 387.624Z" fill="#6A79A8"/>
<path d="M259.762 83.749L259.786 97.433C259.786 103.735 254.574 108.853 248.122 108.863C241.044 108.863 235.295 103.281 235.286 96.368V83.793L259.762 83.749Z" fill="#BEBEBE"/>
<path d="M234.149 90.0701C241.861 94.1631 253.211 96.2151 260.687 90.1991C261.642 89.4341 259.294 89.7061 258.851 90.0751C252.487 95.2041 242.821 92.6541 236.383 89.2421C235.753 88.8971 233.785 89.8831 234.149 90.0701Z" fill="#6A79A8"/>
<path d="M235.123 98.5131C243.328 102.379 253.211 103.306 260.717 97.3831C261.701 96.6041 259.348 96.8111 258.866 97.1911C252.369 102.329 244.042 100.791 237.063 97.5071C236.492 97.2401 234.316 98.1281 235.133 98.4931L235.123 98.5131Z" fill="#6A79A8"/>
<path d="M260.195 83.6751C260.058 83.9081 259.859 84.0971 259.619 84.2221C259.021 84.4791 258.4 84.6791 257.764 84.8191C257.05 85.0361 256.331 85.2431 255.603 85.4301C252.579 86.2391 249.44 86.5261 246.321 86.2781C244.442 86.1081 242.575 85.8281 240.729 85.4401C239.588 85.2081 238.456 84.9471 237.324 84.6951C236.374 84.4741 234.863 84.4491 234.439 83.4131C234.085 82.5801 234.233 81.5541 234.164 80.6721C233.736 75.4341 231.294 70.5678 227.352 67.101L226.545 66.4205C223.373 63.6253 220.828 60.1894 219.077 56.3386C217.325 52.4877 216.406 48.3091 216.381 44.0773C216.381 27.4049 230.221 13.8145 247.295 13.78C264.369 13.7455 278.278 27.3014 278.302 43.9737C278.292 48.1999 277.39 52.3763 275.655 56.2286C273.921 60.081 271.393 63.5223 268.237 66.3268L267.376 67.0566C264.126 69.9237 261.892 73.7706 261.012 78.0191C260.814 78.9461 260.684 79.8871 260.623 80.8341C260.574 81.6581 260.677 82.8861 260.195 83.6751Z" fill="#FFEEA7"/>
<path d="M234.075 84.459C234.075 88.039 234.075 91.62 234.075 95.204C234.075 100.924 236.492 105.969 241.886 108.439C243.919 109.333 246.13 109.748 248.349 109.651C250.567 109.555 252.734 108.949 254.682 107.882C259.014 105.362 260.982 101.067 260.972 96.19C260.972 92.189 260.972 88.19 260.972 84.192C260.972 82.994 258.571 83.389 258.571 84.4C258.571 92.018 260.977 107.478 249.48 107.857C246.158 107.966 243.303 107.453 240.65 105.175C237.815 102.739 236.556 99.351 236.496 95.687C236.432 91.875 236.496 88.063 236.496 84.252C236.496 83.058 234.095 83.448 234.095 84.459H234.075Z" fill="#6A79A8"/>
<path d="M259.014 84.04C255.598 85.144 252.177 86.012 248.565 85.889C244.401 85.756 240.286 84.725 236.26 83.754C235.719 83.62 233.657 84.503 234.292 84.661C238.982 85.795 243.8 86.974 248.658 86.845C252.497 86.742 256.184 85.726 259.816 84.552C261.425 84.03 259.904 83.749 259.004 84.059L259.014 84.04Z" fill="#6A79A8"/>
<path d="M235.399 81.14C235.035 75.05 232.244 70.1435 227.79 66.1245C223.154 62.0148 219.874 56.591 218.384 50.5716C215.732 39.5158 219.861 27.7894 228.666 20.6589C238.416 12.769 252.069 12.3696 262.602 18.9675C271.953 24.8307 277.889 35.4525 277.027 46.5822C276.429 53.9493 273.121 60.831 267.745 65.8928C263.03 70.3013 259.801 75.015 259.407 81.673C259.407 81.983 261.745 81.722 261.785 81.032C261.973 77.321 263.164 73.7317 265.23 70.6464C266.908 68.1808 269.241 66.4697 271.259 64.3099C275.613 59.6726 278.406 53.785 279.247 47.4748C280.807 35.4081 274.355 23.7015 263.99 17.6509C244.209 6.0971 216.248 19.4064 215.22 43.0318C214.933 50.4541 217.4 57.7198 222.145 63.4272C224.281 66.0062 227.066 67.9244 229.07 70.6119C231.449 73.8666 232.818 77.751 233.007 81.781C233.007 82.176 235.419 81.781 235.384 81.14H235.399Z" fill="#6A79A8"/>
<path d="M233.661 43.2439C237.54 46.9374 242.407 49.472 246.286 53.1605C246.867 53.7177 248.058 53.2493 248.496 52.7266C251.552 49.0676 255.736 46.4738 258.797 42.81C259.471 42.0012 257.084 42.1393 256.577 42.7458C253.521 46.4048 249.342 48.9986 246.281 52.6625L248.491 52.2236C244.612 48.5301 239.745 45.9955 235.866 42.307C235.251 41.7201 233.012 42.6275 233.661 43.2439Z" fill="#6A79A8"/>
<path d="M248.737 82.447C248.865 72.4365 248.57 62.3916 248.579 52.3665C248.579 51.7797 246.202 52.1791 246.202 53.0076C246.202 63.0228 246.488 73.0677 246.36 83.088C246.36 83.67 248.727 83.28 248.737 82.452V82.447Z" fill="#6A79A8"/>
<path d="M233.381 41.9074C233.252 41.9082 233.126 41.8748 233.014 41.8107C232.903 41.7466 232.81 41.6541 232.746 41.5425C232.225 40.7193 231.903 39.7855 231.806 38.8156C231.757 38.2616 231.85 37.7044 232.076 37.1963C232.302 36.6883 232.652 36.246 233.095 35.9111C233.313 35.7631 233.552 35.65 233.804 35.5758C234.22 35.1784 234.731 34.8945 235.287 34.7512C235.844 34.6079 236.428 34.61 236.984 34.7572C237.228 34.3537 237.565 34.0154 237.968 33.771C238.314 33.5581 238.701 33.422 239.103 33.3718C239.505 33.3216 239.914 33.3585 240.301 33.48C240.393 33.5094 240.483 33.544 240.572 33.5836C240.632 33.5035 240.698 33.4277 240.769 33.3568C241.33 32.7945 242.082 32.4642 242.875 32.4313C243.668 32.3984 244.445 32.6654 245.051 33.1792C245.289 33.3937 245.492 33.6451 245.651 33.9238C246.27 33.546 247.012 33.4256 247.718 33.5885C248.077 33.6826 248.412 33.8505 248.702 34.0816C249.235 33.8101 249.842 33.7201 250.43 33.8252C250.814 33.881 251.182 34.0197 251.507 34.2317C251.833 34.4437 252.108 34.724 252.315 35.0531C252.365 35.1354 252.41 35.2211 252.448 35.3095C253.04 35.1624 253.665 35.2254 254.216 35.488C254.767 35.7505 255.21 36.1963 255.47 36.7494C256.036 36.5 256.659 36.4114 257.272 36.4931C257.885 36.5749 258.464 36.8239 258.945 37.213C259.222 37.4432 259.448 37.7296 259.608 38.0533C259.767 38.3771 259.856 38.731 259.87 39.0917C259.897 39.5171 259.837 39.9434 259.695 40.3451C259.553 40.7467 259.331 41.1155 259.043 41.4291C258.977 41.5024 258.896 41.5617 258.807 41.6033C258.717 41.6449 258.62 41.6681 258.521 41.6714C258.422 41.6748 258.324 41.6582 258.232 41.6228C258.14 41.5873 258.055 41.5336 257.984 41.465C257.913 41.3963 257.856 41.314 257.817 41.223C257.779 41.132 257.758 41.0341 257.758 40.9351C257.758 40.8361 257.777 40.738 257.815 40.6467C257.853 40.5554 257.909 40.4727 257.98 40.4034C258.126 40.2368 258.237 40.043 258.308 39.8332C258.379 39.6233 258.408 39.4016 258.393 39.1805C258.392 39.028 258.36 38.8773 258.299 38.7375C258.238 38.5977 258.15 38.4716 258.039 38.3669C257.756 38.1469 257.417 38.0102 257.061 37.9719C256.704 37.9336 256.345 37.9952 256.021 38.1499C255.954 38.1829 255.89 38.2208 255.829 38.2633C255.835 38.7062 255.736 39.1441 255.541 39.5416C255.346 39.9391 255.06 40.285 254.707 40.5514C254.6 40.6294 254.474 40.677 254.342 40.6892C254.211 40.7013 254.078 40.6776 253.959 40.6204C253.839 40.5642 253.737 40.477 253.663 40.3677C253.588 40.2584 253.544 40.1311 253.536 39.9991C253.496 39.1687 253.762 38.3528 254.284 37.7061C254.24 37.5207 254.157 37.3469 254.041 37.1964C253.925 37.0458 253.778 36.922 253.609 36.8333C253.313 36.7044 252.979 36.692 252.674 36.7987C252.651 36.9665 252.611 37.1316 252.556 37.2919C252.444 37.6602 252.254 38.0001 251.999 38.2886C251.745 38.577 251.431 38.8072 251.08 38.9635C250.971 39.0085 250.853 39.0268 250.736 39.0169C250.618 39.0069 250.505 38.969 250.405 38.9062C250.306 38.8435 250.222 38.7578 250.162 38.6562C250.102 38.5547 250.068 38.4402 250.061 38.3225C250.045 37.8679 250.138 37.4161 250.332 37.005C250.527 36.594 250.817 36.2357 251.178 35.9604C251.158 35.9103 251.134 35.8624 251.104 35.8174C251.008 35.6724 250.882 35.5499 250.734 35.458C250.586 35.3661 250.42 35.3071 250.248 35.2849C250.061 35.2452 249.868 35.2452 249.682 35.2849C249.908 35.788 249.995 36.3428 249.933 36.8911C249.872 37.4394 249.664 37.961 249.332 38.4014C249.27 38.4765 249.192 38.5383 249.105 38.5832C249.018 38.6281 248.923 38.6553 248.826 38.6631C248.728 38.6709 248.63 38.6592 248.537 38.6286C248.444 38.5981 248.358 38.5493 248.284 38.4852C247.996 38.2252 247.767 37.906 247.614 37.5495C247.46 37.1929 247.385 36.8073 247.393 36.419C247.395 35.9717 247.502 35.5311 247.703 35.132C247.609 35.0791 247.508 35.0393 247.403 35.0136C247.168 34.9721 246.927 34.9881 246.7 35.0603C246.473 35.1324 246.267 35.2585 246.099 35.4279C246.121 36.1575 245.885 36.8715 245.434 37.4447C245.346 37.5515 245.23 37.6315 245.098 37.6759C244.967 37.7203 244.826 37.7273 244.691 37.6962C244.557 37.6654 244.434 37.5972 244.336 37.4995C244.239 37.4018 244.171 37.2786 244.14 37.1439C244.061 36.7772 244.057 36.3984 244.127 36.0299C244.198 35.6615 244.341 35.3109 244.548 34.9989C244.47 34.7199 244.315 34.4687 244.101 34.274C243.779 34.0154 243.375 33.8824 242.963 33.8996C242.552 33.9169 242.16 34.0832 241.861 34.3677C241.81 34.419 241.764 34.4751 241.723 34.5353C241.843 34.7117 241.943 34.9001 242.024 35.0975C242.187 35.4692 242.268 35.8719 242.261 36.2779C242.254 36.6839 242.16 37.0836 241.984 37.4497C241.932 37.5562 241.855 37.6486 241.76 37.7188C241.664 37.7891 241.553 37.8351 241.436 37.8531C241.319 37.871 241.2 37.8602 241.088 37.8218C240.976 37.7833 240.875 37.7182 240.793 37.6321C240.462 37.2727 240.218 36.8411 240.081 36.3714C239.945 35.9016 239.919 35.4064 240.006 34.9249L239.868 34.8657C239.68 34.8144 239.485 34.8024 239.292 34.8304C239.1 34.8584 238.916 34.9258 238.751 35.0284C238.609 35.1144 238.482 35.2207 238.372 35.344C238.874 35.6569 239.293 36.0874 239.592 36.5986C239.891 37.1097 240.062 37.6861 240.089 38.2781C240.091 38.379 240.073 38.4793 240.035 38.5728C239.997 38.6662 239.94 38.7509 239.868 38.8216C239.796 38.8922 239.711 38.9474 239.617 38.9837C239.523 39.02 239.422 39.0366 239.322 39.0326C238.916 39.0134 238.52 38.9075 238.159 38.7221C237.799 38.5367 237.482 38.276 237.23 37.9576C236.819 37.4562 236.588 36.8309 236.575 36.1823C236.443 36.1584 236.31 36.1435 236.177 36.138C236.259 36.2243 236.334 36.3166 236.403 36.4141C236.596 36.7173 236.706 37.0658 236.722 37.4248C236.739 37.7839 236.661 38.141 236.496 38.4605C236.36 38.7539 236.149 39.0055 235.883 39.1893C235.617 39.3731 235.307 39.4824 234.985 39.506C234.725 39.5144 234.466 39.4673 234.225 39.3679C233.984 39.2684 233.767 39.1188 233.588 38.929C233.466 38.806 233.361 38.6686 233.273 38.5197C233.268 38.5903 233.268 38.6612 233.273 38.7318C233.36 39.4682 233.614 40.1749 234.016 40.7979C234.113 40.9676 234.14 41.1688 234.09 41.358C234.04 41.5471 233.918 41.7091 233.75 41.8088C233.638 41.8738 233.511 41.9078 233.381 41.9074ZM234.577 36.9763C234.5 37.1075 234.453 37.2539 234.439 37.4053C234.439 37.4971 234.458 37.5879 234.493 37.6725C234.529 37.7572 234.581 37.8339 234.646 37.8984C234.68 37.939 234.722 37.972 234.769 37.9949C234.817 38.0179 234.869 38.0304 234.921 38.0315C235.03 38.0315 235.128 37.9083 235.177 37.8047C235.222 37.7205 235.246 37.6265 235.246 37.531C235.246 37.4356 235.222 37.3416 235.177 37.2573C235.118 37.1804 235.044 37.1163 234.959 37.0688C234.875 37.0214 234.782 36.9916 234.685 36.9812L234.577 36.9763Z" fill="#6A79A8"/>
<path d="M191.059 2.40868C196.503 5.16418 201.553 8.63878 206.075 12.7395C206.543 13.1636 208.684 12.2464 208.314 11.9259C203.79 7.83318 198.74 4.36538 193.298 1.61478C192.678 1.29918 190.768 2.28048 191.059 2.42838V2.40868Z" fill="#6A79A8"/>
<path d="M299.363 1.81194C293.225 3.27784 287.311 5.55984 281.777 8.59724C280.384 9.36164 282.52 9.52434 283.214 9.14954C288.38 6.31504 293.903 4.18724 299.633 2.82284C301.051 2.48754 300.785 1.47174 299.363 1.83664V1.81194Z" fill="#6A79A8"/>
<path d="M155.691 205.224C172.208 206.165 190.635 204.075 204.968 195.144C220.171 185.647 229.384 169.645 231.545 152.006C232.849 141.498 230.797 129.766 236.344 120.234C237.013 119.09 234.602 119.056 234.075 119.963C229.739 127.414 230.054 136.133 229.739 144.466C229.375 153.954 227.686 163.442 223.419 171.987C215.914 187.028 202.285 197.023 186.142 200.943C176.443 203.241 166.46 204.1 156.513 203.493C155.361 203.429 154.086 205.13 155.691 205.224Z" fill="#6A79A8"/>
<path d="M123.197 381.198C109.638 374.364 129.664 343.154 132.775 334.919C136.063 326.235 133.892 317.541 128.109 310.524C124.206 305.78 112.094 301.998 117.985 294.424C120.121 291.677 123.788 290.701 127.218 290.114C130.637 289.537 134.09 289.181 137.554 289.049C175.629 287.629 165.997 328.065 152.157 349.703C148.17 355.911 132.721 385.996 123.197 381.198Z" fill="#5C6377"/>
<path d="M158.284 333.977C156.035 339.638 153.648 345.156 150.483 350.368C148.805 353.125 147.225 355.946 145.561 358.712C141.348 365.724 136.747 373.757 130.127 378.772C127.558 380.745 124.811 381.642 122.222 379.191C119.762 376.874 119.54 373.224 119.86 370.068C120.711 361.641 124.86 353.539 128.581 346.063C130.235 342.73 132.061 339.456 133.528 336.033C136.245 329.712 135.866 322.625 133.459 316.274C133.036 315.145 130.663 315.781 131.082 316.91C133.464 323.193 133.794 330.042 131.003 336.25C129.448 339.702 127.627 343.041 125.948 346.433C122.099 354.225 117.512 363.096 117.33 371.992C117.207 378.111 121.597 384.724 128.38 381.938C131.741 380.557 134.453 377.722 136.791 375.034C139.889 371.34 142.709 367.421 145.227 363.308C151.108 354.003 156.503 344.569 160.568 334.307C161.06 333.006 158.698 332.937 158.284 333.987V333.977Z" fill="#6A79A8"/>
<path d="M147.727 222.167L139.67 270.059L138.981 273.175C103.195 271.696 57.585 262.968 34.9743 248.125C32.6463 246.601 29.1223 244.634 26.9321 242.913C24.4712 240.94 34.2262 225.358 35.5157 222.892C51.039 193.162 77.5379 170.784 106.68 155.019L113.895 151.839C114.515 144.703 117.217 135.24 122.813 122.414C123.227 121.467 124.388 118.8 124.625 118.267C134.719 95.1301 154.081 81.2831 167.872 87.3141C181.663 93.3451 184.656 117.005 174.561 140.142L172.755 144.289C170.148 150.448 167.104 156.412 163.644 162.135C160.066 167.899 157.202 172.111 154.711 178.709L148.599 215.84L147.727 222.167Z" fill="#ACA7A7"/>
<path d="M137.565 80.469C132.229 84.784 130.999 92.225 133.991 98.31C137.166 104.751 143.973 108.774 150.725 110.515C159.289 112.719 168.936 114.406 177.741 113.114C185.857 111.921 193.983 107.482 197.35 99.686C199.997 93.572 199.938 86.288 199.525 79.744C199.322 76.292 198.828 72.8621 198.048 69.4925C197.636 67.7306 197.123 65.9936 196.513 64.2901C196.198 63.4124 194.416 60.5966 194.593 59.8027C193.727 63.6441 190.685 66.7064 187.211 68.526C182.609 70.9423 177.057 71.8151 172.007 72.9148C162.164 75.06 151.415 73.827 141.906 77.885C140.346 78.541 138.885 79.411 137.565 80.469Z" fill="#929398"/>
<path d="M175.215 382.051C160.041 382.051 163.871 345.176 162.945 336.418C161.469 322.374 150.149 315.707 137.111 313.922C129.63 312.906 100.823 310.031 93.307 310.598C78.0495 310.934 20.1054 301.998 27.5521 244.067C27.5521 244.067 32.966 246.601 36.1848 248.786C66.4538 269.221 127.134 272.386 130.092 272.663C168.482 276.282 190.63 304.188 186.895 340.871C186.107 348.199 185.856 382.032 175.215 382.051Z" fill="#A7B0CA"/>
<path d="M175.216 382.051C160.042 382.051 163.871 345.176 162.946 336.418C161.469 322.374 150.149 315.707 137.111 313.922C129.63 312.906 100.823 310.031 93.3073 310.598C78.0497 310.934 24.1759 301.599 26.5679 247.518C26.5679 247.518 32.9662 251.532 36.1851 253.722C66.454 274.152 133.494 277.288 139.021 274.492C145.193 271.351 192.442 292.802 186.856 340.881C186.004 348.189 185.856 382.032 175.216 382.051Z" fill="#66676C"/>
<path d="M25.7705 246.478C24.2939 255.354 24.9485 264.132 28.4331 272.48C31.5113 279.662 36.0197 286.139 41.6826 291.515C47.2214 296.848 53.6003 301.23 60.5625 304.484C68.8459 308.36 77.8675 310.11 86.9137 310.983C99.9712 312.25 113.142 311.821 126.19 313.217C136.845 314.361 149.814 316.58 157.084 325.293C163.403 332.838 161.74 343.085 161.927 352.222C162.025 357.597 162.281 363.012 163.275 368.303C164.043 372.406 165.244 377.081 168.3 380.138C170.668 382.505 174.477 383.614 177.652 382.224C181.122 380.695 182.775 376.706 183.873 373.348C187.038 363.638 187.225 353.085 187.904 342.981C188.312 336.886 188.706 330.93 187.948 324.84C187.103 317.841 185.04 311.045 181.855 304.76C175.786 292.895 165.707 283.556 153.663 277.959C150.534 276.512 147.305 275.292 144.001 274.31C143.17 274.058 141.201 275.296 142.564 275.685C155.425 279.551 167.031 287.101 174.959 298.058C183.1 309.311 186.629 323.262 185.96 337.054C185.507 346.384 184.975 355.926 183.42 365.137C182.529 370.458 178.922 387.599 170.491 379.167C167.469 376.144 166.341 371.494 165.598 367.425C164.653 362.253 164.392 356.956 164.294 351.71C164.146 343.534 165.559 334.347 161.169 326.999C155.883 318.158 144.887 314.711 135.359 312.96C124.954 311.057 114.377 310.953 103.859 310.495C94.8034 310.12 85.6735 309.755 76.7896 307.911C68.5008 306.209 60.6126 302.937 53.549 298.27C40.7081 289.784 29.9934 276.479 27.749 260.887C27.0452 255.995 27.3651 251.064 28.1821 246.212C28.3495 245.225 25.9476 245.595 25.7951 246.478H25.7705Z" fill="#6A79A8"/>
<path d="M146.536 222.32L139.094 266.578C138.715 268.851 138.292 271.075 137.795 273.328L139.449 272.52C120.903 271.73 102.459 269.337 84.3249 265.364C68.4817 261.883 52.0921 257.351 38.0897 248.909C36.5541 247.982 35.0579 246.986 33.5321 246.049C32.6462 245.502 31.7553 244.964 30.8793 244.402C30.1213 243.909 28.3741 243.144 27.9262 242.341C27.0993 240.792 28.6349 237.996 29.2452 236.596C31.337 231.832 34.167 227.458 36.6279 222.902C45.518 206.608 57.2806 192.063 71.3461 179.971C84.2855 168.802 98.7309 159.201 114.367 152.307C114.594 152.208 115.061 151.986 115.091 151.686C115.898 143.012 118.895 134.604 122.173 126.596C125.683 118.02 129.472 109.563 135.265 102.255C143.785 91.5101 161.981 78.5511 173.468 93.0191C178.833 99.7751 179.832 109.346 179.202 117.675C178.474 127.301 175.235 136.123 171.391 144.876C169.091 150.267 166.461 155.51 163.516 160.577C160.977 164.847 158.152 168.96 155.942 173.398C154.893 175.513 153.756 177.658 153.373 180.001C153.077 181.769 152.784 183.543 152.492 185.321L147.442 216.003C147.294 216.886 149.686 216.496 149.814 215.693C151.402 206.057 152.989 196.421 154.573 186.786C155.292 182.437 155.735 178.571 157.61 174.552C160.022 169.379 163.324 164.729 166.189 159.812C169.066 154.734 171.655 149.497 173.941 144.126C178.021 134.811 181.323 125.343 181.692 115.067C181.973 107.083 180.708 98.2511 175.496 91.8901C165.382 79.5131 148.426 86.8161 138.893 95.8351C131.21 103.094 126.18 112.137 121.996 121.734C117.813 131.33 113.693 141.458 112.709 152.016L113.432 151.39C99.5726 157.504 86.7464 165.666 74.8898 175.119C60.0162 186.954 46.88 201.21 37.2825 217.704C34.2556 222.907 31.1992 228.203 28.4774 233.568C27.3011 235.876 25.9329 238.366 25.4653 240.965C24.9977 243.564 26.9418 244.284 28.9647 245.571C35.6829 249.866 42.4454 253.781 49.8429 256.789C57.9979 260.038 66.3688 262.714 74.8948 264.797C95.7413 269.956 117.057 272.978 138.514 273.817C138.981 273.817 140.039 273.59 140.167 273.008C143.401 258.436 145.301 243.49 147.772 228.77C148.149 226.512 148.53 224.255 148.913 222C149.061 221.117 146.669 221.506 146.536 222.31V222.32Z" fill="#6A79A8"/>
<path d="M158.531 151.464C157.054 152.889 155.966 154.994 156.114 156.479C156.193 156.904 156.391 157.298 156.684 157.615C156.978 157.932 157.355 158.158 157.773 158.269C160.775 159.221 162.862 156.148 163.551 153.683C163.846 152.613 164.097 150.833 162.916 150.231C161.513 149.467 159.855 150.196 158.531 151.464Z" fill="#6A79A8"/>
<path d="M105.065 160.369C112.079 177.569 132.937 184.227 149.976 180.513C151.419 180.203 151.104 179.069 149.671 179.379C133.543 182.89 113.988 175.779 107.438 159.728C107.113 158.935 104.77 159.654 105.065 160.369Z" fill="#6A79A8"/>
<path d="M114.544 201.92C123.089 208.961 132.534 215.377 143.214 218.651C150.838 220.91 158.853 221.522 166.73 220.446C174.605 219.46 182.258 217.31 189.99 215.624C197.959 213.883 205.917 211.797 213.93 210.303C218.852 209.386 224.266 208.616 229.188 209.923C235 211.467 238.583 217.063 236.718 223.04C236.309 224.347 238.687 224.317 238.992 223.311C240.385 218.844 239.317 213.898 235.63 210.84C232.677 208.375 228.607 207.645 224.842 207.551C216.017 207.329 207.428 210.091 198.923 212.078C190.99 213.932 182.962 215.638 174.984 217.315C166.76 219.041 158.383 219.938 150.05 218.395C137.337 216.038 126.194 208.636 116.38 200.544C115.568 199.873 113.491 201.037 114.549 201.92H114.544Z" fill="#6A79A8"/>
<path d="M114.761 211.373C111.877 212.186 110.12 208.804 109.618 206.511C109.069 204.097 109.207 201.577 110.017 199.237C111.001 196.53 113.147 194.015 116.125 193.561C117.451 193.396 118.797 193.645 119.977 194.275C121.156 194.906 122.113 195.886 122.715 197.082C123.138 197.881 125.437 197.082 125.092 196.446C121.647 189.957 112.596 191.515 108.934 196.939C105.489 202.023 106.296 215.017 115.076 212.542C116.484 212.147 116.193 210.973 114.761 211.378V211.373Z" fill="#6A79A8"/>
<path d="M112.463 90.1641H99.4201C98.4357 90.1641 96.9592 91.6831 98.5391 91.6831H111.592C112.576 91.6831 114.053 90.1641 112.473 90.1641H112.463Z" fill="#BEBEBE"/>
<path d="M118.019 84.888C108.574 78.352 100.964 69.493 95.9206 59.1617C95.5958 58.5009 93.3022 59.2997 93.5434 59.7978C98.6168 70.2116 106.278 79.144 115.79 85.736C116.38 86.145 118.472 85.198 118.019 84.888Z" fill="#ACA7A7"/>
<path d="M125.929 76.431C124.718 75.411 123.741 74.143 123.061 72.7118C122.382 71.2809 122.017 69.7207 121.991 68.1365C121.967 66.9974 119.58 67.4362 119.599 68.3732C119.617 70.1635 120.028 71.928 120.803 73.5413C121.578 75.155 122.697 76.577 124.083 77.708C124.787 78.3 126.928 77.259 125.943 76.431H125.929Z" fill="#BEBEBE"/>
<path d="M381.785 225.372H370.465L369.603 176.238C369.593 175.448 369.767 174.667 370.111 173.957C370.456 173.248 370.961 172.628 371.587 172.149C372.213 171.67 372.943 171.344 373.717 171.198C374.491 171.051 375.289 171.089 376.046 171.306L378.172 171.913C380.569 172.6 382.649 174.106 384.053 176.17C385.456 178.233 386.094 180.725 385.855 183.21L381.785 225.372Z" fill="#B9F7BA"/>
<path d="M385.614 238.326H366.035L361.605 211.698C361.551 211.348 361.572 210.991 361.668 210.65C361.763 210.31 361.931 209.994 362.159 209.724C362.388 209.454 362.671 209.236 362.991 209.086C363.311 208.936 363.659 208.856 364.012 208.853H387.666C388.019 208.856 388.367 208.936 388.687 209.086C389.007 209.236 389.29 209.454 389.519 209.724C389.747 209.994 389.915 210.31 390.01 210.65C390.106 210.991 390.127 211.348 390.073 211.698L385.614 238.326Z" fill="#959595"/>
<path d="M365.489 235.047L361.61 211.831C361.553 211.466 361.575 211.093 361.675 210.737C361.775 210.381 361.951 210.051 362.19 209.77C362.43 209.489 362.727 209.263 363.062 209.108C363.397 208.953 363.761 208.873 364.13 208.872H387.519C387.888 208.873 388.252 208.953 388.587 209.108C388.922 209.263 389.219 209.489 389.459 209.77C389.698 210.051 389.874 210.381 389.974 210.737C390.074 211.093 390.096 211.466 390.039 211.831L386.229 234.653L365.489 235.047Z" fill="#888888"/>
<path d="M366.827 235.639L364.293 220.446C363.83 217.668 363.366 214.89 362.9 212.112C362.762 211.289 362.378 210.312 363.491 209.76C363.86 209.577 364.78 209.76 365.169 209.76H384.054C385.742 209.76 388.72 208.946 388.902 211.486C389.04 213.389 388.183 215.776 387.873 217.645C386.889 223.615 385.891 229.588 384.881 235.565C384.674 236.803 387.105 236.526 387.292 235.407L390.245 217.704C390.595 215.603 391.23 213.355 391.328 211.224C391.446 208.162 388.793 207.94 386.475 207.94H365.922C363.786 207.94 360.941 207.792 360.37 210.509C359.986 212.314 360.862 214.745 361.148 216.501C362.25 223.092 363.351 229.684 364.45 236.275C364.642 237.424 367.024 236.817 366.827 235.639Z" fill="#6A79A8"/>
<path d="M378.822 171.982C378.408 170.585 377.997 169.189 377.586 167.795C377.291 166.809 374.919 167.45 375.209 168.432C375.623 169.827 376.031 171.228 376.445 172.623C376.74 173.609 379.112 172.968 378.822 171.982Z" fill="#6A79A8"/>
<path d="M372.955 172.746L369.544 169.753C368.944 169.225 366.729 170.133 367.33 170.665L370.745 173.664C371.346 174.191 373.561 173.279 372.955 172.746Z" fill="#6A79A8"/>
<path d="M384.206 205.435L386.416 204.917C386.825 204.824 387.558 204.424 387.401 203.897C387.243 203.369 386.416 203.404 386.022 203.517L383.813 204.01C383.404 204.104 382.671 204.503 382.828 205.031C382.986 205.559 383.813 205.524 384.206 205.416V205.435Z" fill="#6A79A8"/>
<path d="M381.549 180.587C383.458 180.018 385.279 179.188 386.963 178.121C387.361 177.865 387.243 177.702 386.835 177.628C386.241 177.606 385.654 177.764 385.152 178.082C383.98 178.855 382.708 179.464 381.372 179.892C381.17 179.956 380.181 180.202 380.274 180.547C380.368 180.893 381.401 180.617 381.554 180.547L381.549 180.587Z" fill="#6A79A8"/>
<path d="M381.278 187.9L383.581 184.285C383.803 183.94 382.73 184.078 382.641 184.093C382.218 184.172 381.499 184.32 381.243 184.724L378.925 188.334C378.699 188.684 379.777 188.546 379.865 188.526C380.289 188.452 381.007 188.299 381.263 187.9H381.278Z" fill="#6A79A8"/>
<path d="M371.05 194.399L368.59 191.283C368.009 190.553 365.725 191.421 366.394 192.269L368.855 195.385C369.436 196.12 371.72 195.247 371.05 194.399Z" fill="#6A79A8"/>
<path d="M383.227 193.275L389.625 191.953C389.925 191.894 390.988 191.682 391.003 191.253C391.018 190.824 390.324 190.868 390.019 190.933L383.621 192.254C383.325 192.313 382.257 192.525 382.242 192.954C382.228 193.383 382.922 193.339 383.227 193.275Z" fill="#6A79A8"/>
<path d="M378.433 197.363C378.162 197.086 377.948 196.758 377.805 196.397C377.663 196.036 377.593 195.65 377.601 195.262C377.641 194.103 375.239 194.498 375.204 195.484C375.177 196.011 375.255 196.539 375.434 197.035C375.613 197.531 375.89 197.987 376.248 198.374C376.471 198.553 376.743 198.661 377.028 198.683C377.313 198.706 377.599 198.643 377.847 198.502C378.197 198.339 378.832 197.792 378.433 197.363Z" fill="#6A79A8"/>
<path d="M371.917 204.143L366.828 202.343C366.256 202.242 365.666 202.347 365.164 202.639C364.913 202.763 364.382 203.132 364.884 203.295L369.973 205.095C370.545 205.196 371.134 205.091 371.636 204.799C371.882 204.676 372.419 204.306 371.917 204.143Z" fill="#6A79A8"/>
<path d="M377.306 204.74L378.128 203.428C378.408 202.975 377.882 202.787 377.503 202.792C377.183 202.796 376.868 202.861 376.573 202.984C376.32 203.067 376.096 203.221 375.928 203.428L375.106 204.74C374.825 205.194 375.352 205.381 375.736 205.371C376.055 205.371 376.371 205.307 376.666 205.184C376.917 205.099 377.139 204.946 377.306 204.74Z" fill="#6A79A8"/>
<path d="M383.355 175.429C384.374 174.139 385.596 173.023 386.972 172.125C387.386 171.854 387.223 171.558 386.805 171.489C386.209 171.444 385.615 171.604 385.122 171.943C383.625 172.917 382.295 174.127 381.184 175.528C380.85 175.947 381.475 176.021 381.775 176.021C382.359 176.028 382.925 175.815 383.36 175.424L383.355 175.429Z" fill="#6A79A8"/>
<path d="M383.252 199.883L385.855 197.392C385.939 197.335 386.003 197.252 386.038 197.157C386.073 197.061 386.077 196.957 386.051 196.858C386.024 196.76 385.968 196.672 385.89 196.607C385.812 196.542 385.715 196.503 385.614 196.495C385.317 196.436 385.011 196.446 384.72 196.525C384.428 196.604 384.158 196.749 383.931 196.949L381.332 199.439C381.248 199.497 381.185 199.579 381.15 199.675C381.114 199.77 381.11 199.875 381.136 199.973C381.163 200.071 381.219 200.159 381.297 200.224C381.375 200.289 381.472 200.328 381.573 200.336C381.869 200.395 382.174 200.384 382.465 200.305C382.756 200.227 383.025 200.082 383.252 199.883Z" fill="#6A79A8"/>
<path d="M372.748 187.367C371.771 187.185 370.86 186.74 370.115 186.08C369.781 185.789 368.934 186.08 368.58 186.209C368.412 186.273 367.551 186.618 367.876 186.899C368.708 187.619 369.717 188.103 370.799 188.299C371.371 188.371 371.952 188.266 372.463 187.999C372.65 187.91 373.29 187.471 372.748 187.367Z" fill="#6A79A8"/>
<path d="M377.655 181.904C377.611 180.646 377.572 179.384 377.527 178.121C377.527 177.441 375.121 177.895 375.15 178.762C375.194 180.025 375.234 181.282 375.278 182.545C375.278 183.225 377.685 182.776 377.655 181.904Z" fill="#6A79A8"/>
<path d="M371.67 180.252L370.686 177.623C370.435 176.943 368.087 177.663 368.309 178.264L369.293 180.893C369.549 181.568 371.897 180.853 371.67 180.252Z" fill="#6A79A8"/>
</g>
</svg>
