<svg width="409" height="430" viewBox="0 0 409 430" fill="none" xmlns="http://www.w3.org/2000/svg">
<g clip-path="url(#clip0_102_154198)">
<path d="M408.938 414.784C407.853 409.649 390.877 410.491 386.536 410.206C376.965 409.575 367.384 409.127 357.78 408.729C343.484 408.148 329.176 407.788 314.874 407.36L313.708 407.321C266.364 405.588 218.938 405.568 171.556 406.272C119.253 407.05 63.1519 403.609 11.4402 410.25C8.57547 410.619 -0.734918 410.358 0.0463733 414.814C0.44787 417.108 4.21326 417.91 6.22075 418.418C11.9828 419.87 18.0758 419.895 24.0005 420.219C37.7491 421.007 51.5356 421.357 65.3113 421.529C99.8455 421.952 134.374 422.469 168.908 422.883C185.959 423.09 203.01 423.265 220.061 423.41C227.359 423.464 234.71 423.237 242.013 423.552C248.562 423.833 254.861 425.625 261.388 426.836C268.398 428.133 275.462 429.149 282.581 429.884C285.706 430.908 288.348 432.759 291.804 433.33C295.261 433.901 297.48 432.345 300.225 431.149C301.603 431.203 302.976 431.257 304.354 431.292C309.805 431.423 315.259 431.392 320.718 431.198C322.014 431.356 323.268 431.479 324.451 431.528C333.207 431.883 342.512 431.622 350.759 428.663C351.004 428.574 351.237 428.476 351.476 428.387C355.787 427.731 360.081 426.989 364.356 426.162C373.211 424.404 381.751 421.554 390.692 420.963C394.034 420.741 409.193 420.283 408.998 415.089C408.989 414.986 408.969 414.884 408.938 414.784Z" fill="#EFEFEF"/>
<path d="M83.1994 328.507L83.3545 328.459C84.8411 327.994 86.451 328.14 87.8302 328.865C89.2094 329.589 90.2448 330.833 90.7087 332.323L114.166 407.64C114.63 409.129 114.484 410.742 113.761 412.124C113.038 413.506 111.796 414.543 110.31 415.008L110.155 415.057C108.667 415.522 107.056 415.376 105.675 414.651C104.295 413.925 103.259 412.681 102.794 411.19L79.3372 335.873C78.8733 334.383 79.019 332.77 79.7421 331.388C80.4653 330.006 81.7067 328.969 83.1933 328.504L83.1994 328.507Z" fill="#F9F9F9"/>
<path d="M89.0843 363C87.4896 357.888 85.8966 352.774 84.3052 347.659C84.0247 346.752 81.6524 347.407 81.928 348.3C83.5227 353.412 85.1157 358.524 86.7071 363.636C86.9876 364.548 89.3599 363.888 89.0843 363Z" fill="#6A79A8"/>
<path d="M94.3409 348.039L108.279 392.839L111.725 403.771C112.251 405.477 113.073 407.321 113.201 409.116C113.364 411.247 112.217 413.638 110.091 414.353C107.359 415.261 104.908 413.17 103.997 410.773C103.761 410.157 103.599 409.496 103.402 408.865L99.8385 397.454C97.3087 389.328 94.7773 381.199 92.2442 373.069C91.9637 372.162 89.5913 372.818 89.867 373.71L96.9593 396.512C98.2717 400.77 99.5973 405.025 100.936 409.279C102.112 413.056 104.14 416.36 108.752 415.995C113.511 415.616 116.538 411.301 115.194 406.749C114.432 404.156 113.585 401.577 112.778 398.993C109.661 388.982 106.544 378.97 103.426 368.957C101.192 361.77 98.9542 354.586 96.7132 347.403C96.4326 346.495 94.0603 347.151 94.3359 348.039H94.3409Z" fill="#6A79A8"/>
<path d="M19.2786 411.173L42.7407 335.859C42.974 335.119 43.0592 334.341 42.9913 333.568C42.9235 332.796 42.704 332.044 42.3455 331.357C41.9869 330.67 41.4964 330.06 40.902 329.563C40.3077 329.066 39.6212 328.692 38.882 328.462L38.7295 328.413C37.9933 328.183 37.2191 328.1 36.4512 328.17C35.6832 328.24 34.9365 328.461 34.2537 328.82C33.5709 329.179 32.9653 329.669 32.4716 330.262C31.9779 330.856 31.6057 331.541 31.3763 332.279L7.91419 407.622C7.68394 408.359 7.60099 409.135 7.67009 409.904C7.73919 410.674 7.95898 411.422 8.31689 412.106C8.67481 412.79 9.16383 413.397 9.75598 413.892C10.3481 414.387 11.0318 414.76 11.7679 414.989L11.9254 415.039C12.6616 415.269 13.4358 415.351 14.2037 415.281C14.9717 415.211 15.7184 414.991 16.4012 414.632C17.084 414.273 17.6896 413.782 18.1833 413.189C18.677 412.595 19.0492 411.91 19.2786 411.173Z" fill="#F9F9F9"/>
<path d="M35.3778 363.187C36.9987 358 38.6147 352.814 40.2257 347.629C40.5112 346.717 38.1094 347.023 37.8387 347.891L32.976 363.429C32.6905 364.341 35.0874 364.035 35.3581 363.168L35.3778 363.187Z" fill="#6A79A8"/>
<path d="M25.2978 348.113C20.2678 364.257 15.2394 380.402 10.2126 396.547C9.22824 399.752 8.22747 402.961 7.2103 406.173C6.10782 409.708 6.37852 413.604 10.2569 415.379C14.6422 417.381 19.2834 414.674 20.6812 410.369C21.8231 406.868 22.8714 403.332 23.969 399.816C26.7383 390.94 29.5076 382.051 32.2769 373.148C32.5575 372.236 30.1606 372.547 29.8899 373.415C27.7538 380.266 25.6211 387.115 23.4916 393.963C22.1266 398.325 20.7665 402.689 19.4114 407.055C18.4024 410.285 17.3639 415.877 12.5603 414.324C8.13068 412.889 8.76559 408.589 9.81885 405.201L12.7719 395.713C15.7545 386.15 18.7338 376.587 21.7099 367.024C23.7048 360.633 25.6965 354.241 27.6849 347.846C27.9704 346.934 25.5685 347.245 25.2978 348.113Z" fill="#6A79A8"/>
<path d="M94.3949 365.258C95.0267 365.258 95.6326 365.51 96.0794 365.957C96.5261 366.405 96.7771 367.012 96.7771 367.645C96.7771 367.958 96.7155 368.269 96.5957 368.558C96.476 368.848 96.3006 369.111 96.0794 369.333C95.8582 369.554 95.5956 369.73 95.3065 369.85C95.0175 369.97 94.7078 370.032 94.3949 370.032H26.3907C26.0779 370.032 25.7681 369.97 25.4791 369.85C25.1901 369.73 24.9275 369.554 24.7063 369.333C24.4851 369.111 24.3096 368.848 24.1899 368.558C24.0702 368.269 24.0085 367.958 24.0085 367.645C24.0085 367.012 24.2595 366.405 24.7063 365.957C25.153 365.51 25.7589 365.258 26.3907 365.258H94.3949Z" fill="#F9F9F9"/>
<path d="M93.9469 365.993C95.5858 366.215 96.2552 368.735 94.6458 369.302C94.257 369.354 93.8631 369.354 93.4744 369.302H28.438C27.9811 369.341 27.5217 369.341 27.0648 369.302C25.6965 369.055 23.9838 366.289 26.2478 365.983C27.4438 365.821 28.1771 364.317 26.5382 364.538C24.791 364.775 22.8764 365.756 22.8173 367.778C22.7632 369.593 24.2938 370.633 25.9476 370.737C26.9073 370.816 27.9163 370.737 28.8662 370.737H89.7388C91.1169 370.737 92.5097 370.806 93.8878 370.737C98.096 370.535 99.6758 365.155 94.8427 364.504C93.8583 364.371 92.3522 365.751 93.9469 365.983V365.993Z" fill="#6A79A8"/>
<path d="M100.05 333.319H21.4296C18.5238 333.319 16.1682 335.679 16.1682 338.59V339.976C16.1682 342.887 18.5238 345.248 21.4296 345.248H100.05C102.956 345.248 105.312 342.887 105.312 339.976V338.59C105.312 335.679 102.956 333.319 100.05 333.319Z" fill="#EFEFEF"/>
<path d="M91.7176 340.306C83.07 340.139 73.9155 339.143 65.829 335.937C62.1278 334.458 58.2987 333.319 54.4548 333.319H21.4247C20.734 333.319 20.05 333.455 19.412 333.72C18.7739 333.985 18.1942 334.374 17.7061 334.863C17.2179 335.353 16.8308 335.934 16.5669 336.574C16.3031 337.213 16.1676 337.898 16.1682 338.59V339.976C16.1682 341.373 16.7219 342.713 17.7075 343.702C18.6931 344.69 20.0301 345.246 21.4247 345.248H100.05C100.742 345.249 101.428 345.113 102.067 344.849C102.707 344.585 103.289 344.197 103.779 343.707C104.269 343.218 104.657 342.636 104.923 341.996C105.189 341.356 105.326 340.669 105.326 339.976V339.759C105.326 340.41 93.135 340.316 92.0719 340.297L91.7176 340.306Z" fill="#F9F9F9"/>
<path d="M104.12 340.297C103.83 344.991 100.183 344.572 96.8753 344.572H22.9748C22.2243 344.623 21.4703 344.58 20.7304 344.444C16.5715 343.359 15.7102 334.951 20.4548 334.019C21.4167 333.922 22.3855 333.914 23.3488 333.995H61.1727C62.0685 333.995 63.6976 332.639 62.098 332.639H31.6125C28.0787 332.639 24.2987 332.244 20.7846 332.698C13.2297 333.684 12.8113 345.519 20.7846 345.923C27.9605 346.278 35.2448 345.923 42.4404 345.923H97.0082C101.177 345.923 106.168 345.341 106.497 340.006C106.561 339.02 104.174 339.513 104.12 340.307V340.297Z" fill="#6A79A8"/>
<path d="M305.185 259.469L329.464 170.521L335.454 172.163C336.787 172.528 337.92 173.409 338.605 174.61C339.291 175.812 339.473 177.237 339.111 178.573L316.21 262.487L305.185 259.469Z" fill="white"/>
<path d="M319.069 252.59L315.978 265.19H223.941V259.272C223.941 255.584 226.653 252.59 230.005 252.59H319.089H319.069Z" fill="#EFEFEF"/>
<path d="M319.069 252.014L315.978 261.496H223.941V257.058C223.941 254.277 226.653 252.023 230.005 252.023H319.089L319.069 252.014Z" fill="white"/>
<path d="M309.235 248.862C315.47 225.992 321.712 203.122 327.963 180.255C328.859 176.967 329.756 173.68 330.655 170.392L328.745 171.221C333.072 172.404 339.081 173.46 337.698 179.545C337.496 180.437 337.206 181.32 336.97 182.208L332.171 199.792C327.666 216.279 323.166 232.764 318.671 249.247L315.348 261.427C315.092 262.364 317.494 262.039 317.73 261.161C320.828 249.783 323.93 238.417 327.038 227.062C331.126 212.081 335.214 197.101 339.303 182.124C339.731 180.565 340.371 178.879 340.287 177.247C340.006 171.758 334.381 170.974 330.178 169.85C329.557 169.677 328.46 169.973 328.268 170.674C322.034 193.541 315.791 216.409 309.541 239.276C308.645 242.564 307.747 245.851 306.848 249.139C306.592 250.08 308.994 249.755 309.235 248.877V248.862Z" fill="#6A79A8"/>
<path d="M294.859 252.748H303.812C304.796 252.748 306.307 251.269 304.703 251.269H295.755C294.77 251.269 293.259 252.748 294.859 252.748Z" fill="#6A79A8"/>
<path d="M225.132 261.353C225.132 257.665 224.975 253.024 229.921 252.734C232.559 252.576 235.251 252.734 237.894 252.734H255.362C256.346 252.734 257.857 251.254 256.258 251.254H235.753C233.292 251.254 230.31 250.874 227.928 251.634C226.81 251.968 225.787 252.562 224.942 253.369C224.098 254.175 223.456 255.171 223.07 256.274C222.538 257.936 222.76 259.879 222.76 261.6C222.76 262.67 225.147 262.201 225.147 261.338L225.132 261.353Z" fill="#6A79A8"/>
<path d="M261.839 225.444V235.06H259.919C258.934 235.058 257.959 235.251 257.048 235.627C256.137 236.002 255.309 236.554 254.611 237.251C253.913 237.947 253.359 238.775 252.98 239.686C252.602 240.597 252.406 241.574 252.404 242.56C252.4 244.55 253.184 246.46 254.583 247.872C255.983 249.283 257.884 250.081 259.87 250.09H261.785L261.755 261.782L291.37 261.846L291.453 225.499L261.839 225.444Z" fill="white"/>
<path d="M292.561 261.846C292.59 249.683 292.618 237.519 292.644 225.355C292.644 224.941 292.285 224.734 291.896 224.734L262.301 224.67C261.873 224.67 260.663 224.887 260.663 225.543C260.663 228.748 260.663 231.953 260.663 235.159L262.297 234.286C259.969 234.286 257.759 234.286 255.657 235.474C254.402 236.146 253.337 237.126 252.562 238.322C251.788 239.518 251.328 240.892 251.227 242.314C251.158 243.617 251.41 244.916 251.96 246.099C252.51 247.281 253.342 248.31 254.382 249.094C256.494 250.697 258.812 250.805 261.366 250.81L260.618 250.194L260.589 261.896C260.589 262.985 262.976 262.532 262.981 261.644C262.981 257.739 262.989 253.836 263.005 249.937C263.005 249.528 262.646 249.321 262.257 249.321C260.672 249.321 259.092 249.405 257.611 248.715C256.551 248.2 255.636 247.429 254.948 246.47C254.261 245.512 253.823 244.397 253.674 243.226C253.529 242.109 253.662 240.974 254.061 239.922C254.459 238.869 255.11 237.931 255.957 237.19C257.591 235.839 259.403 235.819 261.371 235.824C261.799 235.824 263.01 235.607 263.01 234.952C263.01 231.746 263.01 228.541 263.01 225.336L261.376 226.209L290.966 226.278L290.218 225.656C290.188 237.82 290.16 249.983 290.134 262.147C290.134 263.232 292.521 262.778 292.521 261.891L292.561 261.846Z" fill="#6A79A8"/>
<path d="M274.173 215.439H273.631C273.108 215.439 272.585 215.39 272.071 215.291C271.255 215.13 270.463 214.867 269.714 214.507C268.121 213.723 266.763 212.532 265.776 211.055C265.576 210.77 265.396 210.472 265.235 210.163C265.146 210.01 265.072 209.842 264.999 209.669L264.88 209.418L264.826 209.295V209.265L264.802 209.196V209.142C264.743 208.994 264.688 208.841 264.629 208.693C264.57 208.545 264.516 208.323 264.462 208.136C264.344 207.731 264.285 207.371 264.206 206.982C264.087 206.194 264.048 205.396 264.088 204.6C264.189 202.913 264.662 201.27 265.471 199.787C265.889 199.009 266.405 198.288 267.007 197.642L267.238 197.396L267.267 197.366L267.341 197.292L267.391 197.248L267.489 197.149C267.637 197.021 267.735 196.912 267.917 196.76L268.459 196.311L268.951 195.931C270.261 195.053 271.652 194.302 273.105 193.687C274.434 193.076 275.669 192.548 276.742 191.932L276.84 191.878H276.806L276.86 191.843L277.077 191.7L277.51 191.424C277.761 191.251 277.967 191.099 278.204 190.931C278.44 190.763 278.671 190.561 278.893 190.374L279.537 189.792C280.328 189.03 281.04 188.191 281.664 187.287C282.199 186.503 282.673 185.678 283.081 184.821C283.17 184.624 283.253 184.432 283.342 184.244L283.559 183.697C283.711 183.347 283.805 183.011 283.908 182.711C284.085 182.099 284.238 181.606 284.302 181.266L284.43 180.738L284.528 181.271C284.62 181.78 284.672 182.296 284.686 182.814C284.716 183.639 284.667 184.465 284.538 185.28C284.367 186.347 284.079 187.392 283.682 188.396C283.192 189.604 282.549 190.742 281.767 191.784C281.565 192.065 281.329 192.331 281.098 192.612C280.866 192.893 280.605 193.145 280.35 193.416C280.094 193.687 279.764 193.964 279.483 194.205L279.08 194.526L278.878 194.688L278.829 194.733L278.725 194.807L278.607 194.886C277.99 195.334 277.345 195.744 276.678 196.114C276.028 196.493 275.369 196.834 274.709 197.159C273.481 197.749 272.295 198.425 271.161 199.181L270.782 199.452L270.462 199.703C270.358 199.782 270.201 199.94 270.073 200.054L269.97 200.147L269.915 200.192L269.95 200.157L269.797 200.315C269.39 200.731 269.032 201.193 268.729 201.691C268.424 202.192 268.165 202.72 267.957 203.269C267.76 203.818 267.609 204.382 267.504 204.955C267.419 205.515 267.378 206.08 267.381 206.647C267.381 206.918 267.381 207.214 267.44 207.445C267.449 207.576 267.465 207.706 267.489 207.835C267.523 207.993 267.553 208.151 267.587 208.328V208.387C267.587 208.387 267.587 208.446 267.587 208.348V208.372L267.617 208.466L267.666 208.659C267.696 208.787 267.734 208.914 267.779 209.038C267.856 209.288 267.947 209.533 268.05 209.773C268.249 210.241 268.484 210.693 268.754 211.124C269.661 212.532 270.878 213.713 272.312 214.576C272.743 214.818 273.187 215.037 273.641 215.232L274.173 215.439Z" fill="white"/>
<path d="M279.641 219.764L279.887 219.571C280.106 219.399 280.314 219.211 280.507 219.009C281.13 218.375 281.6 217.605 281.88 216.76C282.21 215.772 282.174 214.697 281.777 213.733C281.577 213.241 281.294 212.787 280.94 212.391C280.534 211.989 280.066 211.656 279.552 211.405C278.725 210.98 277.948 210.464 277.234 209.867L277.008 209.66C276.978 209.66 276.924 209.576 276.87 209.521L276.712 209.354C276.514 209.138 276.332 208.909 276.166 208.668C276.028 208.446 275.88 208.234 275.757 208.013C275.634 207.791 275.536 207.554 275.433 207.332C275.09 206.471 274.904 205.556 274.881 204.63C274.873 203.832 274.989 203.039 275.226 202.278C275.435 201.655 275.735 201.066 276.117 200.532L276.363 200.201L276.629 199.92C276.779 199.756 276.943 199.606 277.121 199.472C277.259 199.363 277.404 199.263 277.554 199.171L277.898 198.988L278.184 198.855L278.061 199.151L277.913 199.482C277.864 199.615 277.82 199.772 277.765 199.94C277.7 200.119 277.651 200.304 277.618 200.492L277.549 200.798C277.549 200.907 277.549 201.015 277.51 201.133C277.45 201.624 277.44 202.12 277.48 202.613C277.534 203.162 277.646 203.705 277.815 204.23C277.996 204.77 278.242 205.285 278.548 205.764C278.638 205.869 278.721 205.98 278.799 206.094C278.883 206.203 278.981 206.301 279.07 206.405L279.134 206.479L279.198 206.528L279.306 206.622L279.355 206.671C279.377 206.699 279.404 206.722 279.434 206.74L279.675 206.928C280.261 207.314 280.869 207.665 281.496 207.978C281.933 208.229 282.352 208.509 282.751 208.816C284.02 209.844 284.872 211.298 285.148 212.909C285.325 213.869 285.276 214.856 285.005 215.794C284.767 216.602 284.358 217.349 283.804 217.983C283.038 218.874 282 219.487 280.851 219.729C280.549 219.79 280.24 219.816 279.931 219.808L279.641 219.764Z" fill="white"/>
<path d="M259.378 243.492C259.099 243.297 258.891 243.015 258.788 242.689C258.685 242.364 258.692 242.014 258.807 241.693C258.837 241.628 259.024 241.426 259.024 241.387C259.024 241.347 258.827 241.387 258.841 241.431C258.856 241.476 259.216 241.693 259.235 241.717C259.351 241.86 259.431 242.029 259.467 242.21C259.693 243.113 262.07 242.486 261.844 241.569C261.352 239.597 258.758 239.651 257.414 240.647C255.938 241.742 256.056 243.66 257.508 244.706C258.197 245.199 260.372 244.212 259.383 243.488L259.378 243.492Z" fill="#6A79A8"/>
<path d="M215.785 275.866H213.797C211.484 275.866 209.609 277.745 209.609 280.062V411.089C209.609 413.407 211.484 415.285 213.797 415.285H215.785C218.099 415.285 219.974 413.407 219.974 411.089V280.062C219.974 277.745 218.099 275.866 215.785 275.866Z" fill="#EFEFEF"/>
<path d="M209.609 411.089V281.078H219.974V411.089C219.974 412.202 219.533 413.269 218.747 414.056C217.962 414.843 216.896 415.285 215.785 415.285H213.817C213.265 415.288 212.718 415.181 212.208 414.972C211.697 414.762 211.233 414.453 210.842 414.063C210.451 413.673 210.141 413.21 209.929 412.699C209.718 412.189 209.609 411.642 209.609 411.089Z" fill="#F9F9F9"/>
<path d="M218.783 280.195V397.065C218.783 401.725 219.167 406.572 218.783 411.222C218.38 416.035 211.189 415.512 210.805 410.946C210.77 410.556 210.805 410.152 210.805 409.762V334.897C210.805 316.878 210.839 298.86 210.805 280.841C210.805 280.54 210.805 280.235 210.805 279.934C210.805 278.864 208.418 279.332 208.418 280.195V408.973C208.418 411.439 208.295 414.038 210.938 415.428C214.831 417.48 221.032 415.428 221.165 410.635C221.219 408.717 221.165 406.784 221.165 404.861V337.58C221.165 318.683 221.2 299.787 221.165 280.871V279.919C221.165 278.849 218.783 279.318 218.783 280.18V280.195Z" fill="#6A79A8"/>
<path d="M375.026 275.866H373.037C370.724 275.866 368.849 277.745 368.849 280.062V411.089C368.849 413.407 370.724 415.285 373.037 415.285H375.026C377.339 415.285 379.214 413.407 379.214 411.089V280.062C379.214 277.745 377.339 275.866 375.026 275.866Z" fill="#EFEFEF"/>
<path d="M368.854 411.089V281.078H379.219V411.089C379.219 412.202 378.778 413.269 377.992 414.056C377.207 414.843 376.141 415.285 375.031 415.285H373.062C372.51 415.288 371.963 415.181 371.453 414.972C370.943 414.762 370.478 414.453 370.087 414.063C369.696 413.673 369.386 413.21 369.174 412.699C368.963 412.189 368.854 411.642 368.854 411.089Z" fill="#F9F9F9"/>
<path d="M378.023 280.195V397.065C378.023 401.725 378.412 406.572 378.023 411.222C377.619 416.035 370.429 415.512 370.045 410.946C370.01 410.556 370.045 410.152 370.045 409.762V334.897C370.045 316.878 370.079 298.86 370.045 280.841V279.934C370.045 278.864 367.658 279.332 367.658 280.195V408.973C367.658 411.439 367.54 414.038 370.178 415.428C374.071 417.48 380.272 415.428 380.41 410.635C380.459 408.717 380.41 406.784 380.41 404.861V337.58C380.41 318.683 380.41 299.78 380.41 280.871C380.41 280.555 380.41 280.235 380.41 279.919C380.41 278.849 378.023 279.318 378.023 280.18V280.195Z" fill="#6A79A8"/>
<path d="M401.609 265.298H189.005C186.282 265.298 184.075 267.177 184.075 269.495V273.43C184.075 275.747 186.282 277.626 189.005 277.626H401.609C404.332 277.626 406.539 275.747 406.539 273.43V269.495C406.539 267.177 404.332 265.298 401.609 265.298Z" fill="#F9F9F9"/>
<path d="M238.692 276.641H191.794C191.213 276.641 190.591 276.69 190.011 276.641C185.602 276.259 185.904 272.721 185.945 269.967C185.974 267.663 187.2 265.963 189.9 265.84C193.338 265.684 196.835 265.84 200.273 265.84H400.547C401.348 265.804 402.152 265.862 402.934 266.012C406.657 266.855 406.221 270.285 406.152 272.873C406.099 274.926 404.99 276.406 402.51 276.636C399.287 276.93 395.825 276.636 392.584 276.636H238.675C237.513 276.636 235.73 278.106 237.618 278.106H398.764C401.743 278.106 404.932 278.351 407.249 276.401C409.224 274.735 408.992 272.569 408.992 270.413C408.992 268.256 408.597 266.125 406.018 264.988C403.695 263.968 400.152 264.405 397.631 264.405H192.206C191.486 264.405 190.76 264.405 190.04 264.405C187.862 264.463 185.724 265.105 184.348 266.595C182.768 268.31 183.122 270.515 183.128 272.529C183.128 276.161 185.748 278.072 189.912 278.106C193.397 278.136 196.841 278.106 200.308 278.106H237.635C238.774 278.091 240.58 276.641 238.692 276.641Z" fill="#6A79A8"/>
<path d="M275.984 381.25C283.682 371.975 296.734 370.259 309.029 372.655C318.518 374.509 328.042 378.05 334.292 385.807C341.675 394.964 344.978 409.674 335.542 418.629C331.231 422.717 325.369 424.852 319.488 425.651C313.606 426.449 307.636 426.025 301.715 425.591C297.148 425.261 289.79 423.15 285.39 424.245C281.29 425.266 279.818 432.426 275.182 426.972C273.558 425.059 273.43 422.273 273.961 419.925L275.984 381.25Z" fill="white"/>
<path d="M334.292 385.807C328.042 378.05 318.518 374.509 309.029 372.655C296.724 370.259 283.682 371.975 275.984 381.25L274.015 418.382L274.183 418.269C276.471 416.888 277.987 414.595 280.089 413.002C281.851 411.676 284.479 411.967 286.487 412.509C287.698 412.839 288.353 413.135 289.007 414.245C289.663 415.4 290.138 416.649 290.415 417.948C290.907 420.049 291.03 422.199 289.622 423.974C293.663 424.196 298.398 425.35 301.691 425.591C307.597 426.025 313.582 426.454 319.463 425.651C325.345 424.847 331.206 422.717 335.518 418.629C344.978 409.674 341.67 394.988 334.292 385.807Z" fill="#EFEFEF"/>
<path d="M334.292 385.807C339.288 392.01 342.364 400.166 341.05 408.16C340.405 412.158 338.47 415.835 335.542 418.629C331.231 422.717 325.369 424.852 319.488 425.651C313.606 426.45 307.636 426.025 301.715 425.591C298.422 425.35 293.688 424.196 289.647 423.974C291.054 422.199 290.922 420.029 290.439 417.948C290.162 416.649 289.687 415.4 289.032 414.245C288.902 414.025 288.754 413.817 288.589 413.623C293.766 413.658 298.924 413.84 304.117 413.964C309.309 414.087 314.576 414.56 319.552 413.056C321.887 412.326 324.17 411.435 326.383 410.389C328.111 409.59 330.251 408.835 330.758 406.74C330.936 406.02 330.606 405.122 329.892 404.945C330.537 405.107 328.558 406.335 328.613 406.306C327.628 406.843 326.565 407.213 325.566 407.691C323.398 408.79 321.149 409.718 318.838 410.468C313.96 411.947 308.625 411.395 303.58 411.271C298.166 411.133 292.807 410.941 287.417 410.931C287.231 410.927 287.045 410.965 286.875 411.04C286.704 411.116 286.552 411.229 286.43 411.37C286.307 411.511 286.217 411.677 286.166 411.857C286.114 412.037 286.103 412.226 286.133 412.41C284.193 411.917 281.772 411.75 280.113 412.997C277.997 414.59 276.481 416.883 274.207 418.264L274.04 418.377L276.009 381.245C283.706 371.97 296.759 370.254 309.053 372.65C318.518 374.509 328.042 378.05 334.292 385.807Z" fill="#F9F9F9"/>
<path d="M260.569 420.004C259.801 420.645 259.422 421.977 259.944 422.835C260.241 423.265 260.644 423.611 261.114 423.84C261.584 424.068 262.105 424.17 262.626 424.137C263.674 424.121 264.694 423.793 265.555 423.195C266.239 422.702 267.292 421.824 267.1 420.882C267.042 420.647 266.935 420.427 266.786 420.237C266.636 420.046 266.448 419.89 266.234 419.778C265.805 419.556 265.337 419.42 264.856 419.378C263.655 419.23 261.903 419.201 260.8 419.837C260.719 419.887 260.642 419.943 260.569 420.004Z" fill="white"/>
<path d="M258.91 420.848C258.113 421.513 257.404 422.564 257.98 423.599C258.472 424.512 259.708 424.817 260.662 424.881C261.903 424.947 263.142 424.718 264.279 424.214C265.415 423.711 266.417 422.946 267.203 421.982C267.804 421.242 265.456 421.459 265.013 421.982C264.236 422.939 263.182 423.737 261.888 423.639C260.49 423.53 259.491 422.194 260.785 421.104C261.77 420.261 259.437 420.379 258.91 420.823V420.848Z" fill="#6A79A8"/>
<path d="M276.604 417.672C277.254 418.875 279.557 419.309 280.684 418.895C281.391 418.619 281.992 418.127 282.403 417.488C282.814 416.85 283.013 416.098 282.973 415.34C282.919 414.634 282.934 412.603 282.018 412.465C281.689 412.441 281.361 412.515 281.073 412.677C279.71 413.285 278.468 414.135 277.406 415.187C277.025 415.523 276.727 415.943 276.535 416.415C276.457 416.617 276.422 416.834 276.434 417.051C276.446 417.268 276.504 417.479 276.604 417.672Z" fill="white"/>
<path d="M275.511 418.067C276.988 419.916 279.675 419.931 281.678 418.944C282.608 418.503 283.361 417.759 283.814 416.834C284.4 415.542 284.056 414.151 283.814 412.82C283.716 412.292 281.319 412.82 281.437 413.456C281.713 414.935 282.087 416.449 281.157 417.771C280.665 418.441 280.251 418.713 279.424 418.456C278.756 418.233 278.172 417.809 277.751 417.243C277.382 416.779 275.128 417.583 275.516 418.067H275.511Z" fill="#6A79A8"/>
<path d="M283.889 375.851C294.367 370.5 307.223 372.078 317.942 375.974C327.747 379.529 335.587 386.62 338.801 396.714C341.921 406.493 339.249 416.735 329.799 421.75C319.527 427.204 306.445 425.611 295.406 423.846C291.503 423.22 286.408 422.189 282.904 424.64C281.703 425.483 280.365 427.796 278.967 428.146C277.382 428.535 275.713 425.902 275.3 424.729C274.817 423.126 274.771 421.423 275.167 419.797C275.364 418.757 272.952 419.107 272.775 420.044C272.061 423.742 273.568 430.399 278.603 429.729C280.202 429.517 281.374 428.422 282.481 427.347C283.081 426.681 283.74 426.07 284.45 425.522C285.926 424.536 287.762 424.645 289.44 424.743C292.133 424.901 294.785 425.424 297.443 425.848C300.894 426.355 304.371 426.663 307.858 426.77C314.256 427.046 320.723 426.77 326.802 424.655C331.95 422.855 336.837 419.684 339.731 414.955C342.349 410.68 342.994 405.551 342.276 400.654C340.661 389.668 333.077 380.614 323.14 376.063C310.993 370.495 295.174 368.409 282.919 374.672C281.442 375.412 282.781 376.428 283.903 375.851H283.889Z" fill="#6A79A8"/>
<path d="M253.964 412.943L248.663 410.97C248.063 410.744 247.334 410.344 247.393 409.762C247.434 409.607 247.505 409.461 247.602 409.333C247.699 409.206 247.821 409.098 247.959 409.018L252.733 405.334L251.813 402.583C251.321 398.855 251.768 395.063 253.113 391.554C254.458 388.044 256.66 384.927 259.516 382.488C260.761 381.433 262.611 380.767 263.729 379.667L264.526 378.188C264.506 375.887 264.485 373.585 264.462 371.284C265.844 371.417 267.185 371.831 268.404 372.499C269.622 373.166 270.692 374.075 271.549 375.17L273.572 377.004C275.595 377.404 277.721 376.807 279.7 377.641C287.348 380.861 289.661 392.74 284.868 404.17C280.074 415.601 269.984 422.263 262.331 419.038C260.288 418.18 258.561 416.528 256.878 414.851L253.964 412.943Z" fill="#F9F9F9"/>
<path d="M264.265 373.538C264.265 372.798 264.364 372.009 264.964 371.807C265.565 371.605 266.303 371.999 267.012 372.369C267.955 372.816 268.848 373.36 269.679 373.991C270.546 374.652 271.217 375.537 271.618 376.551C271.213 377.01 270.779 377.443 270.319 377.848C269.837 378.195 269.289 378.442 268.71 378.573C267.522 378.928 266.244 378.815 265.137 378.257C263.99 377.631 264.256 374.771 264.265 373.538Z" fill="white"/>
<path d="M248.855 411.454C248.166 411.202 247.457 410.847 247.467 410.211C247.477 409.575 248.097 409.013 248.678 408.465C249.415 407.728 250.225 407.067 251.094 406.493C251.587 406.192 252.571 405.566 253.137 405.66C253.811 405.763 254.515 406.789 254.786 407.341C255.578 408.973 254.909 411.035 253.59 412.213C252.615 413.081 250.026 411.873 248.855 411.454Z" fill="white"/>
<path d="M273.159 403.717C273.833 403.411 274.586 403.164 275.019 403.623C275.452 404.082 275.413 404.925 275.379 405.724C275.367 406.767 275.25 407.806 275.029 408.825C274.891 409.383 274.645 410.507 274.158 410.857C273.671 411.207 272.386 411.02 271.805 410.813C270.097 410.206 269.138 408.263 269.256 406.498C269.34 405.191 272.047 404.225 273.159 403.717Z" fill="white"/>
<path d="M276.486 404.175C275.782 404.387 275.009 404.53 274.631 404.013C274.252 403.495 274.424 402.676 274.562 401.887C274.714 400.854 274.971 399.84 275.329 398.859C275.541 398.327 275.935 397.247 276.466 396.966C276.998 396.685 278.248 397.05 278.789 397.331C280.404 398.164 281.093 400.22 280.734 401.951C280.473 403.233 277.662 403.825 276.486 404.175Z" fill="white"/>
<path d="M254.653 412.203L252 411.217L250.233 410.556C249.042 410.556 248.691 410.203 249.18 409.496C249.456 408.224 252.487 406.562 253.486 405.793C253.708 405.625 254.013 405.334 253.905 405.014C251.764 398.603 253.132 391.621 257.237 386.201C258.397 384.608 259.822 383.227 261.45 382.118C262.582 381.383 263.985 380.846 264.836 379.751C266.549 377.537 265.668 373.73 265.643 371.161L264.014 372.058C266.795 372.418 268.532 373.745 270.442 375.663C271.039 376.316 271.698 376.909 272.411 377.433C273.641 378.232 275.26 377.828 276.668 377.927C278.622 378.057 280.462 378.891 281.851 380.274C287.265 385.461 286.836 394.574 284.804 401.138C282.599 408.278 277.456 416.207 269.955 418.525C268.393 419.034 266.729 419.145 265.113 418.848C263.498 418.551 261.982 417.855 260.702 416.824C258.684 415.271 257.035 413.683 254.889 412.292C254.112 411.799 251.971 412.884 253.034 413.574C257.281 416.331 260.515 420.562 265.978 420.611C271.589 420.665 276.732 417.297 280.354 413.244C285.263 407.711 288.149 400.67 288.539 393.277C288.776 387.592 287.245 380.979 282.116 377.749C280.608 376.82 278.867 376.34 277.096 376.363C276.358 376.363 275.088 376.59 274.512 376.363C274.089 376.186 273.528 375.471 273.178 375.15C270.654 372.734 268.513 370.969 264.905 370.505C264.452 370.446 263.266 370.762 263.271 371.403L263.31 375.348C263.31 376.161 263.576 377.399 263.355 378.203C262.976 379.569 261.701 380.175 260.589 380.831C257.627 382.667 255.179 385.226 253.472 388.267C250.391 393.613 249.569 399.826 251.503 405.645C251.646 405.383 251.788 405.122 251.926 404.861C250.563 405.916 249.19 406.957 247.831 408.022C247.255 408.47 246.168 409.102 246.163 409.994C246.158 410.887 247.098 411.345 247.807 411.671C249.529 412.479 251.439 413.037 253.221 413.702C254.141 414.013 256.026 412.741 254.653 412.203Z" fill="#6A79A8"/>
<path d="M265.382 405.763C266.623 404.777 268.109 403.692 267.981 401.912C267.927 401.148 265.52 401.641 265.604 402.548C265.604 402.834 265.486 403.115 265.51 403.416C265.51 403.303 265.565 403.189 265.594 403.076C265.377 403.558 265.092 404.006 264.748 404.407C264.354 404.767 263.896 405.048 263.478 405.393C263.059 405.739 263.256 406.113 263.699 406.227C263.996 406.275 264.299 406.26 264.589 406.183C264.879 406.106 265.149 405.968 265.382 405.778V405.763Z" fill="#6A79A8"/>
<path d="M270.408 397.331C272.549 396.207 273.316 394.14 273.622 391.842C273.656 391.571 271.338 391.764 271.244 392.483C271.043 394.022 270.555 396.236 269.044 397.03C268.749 397.188 268.331 397.41 268.749 397.642C269.167 397.873 270.078 397.508 270.408 397.331Z" fill="#6A79A8"/>
<path d="M280.168 401.33C279.705 402.982 278.568 403.968 276.722 403.904C276.255 403.904 274.754 404.067 274.754 404.738C274.778 405.794 274.689 406.851 274.488 407.889C274.409 408.248 274.302 408.601 274.168 408.944C274.074 409.166 273.326 410.236 273.597 410.216C272.923 410.265 271.023 411.36 272.583 411.247C276.457 410.966 277.106 407.395 277.131 404.096L275.162 404.93C278.031 405.033 281.595 404.027 282.461 400.936C282.614 400.378 280.291 400.694 280.108 401.33H280.168Z" fill="#6A79A8"/>
<path d="M288.333 413.624C302.896 415.137 321.259 418.949 331.851 405.694C332.535 404.846 330.138 404.964 329.627 405.605C319.931 417.741 302.463 413.579 289.238 412.203C288.254 412.105 286.733 413.461 288.333 413.624Z" fill="#6A79A8"/>
<path d="M259.762 109.749L259.786 123.433C259.786 129.735 254.574 134.853 248.122 134.863C241.044 134.863 235.295 129.281 235.286 122.368V109.793L259.762 109.749Z" fill="white"/>
<path d="M234.149 116.07C241.861 120.163 253.211 122.215 260.687 116.199C261.642 115.434 259.294 115.706 258.851 116.075C252.487 121.204 242.821 118.654 236.383 115.242C235.753 114.897 233.785 115.883 234.149 116.07Z" fill="#6A79A8"/>
<path d="M235.123 124.513C243.328 128.379 253.211 129.306 260.717 123.383C261.701 122.604 259.348 122.811 258.866 123.191C252.369 128.329 244.042 126.791 237.063 123.507C236.492 123.24 234.316 124.128 235.133 124.493L235.123 124.513Z" fill="#6A79A8"/>
<path d="M260.195 109.675C260.058 109.908 259.859 110.097 259.619 110.222C259.021 110.479 258.4 110.679 257.764 110.819C257.05 111.036 256.331 111.243 255.603 111.43C252.579 112.239 249.44 112.526 246.321 112.278C244.442 112.108 242.575 111.828 240.729 111.44C239.588 111.208 238.456 110.947 237.324 110.695C236.374 110.474 234.863 110.449 234.439 109.413C234.085 108.58 234.233 107.554 234.164 106.672C233.736 101.434 231.294 96.5677 227.352 93.1009L226.545 92.4204C223.373 89.6252 220.828 86.1893 219.077 82.3385C217.325 78.4876 216.406 74.309 216.381 70.0772C216.381 53.4048 230.221 39.8144 247.295 39.7799C264.369 39.7454 278.278 53.3013 278.302 69.9736C278.292 74.1998 277.39 78.3762 275.655 82.2285C273.921 86.0809 271.393 89.5222 268.237 92.3267L267.376 93.0565C264.126 95.9236 261.892 99.7705 261.012 104.019C260.814 104.946 260.684 105.887 260.623 106.834C260.574 107.658 260.677 108.886 260.195 109.675Z" fill="#FFEEA7"/>
<path d="M234.075 110.459C234.075 114.039 234.075 117.62 234.075 121.204C234.075 126.924 236.492 131.969 241.886 134.439C243.919 135.333 246.13 135.748 248.349 135.651C250.567 135.555 252.734 134.949 254.682 133.882C259.014 131.362 260.982 127.067 260.972 122.19C260.972 118.189 260.972 114.19 260.972 110.192C260.972 108.994 258.571 109.389 258.571 110.4C258.571 118.018 260.977 133.478 249.48 133.857C246.158 133.966 243.303 133.453 240.65 131.175C237.815 128.739 236.556 125.351 236.496 121.687C236.432 117.875 236.496 114.063 236.496 110.252C236.496 109.058 234.095 109.448 234.095 110.459H234.075Z" fill="#6A79A8"/>
<path d="M259.014 110.04C255.598 111.144 252.177 112.012 248.565 111.889C244.401 111.756 240.286 110.725 236.26 109.754C235.719 109.62 233.657 110.503 234.292 110.661C238.982 111.795 243.8 112.974 248.658 112.845C252.497 112.742 256.184 111.726 259.816 110.552C261.425 110.03 259.904 109.749 259.004 110.059L259.014 110.04Z" fill="#6A79A8"/>
<path d="M235.399 107.14C235.035 101.05 232.244 96.1435 227.79 92.1245C223.154 88.0148 219.874 82.591 218.384 76.5716C215.732 65.5158 219.861 53.7894 228.666 46.6589C238.416 38.769 252.069 38.3696 262.602 44.9675C271.953 50.8307 277.889 61.4525 277.027 72.5822C276.429 79.9493 273.121 86.831 267.745 91.8928C263.03 96.3013 259.801 101.015 259.407 107.673C259.407 107.983 261.745 107.722 261.785 107.032C261.973 103.321 263.164 99.7317 265.23 96.6464C266.908 94.1808 269.241 92.4697 271.259 90.3099C275.613 85.6726 278.406 79.785 279.247 73.4748C280.807 61.4081 274.355 49.7015 263.99 43.6509C244.209 32.0971 216.248 45.4064 215.22 69.0318C214.933 76.4541 217.4 83.7198 222.145 89.4272C224.281 92.0062 227.066 93.9244 229.07 96.6119C231.449 99.8666 232.818 103.751 233.007 107.781C233.007 108.176 235.419 107.781 235.384 107.14H235.399Z" fill="#6A79A8"/>
<path d="M233.661 69.2438C237.54 72.9373 242.407 75.4719 246.286 79.1604C246.867 79.7176 248.058 79.2492 248.496 78.7265C251.552 75.0675 255.736 72.4737 258.797 68.8099C259.471 68.0011 257.084 68.1392 256.577 68.7457C253.521 72.4047 249.342 74.9985 246.281 78.6624L248.491 78.2235C244.612 74.53 239.745 71.9954 235.866 68.3069C235.251 67.72 233.012 68.6274 233.661 69.2438Z" fill="#6A79A8"/>
<path d="M248.737 108.447C248.865 98.4365 248.57 88.3916 248.579 78.3665C248.579 77.7797 246.202 78.1791 246.202 79.0076C246.202 89.0228 246.488 99.0677 246.36 109.088C246.36 109.67 248.727 109.28 248.737 108.452V108.447Z" fill="#6A79A8"/>
<path d="M233.381 67.9074C233.252 67.9082 233.126 67.8748 233.014 67.8107C232.903 67.7466 232.81 67.6541 232.746 67.5425C232.225 66.7193 231.903 65.7855 231.806 64.8156C231.757 64.2616 231.85 63.7044 232.076 63.1963C232.302 62.6883 232.652 62.246 233.095 61.9111C233.313 61.7631 233.552 61.65 233.804 61.5758C234.22 61.1784 234.731 60.8945 235.287 60.7512C235.844 60.6079 236.428 60.61 236.984 60.7572C237.228 60.3537 237.565 60.0154 237.968 59.771C238.314 59.5581 238.701 59.422 239.103 59.3718C239.505 59.3216 239.914 59.3585 240.301 59.48C240.393 59.5094 240.483 59.544 240.572 59.5836C240.632 59.5035 240.698 59.4277 240.769 59.3568C241.33 58.7945 242.082 58.4642 242.875 58.4313C243.668 58.3984 244.445 58.6654 245.051 59.1792C245.289 59.3937 245.492 59.6451 245.651 59.9238C246.27 59.546 247.012 59.4256 247.718 59.5885C248.077 59.6826 248.412 59.8505 248.702 60.0816C249.235 59.8101 249.842 59.7201 250.43 59.8252C250.814 59.881 251.182 60.0197 251.507 60.2317C251.833 60.4437 252.108 60.724 252.315 61.0531C252.365 61.1354 252.41 61.2211 252.448 61.3095C253.04 61.1624 253.665 61.2254 254.216 61.488C254.767 61.7505 255.21 62.1963 255.47 62.7494C256.036 62.5 256.659 62.4114 257.272 62.4931C257.885 62.5749 258.464 62.8239 258.945 63.213C259.222 63.4432 259.448 63.7296 259.608 64.0533C259.767 64.3771 259.856 64.731 259.87 65.0917C259.897 65.5171 259.837 65.9434 259.695 66.3451C259.553 66.7467 259.331 67.1155 259.043 67.4291C258.977 67.5024 258.896 67.5617 258.807 67.6033C258.717 67.6449 258.62 67.6681 258.521 67.6714C258.422 67.6748 258.324 67.6582 258.232 67.6228C258.14 67.5873 258.055 67.5336 257.984 67.465C257.913 67.3963 257.856 67.314 257.817 67.223C257.779 67.132 257.758 67.0341 257.758 66.9351C257.758 66.8361 257.777 66.738 257.815 66.6467C257.853 66.5554 257.909 66.4727 257.98 66.4034C258.126 66.2368 258.237 66.043 258.308 65.8332C258.379 65.6233 258.408 65.4016 258.393 65.1805C258.392 65.028 258.36 64.8773 258.299 64.7375C258.238 64.5977 258.15 64.4716 258.039 64.3669C257.756 64.1469 257.417 64.0102 257.061 63.9719C256.704 63.9336 256.345 63.9952 256.021 64.1499C255.954 64.1829 255.89 64.2208 255.829 64.2633C255.835 64.7062 255.736 65.1441 255.541 65.5416C255.346 65.9391 255.06 66.285 254.707 66.5514C254.6 66.6294 254.474 66.677 254.342 66.6892C254.211 66.7013 254.078 66.6776 253.959 66.6204C253.839 66.5642 253.737 66.477 253.663 66.3677C253.588 66.2584 253.544 66.1311 253.536 65.9991C253.496 65.1687 253.762 64.3528 254.284 63.7061C254.24 63.5207 254.157 63.3469 254.041 63.1964C253.925 63.0458 253.778 62.922 253.609 62.8333C253.313 62.7044 252.979 62.692 252.674 62.7987C252.651 62.9665 252.611 63.1316 252.556 63.2919C252.444 63.6602 252.254 64.0001 251.999 64.2886C251.745 64.577 251.431 64.8072 251.08 64.9635C250.971 65.0085 250.853 65.0268 250.736 65.0169C250.618 65.0069 250.505 64.969 250.405 64.9062C250.306 64.8435 250.222 64.7578 250.162 64.6562C250.102 64.5547 250.068 64.4402 250.061 64.3225C250.045 63.8679 250.138 63.4161 250.332 63.005C250.527 62.594 250.817 62.2357 251.178 61.9604C251.158 61.9103 251.134 61.8624 251.104 61.8174C251.008 61.6724 250.882 61.5499 250.734 61.458C250.586 61.3661 250.42 61.3071 250.248 61.2849C250.061 61.2452 249.868 61.2452 249.682 61.2849C249.908 61.788 249.995 62.3428 249.933 62.8911C249.872 63.4394 249.664 63.961 249.332 64.4014C249.27 64.4765 249.192 64.5383 249.105 64.5832C249.018 64.6281 248.923 64.6553 248.826 64.6631C248.728 64.6709 248.63 64.6592 248.537 64.6286C248.444 64.5981 248.358 64.5493 248.284 64.4852C247.996 64.2252 247.767 63.906 247.614 63.5495C247.46 63.1929 247.385 62.8073 247.393 62.419C247.395 61.9717 247.502 61.5311 247.703 61.132C247.609 61.0791 247.508 61.0393 247.403 61.0136C247.168 60.9721 246.927 60.9881 246.7 61.0603C246.473 61.1324 246.267 61.2585 246.099 61.4279C246.121 62.1575 245.885 62.8715 245.434 63.4447C245.346 63.5515 245.23 63.6315 245.098 63.6759C244.967 63.7203 244.826 63.7273 244.691 63.6962C244.557 63.6654 244.434 63.5972 244.336 63.4995C244.239 63.4018 244.171 63.2786 244.14 63.1439C244.061 62.7772 244.057 62.3984 244.127 62.0299C244.198 61.6615 244.341 61.3109 244.548 60.9989C244.47 60.7199 244.315 60.4687 244.101 60.274C243.779 60.0154 243.375 59.8824 242.963 59.8996C242.552 59.9169 242.16 60.0832 241.861 60.3677C241.81 60.419 241.764 60.4751 241.723 60.5353C241.843 60.7117 241.943 60.9001 242.024 61.0975C242.187 61.4692 242.268 61.8719 242.261 62.2779C242.254 62.6839 242.16 63.0836 241.984 63.4497C241.932 63.5562 241.855 63.6486 241.76 63.7188C241.664 63.7891 241.553 63.8351 241.436 63.8531C241.319 63.871 241.2 63.8602 241.088 63.8218C240.976 63.7833 240.875 63.7182 240.793 63.6321C240.462 63.2727 240.218 62.8411 240.081 62.3714C239.945 61.9016 239.919 61.4064 240.006 60.9249L239.868 60.8657C239.68 60.8144 239.485 60.8024 239.292 60.8304C239.1 60.8584 238.916 60.9258 238.751 61.0284C238.609 61.1144 238.482 61.2207 238.372 61.344C238.874 61.6569 239.293 62.0874 239.592 62.5986C239.891 63.1097 240.062 63.6861 240.089 64.2781C240.091 64.379 240.073 64.4793 240.035 64.5728C239.997 64.6662 239.94 64.7509 239.868 64.8216C239.796 64.8922 239.711 64.9474 239.617 64.9837C239.523 65.02 239.422 65.0366 239.322 65.0326C238.916 65.0134 238.52 64.9075 238.159 64.7221C237.799 64.5367 237.482 64.276 237.23 63.9576C236.819 63.4562 236.588 62.8309 236.575 62.1823C236.443 62.1584 236.31 62.1435 236.177 62.138C236.259 62.2243 236.334 62.3166 236.403 62.4141C236.596 62.7173 236.706 63.0658 236.722 63.4248C236.739 63.7839 236.661 64.141 236.496 64.4605C236.36 64.7539 236.149 65.0055 235.883 65.1893C235.617 65.3731 235.307 65.4824 234.985 65.506C234.725 65.5144 234.466 65.4673 234.225 65.3679C233.984 65.2684 233.767 65.1188 233.588 64.929C233.466 64.806 233.361 64.6686 233.273 64.5197C233.268 64.5903 233.268 64.6612 233.273 64.7318C233.36 65.4682 233.614 66.1749 234.016 66.7979C234.113 66.9676 234.14 67.1688 234.09 67.358C234.04 67.5471 233.918 67.7091 233.75 67.8088C233.638 67.8738 233.511 67.9078 233.381 67.9074ZM234.577 62.9763C234.5 63.1075 234.453 63.2539 234.439 63.4053C234.439 63.4971 234.458 63.5879 234.493 63.6725C234.529 63.7572 234.581 63.8339 234.646 63.8984C234.68 63.939 234.722 63.972 234.769 63.9949C234.817 64.0179 234.869 64.0304 234.921 64.0315C235.03 64.0315 235.128 63.9083 235.177 63.8047C235.222 63.7205 235.246 63.6265 235.246 63.531C235.246 63.4356 235.222 63.3416 235.177 63.2573C235.118 63.1804 235.044 63.1163 234.959 63.0688C234.875 63.0214 234.782 62.9916 234.685 62.9812L234.577 62.9763Z" fill="#6A79A8"/>
<path d="M191.059 28.4086C196.503 31.1641 201.553 34.6387 206.075 38.7394C206.543 39.1635 208.684 38.2463 208.314 37.9258C203.79 33.8331 198.74 30.3653 193.298 27.6147C192.678 27.2991 190.768 28.2804 191.059 28.4283V28.4086Z" fill="#6A79A8"/>
<path d="M215.997 7.48554C219.361 12.5287 222.033 18.0021 223.941 23.7585C224.192 24.508 226.56 23.8325 226.318 23.1174C224.366 17.2749 221.641 11.7207 218.217 6.60286C217.818 6.00619 215.51 6.7656 215.997 7.50034V7.48554Z" fill="#6A79A8"/>
<path d="M250.755 0.636123C249.441 6.64476 248.934 12.8025 249.249 18.9456C249.273 19.4388 251.66 19.0245 251.626 18.3095C251.311 12.2479 251.808 6.17126 253.103 0.241633C253.235 -0.364904 250.888 -1.27405e-06 250.75 0.636123H250.755Z" fill="#6A79A8"/>
<path d="M286.251 7.39678C281.467 11.3123 277.229 15.8533 273.651 20.8984C273.021 21.7811 275.408 21.6035 275.871 20.9576C279.367 16.0453 283.506 11.6253 288.175 7.81593C289.229 6.9579 286.871 6.91352 286.266 7.41157L286.251 7.39678Z" fill="#6A79A8"/>
<path d="M299.363 27.8119C293.225 29.2778 287.311 31.5598 281.777 34.5972C280.384 35.3616 282.52 35.5243 283.214 35.1495C288.38 32.315 293.903 30.1872 299.633 28.8228C301.051 28.4875 300.785 27.4717 299.363 27.8366V27.8119Z" fill="#6A79A8"/>
<path d="M155.691 231.224C172.208 232.165 190.635 230.075 204.968 221.144C220.171 211.647 229.384 195.645 231.545 178.006C232.849 167.498 230.797 155.766 236.344 146.234C237.013 145.09 234.602 145.056 234.075 145.963C229.739 153.414 230.054 162.133 229.739 170.466C229.375 179.954 227.686 189.442 223.419 197.987C215.914 213.028 202.285 223.023 186.142 226.943C176.443 229.241 166.46 230.1 156.513 229.493C155.361 229.429 154.086 231.13 155.691 231.224Z" fill="#6A79A8"/>
<path d="M123.197 407.198C109.638 400.364 129.664 369.154 132.775 360.919C136.063 352.235 133.892 343.541 128.109 336.524C124.206 331.78 112.094 327.998 117.985 320.424C120.121 317.677 123.788 316.701 127.218 316.114C130.637 315.537 134.09 315.181 137.554 315.049C175.629 313.629 165.997 354.065 152.157 375.703C148.17 381.911 132.721 411.996 123.197 407.198Z" fill="#A7B0CA"/>
<path d="M158.284 359.977C156.035 365.638 153.648 371.156 150.483 376.368C148.805 379.125 147.225 381.946 145.561 384.712C141.348 391.724 136.747 399.757 130.127 404.772C127.558 406.745 124.811 407.642 122.222 405.191C119.762 402.874 119.54 399.224 119.86 396.068C120.711 387.641 124.86 379.539 128.581 372.063C130.235 368.73 132.061 365.456 133.528 362.033C136.245 355.712 135.866 348.625 133.459 342.274C133.036 341.145 130.663 341.781 131.082 342.91C133.464 349.193 133.794 356.042 131.003 362.25C129.448 365.702 127.627 369.041 125.948 372.433C122.099 380.225 117.512 389.096 117.33 397.992C117.207 404.111 121.597 410.724 128.38 407.938C131.741 406.557 134.453 403.722 136.791 401.034C139.889 397.34 142.709 393.421 145.227 389.308C151.108 380.003 156.503 370.569 160.568 360.307C161.06 359.006 158.698 358.937 158.284 359.987V359.977Z" fill="#6A79A8"/>
<path d="M147.727 248.167L139.67 296.059L138.981 299.175C103.195 297.696 57.585 288.968 34.9743 274.125C32.6463 272.601 29.1223 270.634 26.9321 268.913C24.4712 266.94 34.2262 251.358 35.5157 248.892C51.039 219.162 77.5379 196.784 106.68 181.019L113.895 177.839C114.515 170.703 117.217 161.24 122.813 148.414C123.227 147.467 124.388 144.8 124.625 144.267C134.719 121.13 154.081 107.283 167.872 113.314C181.663 119.345 184.656 143.005 174.561 166.142L172.755 170.289C170.148 176.448 167.104 182.412 163.644 188.135C160.066 193.899 157.202 198.111 154.711 204.709L148.599 241.84L147.727 248.167Z" fill="white"/>
<path d="M137.565 106.469C132.229 110.784 130.999 118.225 133.991 124.31C137.166 130.751 143.973 134.774 150.725 136.515C159.289 138.719 168.936 140.406 177.741 139.114C185.857 137.921 193.983 133.482 197.35 125.686C199.997 119.572 199.938 112.288 199.525 105.744C199.322 102.292 198.828 98.8621 198.048 95.4925C197.636 93.7306 197.123 91.9936 196.513 90.2901C196.198 89.4124 194.416 86.5966 194.593 85.8027C193.727 89.6441 190.685 92.7064 187.211 94.526C182.609 96.9423 177.057 97.8151 172.007 98.9148C162.164 101.06 151.415 99.827 141.906 103.885C140.346 104.541 138.885 105.411 137.565 106.469Z" fill="#CBCEDD"/>
<path d="M175.215 408.051C160.041 408.051 163.871 371.176 162.945 362.418C161.469 348.374 150.149 341.707 137.111 339.922C129.63 338.906 100.823 336.031 93.307 336.598C78.0495 336.934 20.1054 327.998 27.5521 270.067C27.5521 270.067 32.966 272.601 36.1848 274.786C66.4538 295.221 127.134 298.386 130.092 298.663C168.482 302.282 190.63 330.188 186.895 366.871C186.107 374.199 185.856 408.032 175.215 408.051Z" fill="#A7B0CA"/>
<path d="M175.216 408.051C160.042 408.051 163.871 371.176 162.946 362.418C161.469 348.374 150.149 341.707 137.111 339.922C129.63 338.906 100.823 336.031 93.3073 336.598C78.0497 336.934 24.1759 327.599 26.5679 273.518C26.5679 273.518 32.9662 277.532 36.1851 279.722C66.454 300.152 133.494 303.288 139.021 300.492C145.193 297.351 192.442 318.802 186.856 366.881C186.004 374.189 185.856 408.032 175.216 408.051Z" fill="#CBCEDD"/>
<path d="M25.7705 272.478C24.2939 281.354 24.9485 290.132 28.4331 298.48C31.5113 305.662 36.0197 312.139 41.6826 317.515C47.2214 322.848 53.6003 327.23 60.5625 330.484C68.8459 334.36 77.8675 336.11 86.9137 336.983C99.9712 338.25 113.142 337.821 126.19 339.217C136.845 340.361 149.814 342.58 157.084 351.293C163.403 358.838 161.74 369.085 161.927 378.222C162.025 383.597 162.281 389.012 163.275 394.303C164.043 398.406 165.244 403.081 168.3 406.138C170.668 408.505 174.477 409.614 177.652 408.224C181.122 406.695 182.775 402.706 183.873 399.348C187.038 389.638 187.225 379.085 187.904 368.981C188.312 362.886 188.706 356.93 187.948 350.84C187.103 343.841 185.04 337.045 181.855 330.76C175.786 318.895 165.707 309.556 153.663 303.959C150.534 302.512 147.305 301.292 144.001 300.31C143.17 300.058 141.201 301.296 142.564 301.685C155.425 305.551 167.031 313.101 174.959 324.058C183.1 335.311 186.629 349.262 185.96 363.054C185.507 372.384 184.975 381.926 183.42 391.137C182.529 396.458 178.922 413.599 170.491 405.167C167.469 402.144 166.341 397.494 165.598 393.425C164.653 388.253 164.392 382.956 164.294 377.71C164.146 369.534 165.559 360.347 161.169 352.999C155.883 344.158 144.887 340.711 135.359 338.96C124.954 337.057 114.377 336.953 103.859 336.495C94.8034 336.12 85.6735 335.755 76.7896 333.911C68.5008 332.209 60.6126 328.937 53.549 324.27C40.7081 315.784 29.9934 302.479 27.749 286.887C27.0452 281.995 27.3651 277.064 28.1821 272.212C28.3495 271.225 25.9476 271.595 25.7951 272.478H25.7705Z" fill="#6A79A8"/>
<path d="M146.536 248.32L139.094 292.578C138.715 294.851 138.292 297.075 137.795 299.328L139.449 298.52C120.903 297.73 102.459 295.337 84.3249 291.364C68.4817 287.883 52.0921 283.351 38.0897 274.909C36.5541 273.982 35.0579 272.986 33.5321 272.049C32.6462 271.502 31.7553 270.964 30.8793 270.402C30.1213 269.909 28.3741 269.144 27.9262 268.341C27.0993 266.792 28.6349 263.996 29.2452 262.596C31.337 257.832 34.167 253.458 36.6279 248.902C45.518 232.608 57.2806 218.063 71.3461 205.971C84.2855 194.802 98.7309 185.201 114.367 178.307C114.594 178.208 115.061 177.986 115.091 177.686C115.898 169.012 118.895 160.604 122.173 152.596C125.683 144.02 129.472 135.563 135.265 128.255C143.785 117.51 161.981 104.551 173.468 119.019C178.833 125.775 179.832 135.346 179.202 143.675C178.474 153.301 175.235 162.123 171.391 170.876C169.091 176.267 166.461 181.51 163.516 186.577C160.977 190.847 158.152 194.96 155.942 199.398C154.893 201.513 153.756 203.658 153.373 206.001C153.077 207.769 152.784 209.543 152.492 211.321L147.442 242.003C147.294 242.886 149.686 242.496 149.814 241.693C151.402 232.057 152.989 222.421 154.573 212.786C155.292 208.437 155.735 204.571 157.61 200.552C160.022 195.379 163.324 190.729 166.189 185.812C169.066 180.734 171.655 175.497 173.941 170.126C178.021 160.811 181.323 151.343 181.692 141.067C181.973 133.083 180.708 124.251 175.496 117.89C165.382 105.513 148.426 112.816 138.893 121.835C131.21 129.094 126.18 138.137 121.996 147.734C117.813 157.33 113.693 167.458 112.709 178.016L113.432 177.39C99.5726 183.504 86.7464 191.666 74.8898 201.119C60.0162 212.954 46.88 227.21 37.2825 243.704C34.2556 248.907 31.1992 254.203 28.4774 259.568C27.3011 261.876 25.9329 264.366 25.4653 266.965C24.9977 269.564 26.9418 270.284 28.9647 271.571C35.6829 275.866 42.4454 279.781 49.8429 282.789C57.9979 286.038 66.3688 288.714 74.8948 290.797C95.7413 295.956 117.057 298.978 138.514 299.817C138.981 299.817 140.039 299.59 140.167 299.008C143.401 284.436 145.301 269.49 147.772 254.77C148.149 252.512 148.53 250.255 148.913 248C149.061 247.117 146.669 247.506 146.536 248.31V248.32Z" fill="#6A79A8"/>
<path d="M158.531 177.464C157.054 178.889 155.966 180.994 156.114 182.479C156.193 182.904 156.391 183.298 156.684 183.615C156.978 183.932 157.355 184.158 157.773 184.269C160.775 185.221 162.862 182.148 163.551 179.683C163.846 178.613 164.097 176.833 162.916 176.231C161.513 175.467 159.855 176.196 158.531 177.464Z" fill="#6A79A8"/>
<path d="M105.065 186.369C112.079 203.569 132.937 210.227 149.976 206.513C151.419 206.203 151.104 205.069 149.671 205.379C133.543 208.89 113.988 201.779 107.438 185.728C107.113 184.935 104.77 185.654 105.065 186.369Z" fill="#6A79A8"/>
<path d="M114.544 227.92C123.089 234.961 132.534 241.377 143.214 244.651C150.838 246.91 158.853 247.522 166.73 246.446C174.605 245.46 182.258 243.31 189.99 241.624C197.959 239.883 205.917 237.797 213.93 236.303C218.852 235.386 224.266 234.616 229.188 235.923C235 237.467 238.583 243.063 236.718 249.04C236.309 250.347 238.687 250.317 238.992 249.311C240.385 244.844 239.317 239.898 235.63 236.84C232.677 234.375 228.607 233.645 224.842 233.551C216.017 233.329 207.428 236.091 198.923 238.078C190.99 239.932 182.962 241.638 174.984 243.315C166.76 245.041 158.383 245.938 150.05 244.395C137.337 242.038 126.194 234.636 116.38 226.544C115.568 225.873 113.491 227.037 114.549 227.92H114.544Z" fill="#6A79A8"/>
<path d="M114.761 237.373C111.877 238.186 110.12 234.804 109.618 232.511C109.069 230.097 109.207 227.577 110.017 225.237C111.001 222.53 113.147 220.015 116.125 219.561C117.451 219.396 118.797 219.645 119.977 220.275C121.156 220.906 122.113 221.886 122.715 223.082C123.138 223.881 125.437 223.082 125.092 222.446C121.647 215.957 112.596 217.515 108.934 222.939C105.489 228.023 106.296 241.017 115.076 238.542C116.484 238.147 116.193 236.973 114.761 237.378V237.373Z" fill="#6A79A8"/>
<path d="M112.463 116.164H99.4201C98.4357 116.164 96.9592 117.683 98.5391 117.683H111.592C112.576 117.683 114.053 116.164 112.473 116.164H112.463Z" fill="white"/>
<path d="M118.019 110.888C108.574 104.352 100.964 95.493 95.9206 85.1617C95.5958 84.5009 93.3022 85.2997 93.5434 85.7978C98.6168 96.2116 106.278 105.144 115.79 111.736C116.38 112.145 118.472 111.198 118.019 110.888Z" fill="white"/>
<path d="M125.929 102.431C124.718 101.411 123.741 100.143 123.061 98.7118C122.382 97.2809 122.017 95.7207 121.991 94.1365C121.967 92.9974 119.58 93.4362 119.599 94.3732C119.617 96.1635 120.028 97.928 120.803 99.5413C121.578 101.155 122.697 102.577 124.083 103.708C124.787 104.3 126.928 103.259 125.943 102.431H125.929Z" fill="white"/>
<path d="M381.785 251.372H370.465L369.603 202.238C369.593 201.448 369.767 200.667 370.111 199.957C370.456 199.248 370.961 198.628 371.587 198.149C372.213 197.67 372.943 197.344 373.717 197.198C374.491 197.051 375.289 197.089 376.046 197.306L378.172 197.913C380.569 198.6 382.649 200.106 384.053 202.17C385.456 204.233 386.094 206.725 385.855 209.21L381.785 251.372Z" fill="#B9F7BA"/>
<path d="M385.614 264.326H366.035L361.605 237.698C361.551 237.348 361.572 236.991 361.668 236.65C361.763 236.31 361.931 235.994 362.159 235.724C362.388 235.454 362.671 235.236 362.991 235.086C363.311 234.936 363.659 234.856 364.012 234.853H387.666C388.019 234.856 388.367 234.936 388.687 235.086C389.007 235.236 389.29 235.454 389.519 235.724C389.747 235.994 389.915 236.31 390.01 236.65C390.106 236.991 390.127 237.348 390.073 237.698L385.614 264.326Z" fill="#EFEFEF"/>
<path d="M365.489 261.047L361.61 237.831C361.553 237.466 361.575 237.093 361.675 236.737C361.775 236.381 361.951 236.051 362.19 235.77C362.43 235.489 362.727 235.263 363.062 235.108C363.397 234.953 363.761 234.873 364.13 234.872H387.519C387.888 234.873 388.252 234.953 388.587 235.108C388.922 235.263 389.219 235.489 389.459 235.77C389.698 236.051 389.874 236.381 389.974 236.737C390.074 237.093 390.096 237.466 390.039 237.831L386.229 260.653L365.489 261.047Z" fill="white"/>
<path d="M366.827 261.639L364.293 246.446C363.83 243.668 363.366 240.89 362.9 238.112C362.762 237.289 362.378 236.312 363.491 235.76C363.86 235.577 364.78 235.76 365.169 235.76H384.054C385.742 235.76 388.72 234.946 388.902 237.486C389.04 239.389 388.183 241.776 387.873 243.645C386.889 249.615 385.891 255.588 384.881 261.565C384.674 262.803 387.105 262.526 387.292 261.407L390.245 243.704C390.595 241.603 391.23 239.355 391.328 237.224C391.446 234.162 388.793 233.94 386.475 233.94H365.922C363.786 233.94 360.941 233.792 360.37 236.509C359.986 238.314 360.862 240.745 361.148 242.501C362.25 249.092 363.351 255.684 364.45 262.275C364.642 263.424 367.024 262.817 366.827 261.639Z" fill="#6A79A8"/>
<path d="M378.822 197.982C378.408 196.585 377.997 195.189 377.586 193.795C377.291 192.809 374.919 193.45 375.209 194.432C375.623 195.827 376.031 197.228 376.445 198.623C376.74 199.609 379.112 198.968 378.822 197.982Z" fill="#6A79A8"/>
<path d="M372.955 198.746L369.544 195.753C368.944 195.225 366.729 196.133 367.33 196.665L370.745 199.664C371.346 200.191 373.561 199.279 372.955 198.746Z" fill="#6A79A8"/>
<path d="M384.206 231.435L386.416 230.917C386.825 230.824 387.558 230.424 387.401 229.897C387.243 229.369 386.416 229.404 386.022 229.517L383.813 230.01C383.404 230.104 382.671 230.503 382.828 231.031C382.986 231.559 383.813 231.524 384.206 231.416V231.435Z" fill="#6A79A8"/>
<path d="M381.549 206.587C383.458 206.018 385.279 205.188 386.963 204.121C387.361 203.865 387.243 203.702 386.835 203.628C386.241 203.606 385.654 203.764 385.152 204.082C383.98 204.855 382.708 205.464 381.372 205.892C381.17 205.956 380.181 206.202 380.274 206.547C380.368 206.893 381.401 206.617 381.554 206.547L381.549 206.587Z" fill="#6A79A8"/>
<path d="M381.278 213.9L383.581 210.285C383.803 209.94 382.73 210.078 382.641 210.093C382.218 210.172 381.499 210.32 381.243 210.724L378.925 214.334C378.699 214.684 379.777 214.546 379.865 214.526C380.289 214.452 381.007 214.299 381.263 213.9H381.278Z" fill="#6A79A8"/>
<path d="M371.05 220.399L368.59 217.283C368.009 216.553 365.725 217.421 366.394 218.269L368.855 221.385C369.436 222.12 371.72 221.247 371.05 220.399Z" fill="#6A79A8"/>
<path d="M383.227 219.275L389.625 217.953C389.925 217.894 390.988 217.682 391.003 217.253C391.018 216.824 390.324 216.868 390.019 216.933L383.621 218.254C383.325 218.313 382.257 218.525 382.242 218.954C382.228 219.383 382.922 219.339 383.227 219.275Z" fill="#6A79A8"/>
<path d="M378.433 223.363C378.162 223.086 377.948 222.758 377.805 222.397C377.663 222.036 377.593 221.65 377.601 221.262C377.641 220.103 375.239 220.498 375.204 221.484C375.177 222.011 375.255 222.539 375.434 223.035C375.613 223.531 375.89 223.987 376.248 224.374C376.471 224.553 376.743 224.661 377.028 224.683C377.313 224.706 377.599 224.643 377.847 224.502C378.197 224.339 378.832 223.792 378.433 223.363Z" fill="#6A79A8"/>
<path d="M371.917 230.143L366.828 228.343C366.256 228.242 365.666 228.347 365.164 228.639C364.913 228.763 364.382 229.132 364.884 229.295L369.973 231.095C370.545 231.196 371.134 231.091 371.636 230.799C371.882 230.676 372.419 230.306 371.917 230.143Z" fill="#6A79A8"/>
<path d="M377.306 230.74L378.128 229.428C378.408 228.975 377.882 228.787 377.503 228.792C377.183 228.796 376.868 228.861 376.573 228.984C376.32 229.067 376.096 229.221 375.928 229.428L375.106 230.74C374.825 231.194 375.352 231.381 375.736 231.371C376.055 231.371 376.371 231.307 376.666 231.184C376.917 231.099 377.139 230.946 377.306 230.74Z" fill="#6A79A8"/>
<path d="M383.355 201.429C384.374 200.139 385.596 199.023 386.972 198.125C387.386 197.854 387.223 197.558 386.805 197.489C386.209 197.444 385.615 197.604 385.122 197.943C383.625 198.917 382.295 200.127 381.184 201.528C380.85 201.947 381.475 202.021 381.775 202.021C382.359 202.028 382.925 201.815 383.36 201.424L383.355 201.429Z" fill="#6A79A8"/>
<path d="M383.252 225.883L385.855 223.392C385.939 223.335 386.003 223.252 386.038 223.157C386.073 223.061 386.077 222.957 386.051 222.858C386.024 222.76 385.968 222.672 385.89 222.607C385.812 222.542 385.715 222.503 385.614 222.495C385.317 222.436 385.011 222.446 384.72 222.525C384.428 222.604 384.158 222.749 383.931 222.949L381.332 225.439C381.248 225.497 381.185 225.579 381.15 225.675C381.114 225.77 381.11 225.875 381.136 225.973C381.163 226.071 381.219 226.159 381.297 226.224C381.375 226.289 381.472 226.328 381.573 226.336C381.869 226.395 382.174 226.384 382.465 226.305C382.756 226.227 383.025 226.082 383.252 225.883Z" fill="#6A79A8"/>
<path d="M372.748 213.367C371.771 213.185 370.86 212.74 370.115 212.08C369.781 211.789 368.934 212.08 368.58 212.209C368.412 212.273 367.551 212.618 367.876 212.899C368.708 213.619 369.717 214.103 370.799 214.299C371.371 214.371 371.952 214.266 372.463 213.999C372.65 213.91 373.29 213.471 372.748 213.367Z" fill="#6A79A8"/>
<path d="M377.655 207.904C377.611 206.646 377.572 205.384 377.527 204.121C377.527 203.441 375.121 203.895 375.15 204.762C375.194 206.025 375.234 207.282 375.278 208.545C375.278 209.225 377.685 208.776 377.655 207.904Z" fill="#6A79A8"/>
<path d="M371.67 206.252L370.686 203.623C370.435 202.943 368.087 203.663 368.309 204.264L369.293 206.893C369.549 207.568 371.897 206.853 371.67 206.252Z" fill="#6A79A8"/>
</g>
<defs>
<clipPath id="clip0_102_154198">
<rect width="409" height="430" fill="white"/>
</clipPath>
</defs>
</svg>
