<?xml version="1.0" encoding="UTF-8"?>
<!DOCTYPE svg PUBLIC "-//W3C//DTD SVG 1.1//EN" "http://www.w3.org/Graphics/SVG/1.1/DTD/svg11.dtd">
<!-- Creator: CorelDRAW 2020 (64-Bit) -->
<svg xmlns="http://www.w3.org/2000/svg" xml:space="preserve" width="1097px" height="221px" version="1.1" style="shape-rendering:geometricPrecision; text-rendering:geometricPrecision; image-rendering:optimizeQuality; fill-rule:evenodd; clip-rule:evenodd"
viewBox="0 0 1096.87 220.93"
 xmlns:xlink="http://www.w3.org/1999/xlink"
 xmlns:xodm="http://www.corel.com/coreldraw/odm/2003">
 <defs>
  <style type="text/css">
   <![CDATA[
    .fil0 {fill:#22c55e}
    .fil2 {fill:#a1a8bd}
    .fil4 {fill:#22c55e;fill-rule:nonzero}
    .fil3 {fill:#a1a8bd;fill-rule:nonzero}
    .fil1 {fill:#a1a8bd;fill-rule:nonzero}
   ]]>
  </style>
 </defs>
 <g id="Layer_x0020_1">
  <metadata id="CorelCorpID_0Corel-Layer"/>
  <g id="_2595528230032">
   <rect class="fil0" y="184.76" width="104.56" height="36.04" rx="15.35" ry="18.02"/>
   <path class="fil1" d="M383.51 114.79l0 -82.16 0 -13.85c0,-10.6 -9.08,-18.78 -20.9,-18.78 -11.81,0 -20.9,8.18 -20.9,18.78l0 183.25c0,10.6 9.09,18.77 20.9,18.77 11.82,0 20.9,-8.17 20.9,-18.77l0 -42.11 0 -45.13z"/>
   <path class="fil1" d="M232.37 155.68c0,41.2 12.12,64.22 59.07,64.22 15.14,0 29.07,-2.43 29.07,-20 0,-11.2 -5.75,-16.35 -24.83,-16.35 -0.61,0 -2.43,0.3 -5.15,0.3 -14.54,0 -16.36,-7.87 -16.36,-30.29l0 -52.34 22.41 0c11.21,0 20,-7.57 20,-17.87 0,-10.3 -8.79,-18.17 -20,-18.17l-22.41 0 0 -27.02c0,-9.99 -7.57,-18.47 -20.9,-18.47 -13.33,0 -20.9,8.18 -20.9,18.47l0 117.52z"/>
   <path class="fil1" d="M190.57 82.69c0,-10 -9.08,-18.48 -20.89,-18.48 -11.82,0 -20.9,8.48 -20.9,18.48l0 119.34c0,10.6 9.08,18.77 20.9,18.77 11.81,0 20.89,-8.17 20.89,-18.77l0 -119.34z"/>
   <circle class="fil2" cx="169.67" cy="25.56" r="22.13"/>
   <rect class="fil2" transform="matrix(1.8206E-14 -1.09574 0.635329 2.68211E-14 101.765 100.255)" width="32.89" height="130.47" rx="16.45" ry="16.45"/>
   <g>
    <path class="fil3" d="M484.03 189.3c7.11,7.48 6.82,19.32 -0.66,26.44 -7.48,7.11 -19.32,6.82 -26.44,-0.66l-55.99 -59.1c-6.9,-7.25 -6.83,-18.61 0,-25.78l55.99 -59.08c7.12,-7.48 18.96,-7.78 26.44,-0.66 7.48,7.11 7.77,18.95 0.66,26.43l-43.79 46.2 43.79 46.21z"/>
    <path class="fil4" d="M1008.64 189.3c-7.12,7.48 -6.82,19.32 0.66,26.44 7.48,7.11 19.31,6.82 26.43,-0.66l55.99 -59.1c6.91,-7.25 6.84,-18.61 0,-25.78l-55.99 -59.08c-7.12,-7.48 -18.95,-7.78 -26.43,-0.66 -7.48,7.11 -7.78,18.95 -0.66,26.43l43.78 46.2 -43.78 46.21z"/>
   </g>
   <g>
    <path class="fil4" d="M609.32 113.91c0,12.89 -7.19,16.79 -18.58,16.79 -3,0 -11.99,-0.3 -21.58,-1.2l0 -12.89c0,-11.99 7.79,-19.49 22.18,-19.49 11.69,0 17.98,4.8 17.98,16.79zm-17.08 47.66c40.46,0 58.15,-16.79 58.15,-45.56 0,-30.28 -19.49,-50.96 -58.75,-50.96 -41.67,0 -63.85,23.08 -63.85,53.36l0 50.05c0,29.68 22.78,52.46 62.35,52.46 19.18,0 57.55,-5.4 57.55,-26.38 0,-6.89 -4.2,-16.48 -18.58,-16.48 -5.1,0 -7.8,1.2 -9,1.79 -9.59,4.2 -17.38,6.6 -26.97,6.6 -16.19,0 -23.98,-6.6 -23.98,-16.79l0 -9.89c8.69,1.2 15.28,1.8 23.08,1.8z"/>
    <path class="fil4" d="M756.5 174.24l0 5.88c-9.02,4.02 -16.32,6.03 -22.48,6.03 -12.89,0 -19.49,-8.39 -19.49,-23.98l0 -33.87c0,-18.59 5.4,-27.88 20.09,-27.88 5.09,0 12.59,1.2 21.88,3.9l0 69.84 0 0.08zm41.8 -59.45l0 -82.16 0 -13.85c0,-10.6 -9.09,-18.78 -20.9,-18.78 -11.82,0 -20.9,8.18 -20.9,18.78l0 1.91 0 51.26c-10.79,-4.5 -17.09,-5.7 -26.38,-5.7 -42.86,0 -56.95,26.38 -56.95,62.05l0 33.87c0,35.07 20.08,58.75 54.85,58.75 11.68,0 21.62,-2.98 32.21,-7.99 3.72,4.81 9.93,7.87 17.17,7.87 11.81,0 20.9,-8.17 20.9,-18.77l0 -42.11 0 -45.13z"/>
    <path class="fil4" d="M964.88 122.35l-0.06 0 0 -23.77 0 -14.64c0,-10.2 -6.89,-17.99 -20.68,-17.99 -13.79,0 -20.68,7.79 -20.68,17.99l0 40.29 0 0.04 0 0.03 0 0.04 0 0.04 0 0.04 0 0.29 0 55.41c-9.02,4.02 -16.33,6.03 -22.48,6.03 -13.19,0 -19.49,-8.69 -19.49,-23.98l0 -78.23c0,-10.2 -7.49,-17.99 -20.68,-17.99 -13.19,0 -20.68,7.79 -20.68,17.99l0 78.23c0,35.07 19.48,58.75 55.75,58.75 10.22,0 20.6,-1.89 31.16,-7.11 3.44,4.37 9.26,7.12 17.1,7.12 13.19,0 20.68,-7.79 20.68,-17.98l0 -22.8 0 -55.44 0 -0.03 0 -0.04 0 -0.04 0 -0.04 0 -0.04 0 -0.03c0,-0.73 0.02,-1.44 0.06,-2.14z"/>
   </g>
  </g>
 </g>
</svg>
