<?xml version="1.0" encoding="UTF-8"?>
<!DOCTYPE svg PUBLIC "-//W3C//DTD SVG 1.1//EN" "http://www.w3.org/Graphics/SVG/1.1/DTD/svg11.dtd">
<!-- Creator: CorelDRAW 2020 (64-Bit) -->
<svg xmlns="http://www.w3.org/2000/svg" xml:space="preserve" width="1723px" height="1326px" version="1.1" style="shape-rendering:geometricPrecision; text-rendering:geometricPrecision; image-rendering:optimizeQuality; fill-rule:evenodd; clip-rule:evenodd"
viewBox="0 0 1722.61 1325.42"
 xmlns:xlink="http://www.w3.org/1999/xlink"
 xmlns:xodm="http://www.corel.com/coreldraw/odm/2003">
 <defs>
  <style type="text/css">
   <![CDATA[
    .fil2 {fill:black}
    .fil0 {fill:#7557E6}
    .fil1 {fill:black;fill-rule:nonzero}
    .fil3 {fill:#7557E6;fill-rule:nonzero}
   ]]>
  </style>
 </defs>
 <g id="Layer_x0020_1">
  <metadata id="CorelCorpID_0Corel-Layer"/>
  <path class="fil0" d="M47.94 577.25l230.79 0c26.47,0 47.94,25.21 47.94,56.3l0 0c0,31.08 -21.47,56.29 -47.94,56.29l-230.79 0c-26.47,0 -47.94,-25.21 -47.94,-56.29l0 0c0,-31.09 21.47,-56.3 47.95,-56.3z"/>
  <path class="fil1" d="M1198.16 358.65l0 -256.71 0 -43.25c0,-33.14 -28.36,-58.69 -65.28,-58.69 -36.92,0 -65.3,25.55 -65.3,58.69l0 572.5c0,33.1 28.39,58.65 65.3,58.65 36.92,0 65.28,-25.55 65.28,-58.65l0 -131.56 0 -140.98 0 0z"/>
  <path class="fil1" d="M725.98 486.39c0,128.71 37.85,200.61 184.53,200.61 47.31,0 90.85,-7.56 90.85,-62.44 0,-35.04 -17.99,-51.09 -77.61,-51.09 -1.88,0 -7.56,0.93 -16.09,0.93 -45.41,0 -51.09,-24.61 -51.09,-94.63l0 -163.54 70.02 0c35.01,0 62.47,-23.64 62.47,-55.81 0,-32.2 -27.46,-56.78 -62.47,-56.78l-70.02 0 0 -84.39c0,-31.24 -23.65,-57.75 -65.28,-57.75 -41.67,0 -65.31,25.55 -65.31,57.75l0 367.14 0 0z"/>
  <path class="fil1" d="M595.39 258.33c0,-31.21 -28.39,-57.72 -65.3,-57.72 -36.89,0 -65.28,26.52 -65.28,57.72l0 372.86c0,33.1 28.39,58.65 65.28,58.65 36.92,0 65.3,-25.55 65.3,-58.65l0 -372.86z"/>
  <circle class="fil2" cx="530.09" cy="79.86" r="69.15"/>
  <path class="fil2" d="M317.92 256.94l0 0c0,-31.09 14.62,-56.3 32.65,-56.3l193.68 0c18.03,0 32.65,25.21 32.65,56.3l0 0c0,31.08 -14.62,56.3 -32.65,56.3l-193.69 0c-18.02,0 -32.64,-25.22 -32.64,-56.3z"/>
  <path class="fil1" d="M1512.21 591.43c22.23,23.36 21.3,60.34 -2.06,82.58 -23.37,22.23 -60.35,21.33 -82.58,-2.06l-174.94 -184.62c-21.58,-22.68 -21.36,-58.13 0,-80.55l174.94 -184.59c22.23,-23.36 59.21,-24.3 82.58,-2.06 23.36,22.24 24.29,59.22 2.06,82.58l-136.8 144.36 136.8 144.36 0 0z"/>
  <g id="_1473969624176">
   <path class="fil3" d="M136.11 1069.35c0,-44.29 -19.36,-67.9 -66.9,-67.9 -27.23,0 -56.09,7.87 -56.09,27.21 0,8.21 5.24,19.05 19.02,19.05 6.21,0 9.84,-2.31 12.46,-3.28 6.56,-2.97 12.12,-5.25 21.33,-5.25 16.71,0 24.93,7.22 24.93,22.61l0 10.5c-8.53,-2.62 -17.06,-3.28 -25.93,-3.28 -43.29,0 -64.93,16.74 -64.93,50.19l0 0.97c0,31.17 20.33,51.81 58.37,51.81 18.37,0 32.14,-4.9 44.29,-14.74 7.53,10.5 15.74,13.78 27.86,13.78 17.4,0 23.61,-6.56 23.61,-17.06 0,-6.9 -2.62,-10.49 -7.52,-12.46 -5.59,-2.31 -10.5,-1.31 -10.5,-11.15l0 -61 0 0zm-68.55 31.49c6.56,0 15.08,0.96 23.3,2.62l0 23.61c-8.53,6.56 -17.05,8.53 -25.58,8.53 -14.12,0 -20.36,-4.28 -20.36,-15.09l0 -1c0,-9.84 3.62,-18.67 22.64,-18.67l0 0zm162.69 7.87l40.01 54.09c4.59,6.25 10.5,9.18 18.68,9.18 12.15,0 21.33,-7.21 21.99,-18.33 0,-3.62 -1.31,-8.56 -3.63,-11.84l-41.32 -54.44 41.32 -54.44c2.32,-3.28 3.63,-8.18 3.63,-11.8 -0.66,-11.15 -9.84,-18.37 -21.99,-18.37 -8.18,0 -14.09,2.94 -18.68,9.19l-40.01 54.12 -4.59 0 0 -43.63c0,-10.84 -9.84,-20.02 -22.64,-20.02 -12.81,0 -22.65,9.18 -22.65,20.02l0 129.21c0,11.49 9.84,20.33 22.65,20.33 12.8,0 22.64,-8.84 22.64,-20.33l0 -42.94 4.59 0 0 0zm237.12 -39.36c0,-44.29 -19.36,-67.9 -66.9,-67.9 -27.24,0 -56.1,7.87 -56.1,27.21 0,8.21 5.25,19.05 19.03,19.05 6.24,0 9.83,-2.31 12.46,-3.28 6.56,-2.97 12.15,-5.25 21.33,-5.25 16.71,0 24.92,7.22 24.92,22.61l0 10.5c-8.52,-2.62 -17.05,-3.28 -25.92,-3.28 -43.29,0 -64.93,16.74 -64.93,50.19l0 0.97c0,31.17 20.33,51.81 58.37,51.81 18.37,0 32.14,-4.9 44.29,-14.74 7.53,10.5 15.74,13.78 27.86,13.78 17.4,0 23.61,-6.56 23.61,-17.06 0,-6.9 -2.62,-10.49 -7.53,-12.46 -5.59,-2.31 -10.49,-1.31 -10.49,-11.15l0 -61 0 0zm-68.56 31.49c6.56,0 15.09,0.96 23.3,2.62l0 23.61c-8.52,6.56 -17.05,8.53 -25.58,8.53 -14.11,0 -20.33,-4.28 -20.33,-15.09l0 -1c0,-9.84 3.59,-18.67 22.61,-18.67l0 0zm154.48 -96.76c-10.8,0 -18.67,9.83 -19.02,19.67l-2.93 59.69c-1.32,23.95 -6.56,41.01 -16.75,49.19 -15.74,0 -19.36,13.77 -19.36,20.33l0 42.32c0,11.5 9.84,20.34 22.64,20.34 12.81,0 22.65,-8.84 22.65,-20.34l0 -25.58 90.51 0 0 25.58c0,11.5 9.84,20.34 22.61,20.34 12.81,0 22.65,-8.84 22.65,-20.34l0 -42.32c0,-7.21 -4.25,-20.33 -19.37,-20.33l-2.28 0 0 -108.22c0,-7.22 -4.28,-20.33 -19.36,-20.33l-81.99 0 0 0zm21.65 80.02l1.65 -42.95 32.8 0 0 91.48 -44.6 0c5.9,-13.12 9.18,-29.83 10.15,-48.53l0 0zm190.89 22.95c44.29,0 63.62,-18.36 63.62,-49.85 0,-33.1 -21.33,-55.75 -64.27,-55.75 -45.6,0 -69.87,25.27 -69.87,58.38l0 54.78c0,32.45 24.92,57.37 68.21,57.37 20.99,0 63,-5.9 63,-28.86 0,-7.52 -4.59,-18.02 -20.33,-18.02 -5.59,0 -8.56,1.31 -9.84,1.97 -10.53,4.59 -19.05,7.22 -29.55,7.22 -17.71,0 -26.23,-7.22 -26.23,-18.37l0 -10.84c9.52,1.31 16.74,1.97 25.26,1.97l0 0zm18.68 -52.13c0,14.09 -7.87,18.37 -20.33,18.37 -3.28,0 -13.12,-0.35 -23.61,-1.31l0 -14.12c0,-13.12 8.52,-21.3 24.26,-21.3 12.81,0 19.68,5.25 19.68,18.36zm166.63 90.52c9.18,0 16.71,-4.6 20.99,-11.81l24.26 -45.6 0 63.62c0,11.15 9.84,20.33 22.65,20.33 11.81,0 22.3,-9.18 22.3,-20.33l0 -128.21c0,-12.15 -10.18,-21.02 -23.61,-21.02 -10.5,0 -17.06,4.62 -21.65,12.15l-45.29 77.08 -45.25 -77.08c-4.59,-7.53 -11.15,-12.15 -21.65,-12.15 -13.43,0 -23.61,8.87 -23.61,21.02l0 128.21c0,11.15 9.84,20.33 22.3,20.33 12.15,0 22.65,-9.18 22.65,-20.33l0 -63.62 24.26 45.6c4.25,7.21 11.81,11.81 20.99,11.81l0.66 0zm156.44 27.23c8.53,0 16.4,-4.28 21.34,-10.84l54.44 -83.95 0 73.77c0,11.15 9.83,21.02 22.61,21.02 12.8,0 22.64,-9.87 22.64,-21.02l0 -127.9c0,-12.46 -9.52,-21.64 -23.61,-21.64 -8.87,0 -17.4,3.93 -21.64,11.15l-54.79 84.61 0 -75.09c0,-11.18 -10.49,-20.67 -22.95,-20.67 -12.81,0 -22.3,9.49 -22.3,20.67l0 128.21c0,11.81 9.83,21.68 24.26,21.68l0 0zm271.23 -0.69c12.81,0 22.65,-9.18 22.65,-20.33l0 -127.24c0,-10.81 -9.84,-20.33 -22.65,-20.33l-50.5 0c-42.95,0 -64.28,20.98 -64.28,51.81 0,23.61 9.18,40.01 30.83,47.88l-28.55 38.04c-2.28,3.28 -3.59,8.53 -3.59,12.15 0.66,11.15 9.53,18.02 21.99,18.02 7.87,0 13.77,-2.93 18.68,-9.18l39.04 -53.44 13.77 0 0 42.29c0,11.15 9.84,20.33 22.61,20.33l0 0zm-69.84 -115.09c0,-10.49 6.88,-15.43 19.99,-15.43l27.24 0 0 30.83 -23.61 0c-20.02,0 -23.61,-7.87 -23.61,-15.4l-0.01 0z"/>
   <path class="fil3" d="M1446.93 1226.74c-22.24,23.39 -21.3,60.37 2.06,82.61 23.36,22.2 60.34,21.3 82.58,-2.06l174.94 -184.65c21.58,-22.65 21.36,-58.13 0,-80.52l-174.94 -184.62c-22.24,-23.36 -59.22,-24.3 -82.58,-2.06 -23.36,22.24 -24.3,59.22 -2.06,82.58l136.8 144.36 -136.8 144.36 0 0z"/>
  </g>
 </g>
</svg>
