<svg width="558" height="431" viewBox="0 0 558 431" fill="none" xmlns="http://www.w3.org/2000/svg">
    <path d="M542.408 424.284C542.008 424.901 539.025 425.57 532.721 426.297C488.551 431.391 436.389 429.811 390.973 429.837C305.654 429.89 220.325 428.783 135.086 428.783C81.8869 427.73 19.9792 425.011 72.652 421.292C132.581 417.078 197.593 417.684 258.212 417.189C313.13 416.743 368.044 417.069 422.955 418.168C432.253 418.369 544.618 420.85 542.408 424.284Z" fill="#EEEEEE"/>
    <path d="M423.697 22.6006H182.349C179.443 22.6006 177.087 24.9592 177.087 27.8686V348.636C177.087 351.546 179.443 353.904 182.349 353.904H423.697C426.603 353.904 428.959 351.546 428.959 348.636V27.8686C428.959 24.9592 426.603 22.6006 423.697 22.6006Z" fill="#F8F8F8"/>
    <path d="M413.889 23.4856C418.204 23.4856 427.233 21.7103 427.675 27.9898C427.717 28.5745 427.675 29.1803 427.675 29.7703V344.179C427.675 347.435 428.454 352.74 423.808 353.019C420.477 353.219 417.077 353.019 413.741 353.019H229.723C228.308 353.019 227.745 354.794 229.476 354.794H421.871C426.318 354.794 430.196 352.687 430.243 347.735C430.343 337.637 430.243 327.527 430.243 317.429V32.3991C430.243 29.2804 430.811 25.4453 428.138 23.2117C426.123 21.5207 423.666 21.7156 421.219 21.7156H414.141C412.721 21.7156 412.157 23.4856 413.889 23.4856Z" fill="#5D7183"/>
    <path d="M402.123 1.52864H160.775C157.869 1.52864 155.513 3.8872 155.513 6.79663V327.564C155.513 330.474 157.869 332.832 160.775 332.832H402.123C405.029 332.832 407.385 330.474 407.385 327.564V6.79663C407.385 3.8872 405.029 1.52864 402.123 1.52864Z" fill="white"/>
    <path d="M256.933 73.4893H380.517C381.996 73.4893 382.438 71.5402 380.717 71.5402H257.133C255.655 71.5402 255.213 73.4893 256.933 73.4893Z" fill="#CACEDE"/>
    <path d="M256.928 94.477H380.512C381.98 94.477 382.443 92.5647 380.722 92.5647H257.138C255.67 92.5647 255.207 94.477 256.928 94.477Z" fill="#CACEDE"/>
    <path d="M211.158 107.502C224.654 104.243 232.956 90.6489 229.701 77.138C226.446 63.6271 212.867 55.316 199.371 58.5746C185.875 61.8333 177.574 75.4277 180.829 88.9386C184.084 102.45 197.663 110.761 211.158 107.502Z" fill="#ABDFF5"/>
    <path d="M189.779 76.5658L203.245 90.0466C203.861 90.663 205.15 90.1625 205.613 89.583C212.322 81.1859 220.515 72.3251 230.113 67.2995C231.665 66.4882 230.239 65.5716 229.087 66.1774C218.905 71.5033 210.349 80.5853 203.234 89.4882L205.602 89.0299L192.131 75.5491C191.474 74.8906 189.064 75.8494 189.779 76.5658Z" fill="#5D7183"/>
    <path d="M256.933 247.317H379.412C380.896 247.317 381.338 245.368 379.617 245.368H257.133C255.655 245.368 255.213 247.317 256.933 247.317Z" fill="#CACEDE"/>
    <path d="M256.928 268.32H380.733C382.206 268.32 382.669 266.408 380.948 266.408H257.138C255.67 266.408 255.207 268.32 256.928 268.32Z" fill="#CACEDE"/>
    <path d="M223.049 274.634C232.866 264.806 232.866 248.872 223.049 239.045C213.233 229.217 197.317 229.217 187.501 239.045C177.684 248.872 177.684 264.806 187.501 274.634C197.317 284.461 213.233 284.461 223.049 274.634Z" fill="#ABDFF5"/>
    <path d="M189.779 250.409L203.245 263.89C203.861 264.506 205.15 264.006 205.613 263.432C212.322 255.035 220.515 246.169 230.113 241.143C231.665 240.332 230.239 239.415 229.087 240.021C218.905 245.347 210.349 254.429 203.234 263.337L205.602 262.873L192.131 249.393C191.474 248.734 189.064 249.693 189.779 250.409Z" fill="#5D7183"/>
    <path d="M406.122 193.473V321.69C406.122 323.592 406.217 325.515 406.122 327.411C405.938 331.157 403.365 331.947 400.408 331.947H296.625C277.682 331.947 258.738 331.568 239.795 331.947C239.49 331.947 239.185 331.947 238.874 331.947C237.459 331.947 236.896 333.723 238.627 333.723H397.919C399.218 333.723 400.55 333.791 401.834 333.723C406.391 333.475 408.674 330.072 408.674 325.894V193.252C408.674 191.977 406.106 192.393 406.106 193.473H406.122Z" fill="#5D7183"/>
    <path d="M156.797 211.189V9.89423C156.797 8.89858 156.744 7.88185 156.797 6.8862C156.97 3.66747 159.223 2.41369 161.98 2.41369H399.002C399.918 2.41369 400.881 2.3294 401.796 2.41369C405.817 2.80352 406.101 6.28565 406.101 9.34635V110.597C406.101 111.877 408.669 111.461 408.669 110.381V8.35598C408.669 4.35758 406.922 0.912315 402.407 0.643648C399.492 0.475073 396.513 0.643648 393.598 0.643648H166.758C162.417 0.643648 156.707 -0.162353 154.655 4.85804C154.092 6.25405 154.213 7.77123 154.213 9.24099V211.426C154.213 212.706 156.781 212.29 156.781 211.21L156.797 211.189Z" fill="#5D7183"/>
    <path d="M418.441 186.598L212.638 209.619C211.91 209.701 211.173 209.639 210.47 209.436C209.766 209.233 209.109 208.893 208.537 208.435C207.965 207.978 207.488 207.412 207.134 206.77C206.781 206.128 206.557 205.422 206.476 204.694L199.788 144.76C199.707 144.032 199.769 143.295 199.973 142.591C200.176 141.887 200.516 141.23 200.973 140.658C201.43 140.086 201.995 139.609 202.635 139.255C203.276 138.901 203.981 138.678 204.708 138.596L410.511 115.575C411.98 115.411 413.455 115.838 414.61 116.761C415.765 117.685 416.507 119.03 416.673 120.501L423.361 180.435C423.442 181.163 423.379 181.9 423.176 182.604C422.972 183.307 422.633 183.964 422.176 184.537C421.719 185.109 421.154 185.586 420.513 185.939C419.872 186.293 419.168 186.517 418.441 186.598Z" fill="white"/>
    <path d="M418.614 185.903L384.774 189.685L311.274 197.909L240.489 205.811L218.741 208.265C214.374 208.755 208.554 210.404 207.691 203.988C206.439 194.506 205.586 184.949 204.502 175.441C203.382 165.389 202.061 155.338 201.135 145.266C200.556 138.944 205.602 139.186 209.985 138.691L231.097 136.331L301.939 128.429L375.681 120.18L400.413 117.414C403.649 117.056 407.069 116.313 410.331 116.308C415.367 116.308 415.441 121.212 415.846 124.842C416.414 129.92 416.981 135 417.546 140.082C418.872 151.945 420.196 163.807 421.519 175.667C421.892 178.991 423.476 185.081 418.619 185.934C417.419 186.14 416.514 187.636 418.267 187.331C421.982 186.683 424.876 184.133 424.634 180.124C424.592 179.45 424.481 178.765 424.407 178.09C423.885 173.409 423.359 168.726 422.829 164.041C421.426 151.573 420.035 139.106 418.656 126.638C418.361 124.041 418.53 120.453 417.246 118.083C415.667 115.149 412.573 114.706 409.605 115.038L394.109 116.771L326.755 124.304L248.351 133.076C234.085 134.656 219.773 136.068 205.528 137.869C201.608 138.365 198.277 140.825 198.54 145.144C198.698 147.778 199.125 150.386 199.414 152.989C200.817 165.604 202.22 178.22 203.624 190.839L205.06 203.703C205.518 207.828 208.044 210.726 212.532 210.357C216.279 210.046 220.02 209.519 223.756 209.098L286.716 202.055L366.067 193.178L415.825 187.615L418.267 187.341C419.493 187.162 420.377 185.703 418.614 185.903Z" fill="#5D7183"/>
    <path d="M291.547 155.059L365.11 146.83L375.503 145.666C376.824 145.518 377.545 143.849 375.798 144.043L302.235 152.272L291.837 153.436C290.516 153.584 289.8 155.254 291.547 155.059Z" fill="#5D7183"/>
    <path d="M293.92 176.131L368.594 167.755L379.197 166.569C380.649 166.406 381.117 164.409 379.397 164.604L304.723 172.97L294.12 174.155C292.668 174.319 292.2 176.315 293.92 176.125V176.131Z" fill="#5D7183"/>
    <path d="M259.194 188.239C269.01 178.411 269.01 162.478 259.194 152.65C249.377 142.822 233.461 142.822 223.645 152.65C213.828 162.478 213.828 178.411 223.645 188.239C233.461 198.066 249.377 198.066 259.194 188.239Z" fill="#ABDFF5"/>
    <path d="M225.24 165.642L240.116 177.543C240.5 177.764 240.951 177.84 241.385 177.755C241.82 177.671 242.21 177.433 242.484 177.084C248.299 167.87 255.481 158.119 264.585 151.993C266.011 151.029 263.837 150.591 263.006 151.166C253.597 157.487 246.131 167.465 240.121 176.979L242.489 176.515L227.608 164.615C226.877 164.03 224.514 165.042 225.256 165.632L225.24 165.642Z" fill="#5D7183"/>
    <path d="M445.329 310.917C445.761 333.859 454.006 388.589 459.226 411.757C460.389 416.909 462.315 421.766 466.267 419.975C468.282 419.074 468.898 416.619 469.577 414.523C476.217 394.441 478.417 364.477 495.492 313.493C496.923 309.221 445.256 307.019 445.329 310.917Z" fill="#ABDFF5"/>
    <path d="M444.04 315.896C445.508 337.663 448.845 359.404 452.265 380.934C453.917 391.344 455.575 401.822 457.958 412.094C458.9 416.145 460.958 423.094 466.53 420.844C469.051 419.828 469.903 417.394 470.692 414.986C471.443 412.686 472.134 410.365 472.766 408.022C476.87 392.687 479.422 376.941 483.058 361.495C483.353 360.257 480.753 360.558 480.485 361.69C477.396 374.792 474.949 388.03 471.934 401.142C470.861 406.049 469.53 410.895 467.946 415.661C467.419 417.241 466.425 420.223 464.068 419.138C463.015 418.648 462.284 417.03 461.868 416.003C460.879 413.633 460.405 411.057 459.874 408.554C455.501 387.909 452.581 366.9 449.876 345.986C448.576 335.925 447.287 325.831 446.603 315.706C446.513 314.368 443.972 314.763 444.03 315.896H444.04Z" fill="#5D7183"/>
    <path d="M534.083 314.357C532.778 318.382 527.664 348.009 527.101 350.654C521.755 375.861 514.772 391.676 510.189 415.545C508.899 422.267 505.148 424.753 501.396 422.583C499.486 421.477 484.757 387.33 474.928 317.597C473.07 304.406 534.083 314.357 534.083 314.357Z" fill="#ABDFF5"/>
    <path d="M531.495 318.672C528.191 346.908 520.008 374.17 512.552 401.506C511.189 406.494 510.073 411.546 508.732 416.54C508.132 418.774 506.585 423.663 503.47 422.546C502.417 422.167 502.165 421.682 501.67 420.729C497.755 413.185 495.329 404.593 492.814 396.496C487.754 380.443 483.789 364.063 480.948 347.472C480.859 346.945 478.317 347.472 478.407 348.151C481.159 364.215 484.964 380.08 489.799 395.642C491.562 401.384 493.44 407.09 495.534 412.721C496.682 415.798 497.755 419.143 499.439 421.977C500.818 424.295 504.085 424.2 506.311 423.183C511.084 421.002 511.531 414.581 512.626 410.108C515.899 397.049 519.803 384.153 523.234 371.125C527.843 353.641 531.89 335.951 533.995 317.966C534.037 317.613 531.548 317.855 531.453 318.646L531.495 318.672Z" fill="#5D7183"/>
    <path d="M468.298 193.141C468.398 192.546 468.498 191.95 468.604 191.36C470.414 181.351 471.761 170.494 475.444 160.996C478.349 153.515 483.264 145.603 490.757 142.031C493.501 140.654 496.608 140.175 499.639 140.661C511.7 142.832 515.199 158.509 515.246 168.719C515.288 178.554 511.942 187.963 511.821 197.777C511.757 202.76 512.51 207.844 514.631 212.385C516.888 217.221 518.614 222.394 520.419 227.43C523.222 234.992 525.507 242.737 527.259 250.61C529.527 261.072 531.432 270.359 532.285 281.022C532.99 289.851 532.732 300.076 533.074 308.942C534.279 309.753 486.142 321.927 444.219 311.744C442.641 273.42 445.667 257.015 462.831 216.873C466.073 209.403 466.957 201.09 468.298 193.141Z" fill="white"/>
    <path d="M533.236 315.506C532.815 316.085 526.696 316.976 524.354 317.186C516.949 317.84 509.529 318.219 502.096 318.324C492.307 318.466 482.518 318.114 472.765 317.271C467.854 316.842 462.962 316.292 458.089 315.622C455.634 315.27 453.178 314.904 450.723 314.521C449.491 314.321 448.265 314.11 447.039 313.899C446.334 313.778 444.576 313.662 443.913 313.372C442.451 312.703 442.714 307.156 442.714 307.156C442.714 307.156 445.929 307.72 446.423 307.836C476.007 314.6 503.827 314.684 533.862 309.532C533.868 309.495 533.931 314.537 533.236 315.506Z" fill="white"/>
    <path d="M456.07 314.41C453.828 314.078 451.586 313.731 449.355 313.356C448.224 313.167 445.74 313.214 444.862 312.54C443.63 311.592 443.941 308.405 444.004 306.998L441.968 307.909C446.624 308.731 451.223 309.822 455.875 310.67C456.838 310.844 458.88 309.374 457.38 309.089C452.728 308.247 448.129 307.151 443.472 306.329C442.888 306.229 441.478 306.382 441.441 307.24C441.362 309.074 441.073 312.429 442.599 313.767C443.53 314.589 445.23 314.505 446.367 314.668C449.297 315.095 452.213 315.643 455.144 316.075C456.275 316.243 457.775 314.658 456.07 314.405V314.41Z" fill="#5D7183"/>
    <path d="M475.681 313.067C495.076 314.594 514.493 313.33 533.663 310.075L532.61 309.832C532.646 311.126 532.596 312.422 532.463 313.709C532.216 315.769 531.784 315.548 529.737 315.901C524.802 316.754 519.776 317.023 514.783 317.292C502.131 317.98 489.447 317.852 476.812 316.907C476.149 316.86 473.876 318.013 475.233 318.114C490.245 319.249 505.322 319.249 520.334 318.114C524.449 317.797 529.39 317.787 533.258 316.191C535.736 315.169 535.199 311.449 535.178 309.179C535.178 308.821 534.273 308.91 534.126 308.937C515.351 312.124 496.339 313.388 477.333 311.892C476.67 311.839 474.397 312.988 475.754 313.093L475.681 313.067Z" fill="#5D7183"/>
    <path d="M462.426 317.776L468.551 318.593C471.066 318.92 473.339 317.571 473.666 315.053C473.992 312.535 472.24 309.785 469.724 309.474L462.305 308.568C459.79 308.241 458.322 310.512 457.995 313.03C457.69 315.548 459.926 317.45 462.426 317.776Z" fill="white"/>
    <path d="M461.999 318.688C465.393 319.141 470.029 320.616 473.05 318.282C477.001 315.216 474.507 309.274 470.035 308.541C467.109 308.057 462.141 306.698 459.458 308.394C458.553 309.017 457.826 309.866 457.349 310.856C456.872 311.847 456.661 312.944 456.737 314.041C456.974 316.817 459.568 318.256 461.999 318.688C463.236 318.919 464.578 317.181 462.883 316.865C460.526 316.422 458.895 314.705 459.416 312.25C459.821 310.348 461.079 309.527 462.852 309.616C464.961 309.683 467.06 309.938 469.124 310.38C473.223 311.334 473.807 317.992 468.798 317.671C466.83 317.544 464.841 317.144 462.883 316.881C461.652 316.702 460.289 318.461 461.999 318.688Z" fill="#5D7183"/>
    <path d="M491.893 319.42C494.845 318.424 494.655 314.679 493.187 312.466C492.608 311.597 490.167 312.514 490.851 313.546C491.327 314.257 491.601 315.083 491.646 315.938C491.676 316.324 491.653 316.712 491.577 317.091C491.524 317.328 491.119 317.95 491.467 317.834C491.019 317.987 490.246 318.361 490.414 318.967C490.583 319.573 491.467 319.567 491.898 319.42H491.893Z" fill="#5D7183"/>
    <path d="M469.503 238.646C469.25 246.616 469.024 254.592 468.724 262.568C468.419 270.686 470.245 283.234 470.761 286.579C470.856 287.176 470.75 287.787 470.461 288.318C468.414 292.163 461.184 302.799 461.184 302.799C460.058 301.272 454.017 290.098 454.69 284.799C455.774 276.28 456.669 268.568 459.51 255.445C460.294 251.837 463.946 235.543 467.009 235.801L468.13 235.891C469.003 235.964 469.624 237.113 469.514 238.456C469.508 238.519 469.503 238.583 469.503 238.646Z" fill="#FFEEA4"/>
    <path d="M468.214 238.82C467.761 253.043 466.872 267.088 468.677 281.248C468.919 283.15 469.782 285.736 469.466 287.649C469.135 289.651 467.119 291.921 466.056 293.586C464.078 296.683 462.041 299.744 459.979 302.778L462.341 302.315C459.353 298.064 456.69 292.063 456.027 286.911C455.622 283.861 456.474 280.537 456.879 277.513C457.358 273.952 457.895 270.401 458.511 266.867C459.616 260.545 460.884 254.223 462.541 248.007C463.24 245.233 464.119 242.507 465.172 239.847C465.63 238.736 466.367 237.782 466.851 236.718C467.24 236.407 467.135 236.354 466.54 236.565L467.104 236.613C467.856 237.35 468.324 237.476 468.251 238.82C468.187 239.873 470.745 239.405 470.792 238.514C471.029 234.4 466.277 234.147 464.278 236.897C461.505 240.706 460.505 246.253 459.395 250.731C457.816 257.052 456.585 263.432 455.538 269.838C455.011 273.141 454.533 276.46 454.101 279.778C453.764 282.344 453.159 285.004 453.506 287.591C454.217 292.901 456.943 298.943 460.026 303.326C460.494 303.995 462.031 303.389 462.389 302.863C464.457 299.823 466.488 296.768 468.466 293.67C469.55 291.974 470.971 290.172 471.713 288.286C472.455 286.4 471.75 284.283 471.492 282.381C470.661 276.238 469.913 269.996 469.987 263.79C470.077 255.361 470.513 246.933 470.792 238.504C470.808 237.413 468.256 237.914 468.214 238.82Z" fill="#5D7183"/>
    <path d="M470.645 227.804C469.035 224.686 466.435 230.496 466.272 231.84C466.193 232.604 466.067 233.61 466.709 234.021C467.351 234.432 468.877 234.437 469.719 234.648C472.055 235.227 471.597 231.197 471.298 230.043C471.163 229.275 470.945 228.524 470.645 227.804Z" fill="#FFEEA4"/>
    <path d="M471.897 227.462C470.655 225.297 468.009 226.445 466.793 228.063C465.82 229.353 463.999 232.625 465.214 234.216C465.972 235.201 468.019 235.195 469.145 235.322C469.701 235.4 470.268 235.342 470.798 235.154C471.327 234.966 471.804 234.653 472.187 234.242C473.492 232.577 472.639 229.164 471.881 227.462C471.529 226.677 469.045 227.462 469.34 228.142C469.906 229.457 470.212 230.871 470.24 232.303C470.166 232.972 470.034 233.633 469.845 234.279C470.582 234.11 470.692 234.005 470.176 233.957C469.945 233.921 469.713 233.889 469.482 233.868C469.037 233.85 468.597 233.776 468.172 233.647C466.761 233.072 467.645 230.87 468.093 229.843C468.363 229.199 468.707 228.589 469.119 228.026C469.171 227.957 469.745 227.383 469.74 227.351C468.845 227.299 468.593 227.404 468.987 227.662C469.13 227.802 469.249 227.964 469.34 228.142C469.792 228.916 472.244 228.036 471.897 227.462Z" fill="#5D7183"/>
    <path d="M532.606 147.684C535.484 152.862 534.889 160.274 532.648 165.732C528.517 175.799 518.682 176.995 510.774 174.161C507.28 172.923 503.901 170.689 502.291 167.001C501.034 164.114 500.986 160.638 499.813 157.703C499.211 156.112 498.222 154.697 496.936 153.586C495.649 152.474 494.106 151.702 492.446 151.34C487.647 150.439 482.59 154.395 477.786 152.957C473.329 151.624 473.934 145.392 475.06 141.636C476.549 136.875 479.57 132.743 483.653 129.883C488.915 126.196 495.308 124.857 501.465 125.142C506.617 125.384 513.81 126.301 518.256 129.135C521.808 131.4 523.329 135.652 524.939 139.481C526.281 142.684 529.727 143.627 531.706 146.267C532.038 146.718 532.339 147.191 532.606 147.684Z" fill="#ABDFF5"/>
    <path d="M474.844 189C475.933 189.943 477.654 190.955 479.148 190.855C479.574 190.828 480.09 190.765 480.285 191.25C480.516 191.824 479.795 192.936 479.538 193.42C479.085 194.274 478.543 195.074 478.027 195.891C477.406 196.876 476.038 198.156 474.744 197.424C473.949 196.976 473.634 195.843 473.455 195.001C473.063 193.022 473.015 190.99 473.313 188.995C473.324 188.87 473.371 188.751 473.447 188.651C473.524 188.552 473.627 188.475 473.744 188.431C474.102 188.326 474.433 188.637 474.712 188.89L474.844 189Z" fill="#5D7183"/>
    <path d="M466.43 209.893C470.798 192.809 470.498 174.234 477.901 157.977C481.274 150.57 487.925 140.73 497.155 141.062C503.996 141.304 508.674 146.946 511.052 152.873C513.208 158.495 514.198 164.497 513.962 170.515C513.704 179.813 510.668 188.795 510.557 198.103C510.444 202.491 511.158 206.861 512.662 210.984C514.299 215.261 516.214 219.412 517.766 223.737C520.697 231.887 523.497 240.068 525.659 248.455C530.543 267.509 532.253 287.09 531.59 306.724C531.59 307.251 534.105 306.872 534.131 306.044C534.768 287.159 533.231 268.305 528.743 249.925C526.543 240.932 523.607 232.203 520.482 223.5C518.903 219.028 516.914 214.729 515.219 210.33C513.478 205.774 512.978 200.848 513.183 195.98C513.604 186.335 516.819 177.016 516.551 167.296C516.377 161.001 515.156 154.369 512.025 148.858C509.068 143.638 504.132 139.903 497.944 139.903C490.472 139.929 483.995 144.939 479.806 150.765C474.144 158.641 471.613 168.223 469.808 177.632C467.74 188.489 466.651 199.636 463.936 210.346C463.767 211.015 466.272 210.652 466.456 209.941L466.43 209.893Z" fill="#5D7183"/>
    <path d="M445.319 304.67C444.95 291.226 445.271 277.755 447.876 264.528C450.633 250.509 455.695 237.087 461.126 223.917C461.463 223.1 458.932 223.39 458.584 224.233C453.059 237.624 447.923 251.289 445.192 265.56C442.688 278.677 442.414 292.037 442.777 305.349C442.777 306.166 445.345 305.665 445.319 304.67Z" fill="#5D7183"/>
    <path d="M512.841 212.949C483.764 229.279 465.057 218.865 462.326 212.612C462.358 212.68 458.495 219.881 457.769 221.235C457.733 221.3 457.718 221.375 457.724 221.449C457.731 221.523 457.759 221.594 457.806 221.651C458.506 222.536 461.41 226.145 462.873 226.73C463.257 226.881 463.667 226.95 464.079 226.932C464.491 226.914 464.894 226.809 465.262 226.624C465.424 226.537 465.575 226.433 465.715 226.314C466.669 225.513 467.606 224.693 468.525 223.853C469.083 223.327 469.735 222.452 470.424 222.183C471.55 221.741 472.424 222.373 472.897 223.453C473.127 224.043 473.286 224.659 473.371 225.286C473.629 226.756 473.897 228.226 474.139 229.701C474.186 230.116 474.311 230.518 474.508 230.886C475.097 231.829 477.207 231.661 478.154 231.745C479.77 231.887 481.385 231.945 483.001 231.935C486.458 231.9 489.905 231.533 493.293 230.839C497.597 229.95 501.785 228.569 505.775 226.724C509.417 225.033 512.894 223.007 516.162 220.672L512.841 212.949Z" fill="white"/>
    <path d="M512.073 212.659C501.807 218.348 489.846 222.579 477.965 220.561C472.971 219.708 465.93 217.363 463.615 212.295C463.273 211.542 461.305 212.201 461.084 212.822C460.368 214.824 459.037 216.752 458.037 218.617C457.658 219.323 456.59 220.624 456.527 221.435C456.459 222.384 457.501 223.211 458.069 223.864C459.858 225.934 461.647 228.078 464.652 227.43C466.378 227.046 467.577 225.771 468.861 224.628C469.661 223.917 470.393 222.636 471.655 223.806C472.282 224.385 472.297 226.598 472.44 227.409C472.676 228.763 472.582 230.949 473.855 231.808C475.013 232.593 477.044 232.377 478.359 232.456C482.988 232.748 487.636 232.474 492.198 231.639C501.265 229.948 509.668 226.108 517.193 220.824C518.303 220.039 515.762 220.15 515.193 220.55C507.611 225.876 499.034 229.638 489.809 230.876C487.413 231.198 484.997 231.344 482.579 231.313C480.911 231.313 478.465 231.539 476.86 230.986C473.644 229.891 476.033 223.748 473.202 221.862C471.566 220.772 469.551 221.862 468.288 222.974C466.709 224.391 465.209 227.088 462.989 225.539C461.879 224.77 460.942 223.506 460.079 222.489C459.369 221.646 459.084 221.346 459.469 220.308C459.945 219.259 460.488 218.242 461.095 217.263C461.926 215.709 463.026 214.102 463.62 212.443L461.089 212.97C463.72 218.765 471.776 221.167 477.465 221.962C490.057 223.716 502.722 219.275 513.615 213.254C515.099 212.427 512.815 212.269 512.084 212.675L512.073 212.659Z" fill="#5D7183"/>
    <path d="M499.945 324.762C501.744 330.936 504.517 338.032 511.784 338.948C512.568 339.043 514.762 337.774 513.363 337.594C506.601 336.741 504.154 329.75 502.502 324.077C502.249 323.218 499.713 323.908 499.96 324.762H499.945Z" fill="#5D7183"/>
    <path d="M454.743 324.856C455.111 326.263 455.085 327.744 454.67 329.138C454.254 330.531 453.464 331.784 452.386 332.758C451.102 333.902 453.091 334.924 454.101 334.028C455.49 332.841 456.522 331.292 457.084 329.553C457.646 327.814 457.716 325.953 457.284 324.177C456.985 322.928 454.438 323.597 454.743 324.862V324.856Z" fill="#5D7183"/>
    <path d="M456.148 223.985C448.376 234.811 433.632 234.89 422.471 229.753C410.253 224.138 399.403 212.938 396.13 199.658C395.648 197.736 395.349 195.772 395.235 193.794C395.146 192.214 395.409 190.576 395.188 189.006C394.74 185.782 392.109 183.711 389.399 182.352C388.3 181.825 386.49 183.406 387.952 184.133C389.757 185.034 391.467 186.293 392.267 188.2C393.067 190.107 392.578 192.361 392.699 194.347C392.896 197.661 393.569 200.93 394.698 204.051C397.066 210.557 401.123 216.346 406.048 221.172C415.278 230.217 428.307 236.702 441.493 234.737C448.25 233.726 454.28 230.396 458.295 224.807C459.242 223.485 456.869 222.995 456.148 223.99V223.985Z" fill="#5D7183"/>
    <path d="M512.893 233.283C513.814 247.507 511.025 261.936 503.806 274.284C495.75 288.06 482.905 297.911 468.203 303.737C466.546 304.396 468.072 305.038 469.161 304.606C480.958 299.934 491.788 292.864 499.965 283.055C507.306 274.156 512.256 263.529 514.346 252.179C515.521 245.723 515.887 239.145 515.435 232.598C515.388 231.913 512.836 232.409 512.893 233.283Z" fill="#5D7183"/>
    <path d="M77.8616 417.231C78.5404 407.717 90.0431 360.779 86.0756 299.834C85.2126 286.558 126.414 300.545 138.001 311.202C138.377 311.548 138.729 311.919 139.054 312.313C140.441 311.222 141.89 310.212 143.395 309.29C149.32 305.628 156.203 302.757 163.091 303.764C164.07 303.847 165.011 304.185 165.821 304.743C167.116 305.76 170.641 305.56 170.905 307.188C171.983 313.873 170.81 321.153 170.005 327.928C169.259 333.576 168.198 339.177 166.827 344.706C163.973 357.107 160.448 369.344 156.266 381.361C154.766 385.628 143.011 424.416 133.481 424.416C123.952 424.416 124.709 348.71 124.22 345.707C122.115 349.358 101.72 397.507 89.3538 418.405C87.1543 422.125 82.5132 426.307 79.2981 423.415C77.6669 421.951 77.7037 419.427 77.8616 417.231Z" fill="#CACEDE"/>
    <path d="M169.384 320.026C168.505 333.248 165.379 346.366 161.906 359.098C158.246 372.592 153.855 385.877 148.751 398.893C146.736 404.008 144.61 409.086 142.163 414.007C140.669 417.03 139.096 420.434 136.744 422.91C136.479 423.229 136.171 423.509 135.828 423.742C135.591 423.879 136.475 423.7 135.775 423.679C135.407 423.681 135.04 423.64 134.681 423.557C133.16 423.157 132.129 421.882 131.434 420.539C129.219 416.246 129.071 410.751 128.803 406.036C127.577 385.781 128.14 365.557 125.488 345.37C125.42 344.843 123.136 345.549 122.962 345.95C114.922 364.456 106.561 382.868 97.5467 400.921C94.8683 406.284 92.1321 411.631 89.1275 416.836C87.591 419.527 82.5394 427.371 79.6558 421.967C78.5666 419.907 78.9928 417.225 79.2822 414.981C80.5872 404.825 82.5815 394.757 83.9391 384.601C86.7455 364.013 88.152 343.259 88.1487 322.481C88.1487 322.133 85.6072 322.481 85.6072 323.166C85.6249 342.986 84.3523 362.786 81.7975 382.441C80.3715 393.551 78.193 404.566 76.767 415.661C76.4513 418.1 75.9672 421.155 77.5142 423.247C79.198 425.507 82.2132 425.059 84.4653 424.042C90.0378 421.535 92.7688 414.475 95.4577 409.381C102.114 396.738 108.155 383.811 114.096 370.841C117.955 362.412 121.738 353.959 125.446 345.481L122.925 346.055C125.483 365.504 125.183 384.996 126.125 404.53C126.409 410.445 126.125 427.024 136.207 424.385C138.633 423.752 140.074 421.571 141.343 419.559C143.926 415.487 145.936 411.03 147.862 406.616C153.608 393.446 158.265 379.707 162.317 365.899C166.758 350.78 170.852 335.119 171.899 319.33C171.899 319.035 169.405 319.299 169.357 320.015L169.384 320.026Z" fill="#5D7183"/>
    <path d="M171.926 316.006C173.02 274.916 172.389 256.947 151.062 213.233C148.14 207.245 146.649 200.659 146.705 193.995C146.752 188.105 146.773 181.599 146.773 179.913V176.347C146.773 156.429 136.996 140.282 124.941 140.282C112.886 140.282 103.104 156.429 103.104 176.347V179.913C103.104 185.977 102.578 191.671 102.709 197.73C102.741 199.22 102.32 200.242 102.314 201.665C102.251 203.417 102.025 205.159 101.641 206.869C91.5009 250.067 85.2128 260.224 83.2238 317.597C81.982 318.451 128.977 327.138 171.926 316.006Z" fill="white"/>
    <path d="M99.7669 214.613C92.3212 245.036 85.9489 258.259 83.2231 317.597C85.4963 320.047 137.238 326.221 171.925 316.017C177.313 265.544 159.012 228.321 149.625 211.305C149.625 211.305 132.47 219.581 100.735 211.832C100.546 211.8 99.7669 214.613 99.7669 214.613Z" fill="white"/>
    <path d="M105.009 136.094C104.551 135.862 107.282 131.353 107.571 130.942C111.218 125.516 118.916 123.219 124.467 127.117C124.652 127.249 125.962 128.24 127.098 129.146C127.611 129.553 128.226 129.811 128.875 129.894C129.524 129.977 130.184 129.88 130.782 129.614C139.817 125.806 151.709 134.445 150.157 145.35C149.694 148.637 148.436 151.94 145.489 153.547C142.253 155.317 138.07 154.996 135.723 151.919C131.213 162.065 126.541 163.256 119.895 161.354C121.5 161.549 119.095 169.92 118.684 170.836C114.559 180.229 102.514 182.126 94.5581 176.473C91.2732 174.137 88.7755 170.855 87.3965 167.065C85.1023 160.685 88.4226 158.457 90.1538 152.957C91.2062 149.664 90.2801 146.193 91.5219 142.853C93.4531 137.574 99.4992 133.824 105.009 136.094Z" fill="#CACEDE"/>
    <path d="M153.472 216.747C144.137 199.658 151.198 180.124 146.547 162.123C143.579 150.639 134.613 135.594 120.479 140.082C114.012 142.136 109.429 147.873 106.603 153.779C102.841 161.602 101.804 170.146 101.804 178.733C101.804 184.101 101.425 189.453 101.383 194.822C101.417 198.655 101.112 202.484 100.473 206.264C99.0677 213.786 96.8681 221.24 94.9527 228.653C91.7166 241.196 88.4278 253.718 86.323 266.514C85.0812 274.073 84.2182 281.691 83.5447 289.324C83.1448 293.976 82.8343 298.638 82.5712 303.3C82.4344 305.758 82.3134 308.229 82.2081 310.712C82.1503 312.024 82.0976 313.346 82.045 314.642C82.0187 315.385 82.0871 316.222 82.045 316.949C81.9775 317.198 81.9317 317.451 81.9082 317.708C82.4344 319.557 86.9124 319.667 88.4647 319.931C94.7076 320.954 100.999 321.658 107.313 322.038C126.746 323.318 146.51 322.496 165.585 318.43C167.616 317.998 170.689 317.829 172.478 316.765C172.729 316.624 172.946 316.429 173.112 316.194C173.279 315.959 173.391 315.69 173.441 315.406C174.036 313.451 173.715 310.896 173.704 308.884C173.667 303.721 173.415 298.569 173.252 293.412C172.904 282.349 172.168 271.26 170 260.413C167.891 250.05 164.637 239.954 160.297 230.312C158.229 225.687 155.934 221.172 153.456 216.757C152.903 215.767 150.478 216.71 151.13 217.874C161.096 235.685 167.442 254.987 169.521 275.295C170.3 282.981 170.573 290.688 170.847 298.401C171.047 303.669 171.452 309.053 171.021 314.31C171.042 314.674 171.001 315.039 170.899 315.39C170.647 315.832 171.089 315.19 170.273 315.485C167.774 316.386 164.906 316.739 162.296 317.25C157.15 318.25 151.956 318.988 146.742 319.536C137.303 320.504 127.812 320.87 118.327 320.632C111.049 320.458 103.772 319.973 96.5471 319.109C94.0687 318.814 91.5956 318.472 89.1382 318.055C87.728 317.813 86.2388 317.281 84.8234 317.165C84.6971 317.165 84.4655 316.991 84.3498 317.018C83.592 317.218 85.2391 316.491 84.2445 317.481C83.9762 317.739 84.2445 318.208 84.4498 317.624C84.52 317.245 84.543 316.859 84.5182 316.475C84.6076 314.816 84.6445 313.151 84.7129 311.492C84.9181 306.687 85.1654 301.883 85.4916 297.084C86.0178 289.445 86.6914 281.806 87.7017 274.231C89.2803 262.162 91.9113 250.304 94.9107 238.514C98.2415 225.444 102.393 212.369 103.856 198.952C104.119 196.56 103.909 194.073 103.977 191.666C104.061 188.885 104.209 186.103 104.288 183.316C104.393 179.355 104.214 175.383 104.535 171.426C105.203 163.193 107.539 154.521 112.775 147.963C116.953 142.737 123.215 139.534 129.808 142.237C136.075 144.797 139.948 151.376 142.258 157.419C148.168 172.886 143.611 189.464 146.684 205.41C147.501 209.767 148.994 213.969 151.109 217.864C151.688 218.859 154.114 217.916 153.472 216.747Z" fill="#5D7183"/>
    <path d="M215.336 154.416C206.807 155.902 205.891 164.757 204.786 171.832C204.086 176.315 202.618 180.635 201.029 184.87C196.467 197.034 189.931 210.299 179.06 217.995C172.167 222.879 164.137 223.79 156.244 220.851C155.165 220.45 153.271 222.004 154.781 222.563C182.828 232.962 200.071 198.557 206.254 176.731C208.143 170.057 206.97 157.698 215.8 156.16C217.415 155.881 216.91 154.147 215.336 154.421V154.416Z" fill="#5D7183"/>
    <path d="M149.246 217.843C137.57 230.797 116.522 229.253 102.314 221.925C101.556 221.535 99.2306 222.631 100.299 223.184C115.68 231.086 138.712 232.24 151.293 218.296C152.298 217.179 149.835 217.189 149.246 217.843Z" fill="#5D7183"/>
    <path d="M139.011 186.324C139.953 185.94 140.863 187.241 140.637 188.7C140.358 190.502 139.585 192.13 138.469 192.888C136.717 194.095 134.423 192.888 133.497 190.317C133.307 189.915 133.216 189.472 133.234 189.027C133.318 188.147 133.802 187.478 134.375 187.373C135.891 187.093 137.538 186.92 139.011 186.324Z" fill="#5D7183"/>
    <path d="M43.617 220.539L18.2539 275.241C16.9581 278.036 18.1707 281.353 20.9622 282.65L208.799 369.94C211.591 371.237 214.904 370.023 216.2 367.228L241.563 312.527C242.859 309.732 241.646 306.415 238.854 305.117L51.0176 217.828C48.2261 216.53 44.9127 217.744 43.617 220.539Z" fill="white"/>
    <path d="M209.807 369.36L178.924 355.005L111.844 323.824L47.2527 293.796L27.4044 284.572C23.3526 282.692 17.1329 280.885 19.6324 274.905C23.1895 266.361 27.4464 258.048 31.3403 249.656L44.4217 221.435C45.4741 219.175 47.0527 217.305 50.0205 218.475C50.2205 218.554 50.4152 218.664 50.6151 218.749C52.0938 219.391 53.5461 220.113 55.0036 220.793L74.2732 229.748L138.928 259.776L206.229 291.057L228.792 301.551C231.792 302.947 234.923 304.185 237.843 305.765C242.442 308.215 240.474 312.398 238.853 315.859L232.586 329.366C227.521 340.299 222.452 351.23 217.379 362.159C215.958 365.23 214.38 371.146 209.818 369.366C209.06 369.065 206.75 370.182 207.792 370.588C211.054 371.868 215.09 370.988 217.058 367.906C217.477 367.165 217.85 366.398 218.174 365.61C220.078 361.497 221.985 357.386 223.893 353.277C229.194 341.818 234.51 330.356 239.843 318.893C240.963 316.475 242.784 313.736 243.284 311.07C243.921 307.693 241.705 305.365 238.916 304.069L224.741 297.505L163.264 268.932L91.6957 235.659C78.6722 229.606 65.7171 223.364 52.6094 217.495C49.2207 215.978 44.9111 216.541 42.7747 219.913C41.3645 222.147 40.4436 224.833 39.3386 227.22C34.0275 238.679 28.7164 250.134 23.4052 261.583L17.7222 273.831C16.07 277.397 16.0016 281.206 20.0165 283.313C23.3316 285.067 26.8571 286.474 30.2616 288.054L87.7229 314.758L160.144 348.42L205.555 369.529L207.781 370.583C208.528 370.93 210.854 369.845 209.807 369.36Z" fill="#5D7183"/>
    <path d="M116.248 277.118L183.386 308.326L192.858 312.735C193.716 313.135 196.015 311.929 194.852 311.392L127.73 280.189L118.258 275.775C117.401 275.38 115.101 276.581 116.264 277.118H116.248Z" fill="#5D7183"/>
    <path d="M107.692 296.388L175.84 328.065L185.517 332.558C186.638 333.085 188.443 331.457 186.964 330.772L118.816 299.096L109.144 294.597C108.018 294.07 106.213 295.698 107.697 296.388H107.692Z" fill="#5D7183"/>
    <path d="M87.9522 276.181C94.5999 263.98 90.1089 248.694 77.9214 242.039C65.7338 235.383 50.4649 239.879 43.8173 252.081C37.1697 264.282 41.6607 279.568 53.8482 286.224C66.0358 292.879 81.3046 288.383 87.9522 276.181Z" fill="#CACEDE"/>
    <path d="M96.7728 221.82C91.8371 235.401 78.6083 243.355 70.2312 254.55C65.9637 260.25 62.8644 266.793 62.3382 273.968C61.8723 281.314 63.5156 288.64 67.074 295.082C69.284 299.112 72.3834 302.194 75.3038 305.676C77.9927 308.879 80.8921 314.858 76.6561 318.192C75.3038 319.246 77.3876 319.91 78.2979 319.193C84.2282 314.526 80.1659 307.319 76.1931 302.952C70.5838 296.804 66.6057 290.019 65.2902 281.68C63.992 273.486 65.775 265.102 70.2943 258.148C74.3619 251.705 80.0238 246.558 85.349 241.169C90.9109 235.564 96.4466 229.58 99.1881 222.015C99.6617 220.719 97.1307 220.872 96.7834 221.82H96.7728Z" fill="#5D7183"/>
</svg>
