<svg width="396" height="430" viewBox="0 0 396 430" fill="none" xmlns="http://www.w3.org/2000/svg">
    <path d="M5.4604 420.383C-17.6171 423.567 39.4212 427.88 47.4224 428.187C133.844 431.537 227.355 429.976 312.97 425.705C316.335 425.613 319.69 425.309 323.016 424.795C344.179 420.83 276.195 418.141 269.879 417.933C246.412 417.163 222.569 416.658 198.909 416.575C165.37 416.46 34.068 416.445 5.4604 420.383Z" fill="#EEEEEE"/>
    <path d="M225.68 0.745682H22.9401C20.067 0.745682 17.7378 3.07485 17.7378 5.94803V140.226C17.7378 143.099 20.067 145.428 22.9401 145.428H225.68C228.553 145.428 230.882 143.099 230.882 140.226V5.94803C230.882 3.07485 228.553 0.745682 225.68 0.745682Z" fill="#F8F8F8"/>
    <path d="M232.142 57.2953V10.4116C232.142 8.48678 232.464 6.11971 231.954 4.22605C231.179 1.35435 228.474 0.0641624 225.712 0.0277459C222.658 -0.0346824 219.599 0.0277459 216.545 0.0277459H54.2324C44.27 0.0277459 34.3075 -0.02948 24.345 0.0277459C19.9543 0.0277459 16.5415 2.40002 16.4843 7.04052C16.4479 11.5926 16.4843 16.1498 16.4843 20.7071V130.045C16.4843 133.458 16.3438 136.907 16.4843 140.314C16.6456 144.31 19.6837 146.11 23.3462 146.146C27.7057 146.193 32.0653 146.146 36.4248 146.146H45.789C46.7463 146.146 48.4578 144.71 46.7671 144.71H24.5479C18.5652 144.71 18.997 139.721 18.997 135.487V11.9099C18.997 8.73649 17.9566 1.9058 22.4826 1.4636C24.6103 1.25551 26.8682 1.4636 29.0011 1.4636H221.004C224.645 1.4636 229.26 0.943365 229.624 6.14572C230.066 12.3469 229.624 18.7354 229.624 24.947V57.6074C229.624 58.6479 232.142 58.1276 232.142 57.2953Z" fill="#CFCFCF"/>
    <path d="M226.851 17.2995H47.0165C38.75 17.2995 30.3014 16.7793 22.0453 17.2995C21.9204 17.2995 21.8008 17.2995 21.6811 17.2995C20.7551 17.2995 19.0071 18.6938 20.6927 18.6938H200.527C208.793 18.6938 217.242 19.214 225.498 18.6938C225.623 18.6938 225.743 18.6938 225.862 18.6938C226.788 18.6938 228.536 17.2995 226.851 17.2995Z" fill="#CFCFCF"/>
    <path d="M389.444 164.823H186.704C183.831 164.823 181.502 167.152 181.502 170.025V304.303C181.502 307.176 183.831 309.505 186.704 309.505H389.444C392.318 309.505 394.647 307.176 394.647 304.303V170.025C394.647 167.152 392.318 164.823 389.444 164.823Z" fill="#F8F8F8"/>
    <path d="M180.243 211.779V303.164C180.243 306.904 181.976 309.927 186.174 310.067C196.1 310.385 206.088 310.067 216.02 310.067H351.712C363.906 310.067 376.121 310.255 388.316 310.067C391.395 310.02 394.787 308.756 395.703 305.479C396.067 304.183 395.901 302.628 395.901 301.317V181.84C395.901 177.813 396.124 173.714 395.901 169.687C395.641 165.088 391.739 164.256 388.019 164.256H335.007C334.248 164.256 332.281 165.385 333.967 165.385H386.51C389.944 165.385 393.149 166.227 393.377 170.472C393.45 171.82 393.377 173.193 393.377 174.541V293.253C393.377 297.02 393.627 300.88 393.377 304.636C393.008 310.223 386.947 308.938 383.108 308.938H189.342C188.497 308.983 187.65 308.961 186.809 308.871C182.876 308.21 182.777 304.579 182.777 301.515V211.103C182.777 210.583 180.264 210.983 180.264 211.779H180.243Z" fill="#CFCFCF"/>
    <path d="M390.61 181.371H335.007C334.081 181.371 332.333 182.766 334.019 182.766H389.632C390.553 182.766 392.306 181.371 390.615 181.371H390.61Z" fill="#CFCFCF"/>
    <path d="M264.88 241.094L275.857 248.185C276.226 248.411 276.548 248.706 276.804 249.054C276.992 249.345 277.09 249.685 277.085 250.032C277.104 250.386 277.013 250.736 276.825 251.036C276.746 251.157 276.638 251.255 276.511 251.322C276.383 251.389 276.24 251.421 276.096 251.416C275.937 251.41 275.78 251.375 275.633 251.312C275.382 251.193 275.142 251.052 274.915 250.89L263.007 243.087C262.956 243.065 262.907 243.037 262.862 243.004C261.939 242.417 261.479 241.774 261.483 241.074C261.486 240.373 261.936 239.743 262.83 239.185L263.007 239.055L274.915 231.397C275.133 231.249 275.362 231.12 275.602 231.012C275.766 230.94 275.943 230.901 276.122 230.898C276.263 230.892 276.404 230.922 276.531 230.983C276.658 231.045 276.768 231.137 276.851 231.252C277.039 231.538 277.13 231.877 277.111 232.219C277.117 232.571 277.02 232.917 276.83 233.213C276.575 233.558 276.253 233.849 275.883 234.066L264.88 241.094Z" fill="#CFCFCF"/>
    <path d="M284.695 254.948C284.565 255.455 284.354 255.938 284.071 256.379C283.993 256.493 283.89 256.586 283.768 256.651C283.647 256.717 283.512 256.752 283.374 256.754C283.226 256.747 283.082 256.705 282.954 256.631C282.827 256.557 282.719 256.452 282.64 256.327C282.428 256.022 282.318 255.658 282.328 255.286C282.331 255.155 282.346 255.024 282.375 254.896C282.406 254.736 282.446 254.578 282.495 254.423L291.859 226.205C292.012 225.685 292.234 225.188 292.52 224.728C292.592 224.611 292.693 224.514 292.813 224.445C292.933 224.377 293.068 224.34 293.206 224.338C293.359 224.34 293.508 224.379 293.641 224.453C293.775 224.526 293.888 224.631 293.971 224.759C294.184 225.052 294.293 225.407 294.283 225.768C294.282 225.894 294.27 226.019 294.247 226.143C294.222 226.279 294.186 226.413 294.138 226.543L284.695 254.948Z" fill="#CFCFCF" stroke="#CFCFCF" stroke-width="2" stroke-miterlimit="10"/>
    <path d="M310.468 241.094L299.543 234.087C299.163 233.864 298.833 233.566 298.57 233.213C298.378 232.925 298.278 232.586 298.284 232.24C298.266 231.897 298.359 231.558 298.549 231.272C298.629 231.16 298.735 231.068 298.859 231.007C298.982 230.945 299.119 230.915 299.257 230.919C299.436 230.921 299.613 230.96 299.777 231.033C300.017 231.143 300.249 231.272 300.469 231.418L312.377 239.076L312.559 239.206C313.454 239.763 313.907 240.392 313.907 241.094C313.907 241.797 313.464 242.405 312.585 242.983C312.513 243.019 312.443 243.061 312.377 243.108L300.469 250.911L300.412 250.953C300.076 251.204 299.686 251.369 299.272 251.437C299.132 251.44 298.992 251.407 298.868 251.34C298.744 251.274 298.64 251.176 298.565 251.057C298.385 250.758 298.289 250.415 298.289 250.066C298.289 249.717 298.385 249.374 298.565 249.075C298.826 248.722 299.157 248.426 299.538 248.206L310.468 241.094Z" fill="#CFCFCF"/>
    <path d="M324.083 61.6808H121.342C118.469 61.6808 116.14 64.01 116.14 66.8832V201.161C116.14 204.034 118.469 206.363 121.342 206.363H324.083C326.956 206.363 329.285 204.034 329.285 201.161V66.8832C329.285 64.01 326.956 61.6808 324.083 61.6808Z" fill="white"/>
    <path d="M152.405 206.925H320.05C321.752 206.925 323.578 207.087 325.253 206.707C328.255 206.025 330.387 203.892 330.544 200.76C330.58 200.121 330.544 199.47 330.544 198.83V71.3364C330.544 69.552 330.757 67.6167 330.497 65.8427C329.581 59.5218 320.004 61.119 315.472 61.119H127.668C122.596 61.119 115.058 60.401 114.912 67.6323C114.735 76.2422 114.912 84.8677 114.912 93.4776V180.19C114.912 180.711 117.425 180.315 117.425 179.519V76.778C117.425 73.6566 117.347 70.478 117.425 67.3358C117.477 65.0727 118.054 62.6536 120.843 62.2427C121.139 62.201 121.457 62.2427 121.758 62.2427C127.803 62.0034 133.916 62.2427 139.967 62.2427H321.798C324.977 62.2427 327.812 63.4704 328.041 67.2629C328.15 69.1982 328.041 71.1699 328.041 73.1052V199.215C328.041 201.941 328.135 205.333 324.452 205.802C322.74 206.015 320.857 205.802 319.135 205.802H153.446C152.686 205.802 150.72 206.925 152.405 206.925Z" fill="#5D7183"/>
    <path d="M325.253 78.2607H145.418C137.152 78.2607 128.703 77.7405 120.447 78.2607H120.088C119.162 78.2607 117.414 79.655 119.1 79.655H298.929C307.195 79.655 315.644 80.1752 323.9 79.655C324.025 79.655 324.145 79.655 324.264 79.655C325.19 79.655 326.938 78.2607 325.253 78.2607Z" fill="#5D7183"/>
    <path d="M293.909 155.011H312.637C313.433 155.011 314.786 154.787 315.103 153.893C315.176 153.722 315.203 153.536 315.18 153.352C315.157 153.168 315.085 152.993 314.972 152.846C314.859 152.7 314.709 152.585 314.537 152.516C314.366 152.447 314.178 152.424 313.995 152.451H295.267C294.471 152.451 293.118 152.67 292.801 153.57C292.727 153.741 292.7 153.928 292.723 154.112C292.747 154.297 292.819 154.472 292.932 154.619C293.046 154.766 293.197 154.88 293.37 154.949C293.542 155.018 293.73 155.039 293.914 155.011H293.909Z" fill="#FF9A88"/>
    <path d="M227.709 154.928H280.607C281.366 154.928 282.771 154.699 283.078 153.846C283.385 152.993 282.833 152.535 282.006 152.535H229.109C228.349 152.535 226.945 152.764 226.632 153.617C226.32 154.47 226.882 154.928 227.709 154.928Z" fill="#5D7183"/>
    <path d="M205.906 154.543H215.53C216.373 154.543 217.528 154.408 218.194 153.83C218.662 153.424 218.803 152.92 217.949 152.92H208.325C207.482 152.92 206.327 153.055 205.662 153.632C205.193 154.038 205.048 154.543 205.906 154.543Z" fill="#FF9A88"/>
    <path d="M174.921 155.183H197.666C199.866 155.183 200.511 152.275 197.957 152.275H175.212C173.006 152.275 172.367 155.183 174.921 155.183Z" fill="#5D7183"/>
    <path d="M215.51 173.818H227.179C227.897 173.818 229.327 173.677 229.842 173.105C230.206 172.699 230.56 172.35 229.639 172.35H217.955C217.232 172.35 215.806 172.491 215.291 173.068C214.927 173.474 214.568 173.818 215.494 173.818H215.51Z" fill="#5D7183"/>
    <path d="M174.339 174.166H205.157C205.86 174.166 207.347 173.922 207.644 173.126C207.94 172.33 207.399 171.997 206.603 171.997H175.816C175.114 171.997 173.621 172.246 173.329 173.037C173.038 173.828 173.569 174.166 174.37 174.166H174.339Z" fill="#ABDFF5"/>
    <path d="M237.848 173.984H256.53C257.727 173.984 260.603 172.194 258.091 172.194H239.404C238.213 172.194 235.336 173.984 237.843 173.984H237.848Z" fill="#FF9A88"/>
    <path d="M237.864 193.394H244.84C245.558 193.394 246.963 193.129 247.338 192.416C247.712 191.703 247.01 191.485 246.365 191.485H239.388C238.671 191.485 237.266 191.755 236.891 192.468C236.517 193.181 237.219 193.394 237.864 193.394Z" fill="#ABDFF5"/>
    <path d="M194.466 193.233H228.516C229.254 193.233 230.664 193.139 231.184 192.52C231.533 192.099 231.887 191.62 230.94 191.62H196.891C196.152 191.62 194.742 191.714 194.227 192.333C193.878 192.754 193.519 193.233 194.466 193.233Z" fill="#5D7183"/>
    <path d="M173.839 193.186H184.353C185.154 193.186 186.397 193.025 187.022 192.473C187.469 192.073 187.667 191.698 186.813 191.698H176.294C175.493 191.698 174.255 191.859 173.631 192.411C173.183 192.806 172.98 193.186 173.839 193.186Z" fill="#FF9A88"/>
    <path d="M132.543 193.914H155.335C157.551 193.914 158.17 190.97 155.616 190.97H132.829C130.613 190.97 129.994 193.914 132.543 193.914Z" fill="#5D7183"/>
    <path d="M179.619 94.799H206.406C207.155 94.799 208.58 94.5649 208.882 93.7273C209.184 92.8897 208.638 92.4631 207.842 92.4631H181.018C180.269 92.4631 178.844 92.6972 178.537 93.5348C178.23 94.3724 178.787 94.799 179.577 94.799H179.619Z" fill="#5D7183"/>
    <path d="M162.092 94.388H172.128C172.944 94.388 174.151 94.2424 174.791 93.6753C175.244 93.2747 175.426 92.8273 174.568 92.8273H164.532C163.715 92.8273 162.509 92.973 161.869 93.5453C161.416 93.9458 161.234 94.388 162.092 94.388Z" fill="#FF9A88"/>
    <path d="M131.992 94.8406H152.926C153.691 94.8406 155.09 94.6117 155.402 93.7533C155.683 92.973 155.153 92.4215 154.32 92.4215H133.381C132.616 92.4215 131.222 92.6504 130.91 93.5088C130.598 94.3672 131.154 94.8406 131.992 94.8406Z" fill="#5D7183"/>
    <path d="M216.051 94.8614H231.138C231.913 94.8614 233.296 94.6325 233.609 93.7637C233.89 92.9834 233.359 92.4007 232.516 92.4007H217.435C216.659 92.4007 215.276 92.6244 214.963 93.4932C214.683 94.2787 215.213 94.8614 216.056 94.8614H216.051Z" fill="#ABDFF5"/>
    <path d="M205.178 114.157H247.259C248.003 114.157 249.429 113.923 249.736 113.091C250.043 112.258 249.491 111.832 248.695 111.832H206.593C205.849 111.832 204.423 112.066 204.116 112.898C203.81 113.73 204.361 114.157 205.157 114.157H205.178Z" fill="#5D7183"/>
    <path d="M173.163 114.303H197.666C199.747 114.303 200.595 111.665 198.03 111.665H173.579C171.472 111.665 170.65 114.303 173.215 114.303H173.163Z" fill="#ABDFF5"/>
    <path d="M131.924 113.944H162.55C163.824 113.944 166.597 112.029 164.074 112.029H133.448C132.173 112.029 129.401 113.944 131.924 113.944Z" fill="#5D7183"/>
    <path d="M238.478 133.796H281.137C283.343 133.796 283.983 130.888 281.434 130.888H238.764C236.558 130.888 235.913 133.796 238.468 133.796H238.478Z" fill="#ABDFF5"/>
    <path d="M163.138 133.687H228.235C230.357 133.687 231.148 130.992 228.583 130.992H163.487C161.359 130.992 160.573 133.687 163.138 133.687Z" fill="#FFAC98"/>
    <path d="M133.068 133.796H151.401C153.607 133.796 154.247 130.888 151.698 130.888H133.36C131.154 130.888 130.514 133.796 133.068 133.796Z" fill="#5D7183"/>
    <path d="M325.601 49.0651C325.715 44.8722 326.298 40.7052 327.339 36.6419C327.625 35.5286 325.065 35.8511 324.805 36.876C323.762 40.9476 323.179 45.1235 323.068 49.3252C323.031 50.5478 325.575 50.1264 325.601 49.0911V49.0651Z" fill="#5D7183"/>
    <path d="M335.527 52.353C338.527 48.753 341.533 45.1547 344.543 41.5581C344.652 41.4281 342.545 41.4437 342.067 42.0159C339.067 45.616 336.061 49.2143 333.051 52.8108C332.942 52.9409 335.049 52.9253 335.527 52.353Z" fill="#5D7183"/>
    <path d="M339.887 61.5404L353.335 54.9282C354.818 54.1998 352.477 54.3611 351.899 54.642L338.451 61.2542C336.974 61.9826 339.315 61.8213 339.887 61.5404Z" fill="#5D7183"/>
    <path d="M23.3877 414.796C24.1681 403.585 32.5334 348.263 27.8565 276.47C26.8161 260.827 80.6498 277.308 94.3215 289.866C94.7664 290.275 95.1819 290.715 95.5648 291.183C97.1993 289.892 98.9106 288.702 100.689 287.619C107.676 283.301 115.776 279.92 123.923 281.1C125.081 281.199 126.193 281.599 127.148 282.261C128.678 283.457 132.834 283.218 133.146 285.137C134.421 293.019 133.032 301.598 132.106 309.589C131.225 316.244 129.969 322.844 128.345 329.357C124.97 343.967 120.802 358.381 115.859 372.537C114.09 377.562 100.221 423.276 88.9787 423.276C77.7365 423.276 84.385 372.714 78.5324 329.883C76.0249 334.185 51.5115 391.562 36.9138 416.206C34.3126 420.591 28.819 425.544 25.0473 422.11C23.138 420.367 23.1796 417.387 23.3877 414.796Z" fill="#E3E3E3"/>
    <path d="M28.819 302.68C28.819 304.953 68.107 306.321 71.0775 306.41C81.9677 306.795 92.8545 306.663 103.738 306.014C113.279 305.437 124.833 303.523 133.157 300.76C132.845 303.731 132.449 306.686 132.116 309.557C131.235 316.212 129.979 322.813 128.355 329.326C124.98 343.935 120.812 358.35 115.87 372.506C114.101 377.531 100.231 423.244 88.9891 423.244C77.7469 423.244 84.7752 369.202 78.5324 329.883C76.0249 334.185 51.5115 391.562 36.9138 416.206C34.3126 420.591 28.819 425.544 25.0473 422.11C23.1276 420.367 23.1692 417.386 23.3513 414.796C24.064 404.994 29.3288 361.472 28.819 302.68Z" fill="#EEEEEE"/>
    <path d="M131.596 299.938C130.556 315.452 126.914 330.825 122.836 345.787C118.468 361.96 113.198 377.876 107.052 393.461C104.669 399.464 102.151 405.426 99.2482 411.196C97.5522 414.562 95.7626 418.479 93.0054 421.169C90.9505 423.156 87.9435 421.46 86.5597 418.932C83.7556 413.807 83.7296 406.852 83.4383 401.197C82.9181 390.646 82.9961 380.065 82.7152 369.509C82.442 356.146 81.4695 342.806 79.8019 329.545C79.6562 328.442 77.6481 329.025 77.3464 329.732C67.8261 351.462 57.9417 373.073 47.3393 394.293C44.1815 400.614 40.9561 406.909 37.4549 413.058C35.5821 416.367 32.83 421.902 28.5433 422.303C23.8612 422.771 24.5167 416.06 24.7664 413.079C25.7549 401.192 26.8838 389.32 27.6953 377.412C29.3601 352.787 30.163 328.133 30.104 303.45C30.104 302.128 27.5549 302.503 27.5601 303.637C27.6849 340.277 25.2918 376.668 22.2277 413.147C21.9988 415.899 21.5098 419.14 23.0444 421.6C25.1566 424.987 29.2872 424.55 32.263 422.641C35.7069 420.466 37.7826 416.986 39.7439 413.537C41.4867 410.462 43.1567 407.351 44.7954 404.225C52.5208 389.466 59.6272 374.342 66.5984 359.188C71.055 349.508 75.4337 339.797 79.7342 330.055L77.2787 330.242C80.3169 353.288 79.8279 376.382 80.7903 399.542C81.0556 405.848 80.7331 426.886 92.3499 423.718C95.1435 422.958 96.9332 419.78 98.3378 417.475C101.334 412.616 103.707 407.351 105.97 402.123C112.623 386.755 118.034 370.815 122.763 354.781C128.022 336.922 132.886 318.422 134.114 299.777C134.203 298.471 131.643 298.82 131.57 299.964L131.596 299.938Z" fill="#5D7183"/>
    <path d="M134.343 295.511C135.722 243.867 134.78 223.198 104.378 163.699C104.56 160.697 104.654 138.702 104.654 135.133V130.924C104.654 107.456 93.1199 88.4261 78.8916 88.4261C64.6632 88.4261 53.1296 107.456 53.1296 130.924V135.133C53.1296 142.276 52.4897 148.987 52.6614 156.124C52.703 158.008 52.1412 159.246 52.2036 161.145C52.2296 161.842 51.7718 166.139 51.4337 166.753C33.7926 198.435 23.2786 262.424 29.6931 297.384C28.2469 298.388 83.6725 308.626 134.343 295.511Z" fill="white"/>
    <path d="M38.3235 117.799C36.7717 116.347 35.8399 114.353 35.7224 112.232C35.6245 110.185 36.0284 108.145 36.8988 106.29C37.7692 104.435 39.0798 102.821 40.7166 101.588C40.0611 102.072 37.7149 95.4076 37.6836 94.7105C37.5692 91.9429 38.1467 90.8036 39.7646 88.5874C42.6259 84.696 47.8698 82.2821 52.6611 83.4995C55.0698 75.2485 63.8982 69.734 72.482 70.1138C81.0659 70.4936 88.9474 76.1017 93.1821 83.5775C96.085 78.8226 103.067 77.4387 107.915 80.1804C112.764 82.922 115.224 89.0244 114.33 94.5077C113.435 99.9909 109.564 104.772 104.7 107.482C110.423 109.23 113.071 116.722 110.626 122.169C109.71 124.15 108.304 125.865 106.542 127.152C104.903 128.385 102.343 128.848 101.225 130.347C99.9503 132.063 99.7683 134.805 98.3272 136.688C96.8971 138.561 95.0546 140.08 92.9428 141.126C90.7207 142.189 88.278 142.71 85.8154 142.646C83.3528 142.582 80.9405 141.934 78.7769 140.757C76.7792 144.575 73.6526 148.144 69.4595 149.122C65.2664 150.1 60.1421 147.452 59.804 143.129C57.1725 143.691 54.4381 143.535 51.8879 142.677C49.3376 141.818 47.0656 140.289 45.3103 138.249C43.6 136.171 42.4949 133.662 42.116 130.997C41.8039 128.916 43.5207 124.754 43.0108 123.277C42.1837 120.946 40.0663 119.614 38.3235 117.799Z" fill="#ABDFF5"/>
    <path d="M104.357 172.767C87.7925 177.314 70.5416 176.632 53.8161 173.381C53.0566 173.235 50.8716 174.421 52.2554 174.692C69.6104 178.068 87.496 178.661 104.664 173.948C106.157 173.537 105.855 172.35 104.346 172.767H104.357Z" fill="#5D7183"/>
    <path d="M44.3117 179.186C38.2249 196.182 24.7925 209.36 14.263 223.599C9.1491 230.518 5.5803 238.504 5.23694 247.197C4.93944 256.003 7.19996 264.708 11.7451 272.256C14.4087 276.689 18.1335 280.06 21.2913 284.092C24.2307 287.838 26.811 294.637 22.1237 298.242C20.7763 299.283 22.8781 299.746 23.7156 299.101C26.4677 296.983 27.5133 293.857 27.0867 290.439C26.5665 286.246 23.6376 282.921 20.8856 279.94C14.0809 272.563 9.46645 264.078 8.11385 254.027C6.81326 244.33 9.15431 235.054 14.4347 226.866C19.3249 219.271 25.5989 212.523 31.0821 205.344C37.2885 197.202 43.3648 188.613 46.8452 178.905C47.1729 177.979 44.6446 178.286 44.3221 179.186H44.3117Z" fill="#5D7183"/>
    <path d="M135.597 295.199C136.086 276.887 136.637 258.392 133.932 240.21C131.133 221.403 124.568 203.523 116.738 186.272C114.075 180.398 111.271 174.593 108.383 168.828C107.41 166.883 105.782 164.771 105.668 162.612C105.6 161.452 105.72 160.245 105.741 159.079C105.85 151.708 105.881 144.325 105.902 136.948C105.928 127.907 105.652 119.037 102.78 110.359C100.143 102.322 95.3827 93.8001 87.5532 89.8359C81.3104 86.6781 74.0688 87.5989 68.3306 91.3966C60.8705 96.3181 56.5213 105.12 54.1959 113.486C51.2045 124.255 51.964 135.455 51.5375 146.5C51.3138 152.332 51.4126 158.143 50.7311 163.938C50.2941 167.58 48.2288 170.545 46.6889 173.854C38.3287 191.844 33.5166 211.581 30.2807 231.08C27.0969 250.292 25.2813 270.238 27.2842 289.679C27.4871 291.64 27.7316 293.596 28.0385 295.542C28.1478 296.208 28.101 297.566 28.5223 297.992C29.1102 298.596 30.6917 298.716 31.4461 298.882C37.4964 300.209 43.7184 300.906 49.8779 301.483C72.0034 303.595 94.5555 303.262 116.515 299.74C122.549 298.773 128.528 297.531 134.452 296.016C135.93 295.636 135.69 294.684 134.197 295.064C111.125 300.973 86.9862 302.44 63.2583 301.202C55.4288 300.791 47.5941 300.099 39.8478 298.934C37.5588 298.591 35.2646 298.227 33.012 297.701C32.4449 297.571 31.8935 297.389 31.3264 297.259C30.7594 297.129 30.9831 297.197 30.9362 297.082C30.3432 295.636 30.3432 293.524 30.1455 291.979C29.8697 289.856 29.6617 287.728 29.4952 285.595C29.1674 281.303 29.0374 277.001 29.0426 272.699C29.0948 262.714 29.755 252.742 31.0195 242.837C33.423 223.38 37.5432 203.918 44.2542 185.476C45.7317 181.403 47.3756 177.376 49.186 173.448C50.7467 170.139 52.7912 167.205 53.223 163.527C53.7849 158.772 53.8057 154.069 53.9357 149.288C54.097 143.509 54.3727 137.739 54.3727 131.954C54.3727 121.586 56.0843 111.025 61.2242 101.885C65.2768 94.6741 72.4977 87.318 81.5133 89.3989C89.6601 91.277 95.2006 98.9713 98.4053 106.177C102.567 115.504 103.384 125.425 103.373 135.481C103.373 141.773 103.339 148.062 103.269 154.35C103.269 157.217 103.009 160.151 103.139 163.017C103.233 165.046 104.482 166.763 105.402 168.6C106.849 171.471 108.271 174.357 109.668 177.256C118.028 194.596 125.665 212.523 129.692 231.423C133.172 247.753 133.615 264.448 133.386 281.085C133.318 286.011 133.193 290.938 133.063 295.86C133.074 296.364 135.576 295.995 135.597 295.199Z" fill="#5D7183"/>
    <path d="M46.3663 313.761C52.7443 314.073 59.0288 315.41 65.4328 315.108C66.8687 315.041 67.3629 313.157 65.6513 313.241C59.4709 313.537 53.3894 312.2 47.2299 311.909C45.9969 311.852 44.6755 313.678 46.3663 313.761Z" fill="#5D7183"/>
    <path d="M92.3342 313.959C98.4626 314.765 104.528 313.907 110.62 313.152C111.796 313.012 112.738 311.649 110.99 311.862C105.304 312.564 99.6175 313.423 93.8897 312.668C93.1562 312.57 90.9556 313.776 92.329 313.959H92.3342Z" fill="#5D7183"/>
    <path d="M183.167 129.878C180.493 133.905 181.414 138.686 182.397 143.124C183.352 147.104 183.81 151.188 183.76 155.282C183.451 163.404 181.489 171.379 177.996 178.718C171.233 193.165 157.514 207.503 140.18 205.583C129.031 204.35 121.707 195.418 116.691 186.173C116.218 185.299 113.794 186.173 114.376 187.214C118.897 195.537 125.197 203.565 134.666 206.332C142.849 208.72 151.896 207.014 159.236 202.925C173.995 194.705 183.276 177.725 185.716 161.389C186.4 156.992 186.489 152.523 185.981 148.102C185.263 142.276 181.934 135.487 185.539 130.055C186.257 128.978 183.708 129.041 183.162 129.863L183.167 129.878Z" fill="#5D7183"/>
</svg>
