<svg width="484" height="430" viewBox="0 0 484 430" fill="none" xmlns="http://www.w3.org/2000/svg">
    <g clip-path="url(#clip0_102_154199)">
        <path d="M124.819 405.077C114.568 402.978 -8.5909 384.086 0.484104 244.746C9.5591 105.406 20.9234 63.5062 68.8055 48.1677C116.688 32.8293 233.08 -39.7084 324.416 29.2613C415.751 98.231 514.308 160.108 475.196 270.246C436.084 380.383 429.7 417.134 327.639 411.501C225.578 405.868 173.563 415.049 124.819 405.077Z" fill="#F9F9F9"/>
        <path d="M53.4773 144.721H187.371C188.024 131.855 181.645 118.97 170.257 112.988C158.868 107.006 144.058 108.276 133.86 116.124C124.737 108.247 115.25 100.165 103.736 96.6118C92.2215 93.0584 78.0354 95.2593 70.9255 105.003C66.0129 111.737 65.3401 120.943 67.7601 128.922C57.3315 128.838 46.9062 129.084 36.484 129.659C30.5453 129.989 22.448 131.72 22.1528 137.668C21.6978 146.588 53.4773 144.721 53.4773 144.721Z" fill="white"/>
        <path d="M333.244 61.7513C330.776 60.4897 327.938 60.161 325.248 60.8254C323.602 61.1987 322.02 61.7949 320.408 62.2797C317.349 63.2202 317.083 64.0249 315.834 61.3538C314.469 58.4451 316.139 55.454 313.472 52.4144C312.172 50.9353 310.471 49.865 308.577 49.3325C306.682 48.8 304.674 48.8282 302.795 49.4136C300.777 44.6579 298.439 40.1107 294.601 36.407C286.954 29.048 275.29 25.9745 265.319 30.1049C260.859 32.0199 256.907 34.9534 253.781 38.6709C252.134 40.5902 250.684 42.6707 249.454 44.8809C248.34 46.8831 247.847 49.4912 246.501 51.3043C243.558 50.1893 240.838 48.7253 237.789 47.8769C231.778 46.2141 225.234 45.8893 219.968 49.816C215.646 53.0349 212.907 58.8572 214.301 64.2334C215.094 67.2875 216.542 69.5417 219.625 69.566C223.981 69.629 228.337 69.566 232.731 69.566H340.876C340.876 69.566 337.745 64.1461 333.244 61.7513Z" fill="white"/>
        <path d="M421.148 187.954C422.6 180.464 419.87 172.218 414.328 166.886C407.407 160.225 396.856 157.447 387.834 161.18C383.797 162.915 380.22 165.571 377.389 168.936C375.901 170.673 374.591 172.555 373.479 174.555C372.467 176.368 372.027 178.724 370.802 180.372C368.14 179.364 365.677 178.04 362.898 177.27C357.453 175.767 351.534 175.471 346.771 179.024C342.798 181.977 340.32 187.353 341.699 192.269C342.183 194.014 343.466 196.869 345.421 197.034C345.987 197.083 346.578 197.034 347.149 197.034H415.756C416.913 197.034 417.063 196.816 417.75 195.88C419.462 193.527 420.624 190.818 421.148 187.954Z" fill="white"/>
        <path d="M44.4604 230.169C43.0375 222.679 45.743 214.433 51.2848 209.095C58.2012 202.439 68.7572 199.657 77.779 203.394C81.8186 205.126 85.3962 207.782 88.2237 211.151C89.7134 212.887 91.0236 214.769 92.1344 216.769C93.146 218.578 93.5864 220.939 94.8061 222.587C97.4729 221.583 99.9317 220.255 102.715 219.489C108.155 217.986 114.074 217.691 118.842 221.239C122.81 224.196 125.293 229.568 123.914 234.488C123.43 236.233 122.147 239.084 120.192 239.249C119.626 239.297 119.03 239.249 118.464 239.249H52.8385C51.8705 239.249 50.8637 239.249 49.8764 239.249C48.7196 239.249 48.5696 239.031 47.8823 238.095C46.1624 235.744 44.9929 233.035 44.4604 230.169Z" fill="white"/>
        <path d="M277.332 250.287C277.245 249.705 239.551 248.668 233.104 248.712C219.281 248.804 177.899 243.796 177.749 243.777C177.193 243.713 177.541 245.585 177.57 245.803C177.895 247.765 178.33 249.707 178.872 251.62C179.656 254.611 180.532 257.583 181.432 260.545C182.579 264.326 183.789 268.093 185.024 271.845C186.45 276.179 187.92 280.5 189.433 284.808C191.046 289.456 192.711 294.092 194.428 298.717C196.177 303.448 197.967 308.162 199.8 312.858C201.588 317.431 203.425 321.981 205.313 326.509C207.062 330.688 208.875 334.839 210.753 338.963C212.384 342.517 214.073 346.041 215.898 349.502C217.295 352.219 218.84 354.857 220.525 357.404C221.579 359.11 222.884 360.647 224.397 361.961C225.583 362.902 227.19 362.78 227.137 360.992C226.914 353.691 227.475 346.274 227.621 338.944C227.785 330.363 227.892 321.787 227.984 313.212C228.067 305.985 228.137 298.76 228.192 291.537C228.192 289.913 228.192 288.289 228.192 286.655C228.192 286.064 228.022 282.777 229.281 283.053C230.733 283.378 230.186 288.076 230.191 289.166C230.191 291.694 230.203 294.221 230.229 296.748C230.252 303.787 230.278 310.828 230.307 317.87C230.336 325.452 230.374 333.037 230.423 340.626C230.457 346.23 230.491 351.834 230.597 357.438C230.597 358.408 230.234 360.73 230.762 361.612C230.923 361.87 231.15 362.08 231.42 362.22C231.69 362.36 231.993 362.425 232.296 362.407C233.685 362.31 234.45 360.468 234.987 359.406C239.237 351.165 243.699 343.04 247.765 334.682C249.768 330.586 251.637 326.441 253.515 322.262C255.392 318.084 256.994 313.662 259.047 309.551C259.085 309.464 259.124 309.382 259.158 309.295C264.529 296.728 269.107 283.837 272.865 270.696C274.389 265.291 276.137 259.978 277.061 254.413C277.354 253.058 277.445 251.668 277.332 250.287Z" fill="#E5E5E5"/>
        <path d="M277.332 250.287C277.245 249.705 239.551 248.668 233.104 248.712C219.281 248.804 181.723 244.32 181.747 244.475C182.671 250.408 198.164 293.69 199.873 298.309C201.615 303.041 222.843 360.73 224.407 361.976C225.592 362.916 227.199 362.795 227.146 361.006C226.923 353.705 227.485 346.288 227.63 338.958C227.795 330.378 227.901 321.802 227.993 313.226C228.077 306 228.146 298.775 228.201 291.552C228.201 289.928 228.201 288.304 228.201 286.67C228.201 286.078 228.269 283.853 229.29 283.068C235.664 278.177 233.917 312.523 233.941 319.567C233.975 327.154 231.7 362.465 232.305 362.422C233.695 362.325 234.459 360.483 234.997 359.421C239.246 351.18 243.709 343.055 247.774 334.697C249.778 330.601 251.646 326.456 253.524 322.277C255.402 318.098 257.004 313.677 259.056 309.566C259.095 309.479 259.134 309.396 259.167 309.309C264.538 296.743 269.116 283.852 272.874 270.711C274.399 265.306 276.146 259.992 277.071 254.427C277.362 253.068 277.45 251.673 277.332 250.287Z" fill="white"/>
        <path d="M198.44 309.333C208.314 309.275 218.177 308.936 228.041 308.475C228.099 302.842 228.153 297.206 228.201 291.566C228.201 289.942 228.201 288.318 228.201 286.684C228.201 286.093 228.032 282.806 229.29 283.083C230.742 283.407 230.195 288.105 230.2 289.196C230.2 291.723 230.213 294.25 230.239 296.778L230.282 308.369C240.267 307.884 249.183 309.871 259.167 309.338C264.056 297.568 269.399 283.019 272.874 270.74C274.399 265.335 276.146 260.022 277.071 254.456C277.359 253.083 277.441 251.675 277.313 250.277C277.226 249.696 239.532 248.658 233.085 248.702C219.262 248.794 177.88 243.786 177.73 243.767C177.173 243.704 177.522 245.575 177.551 245.793C177.876 247.755 178.311 249.697 178.853 251.611C179.637 254.602 180.513 257.573 181.413 260.535C182.56 264.317 183.77 268.083 185.004 271.836C186.43 276.17 187.9 280.491 189.413 284.799C191.027 289.446 192.692 294.082 194.408 298.707C195.728 302.268 197.072 305.811 198.44 309.333Z" fill="#9FCDED"/>
        <path d="M203.914 309.29C213.788 309.232 218.163 308.955 228.027 308.495C228.085 302.862 228.138 297.225 228.187 291.586C228.187 289.962 228.187 288.338 228.187 286.704C228.187 286.112 228.303 283.95 229.276 283.102C234.387 278.671 234.261 293.622 234.271 296.147C234.271 300.026 233.966 308.315 233.966 308.315C242.499 308.364 250.422 309.828 259.134 309.367C264.022 297.597 269.366 283.049 272.841 270.769C274.365 265.364 276.113 260.051 277.037 254.485C277.325 253.112 277.407 251.704 277.279 250.307C277.192 249.725 239.498 248.687 233.051 248.731C219.228 248.823 181.844 244.509 181.694 244.494C181.137 244.426 193.489 279.364 194.999 283.674C196.669 288.304 202.554 305.746 203.914 309.29Z" fill="#22c55e70"/>
        <path d="M198.334 310.259C208.207 310.191 218.076 309.857 227.935 309.401C228.419 309.401 229.208 309.009 229.213 308.432C229.268 303.419 229.316 298.41 229.358 293.403C229.358 291.421 229.358 289.438 229.392 287.46C229.392 286.873 229.368 286.268 229.392 285.681C229.392 285.502 229.707 283.369 228.879 284.367C228.671 284.619 229.073 287.761 229.058 288.362C229.01 289.942 229.058 291.518 229.058 293.093C229.081 298.222 229.1 303.351 229.116 308.48C229.116 309.081 229.673 309.333 230.215 309.309C239.866 308.916 249.444 310.725 259.1 310.279C259.349 310.269 259.592 310.196 259.805 310.065C260.018 309.934 260.193 309.751 260.315 309.532C264.748 298.789 268.804 287.892 272.25 276.809C273.934 271.399 275.566 265.941 276.964 260.453C277.677 257.921 278.191 255.337 278.503 252.726C278.61 251.596 278.958 250.021 277.85 249.395C276.858 248.838 274.907 249.066 273.828 249.002C271.151 248.847 268.475 248.741 265.798 248.639C259.042 248.377 252.282 248.167 245.519 248.009C233.942 247.723 222.485 247.446 210.937 246.39C203.725 245.725 196.524 244.969 189.326 244.169C185.716 243.767 181.844 242.855 178.194 242.889C174.666 242.918 176.781 248.421 177.251 250.292C178.93 256.933 181.016 263.493 183.136 270.023C187.492 283.359 192.221 296.569 197.254 309.663C197.685 310.768 200.013 310.119 199.592 309.033C195.378 298.074 191.39 287.027 187.628 275.893C185.779 270.41 183.993 264.908 182.304 259.372C181.5 256.706 180.726 254.039 180.014 251.334C179.656 249.957 179.288 248.581 179.012 247.185C178.945 246.845 178.891 244.659 178.596 244.416C179.167 244.901 176.389 244.416 177.933 244.761C178.56 244.867 179.191 244.941 179.826 244.984C181.991 245.239 184.154 245.488 186.316 245.73C192.911 246.477 199.515 247.173 206.126 247.82C217.127 248.881 228.046 249.492 239.086 249.705C250.732 249.924 262.425 250.117 274.055 250.874C274.646 250.913 275.72 250.786 276.263 251.053C276.901 251.368 276.461 250.568 276.374 251.567C276.182 253.16 275.911 254.742 275.561 256.308C274.351 262.455 272.41 268.51 270.6 274.507C267.042 286.282 262.74 297.844 258.016 309.202L259.231 308.456C249.58 308.892 240.001 307.084 230.345 307.486L231.444 308.315C231.444 301.853 231.217 295.362 231.372 288.9C231.415 287.101 232.219 282.52 229.508 282.205C226.202 281.822 226.982 287.373 226.977 289.23C226.977 295.677 226.87 302.13 226.803 308.577L228.08 307.608C218.221 308.063 208.352 308.398 198.484 308.466C197.148 308.437 196.751 310.259 198.334 310.259Z" fill="#6A79A8"/>
        <path d="M278.421 249.87C278.165 249.507 276.906 249.565 276.538 249.536C275.009 249.4 273.47 249.332 271.931 249.259C267.052 249.017 262.168 248.857 257.285 248.702C248.776 248.44 240.267 248.338 231.759 248.164C220.762 247.941 209.751 246.671 198.822 245.531C193.982 245.021 189.152 244.489 184.332 243.937C182.395 243.714 180.184 243.117 178.228 243.248C175.881 243.403 176.205 245.139 176.529 246.957C177.333 251.518 178.775 256.003 180.116 260.429C182.899 269.61 185.977 278.705 189.172 287.751C195.546 305.794 202.152 323.891 210.419 341.164C212.466 345.44 214.591 349.701 216.939 353.822C218.497 356.565 220.84 361.36 223.889 362.766C225.651 363.575 227.877 362.79 228.293 360.827C228.414 360.024 228.472 359.214 228.467 358.403C228.874 350.734 228.951 343.045 229.145 335.366C229.523 318.297 229.3 301.116 230.336 284.067C230.336 283.776 230.491 282.918 230.365 283.029L228.342 283.567C228.342 283.567 228.264 286.229 228.264 286.413C228.264 288.25 228.308 290.083 228.317 291.915C228.34 295.667 228.355 299.418 228.361 303.167C228.361 310.83 228.379 318.494 228.414 326.16C228.45 333.878 228.516 341.595 228.613 349.313C228.656 352.469 228.647 355.615 228.98 358.762C229.174 360.609 229.256 362.858 231.57 362.965C235.737 363.158 236.986 358.461 238.404 355.489C241.652 348.654 245.069 341.915 248.399 335.099C254.623 322.388 260.528 309.406 265.542 296.191C268.514 288.357 271.195 280.407 273.528 272.354C274.602 268.641 275.725 264.937 276.713 261.204C277.656 257.622 278.813 253.715 278.494 249.977C278.445 249.439 276.074 249.89 276.156 250.602C276.442 253.952 275.44 257.496 274.617 260.724C273.818 263.866 272.865 266.973 271.969 270.09C270.087 276.645 268.064 283.15 265.789 289.579C261.343 302.002 256.275 314.194 250.606 326.107C247.644 332.38 244.551 338.595 241.482 344.814C239.95 347.927 238.425 351.044 236.908 354.166C235.94 356.168 235.224 358.766 233.898 360.555C231.478 363.847 231.25 357.903 231.12 356.304C230.829 352.823 230.955 349.284 230.912 345.794C230.825 338.722 230.77 331.648 230.747 324.57C230.712 316.607 230.694 308.64 230.694 300.67C230.694 296.928 230.694 293.185 230.645 289.443C230.645 288.745 231.197 282.961 230.244 282.598C229.624 282.355 228.695 282.738 228.225 283.136C227.49 283.771 227.891 287.184 227.862 288.018C227.727 292.148 227.64 296.259 227.548 300.409C227.291 312.043 227.064 323.678 226.822 335.274C226.638 343.593 226.769 352.023 226.052 360.318C226.055 360.529 226.039 360.74 226.004 360.948C226.001 361.037 225.993 361.126 225.98 361.215C225.704 361.971 226.135 361.699 225.496 361.564C224.76 361.418 223.85 360.003 223.381 359.435C222.398 358.203 221.498 356.908 220.685 355.557C217.781 350.894 215.337 345.891 212.941 340.941C208.227 331.134 204.122 321.065 200.241 310.885C195.885 299.439 191.674 287.921 187.758 276.31C185.822 270.536 183.925 264.743 182.173 258.911C181.292 256.003 180.45 253.046 179.695 250.084C179.279 248.459 178.035 245.391 178.693 243.67L177.957 244.193C176.863 244.678 176.907 244.295 178.02 244.431L180.847 244.761C184.073 245.139 187.3 245.504 190.527 245.856C199.355 246.826 208.193 247.737 217.045 248.445C230.704 249.536 244.435 249.385 258.122 249.831C262.28 249.972 266.442 250.117 270.595 250.316C271.563 250.365 275.89 250.263 276.195 250.699C276.5 251.135 278.832 250.457 278.421 249.87Z" fill="#6A79A8"/>
        <path d="M200.599 257.821C200.482 262.425 198.603 266.809 195.352 270.066C194.742 270.682 197.032 270.502 197.501 270.023C200.892 266.604 202.839 262.009 202.936 257.19C202.936 256.628 200.623 256.997 200.599 257.821Z" fill="#6A79A8"/>
        <path d="M253.548 260.371C254.521 265.346 257.066 269.876 260.808 273.29C261.263 273.712 263.378 272.805 263.006 272.485C259.334 269.113 256.844 264.646 255.905 259.745C255.804 259.26 253.452 259.789 253.568 260.371H253.548Z" fill="#6A79A8"/>
        <path d="M175.537 242.39C177.594 200.549 198.092 120.618 235.195 139.878C258.834 152.153 271.258 203.496 277.787 253.758C277.787 253.758 234.75 253.433 220.549 251.586C208.517 250.035 175.537 242.39 175.537 242.39Z" fill="#E5E5E5"/>
        <path d="M247.639 114.408C247.639 92.3118 237.925 74.3992 225.941 74.3992C213.957 74.3992 204.248 92.3118 204.248 114.408V118.369C204.248 130.619 205.289 139.156 207.108 145.1C210.85 157.311 225.5 162.411 225.5 162.411C225.5 162.411 240.504 157.408 244.328 146.491C246.433 140.514 247.648 131.613 247.648 118.374L247.639 114.408Z" fill="#E5E5E5"/>
        <path d="M215.182 162.668C213.593 161.9 212.096 160.955 210.719 159.851C208.105 157.738 204.572 151.295 203.943 149.046C203.111 145.958 210.947 144.799 212.539 144.615C217.727 144.028 230.297 143.078 235.176 144.033C239.048 144.794 246.254 145.487 245.877 150.059C245.475 154.936 238.394 162.498 234.309 163.991C230.331 165.446 226.609 165.96 222.456 165.111C219.938 164.607 217.494 163.787 215.182 162.668Z" fill="white"/>
        <path d="M181.737 244.475C182.986 219.062 188.75 178.835 201.397 155.479L201.63 155.925C207.346 166.551 215.535 168.83 225.568 167.816C230.331 167.332 242.107 163.773 246.864 150.059C246.922 149.884 247.092 150.345 247.203 150.49C263.238 171.161 272.492 212.818 277.787 253.773C277.787 253.773 234.75 253.448 220.549 251.601C208.517 250.035 181.737 244.475 181.737 244.475Z" fill="white"/>
        <path d="M204.04 151.14C206.896 160.288 215.85 166.488 225.336 166.614C234.822 166.74 243.815 160.845 246.632 151.697C246.961 150.626 244.57 150.888 244.265 151.882C241.676 160.302 232.988 165.664 224.324 164.84C216.15 164.064 208.836 158.387 206.378 150.51C206.049 149.458 203.711 150.093 204.04 151.14Z" fill="#6A79A8"/>
        <path d="M272.405 253.157C259.506 252.983 246.603 252.74 233.724 252.047C222.321 251.436 211.3 249.492 200.119 247.199C192.971 245.745 185.832 244.189 178.746 242.429C178.141 242.279 176.07 243.238 176.854 243.432C189.438 246.554 202.157 249.25 214.925 251.402C226.696 253.395 238.762 253.521 250.668 253.826C257.59 254.02 264.511 254.159 271.432 254.243C272.173 254.243 273.959 253.162 272.4 253.142L272.405 253.157Z" fill="#6A79A8"/>
        <path d="M225.941 74.3992C237.925 74.3992 247.639 92.3118 247.639 114.408V118.369C247.639 131.613 246.424 140.514 244.318 146.486C240.485 157.394 225.515 162.397 225.491 162.406C223.913 162.93 218.889 159.139 217.747 158.349C214.974 156.458 212.263 154.247 210.25 151.562C209.248 150.214 206.862 147.252 207.089 145.483C207.118 145.26 208.614 145.361 208.614 145.361C208.614 145.361 208.469 137.857 208.464 134.585C208.464 131.55 208.285 125.771 208.507 120.88C209.098 107.883 211.968 94.3382 216.164 82.0442C217.766 77.2885 220.752 74.3992 225.941 74.3992Z" fill="white"/>
        <path d="M238.704 131.933C235.873 133.664 232.228 133.339 229.508 135.21C228.54 135.869 226.26 138.148 227.059 139.35C227.659 140.257 229.827 139.956 230.732 139.932C232.519 139.876 234.277 139.47 235.906 138.734C238.162 137.765 240.616 134.124 240.306 131.463C239.75 131.532 239.209 131.691 238.704 131.933Z" fill="#6A79A8"/>
        <path d="M244.744 149.181C252.488 158.518 257.352 170.056 261.244 181.439C266.244 196.069 269.636 211.238 272.376 226.441C274.026 235.618 275.411 244.862 276.616 254.073L278.552 253.312C268.691 253.235 258.834 253.046 248.979 252.745C236.342 252.357 223.86 251.819 211.426 249.444C204.229 248.072 197.065 246.535 189.912 244.969C186.95 244.323 183.989 243.663 181.031 242.991C180.193 242.802 177.323 242.657 176.723 242.022C176.476 241.75 176.825 239.937 176.873 239.278C177.015 237.196 177.191 235.118 177.401 233.044C177.826 228.855 178.369 224.676 179.046 220.517C180.488 211.366 182.437 202.303 184.883 193.369C187.545 183.674 190.788 174.085 195.047 164.971C198.435 157.772 202.418 150.558 208.144 144.964C208.18 144.944 208.21 144.914 208.23 144.878C208.251 144.842 208.261 144.801 208.26 144.76C205.308 134.895 205.356 124.273 205.405 114.074C205.458 102.861 207.621 90.397 214.683 81.3267C217.316 77.9333 221.086 74.6416 225.621 74.8307C229.793 75.01 233.424 77.5745 236.105 80.6044C243.336 88.7584 245.901 100.752 246.38 111.335C246.649 117.726 246.542 124.128 246.061 130.508C245.659 135.971 244.943 141.488 243.157 146.685C243.036 147.039 245.257 146.821 245.456 146.248C248.437 137.585 248.747 128.04 248.791 118.97C248.839 108.833 248.176 98.7594 244.139 89.311C241.395 82.8974 236.584 75.6257 229.184 74.1714C222.998 72.9788 217.016 76.2898 213.11 80.8953C207.007 88.0845 204.398 98.0468 203.454 107.248C202.457 117.475 202.738 127.787 204.292 137.944C204.582 139.806 204.935 141.662 205.405 143.485C205.564 144.106 205.966 144.978 205.802 145.424C205.608 145.987 204.534 146.631 204.127 147.063C201.639 149.695 199.606 152.88 197.748 155.988C192.99 163.88 189.428 172.47 186.451 181.196C179.714 200.883 175.431 221.889 174.351 242.686C174.371 242.722 174.401 242.753 174.436 242.774C174.472 242.796 174.513 242.807 174.555 242.807C188.015 245.919 201.528 249.017 215.153 251.325C230.268 253.884 245.964 253.666 261.249 253.967C266.502 254.067 271.751 254.141 276.998 254.19C277.332 254.19 279.002 253.962 278.934 253.429C276.848 237.377 274.239 221.336 270.556 205.547C267.313 191.672 263.33 177.769 257.183 164.879C254.424 159.09 251.186 153.506 247.087 148.566C246.646 148.037 244.628 149.05 244.749 149.191L244.744 149.181Z" fill="#6A79A8"/>
        <path d="M260.436 174.118C270.638 167.22 280.894 159.842 288.329 149.879C296.615 138.73 299.461 125.01 301.91 111.611C302.103 110.544 299.727 110.884 299.553 111.834C297.133 125.17 294.316 138.899 285.942 149.913C278.682 159.478 268.775 166.556 258.926 173.212C257.614 174.099 259.564 174.724 260.436 174.138V174.118Z" fill="#6A79A8"/>
        <path d="M233.041 103.971C235.205 103.583 237.46 103.486 239.391 103.35C265.199 101.278 290.751 96.7441 315.699 89.8104C310.496 94.4933 305.012 99.6611 303.623 106.521C302.578 111.679 304.107 117.133 306.982 121.549C309.857 125.965 314.015 129.383 318.443 132.214C292.147 127.57 265.794 122.921 239.169 120.88C236.071 120.642 232.833 120.395 230.021 118.941C226.788 117.288 224.392 113.817 225.21 110.084C225.471 108.85 226.067 107.712 226.933 106.797C228.501 105.168 230.718 104.388 233.041 103.971Z" fill="white"/>
        <path d="M260.441 122.053C258.089 121.992 255.829 121.13 254.033 119.607C252.238 118.085 251.015 115.994 250.567 113.681C249.599 108.348 253.127 102.206 258.921 102.022C259.405 102.022 261.544 101.052 260.441 101.096C254.826 101.271 249.309 104.49 248.229 110.399C246.995 117.186 252.334 122.775 258.921 122.979C259.405 122.979 261.563 122.087 260.441 122.053Z" fill="#6A79A8"/>
        <path d="M290.647 127.119C283.668 126.091 277.995 120.715 277.095 113.613C276.098 105.929 281.127 97.9062 288.948 96.51C289.892 96.3404 291.015 95.3126 289.369 95.6035C281.688 96.956 275.338 102.773 274.66 110.821C273.939 119.455 280.347 126.819 288.735 128.05C289.297 128.132 291.295 127.216 290.671 127.119H290.647Z" fill="#6A79A8"/>
        <path d="M348.559 115.8C351.512 103.536 343.98 91.1958 331.736 88.2378C319.492 85.2799 307.172 92.824 304.219 105.088C301.265 117.352 308.797 129.692 321.042 132.65C333.286 135.608 345.606 128.064 348.559 115.8Z" fill="#22c55e70"/>
        <path d="M322.049 132.04C311.081 130.294 300.099 128.646 289.137 126.765C276.63 124.618 264.206 122.165 251.569 121.006L238.82 119.843C236.095 119.59 232.32 119.741 229.9 118.286C228.459 117.362 227.368 115.983 226.798 114.368C226.228 112.752 226.213 110.992 226.754 109.366C227.79 106.327 230.282 104.95 233.303 104.679C236.226 104.417 239.148 104.15 242.068 103.879C247.963 103.336 254.008 103.132 259.86 102.216C267.12 101.086 274.326 99.5157 281.543 98.168C293.643 95.9041 305.544 92.7966 317.509 89.8734L319.29 89.4371C320.718 89.0881 320.36 87.7695 318.937 88.1185L298.846 93.0245C295.942 93.7371 293.009 94.4788 290.085 95.1672C289.635 95.2739 289.979 95.206 290.042 95.1914C289.756 95.2496 289.471 95.2981 289.185 95.3514L285.008 96.1319L261.36 100.558C255.91 101.576 250.228 101.721 244.715 102.226C241.206 102.546 237.693 102.89 234.179 103.195C230.132 103.539 226.333 104.979 224.673 109.013C222.408 114.554 226.483 120.211 232.165 120.788C234.711 121.045 237.271 121.219 239.822 121.452L253.311 122.688L257.972 123.134C258.335 123.168 258.703 123.192 259.066 123.236C259.429 123.28 258.737 123.183 259.168 123.236C266.428 124.283 273.615 125.718 280.827 126.954C293.411 129.116 306.072 131.099 318.709 133.106L320.645 133.416C321.473 133.547 323.404 132.253 322.049 132.04Z" fill="#6A79A8"/>
        <path d="M333.321 117.937L333.152 118.073C330.983 119.751 328.247 120.516 325.524 120.206C319.789 119.586 315.612 114.544 316.212 108.969C316.812 103.394 321.967 99.3557 327.702 99.9762C330.429 100.258 332.939 101.592 334.701 103.694C335.565 104.71 336.216 105.89 336.616 107.164C337.015 108.437 337.155 109.778 337.026 111.107C336.897 112.435 336.503 113.724 335.866 114.897C335.23 116.069 334.364 117.102 333.321 117.932V117.937Z" fill="white"/>
        <path d="M326.11 114.777C325.197 114.641 324.344 114.24 323.658 113.622C322.971 113.005 322.481 112.2 322.248 111.306C322.015 110.412 322.05 109.469 322.347 108.594C322.645 107.72 323.193 106.952 323.923 106.387C324.653 105.822 325.533 105.484 326.453 105.416C327.373 105.348 328.293 105.552 329.098 106.004C329.903 106.455 330.558 107.133 330.981 107.955C331.404 108.776 331.576 109.703 331.477 110.622C331.312 111.884 330.655 113.03 329.649 113.808C328.643 114.586 327.371 114.935 326.11 114.777Z" fill="#6A79A8"/>
        <path d="M347.827 110.777C347.696 119.843 342.217 128.569 333.515 131.681C324.585 134.871 314.314 130.978 308.899 123.406C306.413 119.895 304.966 115.753 304.724 111.456C304.483 107.159 305.457 102.881 307.534 99.1133C312.34 90.5327 322.238 86.1939 331.734 89.0444C341.307 91.9192 347.677 100.868 347.822 110.777C347.822 111.126 350.164 110.777 350.16 110.147C350.104 105.09 348.401 100.19 345.312 96.1905C342.222 92.1911 337.913 89.3109 333.04 87.9876C324.072 85.6074 313.845 88.7536 307.819 95.8217C304.596 99.642 302.696 104.406 302.404 109.399C302.111 114.392 303.443 119.346 306.198 123.517C311.701 131.676 321.744 135.225 331.23 133.062C342.067 130.595 349.995 121.384 350.16 110.147C350.169 109.817 347.836 110.123 347.827 110.777Z" fill="#6A79A8"/>
        <path d="M190.328 173.726C196.703 178.229 204.761 179.732 212.413 180.067C220.065 180.401 228.143 179.582 235.394 176.867C251.699 170.778 264.646 155.537 267.918 138.439C268.964 133.196 269.273 127.833 268.838 122.504C268.605 119.647 268.045 116.826 267.168 114.098C266.607 112.391 266.2 110.084 264.1 110.045C263.272 110.045 261.597 111.252 263.165 111.286C264.221 111.286 265.271 116.134 265.474 116.939C265.981 118.973 266.324 121.045 266.5 123.134C266.878 127.718 266.684 132.332 265.924 136.868C264.637 144.971 261.374 152.631 256.423 159.168C251.52 165.664 245.088 171.19 237.697 174.647C231.081 177.75 223.71 178.85 216.45 178.879C208.29 178.908 199.331 177.648 192.506 172.829C191.872 172.378 189.757 173.314 190.328 173.716V173.726Z" fill="#6A79A8"/>
        <path d="M194.476 98.6479C194.641 101.828 198.421 103.142 200.913 103.69C208.023 105.246 215.225 103.69 222.243 102.531C229.561 101.329 242.029 98.2649 243.844 97.0045C243.97 96.9173 244.328 96.607 244.328 96.607C245.78 84.3469 237.591 73.8514 226.135 72.4989C214.678 71.1463 204.297 79.9112 202.796 92.1082H202.733C200.949 92.4366 199.231 93.0556 197.646 93.9407C195.962 94.8812 194.36 96.4422 194.476 98.6479Z" fill="#E5E5E5"/>
        <path d="M196.16 95.6229C196.204 98.8031 199.931 100.267 202.399 100.907C209.446 102.739 216.653 101.217 223.695 100.335C231.073 99.373 238.372 97.8842 245.538 95.8798L245.93 96.035C247.866 83.8379 240.146 72.4989 228.753 70.71C217.36 68.9212 206.692 77.2788 204.732 89.3838H204.674C202.878 89.6421 201.137 90.1941 199.519 91.0175C197.787 91.9192 196.127 93.4172 196.16 95.6229Z" fill="#9FCDED"/>
        <path d="M197.893 95.9234C197.802 96.2486 197.789 96.5908 197.855 96.9221C198.256 99.0503 200.458 100.403 202.399 100.907C209.446 102.739 216.653 101.217 223.695 100.335C231.073 99.373 238.373 97.8842 245.538 95.8798L245.93 96.0349C247.866 83.8379 240.146 72.5231 228.753 70.71C227.838 70.5646 226.774 70.8797 225.902 71.1124C224.043 71.5572 222.264 72.2917 220.632 73.2891C219.058 74.3337 217.665 75.629 216.508 77.1237C216.251 77.4485 216.024 77.783 215.772 78.1272C214.994 79.2509 214.32 80.4436 213.759 81.6903C213.145 82.9346 212.705 84.2575 212.452 85.6219C212.297 86.7078 212.215 87.8034 212.123 88.8941C212.123 88.8941 203.788 92.4233 202.182 93.0487C200.763 93.611 198.358 94.3334 197.893 95.9234Z" fill="#22c55e70"/>
        <path d="M205.831 89.3547C207.767 78.1078 217.824 68.4704 229.745 71.5729C240.504 74.3701 246.293 85.68 244.798 96.2385L247.048 95.6326C233.791 90.1303 219.46 88.4239 205.182 89.0735C204.538 89.1026 202.636 90.1109 204.175 90.0431C218.003 89.4128 231.996 91.1096 244.831 96.4422C245.252 96.6215 246.995 96.4422 247.082 95.841C248.815 83.6294 241.042 71.19 228.206 70.0653C216.106 69.0036 205.531 78.0108 203.522 89.7619C203.425 90.3242 205.729 89.9364 205.831 89.3547Z" fill="#6A79A8"/>
        <path d="M245.456 95.1575C235.323 97.9116 224.972 99.7881 214.519 100.766C209.882 101.203 204.538 101.338 200.265 99.1715C198.595 98.3231 197.056 96.8494 197.385 94.8085C197.869 91.6962 201.93 90.6006 204.519 90.14C205.71 89.9267 206.373 88.3415 204.78 88.6275C201.058 89.2868 194.81 91.1047 194.989 95.9477C195.159 100.519 201.576 101.814 205.061 102.274C211.673 103.152 218.429 101.789 224.968 100.922C232.011 99.9239 238.981 98.4664 245.833 96.5585C247.251 96.1707 246.888 94.7697 245.456 95.1623V95.1575Z" fill="#6A79A8"/>
        <path d="M226.996 72.3438C227.36 70.302 227.32 68.2087 226.88 66.1822C226.715 65.4356 224.368 66.0174 224.542 66.8076C224.967 68.7309 225.009 70.719 224.668 72.6589C224.523 73.4927 226.865 73.0952 226.996 72.3438Z" fill="#6A79A8"/>
        <path d="M237.097 66.6573C233.513 67.0959 229.877 66.7604 226.433 65.6733C222.989 64.5862 219.818 62.7728 217.132 60.3551C216.619 59.8994 214.485 60.7866 214.94 61.1938C217.892 63.7768 221.366 65.692 225.125 66.8088C228.883 67.9256 232.838 68.2179 236.72 67.6656C237.726 67.5299 238.757 66.4391 237.112 66.6524L237.097 66.6573Z" fill="#6A79A8"/>
        <path d="M235.006 57.1313C229.861 63.5137 222.512 67.7296 214.412 68.9454C213.241 69.12 212.52 70.6082 214.131 70.3707C223.194 69.0591 231.43 64.3752 237.199 57.2525C237.886 56.3993 235.524 56.4866 235.001 57.1313H235.006Z" fill="#6A79A8"/>
        <path d="M244.512 61.8095C245.625 58.3481 243.82 54.8189 240.248 53.9076C239.959 53.8152 239.65 53.8082 239.357 53.8873C239.065 53.9664 238.801 54.1283 238.598 54.3535C238.514 54.4425 238.455 54.5514 238.425 54.6698C238.395 54.7882 238.396 54.9123 238.428 55.0302C238.459 55.1482 238.52 55.2561 238.605 55.3439C238.69 55.4316 238.795 55.4962 238.912 55.5316C239.542 55.6728 240.136 55.9453 240.654 56.3312C241.172 56.7171 241.603 57.2079 241.919 57.7716C242.235 58.3353 242.43 58.9594 242.49 59.6033C242.549 60.2471 242.473 60.8964 242.266 61.5089C241.845 62.8178 244.202 62.8469 244.512 61.8095Z" fill="#6A79A8"/>
        <path d="M218.676 56.1618C214.625 55.3861 210.521 57.461 209.349 61.5331C209.083 62.4542 211.445 62.1391 211.692 61.2762C212.423 58.7457 214.567 57.0101 217.268 57.5289C217.559 57.5947 217.862 57.5885 218.15 57.5108C218.439 57.4331 218.704 57.2862 218.923 57.0829C219.209 56.729 219.233 56.2684 218.676 56.1618Z" fill="#6A79A8"/>
        <path d="M210.54 55.2649C205.947 56.3945 202.796 60.6218 204.553 65.3581C204.79 66.0077 207.104 65.3047 206.891 64.7278C205.647 61.3344 206.954 57.0926 210.763 56.1521C212.142 55.8127 211.915 54.9207 210.521 55.2649H210.54Z" fill="#6A79A8"/>
        <path d="M248.011 65.0236C249.065 63.6549 249.639 61.9762 249.643 60.2478C249.647 58.5193 249.082 56.8378 248.036 55.4637C247.61 54.8917 245.349 55.6722 245.853 56.3412C246.797 57.5945 247.308 59.1219 247.308 60.6921C247.308 62.2622 246.797 63.7896 245.853 65.043C245.272 65.8089 247.59 65.5811 248.011 65.043V65.0236Z" fill="#6A79A8"/>
        <path d="M397.688 356.711C398.851 353.469 399.093 349.968 398.385 346.597C397.678 343.227 396.05 340.119 393.683 337.621C391.315 335.122 388.302 333.332 384.978 332.448C381.654 331.565 378.151 331.623 374.858 332.617C371.257 323.891 367.085 315.577 360.135 308.756C346.321 295.202 325.103 289.414 306.856 296.753C298.657 300.079 291.465 305.557 285.662 312.198C282.627 315.669 279.95 319.437 277.671 323.445C277.1 324.449 271.897 335.778 272.076 335.812C269.99 335.39 267.869 335.163 265.74 335.133C243.399 334.901 225.06 354.195 224.818 378.129C224.576 402.062 242.591 421.681 264.927 421.894C275.309 421.991 285.347 417.691 292.965 409.983C303.226 418.055 315.137 422.36 327.615 422.476C340.092 422.593 352.091 418.501 362.516 410.609C369.994 418.462 379.94 422.951 390.332 423.048C390.86 423.055 391.389 423.031 391.914 422.976C392.674 423.034 393.444 423.077 394.218 423.087C402.776 423.163 411.034 419.927 417.268 414.055C423.503 408.182 427.234 400.125 427.684 391.565C428.133 383.004 425.266 374.6 419.68 368.105C414.095 361.61 406.222 357.525 397.703 356.701L397.688 356.711Z" fill="#EFEFEF"/>
        <path d="M391.556 355.829C392.231 353.976 392.585 352.022 392.601 350.05C392.605 347.289 391.963 344.566 390.728 342.098C389.492 339.63 387.697 337.486 385.487 335.838C383.276 334.189 380.711 333.081 377.996 332.602C375.282 332.124 372.493 332.289 369.853 333.083C366.432 324.841 362.463 316.993 355.856 310.56C342.72 297.762 322.552 292.279 305.201 299.226C297.413 302.338 290.574 307.53 285.057 313.769C282.175 317.043 279.631 320.6 277.463 324.386C276.916 325.355 271.969 336.021 272.139 336.059C270.154 335.66 268.137 335.444 266.113 335.415C244.88 335.216 227.427 353.429 227.219 376.015C227.011 398.601 244.11 417.134 265.348 417.333C275.217 417.425 285.725 413.367 292.97 406.091C302.728 413.711 313.08 417.779 324.938 417.885C336.796 417.992 353.049 414.143 362.947 406.706C362.734 406.866 369.844 412.296 370.4 412.693C375.905 416.692 382.588 418.729 389.383 418.477C393.886 418.351 398.31 417.269 402.364 415.302C406.419 413.336 410.01 410.53 412.9 407.07C417.486 401.53 420.032 394.579 420.112 387.383C420.262 370.949 407.697 357.351 391.556 355.829Z" fill="white"/>
        <path d="M398.816 356.832C401.212 349.633 399.634 341.765 394.102 336.442C388.918 331.454 381.518 329.932 374.665 331.842L376.039 332.326C371.862 322.282 366.708 312.756 358.31 305.61C350.794 299.231 341.694 295.008 331.976 293.389C310.622 289.879 291.015 301.499 279.302 318.927C277.275 322.048 275.506 325.33 274.012 328.739C273.242 330.421 272.468 332.108 271.732 333.81C271.456 334.44 270.817 335.405 270.924 336.132L272.492 334.983C249.396 330.717 228.25 348.218 224.329 370.668C220.457 392.934 233.854 416.838 256.569 421.812C270.232 424.798 284.113 420.072 293.943 410.313L292.065 410.648C302.229 418.52 314.465 423.189 327.354 423.31C340.392 423.431 352.87 418.908 363.271 411.142H361.432C368.755 418.69 378.556 423.557 389.151 423.882C398.269 424.163 406.831 422.913 414.449 417.531C429.405 406.934 433.412 385.691 422.982 370.508C420.132 366.421 416.433 363 412.139 360.48C407.845 357.959 403.057 356.399 398.105 355.906C396.991 355.79 395.685 357.39 397.282 357.554C414.44 359.363 427.522 374.633 426.496 391.945C425.48 409.043 410.732 423.048 393.463 422.253C387.975 422.001 382.955 421.768 377.748 419.732C372.389 417.584 367.555 414.307 363.571 410.124C363.312 409.911 362.987 409.795 362.652 409.795C362.316 409.795 361.991 409.911 361.732 410.124C351.631 417.667 339.502 422.011 326.831 421.633C314.731 421.269 303.376 416.707 293.87 409.329C293.323 408.907 292.418 409.247 291.992 409.663C283.28 418.326 271.113 422.694 258.906 420.464C248.96 418.651 240.156 412.621 234.28 404.467C221.992 387.378 223.632 362.538 238.399 347.461C247.072 338.609 259.439 334.372 271.664 336.641C272.313 336.762 273.358 336.273 273.247 335.502C273.31 335.938 273.431 335.216 273.557 334.949C273.751 334.537 273.915 334.11 274.099 333.694C274.689 332.346 275.299 331.003 275.914 329.66C276.843 327.624 277.724 325.54 278.784 323.571C283.957 314.067 291.593 306.135 300.888 300.612C317.828 290.732 338.805 293.394 354.167 305.067C363.566 312.213 369.224 322.224 373.687 332.952C373.91 333.48 374.568 333.548 375.061 333.437C388.962 329.558 401.057 343.186 396.575 356.643C396.154 357.85 398.487 357.768 398.816 356.832Z" fill="#6A79A8"/>
        <path d="M194.53 373.281C195.402 370.844 195.583 368.212 195.05 365.679C194.518 363.145 193.294 360.81 191.515 358.932C189.736 357.054 187.471 355.707 184.973 355.042C182.475 354.377 179.842 354.419 177.367 355.165C174.661 348.62 171.52 342.357 166.298 337.228C155.911 327.047 139.963 322.684 126.242 328.201C120.081 330.683 114.674 334.818 110.309 339.797C108.03 342.408 106.018 345.24 104.302 348.252C103.871 349.008 99.9462 357.525 100.101 357.55C98.5304 357.24 96.9344 357.078 95.3337 357.065C78.5389 356.905 64.7401 371.409 64.5707 389.395C64.4013 407.38 77.9291 422.137 94.7239 422.297C102.531 422.37 110.072 419.136 115.802 413.343C123.517 419.408 132.471 422.646 141.851 422.733C151.231 422.82 160.243 419.752 168.074 413.828C173.698 419.732 181.181 423.106 188.988 423.179C189.385 423.185 189.783 423.167 190.178 423.126C190.749 423.169 191.325 423.203 191.911 423.208C198.4 423.351 204.689 420.958 209.446 416.535C214.204 412.112 217.054 406.008 217.395 399.516C217.735 393.024 215.539 386.655 211.27 381.757C207.002 376.86 200.998 373.82 194.53 373.281Z" fill="#EFEFEF"/>
        <path d="M194.641 373.693C195.359 371.704 195.589 369.571 195.311 367.474C195.034 365.378 194.256 363.379 193.044 361.647C191.832 359.915 190.222 358.5 188.349 357.523C186.476 356.546 184.396 356.034 182.284 356.032C180.942 356.018 179.606 356.206 178.32 356.59C175.75 350.414 172.764 344.499 167.798 339.661C157.924 330.038 142.78 325.918 129.712 331.139C123.883 333.557 118.699 337.305 114.573 342.085C112.405 344.545 110.492 347.219 108.861 350.065C108.45 350.777 104.733 358.791 104.864 358.844C103.371 358.544 101.855 358.381 100.333 358.359C84.3613 358.209 71.2497 371.899 71.09 388.876C71.0174 396.793 72.8034 405.116 78.0209 411.283C88.0832 423.179 105.425 421.55 115.923 411.006C123.256 416.732 135.641 420.275 144.556 420.358C153.472 420.44 162.053 417.541 169.492 411.952C172.048 414.681 175.125 416.869 178.54 418.387C181.955 419.905 185.639 420.722 189.375 420.789C189.753 420.794 190.131 420.777 190.507 420.741C191.049 420.779 191.596 420.813 192.153 420.818C198.266 420.938 204.186 418.673 208.662 414.502C213.139 410.331 215.822 404.581 216.145 398.465C216.468 392.35 214.405 386.348 210.393 381.728C206.38 377.107 200.732 374.23 194.641 373.702V373.693Z" fill="white"/>
        <path d="M195.643 373.387C199.515 361.631 188.813 351.233 177.159 354.379L178.533 354.864C175.348 347.219 171.423 340.01 165.015 334.59C159.315 329.787 152.42 326.625 145.065 325.443C129.093 322.893 114.34 331.478 105.488 344.48C103.87 346.922 102.463 349.497 101.282 352.178C100.74 353.366 100.198 354.549 99.6751 355.746C99.4524 356.255 98.9055 357.075 98.9152 357.685L100.512 356.764C83.1707 353.599 67.1696 366.494 63.9898 383.359C60.7905 400.327 70.9739 418.646 88.3059 422.442C98.7313 424.726 109.258 421.095 116.775 413.682L114.897 414.017C130.985 426.442 152.576 426.447 168.844 414.351H167.004C177.105 424.706 194.708 427.809 207.007 419.374C218.516 411.477 221.774 395.309 213.899 383.684C211.736 380.556 208.921 377.935 205.648 376.003C202.374 374.071 198.721 372.874 194.941 372.495C193.828 372.374 192.521 373.974 194.118 374.144C206.934 375.535 216.697 386.937 215.898 399.895C215.075 413.101 204.006 422.631 191.035 422.345C187.119 422.258 183.499 421.953 179.796 420.518C175.773 418.919 172.141 416.47 169.148 413.338C168.889 413.125 168.564 413.009 168.229 413.009C167.894 413.009 167.569 413.125 167.309 413.338C159.807 418.913 150.853 422.166 141.459 421.914C132.364 421.671 123.865 418.23 116.707 412.703C116.16 412.281 115.255 412.621 114.829 413.038C108.261 419.514 99.1669 422.762 90.0193 420.978C82.6141 419.524 76.1043 414.962 71.7821 408.859C62.7362 396.046 64.0381 377.518 75.1314 366.339C78.2666 363.102 82.1451 360.683 86.4284 359.293C90.7117 357.903 95.2695 357.584 99.7041 358.364C100.188 358.451 101.306 358.093 101.296 357.443C101.272 356.27 102.632 354.345 103.116 353.284C103.837 351.698 104.525 350.079 105.338 348.538C108.966 341.807 114.244 336.111 120.676 331.987C133.458 323.872 149.585 325.52 161.492 334.503C168.587 339.836 172.846 347.389 176.21 355.465C176.433 355.998 177.091 356.056 177.585 355.95C187.899 353.167 196.703 363.222 193.431 373.174C193 374.405 195.328 374.338 195.643 373.387Z" fill="#6A79A8"/>
        <path d="M272.831 387.388C273.46 385.636 273.661 383.759 273.417 381.913C273.174 380.067 272.493 378.307 271.431 376.778C270.369 375.25 268.957 373.999 267.314 373.129C265.671 372.259 263.843 371.796 261.984 371.778C260.807 371.76 259.633 371.923 258.504 372.263C256.249 366.809 253.616 361.578 249.26 357.283C240.596 348.78 227.282 345.163 215.835 349.754C210.708 351.902 206.154 355.222 202.54 359.45C200.639 361.623 198.962 363.983 197.535 366.494C197.177 367.119 193.915 374.25 194.026 374.25C192.718 373.983 191.387 373.84 190.052 373.824C176.016 373.693 164.521 385.793 164.4 400.802C164.279 415.811 175.532 428.129 189.568 428.26C192.849 428.257 196.097 427.595 199.117 426.312C202.138 425.029 204.87 423.15 207.152 420.789C213.306 425.788 220.97 428.55 228.893 428.623C236.816 428.696 244.53 426.076 250.775 421.192C253.009 423.595 255.703 425.524 258.696 426.865C261.689 428.206 264.921 428.931 268.199 428.997C268.53 429.001 268.862 428.985 269.191 428.948C269.675 428.987 270.159 429.016 270.643 429.021C276.022 429.085 281.218 427.063 285.142 423.378C289.067 419.692 291.416 414.63 291.699 409.249C291.981 403.868 290.175 398.587 286.659 394.509C283.142 390.432 278.187 387.875 272.831 387.373V387.388Z" fill="#EFEFEF"/>
        <path d="M270.503 386.772C270.924 385.278 271.144 383.734 271.156 382.181C271.209 376.097 266.316 371.608 260.189 371.55C259.227 371.546 258.272 371.71 257.367 372.035C255.223 366.882 252.246 361.462 248.103 357.424C239.875 349.396 227.209 345.959 216.324 350.312C211.46 352.331 207.133 355.459 203.687 359.445C201.88 361.493 200.284 363.718 198.924 366.087C198.58 366.683 194.51 373.872 194.621 373.896C193.704 373.649 192.759 373.514 191.809 373.494C178.485 373.368 167.537 384.309 167.406 398.475C167.275 412.64 178.006 424.27 191.325 424.396C197.52 424.454 203.019 421.909 207.563 417.347C213.622 422.054 221.048 424.651 228.714 424.745C236.158 424.813 244.764 422.399 250.978 417.73C250.833 417.905 255.649 421.657 256.249 422.04C261.738 425.545 268.959 426.146 275.077 424.052C278.923 422.719 282.267 420.234 284.656 416.934C287.044 413.633 288.362 409.677 288.43 405.601C288.517 395.29 280.633 387.732 270.503 386.772Z" fill="white"/>
        <path d="M273.944 387.504C277.172 377.493 268.175 368.913 258.301 371.506L259.676 371.967C257.033 365.665 253.805 359.663 248.544 355.145C243.693 351.006 237.793 348.293 231.497 347.306C218.1 345.231 205.753 352.455 198.338 363.352C197.019 365.339 195.871 367.434 194.907 369.616C194.302 370.939 192.942 372.873 192.855 374.371L194.447 373.45C179.748 370.808 166.191 381.759 163.65 396.114C161.129 410.366 169.836 425.559 184.385 428.594C193.097 430.407 201.833 427.319 208.101 421.148L206.228 421.487C219.78 431.905 237.838 431.876 251.52 421.739H249.681C258.127 430.354 272.657 432.977 283.029 426.156C292.878 419.679 295.835 406.052 289.321 396.172C287.509 393.493 285.131 391.246 282.356 389.59C279.581 387.934 276.476 386.909 273.262 386.588C272.144 386.462 270.842 388.042 272.439 388.236C286.315 389.778 294.742 405.14 288.256 417.662C281.088 431.508 261.839 430.921 251.845 420.721C251.585 420.509 251.26 420.392 250.925 420.392C250.59 420.392 250.265 420.509 250.005 420.721C237.184 430.218 220.656 429.859 208.057 420.164C207.51 419.747 206.605 420.086 206.179 420.503C200.72 425.86 193.203 428.541 185.619 427.023C179.492 425.797 174.134 422.001 170.562 416.916C163.118 406.323 164.158 391.072 173.224 381.774C175.811 379.07 179.024 377.046 182.577 375.88C186.131 374.714 189.917 374.442 193.6 375.089C194.123 375.181 195.159 374.817 195.197 374.168C195.26 373.004 196.809 370.493 197.409 369.189C198.488 366.822 199.807 364.572 201.344 362.475C206.131 355.989 212.999 350.608 221.048 349.066C228.661 347.612 236.71 349.589 243.157 353.793C250.112 358.325 254.192 365.064 257.333 372.583C257.556 373.116 258.209 373.174 258.708 373.067C267.241 370.833 274.356 379.093 271.713 387.291C271.306 388.527 273.634 388.459 273.944 387.504Z" fill="#6A79A8"/>
    </g>
    <defs>
        <clipPath id="clip0_102_154199">
            <rect width="484" height="430" fill="white"/>
        </clipPath>
    </defs>
</svg>
