<svg width="547" height="430" viewBox="0 0 547 430" fill="none" xmlns="http://www.w3.org/2000/svg">
    <path d="M147.303 420.058C157.858 423.345 131.75 427.805 128.083 428.127C88.5024 431.589 45.6766 429.974 6.46578 425.562C4.89555 425.461 3.34687 425.143 1.86392 424.617C-7.8306 420.522 23.3059 417.757 26.1979 417.53C36.9478 416.728 47.8667 416.21 58.7064 416.121C74.0636 415.978 134.199 415.962 147.303 420.058Z" fill="#EEEEEE"/>
    <path d="M543.849 420.058C553.512 423.345 529.6 427.805 526.276 428.127C490.083 431.589 450.925 429.974 415.071 425.562C413.624 425.46 412.201 425.142 410.849 424.617C401.988 420.522 430.46 417.757 433.104 417.53C442.93 416.728 452.915 416.21 462.82 416.121C476.885 415.978 531.88 415.962 543.849 420.058Z" fill="#EEEEEE"/>
    <path d="M447.168 1.03482H103.152C98.7805 1.03482 95.2363 4.57896 95.2363 8.95087V237.804C95.2363 242.176 98.7805 245.72 103.152 245.72H447.168C451.54 245.72 455.084 242.176 455.084 237.804V8.95087C455.084 4.57896 451.54 1.03482 447.168 1.03482Z" fill="#EEEEEE"/>
    <path d="M430.555 154.659C430.955 154.03 431.151 153.293 431.114 152.548C430.66 143.735 430.898 133.613 430.898 124.172V119.823C430.89 115.256 431.328 110.7 432.207 106.218C432.351 105.499 432.27 104.753 431.976 104.082C431.681 103.411 431.187 102.846 430.56 102.466C428.047 100.94 425.916 98.8593 424.331 96.3831C422.746 93.907 421.748 91.101 421.414 88.18C420.922 83.7265 421.795 79.2286 423.916 75.2821C427.51 68.6695 431.832 69.7725 437.637 67.1444C441.131 65.5612 443.337 62.247 447.02 60.8115L447.094 60.7852C449.411 59.9344 451.413 58.3977 452.834 56.38C454.255 54.3622 455.027 51.9593 455.047 49.4916V8.95087C455.047 6.8514 454.213 4.83793 452.729 3.35338C451.244 1.86883 449.231 1.03482 447.131 1.03482H103.152C101.053 1.03482 99.0394 1.86883 97.5549 3.35338C96.0703 4.83793 95.2363 6.8514 95.2363 8.95087V59.7402C95.2367 61.0556 95.5113 62.3564 96.0426 63.5597C96.5739 64.763 97.3502 65.8423 98.3221 66.7287C99.2939 67.6151 100.44 68.2892 101.687 68.7079C102.934 69.1265 104.254 69.2806 105.564 69.1603C108.081 68.9231 110.618 68.9816 113.121 69.3345C125.391 71.076 141.002 84.718 138.331 98.5922C137.767 101.526 136.748 103.532 135.339 104.867C134.899 105.305 134.576 105.847 134.401 106.443C134.226 107.039 134.203 107.669 134.336 108.276C135.669 115.036 136.167 121.934 135.819 128.816C135.793 129.47 135.645 132.573 135.598 133.639C135.276 140.553 134.943 147.487 133.904 154.337C133.418 157.567 132.822 160.57 131.539 163.525C130.362 166.243 130.88 169.356 131.655 172.153C132.452 175.045 133.656 177.811 134.426 180.713C134.537 181.141 134.637 181.568 134.732 182.006C134.769 182.186 134.821 182.362 134.885 182.534C138.743 192.429 141.271 202.889 143.039 213.607C144.488 222.558 149.073 230.702 155.973 236.585C162.874 242.467 171.641 245.705 180.709 245.72H365.944C374.796 245.716 383.392 242.758 390.371 237.313C397.35 231.869 402.312 224.25 404.469 215.665C408.717 198.794 416.491 176.739 430.555 154.659Z" fill="white"/>
    <path d="M456.372 53.3757V30.8466C456.372 23.3475 456.953 15.5951 456.34 8.11704C455.855 2.16945 450.646 0.15877 445.538 0.15877H114.531C107.596 0.15877 95.7855 -1.74635 94.0756 7.64208C93.6851 9.78997 93.949 12.1753 93.949 14.3391V64.2788C93.949 65.5506 96.5243 65.1231 96.5243 64.0518V14.6135C96.5243 9.33611 95.891 2.01641 103.432 1.91086C105.58 1.91086 107.728 1.91086 109.876 1.91086H427.262C433.727 1.91086 440.271 1.61533 446.736 1.91086C454.958 2.29083 453.802 11.0038 453.802 16.7244V53.6026C453.802 54.8692 456.372 54.447 456.372 53.3757Z" fill="#5D7183"/>
    <path d="M149.678 246.596H350.745C353.469 246.596 356.303 246.828 359.02 246.596C359.137 246.596 359.263 246.596 359.385 246.596C360.799 246.596 361.374 244.844 359.638 244.844H158.57C155.847 244.844 153.013 244.612 150.295 244.844C150.179 244.844 150.053 244.844 149.931 244.844C148.517 244.844 147.942 246.596 149.678 246.596Z" fill="#5D7183"/>
    <path d="M273.59 23.1206V208.356C273.59 210.699 273.115 213.633 273.59 215.934C273.601 216.05 273.601 216.167 273.59 216.283C273.59 217.481 276.155 217.011 276.155 216.024V30.7886C276.155 28.4402 276.63 25.5112 276.155 23.205C276.144 23.0892 276.144 22.9726 276.155 22.8567C276.155 21.664 273.59 22.1337 273.59 23.1153V23.1206Z" fill="#5D7183"/>
    <path d="M203.49 276.146L173.208 302.202L199.264 332.485L229.547 306.429L203.49 276.146Z" fill="white"/>
    <path d="M228.501 306.204L198.214 332.263L200.431 332.005L174.376 301.718L174.234 302.504L204.52 276.45L202.304 276.703L228.358 306.99C228.992 307.724 231.435 306.784 230.717 305.935L204.684 275.664C204.156 275.046 202.958 275.495 202.468 275.922L172.181 301.977C172.059 302.062 171.976 302.192 171.949 302.338C171.922 302.484 171.954 302.635 172.038 302.758L198.093 333.044C198.62 333.667 199.818 333.213 200.309 332.791L230.596 306.737C231.715 305.755 229.203 305.602 228.501 306.204Z" fill="#5D7183"/>
    <path d="M260.002 83.7287L220.266 87.856L224.393 127.592L264.129 123.465L260.002 83.7287Z" fill="white"/>
    <path d="M264.281 122.689L224.547 126.816L225.666 127.254C224.291 114.007 222.915 100.761 221.539 87.515L220.109 88.6391L259.848 84.5122L258.729 84.0742C260.101 97.3204 261.477 110.567 262.856 123.813C262.951 124.763 265.495 124.182 265.405 123.127C264.029 109.881 262.654 96.6343 261.278 83.3881C261.23 82.9501 260.449 82.9184 260.154 82.9501L220.421 87.0559C219.866 87.1139 218.917 87.4728 218.99 88.18C220.37 101.426 221.745 114.672 223.117 127.919C223.165 128.357 223.946 128.388 224.236 128.357L263.975 124.23C265.278 124.114 266.043 122.504 264.281 122.689Z" fill="#5D7183"/>
    <path d="M232.4 104.038L236.691 100.814C237.34 100.323 237.984 99.8271 238.638 99.3469L239.419 98.7558C240.123 97.8164 240.721 97.8885 241.213 98.9722C240.997 99.4577 241.287 99.7849 241.699 99.9907C242.659 100.466 243.765 100.559 244.791 100.249C245.847 100.007 246.834 99.3891 247.958 99.4682C248.934 99.5368 249.889 100.144 250.823 100.381C252.787 100.877 255.045 100.687 256.264 98.8613C257.156 97.5103 254.781 97.1092 254.153 98.1014C253.156 99.616 249.61 97.5737 248.048 97.5737C246.485 97.5737 244.596 98.9827 243.187 98.2756C243.345 98.6133 243.509 98.951 243.673 99.2888C244.649 97.0776 242.269 95.7635 240.306 96.2279C238.722 96.5921 237.419 97.8428 236.189 98.7716L230.706 102.888C229.323 103.943 231.382 104.83 232.4 104.065V104.038Z" fill="#5D7183"/>
    <path d="M237.661 114.113C239.086 113.358 241.92 111.168 243.63 111.543C244.564 111.754 245.382 112.677 246.464 112.857C247.47 113 248.495 112.938 249.477 112.676C250.459 112.414 251.378 111.957 252.179 111.332C253.309 110.503 250.765 110.535 250.153 110.983C247.556 112.883 245.746 109.4 243.086 109.997C240.659 110.524 238.263 112.313 236.094 113.464C234.585 114.261 236.864 114.551 237.677 114.134L237.661 114.113Z" fill="#5D7183"/>
    <path d="M196.081 138.384H156.132V178.333H196.081V138.384Z" fill="#FFF7BF"/>
    <path d="M196.562 177.547H156.612L157.414 178.196V138.246L155.657 139.175H195.606L194.804 138.526V178.476C194.804 179.631 197.364 179.135 197.364 178.196V138.246C197.364 137.808 196.978 137.592 196.562 137.592H156.612C156.158 137.592 154.854 137.829 154.854 138.526V178.476C154.854 178.914 155.24 179.125 155.657 179.125H195.606C196.657 179.125 198.277 177.547 196.562 177.547Z" fill="#5D7183"/>
    <path d="M165.689 164.955C167.774 164.301 169.447 164.485 171.494 165.024C172.502 165.31 173.56 165.366 174.592 165.187C175.996 164.923 177.088 164.095 178.413 163.662C180.899 162.844 183.237 163.662 185.369 164.966C186.012 165.361 188.377 164.39 187.411 163.799C184.197 161.815 180.577 161.308 177.115 162.892C175.79 163.499 174.698 164.016 173.199 163.736C172.328 163.572 171.515 163.134 170.629 162.997C168.792 162.702 167.119 163.261 165.383 163.81C163.906 164.274 164.175 165.435 165.689 164.955Z" fill="#5D7183"/>
    <path d="M182.989 153.076C182.417 152.55 181.739 152.154 181 151.913C180.262 151.673 179.48 151.594 178.709 151.682C176.973 151.846 174.65 153.582 173.12 153.313C171.59 153.044 170.65 151.73 168.898 151.656C167.275 151.59 165.674 152.049 164.333 152.965C162.898 153.91 165.12 154.142 165.89 153.635C168.529 151.899 169.959 154.891 172.35 154.933C175.3 154.991 177.769 151.598 180.635 154.047C181.279 154.601 183.643 153.619 183.005 153.076H182.989Z" fill="#5D7183"/>
    <path d="M415.38 65.9465L375.431 68.7429L378.227 108.693L418.177 105.896L415.38 65.9465Z" fill="#FFF7BF"/>
    <path d="M254.774 27.2804L215.035 22.3206L210.075 62.0597L249.814 67.0195L254.774 27.2804Z" fill="#FFF7BF"/>
    <path d="M416.464 106.35L376.599 108.989L377.723 109.432C376.837 96.1435 375.957 82.8551 375.085 69.5667L373.66 70.6907L413.52 68.0521L412.401 67.6088L415.04 107.474C415.103 108.408 417.678 107.854 417.588 106.788L414.95 66.928C414.918 66.4794 414.111 66.4689 413.826 66.4847L373.966 69.1498C373.385 69.1867 372.493 69.5772 372.536 70.2738C373.422 83.5587 374.302 96.8454 375.174 110.134C375.201 110.582 376.013 110.593 376.293 110.572L416.158 107.933C417.478 107.822 418.222 106.229 416.464 106.35Z" fill="#5D7183"/>
    <path d="M248.046 67.1345L208.42 62.0362L209.438 62.688C211.13 49.478 212.83 36.2694 214.536 23.0621L212.921 23.8904L252.542 28.9876L251.529 28.3369L246.431 67.9627C246.313 68.8915 248.947 68.8444 249.064 67.7811L254.162 28.1604C254.217 27.7142 253.427 27.5481 253.144 27.5087L213.518 22.4373C212.942 22.3616 211.991 22.5728 211.898 23.2645C210.207 36.471 208.507 49.6779 206.801 62.8852C206.74 63.3304 207.536 63.4975 207.814 63.5307L247.44 68.629C248.756 68.7747 249.794 67.3543 248.046 67.1345Z" fill="#5D7183"/>
    <path d="M219.568 170.075L209.978 208.856L248.759 218.447L258.35 179.665L219.568 170.075Z" fill="#F8F8F8"/>
    <path d="M306.035 32.2742L315.482 71.0907L354.299 61.6433L344.852 22.8268L306.035 32.2742Z" fill="#F8F8F8"/>
    <path d="M249.541 217.681L210.757 208.092L211.285 208.699C214.483 195.773 217.68 182.845 220.874 169.916L218.832 170.802L257.615 180.391L257.087 179.784C253.896 192.71 250.7 205.638 247.498 218.568C247.245 219.623 249.826 219.243 250.058 218.288L259.647 179.505C259.731 179.178 259.404 178.977 259.119 178.898L220.336 169.309C219.671 169.145 218.478 169.425 218.288 170.195L208.683 208.963C208.604 209.29 208.931 209.491 209.211 209.57L247.994 219.159C248.892 219.402 250.992 218.045 249.541 217.681Z" fill="#5D7183"/>
    <path d="M354.637 60.6033L315.82 70.0527L316.568 70.3464C313.421 57.408 310.271 44.4688 307.119 31.5288L305.719 33.26L344.536 23.8106L343.788 23.5169C346.941 36.4521 350.091 49.3913 353.237 62.3345C353.501 63.3873 355.613 61.8561 355.376 60.9019L345.927 22.0843C345.851 21.7552 345.468 21.7289 345.178 21.7906L306.361 31.24C305.696 31.4027 304.768 32.2026 304.956 32.9736L314.384 71.7845C314.465 72.1112 314.848 72.1375 315.133 72.0782L353.95 62.6288C354.858 62.4288 356.092 60.2544 354.637 60.6033Z" fill="#5D7183"/>
    <path d="M335.04 162.771L295.663 169.509L302.401 208.887L341.778 202.149L335.04 162.771Z" fill="#B9F7BA"/>
    <path d="M341.948 201.327L302.574 208.071L303.692 208.509C301.444 195.386 299.198 182.26 296.953 169.13L295.523 170.254L334.903 163.514L333.779 163.071L340.523 202.451C340.687 203.422 343.246 202.804 343.072 201.77L336.328 162.39C336.259 161.968 335.526 161.894 335.209 161.947L295.829 168.691C295.301 168.776 294.278 169.093 294.404 169.816C296.649 182.939 298.895 196.063 301.144 209.19C301.217 209.617 301.951 209.686 302.268 209.633L341.642 202.894C342.914 202.672 343.7 201.047 341.948 201.327Z" fill="#5D7183"/>
    <path d="M309.571 183.199C311.123 181.911 312.421 181.088 314.553 181.616C315.191 181.774 315.793 182.143 316.426 182.318C317.711 182.671 319.055 182.756 320.374 182.566C322.796 182.272 325.054 181.186 326.796 179.478C327.324 178.951 324.939 179.225 324.49 179.668C320.268 183.806 317.883 179.774 313.656 180.196C311.165 180.444 309.133 181.864 307.265 183.421C306.737 183.864 309.085 183.637 309.571 183.231V183.199Z" fill="#5D7183"/>
    <path d="M310.922 193.527C312.078 192.07 313.398 191.6 315.224 192.424C316.02 192.783 316.611 193.405 317.482 193.632C318.521 193.888 319.617 193.772 320.58 193.305C323.599 191.949 327.245 188.102 330.639 191.089C331.478 191.833 333.705 190.592 332.602 189.621C329.525 186.909 324.364 188.529 321.314 190.524C320.855 190.916 320.364 191.269 319.846 191.579C318.791 192.012 318.073 191.458 317.208 190.972C316.078 190.355 315.176 189.716 313.83 189.711C311.656 189.711 310.073 191.199 308.806 192.798C307.809 194.06 310.221 194.45 310.917 193.543L310.922 193.527Z" fill="#5D7183"/>
    <path d="M152.931 68.7679L148.118 108.427L187.777 113.24L192.59 73.5812L152.931 68.7679Z" fill="#B9F7BA"/>
    <path d="M188.271 112.464L148.612 107.645L149.414 108.3C151.018 95.0817 152.624 81.8619 154.232 68.6404L152.475 69.5692L192.134 74.3874L191.332 73.733C189.721 86.951 188.114 100.171 186.514 113.392C186.382 114.506 188.957 114.078 189.073 113.118C190.678 99.8999 192.284 86.6801 193.891 73.4586C193.949 72.9836 193.453 72.8464 193.089 72.8042L153.43 67.9859C152.902 67.9226 151.752 68.2604 151.672 68.9201C150.065 82.1381 148.459 95.3579 146.854 108.579C146.796 109.049 147.292 109.186 147.656 109.229L187.316 114.047C188.392 114.179 189.986 112.669 188.271 112.464Z" fill="#5D7183"/>
    <path d="M310.299 93.6845L305.14 133.3L344.755 138.459L349.914 98.8436L310.299 93.6845Z" fill="white"/>
    <path d="M345.252 137.682L305.635 132.52C305.899 132.742 306.163 132.958 306.437 133.175L311.598 93.5576L309.841 94.4917L349.458 99.6476L348.656 98.9985L343.479 138.616C343.331 139.724 345.912 139.296 346.038 138.336L351.2 98.7188C351.258 98.2439 350.756 98.1172 350.397 98.0697L310.78 92.9084C310.252 92.8398 309.107 93.1829 309.023 93.8373L303.899 133.454C303.835 133.929 304.337 134.056 304.701 134.104L344.318 139.265C345.373 139.407 346.962 137.909 345.252 137.682Z" fill="#5D7183"/>
    <path d="M317.456 114.741C321.472 112.477 321.572 116.039 323.873 117.559C324.836 118.129 325.977 118.317 327.071 118.087C330.301 117.628 335.077 116.319 336.95 120.113C337.447 121.116 339.879 120.192 339.288 118.995C337.573 115.527 332.454 115.174 329.098 115.791C327.245 116.134 326.137 116.319 324.623 114.646C323.963 113.918 323.567 113.063 322.68 112.535C320.628 111.263 318.221 112.213 316.348 113.279C314.844 114.129 316.21 115.485 317.477 114.773L317.456 114.741Z" fill="#5D7183"/>
    <path d="M522.328 414.817C521.494 403.207 507.467 346.053 512.301 271.801C513.356 255.631 463.111 272.671 448.973 285.648C448.512 286.072 448.082 286.527 447.685 287.01C446.003 285.672 444.24 284.438 442.408 283.316C435.183 278.856 426.792 275.358 418.39 276.582C417.194 276.684 416.045 277.095 415.055 277.775C413.472 279.015 409.181 278.772 408.859 280.751C407.54 288.899 408.975 297.765 409.952 306.019C410.77 312.88 412.258 319.74 413.841 326.458C417.321 341.566 421.619 356.474 426.718 371.115C428.549 376.308 442.883 423.562 454.509 423.562C466.135 423.562 454.509 402.452 455.189 340.807C455.259 336.737 455.647 332.679 456.35 328.669C458.942 333.118 461.406 337.013 463.084 339.842C478.163 365.314 493.243 390.786 508.322 416.258C511.003 420.791 516.686 425.91 520.586 422.364C522.56 420.585 522.518 417.493 522.328 414.817Z" fill="#E3E3E3"/>
    <path d="M511.298 298.926C511.298 301.275 476.061 302.673 472.995 302.784C461.737 303.182 450.479 303.046 439.22 302.378C429.362 301.776 417.435 299.818 408.838 296.947C409.16 300.013 409.567 303.064 409.92 306.04C410.738 312.901 412.226 319.761 413.81 326.479C417.289 341.588 421.588 356.495 426.686 371.137C428.518 376.329 442.851 423.583 454.477 423.583C466.103 423.583 454.477 402.474 455.158 340.829C455.227 336.759 455.615 332.7 456.319 328.691C458.91 333.139 461.375 337.034 463.053 339.863C478.132 365.335 493.211 390.807 508.29 416.279C510.971 420.812 516.655 425.931 520.555 422.385C522.539 420.58 522.497 417.498 522.307 414.823C521.6 404.685 510.771 359.7 511.298 298.926Z" fill="#EEEEEE"/>
    <path d="M407.889 296.335C409.019 313.492 413.251 330.495 417.916 346.998C422.746 364.373 428.611 381.444 435.479 398.12C437.87 404.06 440.592 409.862 443.633 415.498C445.1 418.137 446.958 422.158 449.828 423.62C452.926 425.203 457.533 424.411 459.438 421.398C462.209 417.013 461.159 410.221 460.753 405.371C459.85 394.605 458.256 383.908 457.412 373.131C456.262 358.56 456.225 343.916 458.124 329.403L455.665 330.063C465.39 346.38 475.098 362.708 484.791 379.047L501.272 406.912C503.758 411.102 505.953 415.841 509.114 419.577C511.109 421.931 513.948 424.369 517.215 424.369C527.348 424.369 522.83 408.537 521.849 402.563C519.769 389.945 517.827 377.306 516.344 364.603C513.8 343.06 512.54 321.384 512.571 299.691C512.571 298.52 510.011 299.005 510.011 299.961C509.917 331.751 512.898 363.405 517.928 394.774C518.629 399.175 519.379 403.571 520.081 407.967C520.566 410.991 521.184 414.115 521.136 417.197C521.099 419.551 520.381 423.087 517.236 422.67C515.088 422.385 513.083 420.353 511.732 418.823C508.745 415.429 506.729 411.076 504.439 407.212C499.203 398.375 493.97 389.533 488.738 380.688C478.535 363.449 468.294 346.222 458.014 329.007C457.576 328.268 455.655 328.896 455.554 329.662C452.646 351.937 454.647 374.108 457.185 396.299C457.586 399.814 462.288 427.198 451.908 422.311C449.269 421.06 447.427 416.997 446.103 414.601C443.183 409.197 440.566 403.635 438.266 397.94C431.788 382.277 426.204 366.259 421.542 349.964C416.407 332.316 411.684 314.078 410.459 295.654C410.396 294.704 407.821 295.258 407.91 296.335H407.889Z" fill="#5D7183"/>
    <path d="M407.609 291.517C406.184 238.136 407.16 216.784 438.582 155.266C438.397 152.163 438.302 129.407 438.302 125.739V121.39C438.302 97.1145 450.223 77.4616 464.931 77.4616C479.639 77.4616 491.556 97.1304 491.556 121.39V125.739C491.556 133.127 492.221 140.056 492.041 147.44C491.999 149.387 492.569 150.68 492.516 152.627C492.685 154.574 492.951 156.512 493.313 158.432C505.694 211.206 513.367 223.507 515.784 293.459C517.278 294.493 459.987 305.074 407.609 291.517Z" fill="white"/>
    <path d="M495.609 168.005C504.691 205.063 512.465 221.17 515.784 293.454C513.014 296.441 449.912 303.956 407.598 291.517C401.039 230.036 422.639 188.64 432.708 168.195C432.708 168.195 443.078 198.709 495.245 167.984C495.3 167.949 495.365 167.932 495.43 167.936C495.496 167.94 495.558 167.964 495.609 168.005Z" fill="white"/>
    <path d="M455.047 140.436C457.158 141.719 456.219 145.107 454.868 146.595C453.953 147.57 452.765 148.246 451.46 148.533C450.154 148.82 448.793 148.706 447.553 148.205C444.872 147.007 443.632 143.117 444.888 140.516C445.05 140.138 445.312 139.812 445.646 139.573C445.98 139.334 446.373 139.191 446.783 139.159C448.424 139.159 449.026 141.212 450.672 141.492C452.219 141.75 452.783 140.653 454.076 140.299C454.239 140.253 454.409 140.241 454.576 140.265C454.744 140.289 454.904 140.347 455.047 140.436Z" fill="#5D7183"/>
    <path d="M444.202 281.817C443.179 248.358 446.059 214.894 452.783 182.101C452.999 181.046 450.419 181.431 450.223 182.381C443.482 215.308 440.6 248.909 441.637 282.503C441.669 283.406 444.223 282.878 444.186 281.817H444.202Z" fill="#5D7183"/>
    <path d="M489.25 170.438C478.167 176.94 465.148 182.74 451.992 181.209C450.936 181.088 449.316 182.581 451.031 182.793C465.074 184.423 479.049 178.27 490.865 171.335C492.348 170.465 490.152 169.926 489.25 170.454V170.438Z" fill="#5D7183"/>
    <path d="M470.061 68.5851C469.913 68.0573 475.661 67.0019 476.23 66.9069C483.429 65.9253 491.007 70.601 491.904 78.1055C491.936 78.3535 492.078 80.1742 492.163 81.7996C492.206 82.5226 492.445 83.2202 492.854 83.818C493.263 84.4157 493.827 84.8909 494.485 85.193C504.332 89.874 505.968 106.128 495.783 112.904C492.712 114.947 489.039 116.345 485.529 115.089C481.666 113.707 478.837 109.997 479.65 105.775C467.903 109.537 463.459 106.535 460.124 99.6107C461.179 101.088 452.43 105.284 451.358 105.632C440.513 109.147 430.032 100.555 428.829 89.7684C428.337 85.315 429.209 80.8171 431.331 76.8706C434.924 70.258 439.247 71.361 445.052 68.7328C448.545 67.1496 450.751 63.8354 454.435 62.4C460.266 60.1413 467.85 62.3578 470.061 68.5851Z" fill="#96E296"/>
    <path d="M409.773 241.002C412.032 220.742 418.359 201.559 426.513 182.951C426.845 182.186 424.323 182.455 423.964 183.278C415.816 201.891 409.483 221.075 407.224 241.329C407.113 242.327 409.678 241.857 409.773 241.002Z" fill="#5D7183"/>
    <path d="M433.88 172.618C436.988 176.312 441.131 180.534 446.065 181.521C447.004 181.716 449.078 180.286 447.585 179.98C442.962 179.035 439.141 175.035 436.233 171.536C435.589 170.765 433.146 171.71 433.88 172.591V172.618Z" fill="#5D7183"/>
    <path d="M337.583 129.423C341.62 130.731 344.57 132.162 346.312 136.172C348.087 140.45 349.608 144.829 350.866 149.287C353.684 158.67 356.281 168.586 362.593 176.328C374.388 190.793 398.843 195.189 415.556 187.69C424.56 183.653 431.452 175.441 435.125 166.401C438.94 157.002 439.563 146.748 439.584 136.711C439.584 127.47 438.724 118.023 440.392 108.878C441.922 100.492 445.015 91.7105 450.735 85.2405C456.456 78.7704 465.179 76.0948 472.979 80.7389C481.254 85.6626 485.809 95.4785 488.141 104.44C491.038 115.591 490.252 127.359 490.664 138.779C490.854 144.22 490.743 149.598 491.445 155.007C492.041 159.567 493.276 164.016 494.369 168.48C498.305 184.518 502.854 200.424 506.327 216.573C510.137 234.273 512.201 252.237 513.372 270.286C513.773 276.424 514.074 282.561 514.322 288.704C514.375 289.985 514.422 291.267 514.465 292.551C514.465 292.704 514.396 293.707 514.512 293.797C514.919 294.119 514.95 293.132 514.908 293.105C514.866 293.079 513.7 293.433 513.288 293.533C507.483 294.894 501.477 295.528 495.566 296.124C473.09 298.383 450.181 298.14 427.826 294.715C421.282 293.712 414.803 292.395 408.39 290.762L408.917 291.401C408.743 284.699 408.585 278.002 408.543 271.299C408.543 270.107 405.973 270.587 405.978 271.558C406.02 278.26 406.178 284.962 406.358 291.659C406.349 291.813 406.398 291.964 406.496 292.083C406.594 292.201 406.733 292.278 406.886 292.298C431.019 298.478 456.229 300.061 481.048 298.826C489.514 298.441 497.954 297.627 506.338 296.388C508.733 296.024 511.129 295.633 513.494 295.095C514.449 294.879 516.159 294.683 516.845 293.876C517.42 293.195 517.056 291.971 517.024 291.174C516.898 287.705 516.752 284.241 516.586 280.783C516.294 274.731 515.92 268.682 515.462 262.634C514.707 252.865 513.673 243.108 512.169 233.429C509.705 217.597 505.741 202.129 501.73 186.65C499.271 177.151 496.522 167.615 494.601 157.989C493.64 153.176 493.434 148.221 493.387 143.339C493.318 136.879 492.859 130.441 492.859 123.982C492.859 113.216 491.55 102.471 486.59 92.7607C482.964 85.6679 477.09 78.6807 468.932 77.0236C451.094 73.4192 441.099 93.3834 438.133 107.69C436.222 116.947 437.025 126.462 437.046 135.84C437.046 146.395 436.587 157.43 432.296 167.277C427.779 177.679 419.261 186.043 408.02 188.571C397.439 190.962 385.66 189.015 376.071 184.086C366.139 178.988 360.55 170.264 356.946 159.973C355.225 155.071 353.89 150.052 352.328 145.102C351.077 141.165 349.89 136.726 347.689 133.185C345.79 130.135 342.354 128.963 339.093 127.908C338.153 127.602 336.095 128.963 337.573 129.444L337.583 129.423Z" fill="#5D7183"/>
    <path d="M91.3838 318.611C104.487 386.689 107.918 421.477 113.132 422.818C121.438 424.929 126.114 412.004 131.101 313.523L91.3838 318.611Z" fill="#EEEEEE"/>
    <path d="M51.5608 319.339C65.5774 368.793 19.8966 413.498 34.9318 419.883C40.0297 422.052 85.9428 378.578 94.7454 323.339L51.5608 319.339Z" fill="#EEEEEE"/>
    <path d="M96.6665 346.993C105.348 395.354 108.746 421.688 113.132 422.818C120.43 424.691 124.927 414.902 129.291 345.726C119.291 347.489 97.3578 346.993 96.6665 346.993Z" fill="white"/>
    <path d="M53.862 347.23C50.1678 384.631 22.7889 414.722 34.9321 419.873C39.2384 421.699 72.5228 390.584 88.1491 347.853C76.7974 348.212 65.5355 347.684 53.862 347.23Z" fill="white"/>
    <path d="M52.4894 347.842C50.7321 363.189 45.1697 377.591 38.9424 391.613C36.6257 396.837 34.1295 402.02 32.2349 407.413C31.1794 410.395 29.7756 414.332 30.9472 417.482C33.1848 423.499 39.3118 419.282 42.4888 416.828C50.7532 410.448 57.7562 402.194 64.0627 393.94C74.7752 380.009 83.342 364.553 89.4785 348.085C89.7898 347.235 87.2462 347.557 86.9295 348.402C81.7425 362.327 74.7824 375.525 66.2211 387.671C59.8302 396.806 52.6583 405.614 44.3676 413.092C42.1036 415.139 39.6865 417.313 36.9476 418.744C36.6297 418.936 36.2894 419.088 35.9343 419.197C35.5913 419.261 36.0188 419.261 35.8077 419.197C34.6889 418.876 33.8234 417.715 33.454 416.67C32.3985 413.598 33.8392 409.756 34.8683 406.864C36.6046 401.983 38.8316 397.27 40.9373 392.542C47.3704 378.113 53.2283 363.337 55.0384 347.526C55.1545 346.502 52.5897 346.961 52.4894 347.837V347.842Z" fill="#5D7183"/>
    <path d="M95.3946 347.336C98.6666 365.537 101.574 383.813 105.036 401.983C105.965 406.854 106.894 411.762 108.287 416.527C108.899 418.638 109.612 421.752 111.454 423.182C114.061 425.187 117.866 423.446 119.591 421.166C123.417 416.126 124.257 408.426 125.233 402.415C128.283 383.644 129.381 364.508 130.579 345.547C130.663 344.211 128.072 344.56 127.998 345.737C126.943 362.555 125.819 379.427 123.592 396.146C122.615 403.497 121.839 411.762 118.541 418.533C117.908 419.836 116.916 421.303 115.982 421.794C115.496 422.053 114.325 422.264 113.733 421.921C112.124 420.997 111.496 418.063 111.005 416.448C109.758 412.078 108.738 407.646 107.949 403.17C104.282 384.393 101.326 365.474 97.9225 346.644C97.7061 345.452 95.1518 346.117 95.3735 347.33L95.3946 347.336Z" fill="#5D7183"/>
    <path d="M77.2459 168.264C75.7821 169.742 74.4109 171.309 73.1401 172.956C65.5777 182.745 59.9942 196.329 54.9385 208.15C45.8953 229.12 40.0259 251.319 37.5232 274.017C36.3407 285.141 35.9879 296.337 36.4677 307.513C36.758 314.341 36.9269 321.17 37.3385 327.994C37.6235 332.707 36.1511 342.243 42.6159 342.612C59.0549 343.578 75.5361 343.747 91.9962 343.325C100.232 343.114 108.463 342.762 116.689 342.269C120.747 342.032 134.97 342.063 137.429 339.451C138.759 338.032 138.543 335.615 138.653 333.577C140.094 306.89 140.965 280.329 139.07 253.773C137.265 228.442 134.917 202.488 124.779 179.932C124.156 178.55 123.513 177.183 122.837 175.837L77.2459 168.264Z" fill="#EEEEEE"/>
    <path d="M127.903 131.454C129.154 104.54 118.32 82.1848 103.707 81.5093C89.0936 80.8338 76.2326 102.091 74.9872 129.006C74.9555 129.628 74.813 132.7 74.7603 133.829C74.3846 140.649 74.4234 147.485 74.8764 154.3C75.0716 156.881 75.3566 159.456 75.7893 162.005C76.8923 168.512 75.6152 175.024 75.5519 181.668C75.5096 186.181 77.3356 189.653 79.3885 193.669C86.4654 207.543 108.367 219.27 121.439 206.192C127.291 200.335 128.563 191.125 126.51 183.357C125.74 180.455 124.536 177.689 123.739 174.797C122.964 172 122.447 168.887 123.623 166.169C124.906 163.214 125.502 160.211 125.988 156.981C127.043 150.12 127.36 143.196 127.682 136.283C127.729 135.212 127.877 132.109 127.903 131.454Z" fill="white"/>
    <path d="M139.07 253.768C93.3577 263.959 77.1826 260.797 41.2965 250.654L39.9297 256.159C69.7996 268.444 107.944 269.79 139.519 260.95L139.07 253.768Z" fill="white"/>
    <path d="M134.732 254.037C118.952 257.383 102.825 260.032 86.639 259.087C72.5432 258.269 58.8379 254.644 45.3014 250.86C44.4834 250.633 42.3092 251.852 43.7182 252.248C57.6663 256.148 71.7674 259.816 86.2907 260.581C102.703 261.441 119.053 258.713 135.054 255.304C136.61 254.976 136.252 253.694 134.711 254.021L134.732 254.037Z" fill="#5D7183"/>
    <path d="M42.6683 258.233C72.1741 269.12 105.538 270.107 135.967 262.581C137.503 262.201 137.16 260.919 135.619 261.299C105.997 268.624 73.3878 267.589 44.6684 256.987C43.8979 256.702 41.5864 257.837 42.6419 258.227L42.6683 258.233Z" fill="#5D7183"/>
    <path d="M111.997 154.411C112.43 156.865 114.341 158.58 116.267 158.237C117.702 157.984 118.642 156.654 118.942 155.261C119.359 153.303 119.549 151.276 119.803 149.281L112.414 149.044C112.223 149.021 112.028 149.054 111.855 149.139C111.554 149.318 111.517 149.751 111.522 150.115C111.564 151.558 111.723 152.994 111.997 154.411Z" fill="#5D7183"/>
    <path d="M57.023 110.234C59.4189 102.74 62.7806 95.6316 67.5777 89.4043C76.4068 77.905 90.872 69.9414 105.221 71.989C117.491 73.7306 133.101 87.3726 130.431 101.247C126.209 123.19 95.7114 93.3782 86.1013 117.981C84.2542 122.731 84.4442 127.481 84.1856 132.441C83.9006 137.946 83.5945 143.445 83.204 148.938C82.5102 159.927 81.2543 170.872 79.4412 181.732C77.172 194.704 73.7417 207.533 68.4749 219.623C63.6778 230.627 57.1127 241.873 44.3784 244.617C35.6813 246.49 25.5119 242.458 22.0552 234.257C35.2919 216.096 44.1527 195.122 47.9459 172.971C50.3893 158.68 50.6743 144.11 52.6956 129.755C53.5844 123.138 55.032 116.607 57.023 110.234Z" fill="#FFE07B"/>
    <path d="M40.6632 247.889C37.6007 261.178 35.7618 274.72 35.1694 288.345C34.5995 301.681 35.5125 315.012 36.0508 328.337C36.1933 331.873 35.6761 335.673 36.7949 339.098C38.072 343.008 41.0854 343.362 44.7795 343.536C58.6009 344.28 72.4487 344.465 86.286 344.217C97.8329 344.011 109.348 343.288 120.884 342.871C124.864 342.728 128.89 342.581 132.817 341.873C135.387 341.414 138.447 340.818 139.461 338.058C140.363 335.615 139.988 332.337 140.142 329.778C140.332 326.14 140.507 322.504 140.669 318.869C140.968 311.956 141.19 305.041 141.334 298.124C141.593 284.772 141.456 271.4 140.664 258.064C139.007 230.141 136.711 200.926 124.13 175.468C123.65 174.507 121.154 175.293 121.581 176.154C132.088 197.411 135.207 221.191 137.096 244.564C139.16 270.117 139.176 295.623 138.015 321.218C137.874 324.339 137.721 327.454 137.556 330.564C137.445 332.707 138.083 337.815 136.205 339.325C135.176 340.137 133.26 340.28 132.025 340.47C130.115 340.76 128.188 340.918 126.262 341.04C116.631 341.668 106.952 342.037 97.3104 342.359C84.1487 342.792 70.9711 342.85 57.8041 342.443C54.6376 342.348 51.487 342.224 48.3523 342.069C45.9458 341.953 42.315 342.501 40.5154 340.549C38.1828 338.026 38.6631 333.403 38.6631 330.263C38.6631 316.859 37.2223 303.507 37.6709 290.081C38.1612 275.773 40.0256 261.545 43.2385 247.593C43.4866 246.538 40.9007 246.897 40.679 247.868L40.6632 247.889Z" fill="#5D7183"/>
    <path d="M123.412 171.71C126.526 163.762 127.692 155.239 128.331 146.78C128.858 139.919 129.318 132.99 129.259 126.124C129.138 112.82 126.367 97.0987 116.826 87.0717C109.892 79.7837 99.8171 79.066 91.7691 85.0452C80.9927 93.0404 76.3117 107.996 74.5015 120.683C73.3141 129.006 73.14 137.661 73.235 146.057C73.3194 153.545 73.673 161.393 75.9634 168.581C76.1956 169.319 78.734 168.581 78.5123 167.9C74.6071 155.635 75.5992 141.803 76.2219 129.159C76.8763 115.707 80.0217 100.999 88.6765 90.2803C91.843 86.3857 96.1387 82.6018 101.342 82.1427C106.319 81.7046 110.878 84.3328 114.245 87.7947C123.164 96.9668 126.083 111.363 126.626 123.681C126.959 131.169 126.394 138.811 125.866 146.278C125.243 155.028 124.098 163.857 120.879 172.074C120.631 172.713 123.122 172.433 123.412 171.689V171.71Z" fill="#5D7183"/>
    <path d="M121.475 185.674C120.293 194.186 117.164 206.345 105.96 204.979C100.809 204.351 96.1439 201.284 92.1701 198.118C88.2785 195.088 85.0461 191.295 82.6708 186.972C82.2486 186.196 79.7999 187.057 80.1218 187.658C82.9942 192.836 87.0169 197.284 91.8798 200.662C96.4342 203.928 101.785 206.747 107.559 206.335C118.984 205.517 122.636 195.073 123.993 185.32C124.114 184.45 121.565 184.914 121.454 185.685L121.475 185.674Z" fill="#5D7183"/>
    <path d="M124.964 192.26C124.198 196.709 123.164 201.327 120.631 205.137C117.37 210.061 111.939 211.903 106.192 211.422C95.3207 210.525 85.9956 202.451 80.8607 193.215C80.428 192.44 77.9846 193.316 78.3118 193.901C84.196 204.456 95.3524 213.327 107.976 212.768C113.1 212.536 118.166 210.815 121.623 206.884C125.249 202.767 126.6 197.158 127.502 191.896C127.645 191.041 125.096 191.484 124.964 192.26Z" fill="#5D7183"/>
    <path d="M171.869 171.689C170.629 171.821 169.304 172.18 168.518 173.235C167.283 174.892 168.518 176.613 169.046 178.286C170.27 182.202 170.281 186.761 169.573 190.772C168.27 198.524 163.774 205.269 158.058 210.546C151.994 216.135 144.548 220.246 136.785 222.948C128.109 225.956 119.254 226.378 110.219 225.022C99.4083 223.449 89.0284 219.702 79.7051 214.008C79.0402 213.591 76.8237 214.62 77.3198 214.926C85.4991 219.924 94.4902 223.452 103.886 225.349C112.515 227.159 121.623 227.803 130.273 225.877C145.049 222.558 160.729 214.008 168.433 200.509C170.638 196.691 172.002 192.447 172.434 188.059C172.633 185.927 172.609 183.78 172.36 181.653C172.235 180.288 171.983 178.938 171.605 177.621C171.315 176.692 169.315 173.066 171.442 172.834C172.566 172.713 173.653 171.51 171.864 171.705L171.869 171.689Z" fill="#5D7183"/>
    <path d="M195.095 290.82C194.889 287.464 191.4 286.641 188.603 286.635C184.329 286.635 180.355 286.535 176.254 285.152C169.51 282.883 163.921 278.292 159.124 273.146C154.327 268.001 149.841 262.528 146.917 256.116C143.952 249.599 142.073 242.612 140.495 235.645C138.785 228.115 137.524 220.494 135.956 212.953C135.814 212.277 133.249 212.895 133.407 213.639C136.22 227.207 138.02 241.202 143.223 254.143C145.73 260.365 149.324 265.51 153.641 270.603C158.127 275.88 163.14 280.909 169.346 284.171C172.55 285.872 176.019 287.018 179.605 287.559C181.44 287.824 183.293 287.942 185.147 287.912C188.039 287.875 192.308 287.659 192.535 291.522C192.572 292.129 195.137 291.654 195.084 290.841L195.095 290.82Z" fill="#5D7183"/>
    <path d="M389.944 227.564L359.661 253.62L385.718 283.903L416 257.847L389.944 227.564Z" fill="#F8F8F8"/>
    <path d="M414.966 257.636L384.684 283.69L386.895 283.437L360.841 253.15L360.698 253.937L390.975 227.877L388.763 228.136L414.818 258.422C415.446 259.156 417.889 258.217 417.172 257.367L391.117 227.08C390.589 226.457 389.397 226.911 388.901 227.334L358.624 253.404C358.504 253.492 358.423 253.623 358.397 253.769C358.372 253.916 358.404 254.067 358.487 254.19L384.542 284.477C385.069 285.094 386.262 284.646 386.753 284.218L417.04 258.164C418.179 257.188 415.673 257.029 414.966 257.636Z" fill="#5D7183"/>
    <path d="M477.524 213.217C477.445 228.426 476.706 250.897 460.409 258.227C448.472 263.6 433.98 257.863 423.135 252.396C418.871 250.243 414.781 247.546 410.18 246.137C406.311 244.949 402.844 245.414 399.192 247.071C397.609 247.789 399.007 249.261 400.342 248.654C408.918 244.775 417.362 252.237 424.919 255.742C431.036 258.576 437.522 260.908 444.229 261.826C450.156 262.639 456.367 262.254 461.834 259.715C468.167 256.76 472.579 251.145 475.318 244.865C479.661 234.928 480.068 223.756 480.11 213.074C480.11 211.697 477.529 212.019 477.524 213.243V213.217Z" fill="#5D7183"/>
</svg>
