<svg width="674" height="430" viewBox="0 0 674 430" fill="none" xmlns="http://www.w3.org/2000/svg">
    <path d="M511.798 423.225C501.688 425.465 526.678 428.506 530.183 428.723C568.041 431.083 609.001 429.981 646.51 426.977C647.995 426.911 649.47 426.695 650.912 426.332C660.179 423.544 630.396 421.647 627.632 421.515C617.353 420.973 606.911 420.618 596.542 420.558C581.849 420.461 524.33 420.449 511.798 423.225Z" fill="#EEEEEE"/>
    <path d="M27.8418 423.014C18.737 425.254 41.2401 428.295 44.4014 428.512C78.5023 430.873 115.397 429.771 149.179 426.766C150.52 426.7 151.849 426.484 153.141 426.121C161.493 423.333 134.667 421.443 132.174 421.304C122.912 420.762 113.506 420.407 104.167 420.347C90.9431 420.256 39.1325 420.238 27.8418 423.014Z" fill="#EEEEEE"/>
    <path d="M156.803 128.397H126.803V84.1797H156.417C162.06 84.1797 167.471 86.4212 171.461 90.4109C175.451 94.4007 177.692 99.812 177.692 105.454V107.52C177.692 110.262 177.152 112.978 176.102 115.512C175.052 118.046 173.513 120.348 171.573 122.286C169.633 124.225 167.33 125.763 164.796 126.811C162.262 127.86 159.545 128.399 156.803 128.397Z" fill="#F8F8F8"/>
    <path d="M124.581 128.397C129.815 128.397 134.059 118.497 134.059 106.285C134.059 94.0734 129.815 84.1737 124.581 84.1737C119.346 84.1737 115.103 94.0734 115.103 106.285C115.103 118.497 119.346 128.397 124.581 128.397Z" fill="#EEEEEE"/>
    <path d="M122.852 85.7755C126.537 83.9268 129.06 89.0874 130.12 91.7671C131.878 96.199 132.529 101.113 132.577 105.852C132.712 110.603 132.042 115.343 130.596 119.87C129.747 122.351 127.585 128.066 124.038 127.163C122.744 126.831 120.606 128.722 122.376 129.174C133.631 132.022 135.624 112.572 135.528 105.653C135.461 99.1376 132.788 78.3568 121.545 83.975C119.775 84.8602 121.352 86.5101 122.852 85.7815V85.7755Z" fill="#5D7183"/>
    <path d="M125.85 84.7879H144.397C152.032 84.7879 159.74 84.0473 166.412 88.5997C176.197 95.2717 179.28 109.104 172.608 119.045C170.891 121.669 168.562 123.837 165.821 125.36C163.079 126.883 160.009 127.717 156.874 127.789C154.465 127.831 152.026 127.789 149.606 127.789H127.729C127.09 127.789 124.435 128.993 125.85 128.993H147.191C155.176 128.993 162.962 129.3 169.826 124.369C174.531 120.947 177.722 115.831 178.726 110.101C179.731 104.372 178.47 98.4757 175.21 93.6579C171.893 88.8096 166.859 85.4023 161.125 84.1255C158.114 83.4632 155.013 83.5716 151.93 83.5716H127.729C127.09 83.5716 124.435 84.7759 125.85 84.7759V84.7879Z" fill="#5D7183"/>
    <path d="M503.271 140.109H533.085V95.8919H503.271C497.682 95.8919 492.321 98.1124 488.368 102.065C484.416 106.017 482.195 111.378 482.195 116.968V119.033C482.195 124.623 484.416 129.984 488.368 133.936C492.321 137.889 497.682 140.109 503.271 140.109Z" fill="#F8F8F8"/>
    <path d="M502.339 140.729H532.147C532.707 140.729 534.556 140.537 534.556 139.718V95.5005C534.556 95.3198 534.116 95.2656 534.038 95.2656C524.283 95.2656 514.527 95.2295 504.772 95.2656C498.076 95.2957 491.525 97.5358 486.797 102.431C481.318 108.116 479.535 116.643 481.318 124.254C483.612 134.027 492.5 140.543 502.358 140.729C503.014 140.729 505.669 139.525 504.23 139.489C489.465 139.2 480.493 124.356 484.521 110.735C486.707 103.341 493.162 97.2106 501.027 96.5723C503.935 96.3375 506.91 96.5121 509.824 96.5121H530.124C530.617 96.5121 531.129 96.5121 531.623 96.5121C532.472 96.464 531.701 96.5964 531.623 96.3194C532.02 98.421 531.623 100.956 531.623 103.076V140.507L534.032 139.495H504.224C503.556 139.489 500.906 140.729 502.339 140.729Z" fill="#5D7183"/>
    <path d="M535.296 140.109C540.53 140.109 544.774 130.21 544.774 117.998C544.774 105.786 540.53 95.8859 535.296 95.8859C530.061 95.8859 525.817 105.786 525.817 117.998C525.817 130.21 530.061 140.109 535.296 140.109Z" fill="#EEEEEE"/>
    <path d="M524.342 118.1C524.414 124.953 525.167 135.743 531.52 140.085C536.873 143.74 541.654 138.014 543.563 133.461C547.086 124.941 547.176 114.276 544.689 105.466C543.328 100.649 539.806 92.9955 533.495 95.1573C525.45 97.9152 524.462 111.259 524.366 118.106C524.366 119.66 527.305 119.262 527.317 117.901C527.365 113.228 527.852 108.459 529.436 104.051C530.267 101.733 532.146 96.8795 535.283 97.036C538.421 97.1926 540.293 101.89 541.142 104.262C542.655 108.72 543.39 113.405 543.316 118.112C543.316 122.773 542.786 127.578 541.203 131.962C540.366 134.286 538.499 139.158 535.355 138.983C532.212 138.809 530.327 134.075 529.496 131.757C527.901 127.325 527.365 122.574 527.317 117.907C527.28 116.342 524.33 116.745 524.342 118.1Z" fill="#5D7183"/>
    <path d="M177.601 109.001C214.195 129.541 254.312 145.42 296.15 150.695C317.395 153.369 338.796 152.502 360.065 150.569C380.089 148.753 399.958 145.515 419.523 140.88C440.73 135.726 461.548 129.086 481.823 121.008C483.666 120.286 482.046 118.6 480.511 119.202C444.38 133.389 406.853 143.289 368.254 147.504C347.389 149.798 326.102 151.225 305.141 149.31C284.065 147.401 263.35 142.56 243.34 135.798C221.332 128.256 200.07 118.688 179.829 107.219C178.667 106.568 176.156 108.134 177.601 108.947V109.001Z" fill="#5D7183"/>
    <path d="M473.651 102.528C472.531 97.1083 476.234 90.3821 482.207 90.1713C483.189 90.1352 485.321 88.5996 483.376 88.6719C475.903 88.9369 469.128 95.5306 470.73 103.311C470.911 104.19 473.831 103.479 473.639 102.528H473.651Z" fill="#5D7183"/>
    <path d="M460.036 104.786C457.025 91.4961 467.726 77.0862 481.51 76.8935C483.178 76.8634 483.738 74.7016 481.762 74.7377C466.461 74.9786 453.701 90.4965 457.128 105.569C457.435 106.93 460.349 106.171 460.036 104.786Z" fill="#5D7183"/>
    <path d="M173.457 75.364C179.581 75.0509 184.531 81.0244 183.814 86.9377C183.634 88.4371 186.603 88.0638 186.765 86.727C187.674 79.2239 181.081 72.8229 173.71 73.1962C172.048 73.2865 171.476 75.4664 173.457 75.364Z" fill="#5D7183"/>
    <path d="M173.308 61.5502C187.218 60.5988 199.327 74.2981 197.443 87.9252C197.238 89.3644 200.206 88.973 200.381 87.6904C202.489 72.4856 188.699 58.431 173.579 59.4667C171.959 59.5751 171.32 61.6827 173.308 61.5502Z" fill="#5D7183"/>
    <path d="M593.31 423.526C599.633 423.526 604.047 395.116 611.327 336.26C611.748 332.833 605.805 334.881 603.204 332.713C601.776 331.509 599.97 331.099 598.218 330.756C595.131 330.062 591.967 329.773 588.806 329.895C586.716 330.033 583.693 330.316 581.893 331.647C580.255 332.851 580.785 335.989 580.803 337.988C580.803 339.722 580.953 341.45 580.996 343.179C582.043 388.564 584.868 423.526 593.31 423.526Z" fill="#EEEEEE"/>
    <path d="M566.808 423.526C573.131 423.526 579.863 408.815 581.489 342.769C581.573 339.319 579.303 334.881 576.702 332.713C575.275 331.509 573.468 331.099 571.716 330.756C568.629 330.062 565.465 329.773 562.304 329.895C560.214 330.033 557.191 330.316 555.391 331.647C553.753 332.851 550.574 334.839 550.61 336.573C551.651 381.976 558.366 423.526 566.808 423.526Z" fill="#EEEEEE"/>
    <path d="M611.326 343.66C604.961 391.713 602.07 423.526 593.309 423.526C585.023 423.526 582.139 388.793 581.055 344.642C588.865 345.648 602.516 343.691 611.326 343.66Z" fill="white"/>
    <path d="M580.88 344.642C579.146 408.189 573.052 423.526 566.808 423.526C558.492 423.526 553.951 387.468 550.609 342.92C562.37 345.353 580.435 344.642 580.88 344.642Z" fill="white"/>
    <path d="M579.567 345.027C579.947 360.419 580.447 375.834 581.868 391.166C582.717 400.373 583.295 410.796 587.167 419.347C589.094 423.604 593.249 426.537 597.331 422.599C599.674 420.329 600.83 416.914 601.799 413.891C603.57 408.357 604.618 402.589 605.581 396.868C608.556 379.176 610.35 361.292 612.807 343.516C612.988 342.179 610.037 342.631 609.875 343.799C607.863 358.462 606.213 373.173 604.112 387.824C602.685 397.753 601.649 408.815 597.422 418.052C596.771 419.48 595.356 422.87 593.327 422.502C591.46 422.159 590.28 419.094 589.714 417.625C586.54 409.67 585.806 400.547 584.981 392.111C583.439 376.376 582.927 360.545 582.572 344.744C582.536 343.353 579.616 343.889 579.64 345.027H579.567Z" fill="#5D7183"/>
    <path d="M549.157 343.311C550.741 361.744 552.222 380.272 555.221 398.542C556.178 404.383 557.238 410.308 559.171 415.921C560.069 418.522 561.327 422.28 563.989 423.647C567.27 425.339 571.1 422.695 572.822 420.003C576.435 414.343 577.471 406.756 578.501 400.264C581.325 382.464 581.994 364.285 582.523 346.298C582.523 345.9 579.639 346.256 579.615 347.075C579.157 362.731 578.483 378.424 576.604 393.978C575.647 401.806 574.629 410.092 571.558 417.426C570.865 419.088 570.028 420.889 568.716 422.165C568.409 422.466 567.596 423.02 567.65 422.996C567.794 422.93 567.824 422.996 567.71 422.96C567.353 422.872 567.002 422.758 566.662 422.617C564.091 421.274 562.887 417.438 562.032 414.909C560.315 409.851 559.31 404.54 558.419 399.253C555.209 380.501 553.728 361.436 552.102 342.504C552.06 342.01 549.127 342.504 549.193 343.281L549.157 343.311Z" fill="#5D7183"/>
    <path d="M648.696 331.996C649.599 331.611 650.502 331.22 651.388 330.792C652.091 330.551 652.703 330.099 653.14 329.497C653.306 329.152 653.404 328.778 653.429 328.395C653.758 325.285 653.817 322.152 653.604 319.032C653.315 313.642 652.568 308.265 652.676 302.857C652.78 297.977 652.619 293.094 652.195 288.231C651.255 277.554 648.678 267.083 646.426 256.587C643.246 241.737 639.736 226.936 635.346 212.339C628.06 188.084 602.516 121.599 566.139 142.711C538.933 158.499 521.421 208.708 508.391 284.684C505.38 302.207 503.7 310.722 502.122 325.204C501.658 329.419 504.922 333.207 509.541 333.863C528.28 336.543 547.062 338.789 565.94 340.439C576.369 341.354 586.974 340.969 597.421 340.529C606.51 340.152 615.573 339.459 624.609 338.452C633.088 337.548 640.916 335.194 648.696 331.996Z" fill="#EEEEEE"/>
    <path d="M548.669 115.282C548.91 103.564 551.198 91.6286 555.72 81.3134C559.749 72.1304 567.288 61.2431 578.494 61.219C589.297 61.219 596.764 71.3716 600.877 80.1934C605.363 89.8281 607.242 100.523 607.844 111.085C608.199 117.263 608.621 123.507 607.892 129.68C607.164 135.852 606.261 145.24 604.129 150.984C603.918 151.55 607.995 156.031 609.446 157.964C608.591 159.842 600.967 170.38 588.171 174.294C582.342 176.099 576.079 175.923 570.359 173.795C565.59 172.096 555.781 166.508 552.493 162.353C550.801 160.216 549.608 158.512 550.867 157.662C551.535 157.211 553.474 153.128 553.83 152.406C554.028 151.845 554.028 151.232 553.83 150.671C553.486 149.25 552.366 144.884 551.939 143.74C550.945 141.109 550.734 137.363 550.132 134.611C548.945 128.24 548.455 121.759 548.669 115.282Z" fill="white"/>
    <path d="M543.124 53.15C542.353 59.4968 544.961 65.9039 549.917 69.2098C544.238 71.3114 540.408 78.3507 541.872 83.9991C543.431 90.0208 549.971 92.5017 555.559 90.8518C554.258 93.8265 556.673 97.2348 559.317 98.5053C561.96 99.7759 565.194 99.6434 568.144 99.0593C572.381 98.2157 576.413 96.5593 580.019 94.1818C580.898 98.2163 584.56 101.275 588.588 102.148C592.617 103.022 596.892 101.98 600.535 100.017C602.559 105.793 605.461 111.222 609.14 116.113C609.328 116.433 609.625 116.675 609.977 116.793C610.543 116.914 611.025 116.408 611.374 115.95C613.915 112.62 616.86 108.086 617.438 103.871C617.9 99.6879 617.107 95.4623 615.162 91.7309C614.698 90.8759 614.174 89.9606 614.283 88.985C614.511 86.9437 617.257 86.3536 618.407 84.9084C619.973 82.9333 620.816 79.9344 621.165 77.4957C622.081 70.6671 618.757 65.6931 614.048 61.9055C617.859 58.6538 621.22 54.4205 619.877 49.2178C618.63 44.4004 613.253 41.5221 608.345 43.0636C610.152 39.3844 611.898 35.5305 612.181 31.5502C612.464 27.5698 611.049 23.4269 607.785 21.6385C607.55 18.176 607.147 14.1535 604.455 11.9315C601.36 9.3783 596.344 9.4626 592.821 12.1362C592.869 5.00052 586.42 -0.810408 579.441 0.0928459C572.462 0.9961 566.29 8.37869 566.639 15.4602C560.34 13.8885 552.663 17.9652 549.778 24.4024C546.894 30.8396 549.236 38.7521 554.885 41.7629C552.608 40.956 549.826 41.7991 547.809 43.5092C545.838 45.2992 544.421 47.6168 543.726 50.1873C543.446 51.1568 543.244 52.1477 543.124 53.15Z" fill="#FFE07B"/>
    <path d="M609.198 219.505C614.518 214.186 614.518 205.561 609.198 200.242C603.879 194.922 595.255 194.922 589.935 200.242C584.616 205.561 584.616 214.186 589.935 219.505C595.255 224.824 603.879 224.824 609.198 219.505Z" fill="white"/>
    <path d="M651.04 253.871C656.36 248.552 656.36 239.927 651.04 234.608C645.721 229.289 637.096 229.289 631.777 234.608C626.458 239.927 626.458 248.552 631.777 253.871C637.096 259.19 645.721 259.19 651.04 253.871Z" fill="white"/>
    <path d="M578.799 272.849C580.963 265.645 576.877 258.05 569.673 255.886C562.468 253.721 554.873 257.807 552.709 265.012C550.545 272.217 554.631 279.812 561.835 281.976C569.04 284.14 576.635 280.054 578.799 272.849Z" fill="white"/>
    <path d="M521.998 247.193C529.521 247.193 535.619 241.095 535.619 233.572C535.619 226.049 529.521 219.951 521.998 219.951C514.475 219.951 508.377 226.049 508.377 233.572C508.377 241.095 514.475 247.193 521.998 247.193Z" fill="white"/>
    <path d="M571.57 176.236C574.41 169.27 571.065 161.321 564.099 158.481C557.133 155.641 549.183 158.986 546.343 165.952C543.503 172.918 546.848 180.867 553.814 183.707C560.78 186.547 568.73 183.202 571.57 176.236Z" fill="white"/>
    <path d="M607.478 326.388C614.8 324.66 619.334 317.324 617.606 310.002C615.878 302.681 608.542 298.146 601.221 299.874C593.899 301.602 589.365 308.938 591.093 316.26C592.821 323.582 600.157 328.116 607.478 326.388Z" fill="white"/>
    <path d="M554.932 343.977C560.251 338.658 560.251 330.033 554.932 324.714C549.612 319.395 540.988 319.395 535.669 324.714C530.349 330.033 530.349 338.658 535.669 343.977C540.988 349.296 549.612 349.296 554.932 343.977Z" fill="white"/>
    <path d="M507.222 303.489C514.592 301.983 519.346 294.787 517.84 287.416C516.333 280.046 509.137 275.292 501.767 276.798C494.397 278.304 489.643 285.5 491.149 292.871C492.655 300.241 499.851 304.995 507.222 303.489Z" fill="white"/>
    <path d="M535.528 290.878C539.337 290.067 541.767 286.322 540.956 282.513C540.145 278.704 536.4 276.274 532.591 277.085C528.782 277.896 526.352 281.641 527.163 285.45C527.974 289.259 531.719 291.689 535.528 290.878Z" fill="white"/>
    <path d="M565.75 315.329C569.541 314.438 571.892 310.643 571.002 306.852C570.111 303.06 566.316 300.709 562.525 301.6C558.733 302.49 556.382 306.286 557.273 310.077C558.163 313.868 561.959 316.219 565.75 315.329Z" fill="white"/>
    <path d="M560.162 230.411C563.997 229.735 566.558 226.078 565.882 222.243C565.205 218.407 561.548 215.846 557.713 216.523C553.878 217.199 551.317 220.856 551.993 224.691C552.669 228.527 556.327 231.088 560.162 230.411Z" fill="white"/>
    <path d="M539.636 195.628C542.045 192.568 541.518 188.135 538.458 185.725C535.399 183.316 530.965 183.843 528.556 186.903C526.147 189.962 526.674 194.396 529.733 196.805C532.793 199.215 537.226 198.687 539.636 195.628Z" fill="white"/>
    <path d="M614.797 181.979C618.587 181.084 620.934 177.287 620.04 173.496C619.145 169.706 615.347 167.359 611.557 168.253C607.767 169.148 605.42 172.946 606.314 176.736C607.209 180.526 611.006 182.874 614.797 181.979Z" fill="white"/>
    <path d="M603.863 252.065C607.653 251.17 610.001 247.373 609.106 243.582C608.212 239.792 604.414 237.445 600.624 238.339C596.833 239.234 594.486 243.032 595.381 246.822C596.275 250.612 600.073 252.96 603.863 252.065Z" fill="white"/>
    <path d="M646.464 324.654C649.218 321.9 649.218 317.436 646.464 314.682C643.71 311.928 639.246 311.928 636.492 314.682C633.738 317.436 633.738 321.9 636.492 324.654C639.246 327.408 643.71 327.408 646.464 324.654Z" fill="white"/>
    <path d="M521.889 325.59C525.171 323.493 526.132 319.133 524.035 315.851C521.939 312.569 517.579 311.608 514.297 313.705C511.015 315.801 510.054 320.161 512.15 323.443C514.247 326.725 518.607 327.686 521.889 325.59Z" fill="white"/>
    <path d="M650.304 290.928C650.974 297.829 651.442 304.742 651.707 311.667C651.835 314.979 651.92 318.291 651.96 321.603C651.96 323.301 652.46 326.161 651.96 327.715C651.406 329.419 649.244 330.359 647.799 331.153C636.815 337.175 623.989 338.855 611.669 339.554C584.687 341.062 557.623 339.943 530.858 336.212C524.643 335.35 518.357 334.538 512.19 333.255C510.023 332.803 507.65 332.231 505.849 330.846C503.591 329.142 503.441 326.896 503.664 324.259C504.868 310.324 507.15 296.372 509.517 282.594C513.901 257.087 519.151 231.32 527.154 206.673C530.774 195.277 535.51 184.266 541.293 173.801C543.654 169.585 546.062 165.37 549.121 161.607C551.331 158.909 553.903 156.091 555.197 152.803C556.317 149.955 554.33 146.962 553.602 144.174C552.475 139.627 551.726 134.994 551.361 130.324C550.386 119.527 549.982 108.044 551.705 97.301C554.077 82.5539 565.693 54.1436 585.613 63.8626C593.839 67.879 599.011 76.6526 602.076 84.9385C605.743 94.8321 606.49 105.093 606.484 115.547C606.484 126.886 606.303 139.031 603.058 149.979C602.648 151.382 602.63 151.334 603.413 152.387C604.352 153.652 605.328 154.898 606.285 156.157C608.604 159.198 610.952 162.221 613.084 165.406C625.579 184.128 632.57 205.902 638.182 227.508C639.91 234.186 641.5 240.894 643 247.62C643.216 248.572 646.131 247.843 645.908 246.844C640.44 222.504 634.28 197.755 622.49 175.583C618.07 167.273 612.614 159.806 606.93 152.351C606.533 151.937 606.184 151.481 605.888 150.99C605.502 150.093 605.659 150.798 605.948 149.605C606.514 147.275 607.098 144.981 607.49 142.608C608.479 136.338 609.06 130.01 609.23 123.664C609.645 112.301 609.748 100.745 606.737 89.6896C604.238 80.5186 599.71 70.8658 591.93 65.0007C585.95 60.4964 578.399 59.1958 571.366 61.9236C563.375 65.0187 557.829 72.2689 554.234 79.7659C549.416 89.8161 547.773 100.968 547.791 112.024C547.791 122.803 547.911 133.792 550.518 144.312C550.993 146.211 551.572 148.083 552.253 149.919C552.951 151.821 552.488 153.026 551.476 154.778C549.585 158.036 546.887 160.673 544.72 163.72C537.662 173.596 532.327 185.151 527.991 196.442C518.278 221.733 512.793 248.939 507.933 275.507C505.3 289.875 503.124 304.327 501.406 318.863C500.864 323.506 498.997 329.269 503.652 332.358C507.554 334.959 513.009 335.29 517.501 336.013C545.928 340.613 574.735 342.444 603.515 341.481C615.474 341.083 627.644 340.276 639.091 336.507C643.855 334.935 649.828 332.894 653.622 329.449C655.38 327.86 654.916 325.391 654.898 323.223C654.87 319.509 654.792 315.796 654.664 312.083C654.407 304.772 653.925 297.474 653.218 290.188C653.128 289.285 650.208 289.905 650.31 290.965L650.304 290.928Z" fill="#5D7183"/>
    <path d="M607.798 158.764C602.204 167.339 592.949 173.331 582.651 174.156C572.192 174.999 561.841 170.483 554.813 162.829C554.127 162.082 551.351 163.142 552.115 163.973C568.332 181.635 597.501 178.793 610.526 158.837C611.261 157.711 608.34 157.952 607.816 158.764H607.798Z" fill="#5D7183"/>
    <path d="M566.986 138.405C567.179 138.965 567.384 139.501 567.588 139.995C568.756 142.789 571.382 145.782 574.736 145.246C577.614 144.788 579.385 141.856 579.957 139.224C580.698 135.81 580.463 131.998 580.402 128.499C580.445 130.685 565.553 128.499 565.589 128.265C565.18 131.281 565.92 135.268 566.986 138.405Z" fill="#5D7183"/>
    <path d="M614.765 291.013C618.289 293.621 622.404 295.315 626.742 295.944C630.916 296.551 635.176 295.923 638.997 294.138C644.82 291.416 649.601 287.249 652.323 281.234C653.003 279.728 653.527 278.156 654.063 276.591C655.797 271.46 655.267 267.624 653.105 262.687C652.262 260.748 651.417 258.807 650.57 256.864C650.167 255.948 649.035 252.01 648.113 251.824C648.047 251.824 646.367 254.305 646.15 254.551C645.368 255.453 644.506 256.281 643.573 257.026C641.678 258.489 639.64 259.758 637.491 260.814C632.86 263.272 628.024 265.325 623.039 266.95C620.518 267.764 617.955 268.443 615.361 268.985C612.856 269.509 610.129 269.545 607.684 270.268C606.606 270.593 607.015 270.87 607.039 271.966C607.166 277.687 607.696 284.142 611.857 288.478C612.757 289.399 613.73 290.247 614.765 291.013Z" fill="#FFF7BF"/>
    <path d="M605.617 273.911C605.966 280.451 607.948 286.912 612.946 291.374C617.161 295.144 622.942 296.926 628.524 296.89C641.458 296.806 654.555 287.057 655.495 273.652C656.097 265.089 653.158 256.081 648.456 248.963C647.998 248.277 645.342 249.427 645.547 249.746C649.895 256.304 652.604 264.337 652.653 272.237C652.707 280.92 647.938 288.592 640.423 292.886C636.892 294.87 632.876 295.823 628.83 295.636C624.785 295.45 620.873 294.132 617.54 291.832C611.374 287.514 608.929 280.342 608.544 273.092C608.544 272.629 605.593 273.092 605.635 273.869L605.617 273.911Z" fill="#5D7183"/>
    <path d="M648.529 251.306C647.211 253.152 645.609 254.778 643.784 256.123C640.711 258.392 637.402 260.322 633.914 261.88C625.752 265.709 617.142 268.498 608.286 270.184C607.997 270.238 607.816 270.232 607.714 270.521C607.677 270.659 607.674 270.803 607.704 270.943C607.735 271.082 607.798 271.212 607.888 271.322C608.12 271.579 608.403 271.784 608.719 271.924C610.498 272.869 612.411 273.537 614.392 273.905C617.686 274.611 621.05 274.934 624.418 274.869C630.373 274.706 636.413 272.948 640.99 269.142C645.566 265.336 649.022 256.978 648.306 251.077L648.529 251.306Z" fill="#FFE07B"/>
    <path d="M631.021 268.823C632.189 268.823 634.08 267.059 632.117 267.059C630.949 267.059 629.058 268.823 631.021 268.823Z" fill="#5D7183"/>
    <path d="M606.768 270.864C615.698 269.106 624.412 267.095 632.836 263.578C639.46 260.814 645.343 257.382 649.251 251.167C650.028 249.963 647.089 250.077 646.511 250.999C642.609 257.207 636.533 260.182 629.952 262.861C622.346 265.951 614.349 267.606 606.322 269.19C604.516 269.545 604.992 271.219 606.768 270.864Z" fill="#5D7183"/>
    <path d="M545.412 164.335C549.699 191.029 559.816 216.681 575.484 238.769C583.235 249.549 592.166 259.43 602.112 268.227C606.4 272.063 610.494 274.375 616.209 275.266C621.628 276.097 627.217 276.055 632.467 274.507C637.61 272.996 642.457 270.196 645.438 265.637C648.349 261.222 649.711 255.965 649.31 250.692C649.208 249.608 646.299 250.264 646.402 251.474C646.734 256.277 645.516 261.06 642.927 265.12C639.952 269.901 634.72 272.496 629.312 273.496C623.742 274.531 616.468 274.333 611.295 271.792C606.406 269.383 602.353 264.915 598.463 261.181C581.408 244.702 568.016 224.814 559.159 202.813C554.082 190.175 550.446 177.005 548.32 163.552C548.146 162.444 545.225 163.142 545.412 164.335Z" fill="#5D7183"/>
    <path d="M619.484 171.127C645.528 188.138 682.11 217.494 666.772 252.914C665.666 255.547 664.266 258.048 662.599 260.368C660.835 262.777 658.595 264.824 657.12 267.438C654.621 271.858 655.313 275.573 660.281 277.271C661.16 277.578 663.792 276.278 662.599 275.868C659.703 274.869 657.878 273.183 658.812 269.913C659.613 267.125 661.552 264.993 663.376 262.819C667.576 257.744 670.555 251.772 672.082 245.364C673.61 238.956 673.645 232.282 672.186 225.858C668.344 209.599 656.174 196.352 643.77 185.844C636.783 180.019 629.441 174.635 621.784 169.724C620.995 169.206 618.31 170.368 619.472 171.127H619.484Z" fill="#5D7183"/>
    <path d="M496.635 124.947C498.442 127.957 495.558 129.463 493.534 131.179C492.06 132.444 490.7 133.837 489.47 135.34C486.826 138.59 484.71 142.235 483.201 146.143C480.178 154.148 479.207 162.783 480.377 171.259C481.509 179.919 484.761 188.801 490.897 195.184C493.832 198.232 497.504 200.472 501.558 201.687C505.611 202.902 509.91 203.051 514.038 202.121C523.263 200.164 531.724 193.516 535.475 184.832C535.758 184.176 532.946 184.459 532.591 185.284C528.978 193.648 520.367 200.802 511.063 201.32C501.76 201.838 493.908 196.123 489.247 188.349C481.352 175.192 480.684 157.199 487.091 143.337C488.887 139.388 491.373 135.791 494.431 132.715C496.762 130.402 501.916 128.126 499.544 124.164C499.056 123.351 496.31 124.399 496.635 124.947Z" fill="#5D7183"/>
    <path d="M38.7342 185.422C44.0814 169.26 51.6146 153.267 63.658 141.464V140.754C63.658 128.234 63.4894 115.697 63.4894 103.202C63.4894 77.2247 76.1349 55.6309 91.6769 55.6309C107.219 55.6309 119.858 77.2066 119.858 103.202V107.863C119.858 114.222 120.153 120.852 120.196 127.313C120.196 130.764 120.196 134.214 119.979 137.652L119.925 138.381C122.151 140.396 124.204 142.596 126.061 144.957C160.324 190.86 156.898 266.065 151.189 276.741C151.189 276.741 142.386 282.522 92.7126 282.233C52.3131 283.991 31.2191 276.211 31.2191 276.211C31.2191 276.211 24.8903 227.309 38.7342 185.422Z" fill="white"/>
    <path d="M95.8799 181.532C94.3865 192.076 92.8691 202.608 91.4299 213.176C89.7318 225.665 82.873 245.374 82.873 245.374C83.6438 249.06 97.3251 265.794 97.3251 265.794C100.655 262.608 110.458 246.838 110.458 246.838C110.458 246.838 105.864 215.694 105.195 205.89C104.858 200.976 103.913 178.696 99.8241 178.329L98.3247 178.196C97.1505 178.094 96.0726 179.461 95.916 181.249C95.904 181.364 95.8919 181.454 95.8799 181.532Z" fill="#FFEEA4"/>
    <path d="M94.4479 181.785C91.967 199.248 90.2327 216.85 85.1926 233.837C84.3897 236.607 83.5326 239.365 82.6213 242.111C82.2962 243.092 81.4652 244.574 81.417 245.627C81.417 247.012 82.8201 248.728 83.5306 249.842C84.9698 252.071 86.5414 254.214 88.1251 256.334C90.6543 259.71 93.2637 263.036 95.9533 266.312C96.3929 266.854 98.2536 266.095 98.639 265.71C101.15 263.205 103.107 260.043 105.082 257.123C107.202 253.979 109.346 250.812 111.291 247.56C112.019 246.356 111.833 245.952 111.616 244.495C111.142 241.207 110.674 237.918 110.213 234.626C108.978 225.81 107.702 216.982 106.859 208.13C106.178 200.94 106.064 193.678 104.853 186.567C104.45 184.158 104.034 179.136 101.427 177.937C100.709 177.617 99.9251 177.471 99.1397 177.51C98.3542 177.55 97.5893 177.775 96.9072 178.166C96.2251 178.558 95.6452 179.105 95.2147 179.763C94.7842 180.422 94.5153 181.172 94.4299 181.954C94.3817 182.339 97.23 182.068 97.3383 181.171C97.3383 181.039 97.6394 179.22 97.6936 179.166C97.8683 178.997 97.7659 178.901 98.3861 178.949C98.7954 178.976 99.1778 179.162 99.4519 179.467C100.307 180.226 100.686 181.876 100.981 182.905C101.908 186.485 102.513 190.141 102.788 193.829C103.42 199.905 103.607 206.017 104.275 212.086C105.148 219.987 106.238 227.863 107.34 235.728C107.762 238.751 108.191 241.761 108.629 244.76C108.828 246.109 109.057 246.771 108.629 247.699C107.22 250.764 104.823 253.684 102.951 256.49C100.825 259.682 98.7354 263.174 95.9955 265.896L98.6872 265.294C96.419 262.52 94.201 259.7 92.0332 256.834C90.4375 254.732 88.8658 252.618 87.3845 250.439C86.4632 249.084 84.7289 247.121 84.464 245.447C84.3074 244.501 84.8674 243.472 85.1805 242.514C86.0316 239.961 86.8345 237.394 87.5892 234.812C89.6065 228.116 91.5154 221.312 92.6173 214.399C94.3636 203.391 95.7245 192.311 97.2842 181.28C97.4166 180.563 94.5443 181.075 94.4479 181.785Z" fill="#5D7183"/>
    <path d="M97.338 166.912C98.0666 166.147 98.9397 165.864 100.024 166.984C101.565 168.586 102.487 171.235 103.42 173.223C104.191 174.866 104.516 175.992 102.264 176.294C100.277 176.559 97.9702 176.113 95.959 176.035C92.7494 175.896 94.845 170.904 95.6459 169.537C96.1143 168.604 96.6816 167.724 97.338 166.912Z" fill="#FFEEA4"/>
    <path d="M98.4994 167.086C98.662 166.93 101.697 172.982 101.974 173.608C102.163 173.97 102.319 174.349 102.438 174.74C102.618 175.529 102.63 175.342 102.064 175.601C100.986 176.077 98.6981 175.451 97.4938 175.342C96.5725 175.258 95.9583 175.216 95.7415 174.204C95.6486 173.315 95.7769 172.418 96.1148 171.591C96.6658 169.875 97.5407 168.28 98.6921 166.894C99.4328 166.021 96.5664 166.292 96.0064 166.93C94.4227 168.785 92.3031 172.398 92.833 174.981C93.0919 176.245 94.0373 176.631 95.2417 176.787C97.5239 177.052 100.059 177.39 102.323 176.98C103.425 176.793 105.135 176.342 105.448 175.071C105.798 173.668 104.346 171.567 103.798 170.362C103.07 168.779 102.082 166.418 100.342 165.707C98.951 165.141 97.2529 165.804 96.2172 166.755C94.9948 167.833 97.8551 167.664 98.4994 167.086Z" fill="#5D7183"/>
    <path d="M41.1926 47.6762C36.2548 53.6979 33.4608 61.5261 34.7133 69.9866C36.7787 83.8666 49.5327 88.5214 61.0943 87.5639C66.1947 87.1364 71.4877 85.4443 74.9141 81.3556C77.5937 78.1641 78.8583 73.8465 81.4416 70.5647C82.8589 68.743 84.6918 67.2871 86.7871 66.3191C88.8824 65.3511 91.1791 64.899 93.485 65.0006C100.229 65.4161 105.637 71.9798 112.556 71.7329C118.638 71.5101 120.631 64.2359 119.18 59.0151C115.783 46.767 104.836 42.6602 94.4906 39.7457C82.7182 36.4277 69.5307 33.6638 57.3849 37.0239C51.0284 38.8422 45.3789 42.5589 41.1926 47.6762Z" fill="#FFEEA4"/>
    <path d="M127.127 151.833L119.052 141.332L117.451 142.632C113.342 145.915 108.553 148.241 103.432 149.441C98.3114 150.641 92.9877 150.685 87.848 149.569L61.768 143.945C60.5998 145.541 59.1305 147.118 58.155 148.829C57.1795 150.539 68.8917 159.848 74.3474 163.281C79.3454 166.436 83.3317 168.971 89.0162 170.784C90.9612 171.386 95.0379 163.214 96.4771 160.131C96.5362 160.015 96.6234 159.915 96.731 159.841C96.8385 159.767 96.9629 159.721 97.0928 159.707C97.2227 159.693 97.3539 159.712 97.4746 159.762C97.5953 159.812 97.7016 159.891 97.7838 159.993C100.233 163.083 102.915 165.981 105.805 168.664C105.805 168.664 122.274 162.064 127.127 151.833Z" fill="white"/>
    <path d="M56.8957 151.882C62.1466 157.096 68.0298 160.872 74.4369 164.527C78.2727 166.713 82.2169 169.031 86.39 170.549C89.0696 171.512 91.2374 171.001 92.7489 168.532L96.1451 162.98C96.663 162.131 97.5843 159.927 98.3611 159.475L96.3137 159.782C97.235 160.204 98.06 161.691 98.7224 162.462C99.6136 163.516 100.529 164.557 101.42 165.599C102.528 166.87 103.612 168.17 104.78 169.393C105.28 169.917 106.527 169.441 107.014 169.2C114.674 165.424 123.755 160.414 127.753 152.514C128.108 151.815 125.29 152.074 124.857 152.929C121.117 160.318 112.416 164.973 105.256 168.502L107.49 168.309C105.852 166.581 104.317 164.738 102.769 162.931C101.535 161.498 99.8665 158.247 97.7228 158.409C95.85 158.554 95.1696 160.252 94.3266 161.625L90.1897 168.393C89.9729 168.748 88.907 169.899 89.9608 169.634C89.5815 169.73 88.6722 169.212 88.335 169.08C86.1736 168.216 84.0662 167.222 82.0243 166.105C73.913 161.854 66.1571 157.289 59.6236 150.81C58.9732 150.165 56.2394 151.231 56.9138 151.9L56.8957 151.882Z" fill="#5D7183"/>
    <path d="M67.3507 144.373C75.7811 151.833 86.6201 156.308 97.959 155.055C106.955 154.067 116.626 149.798 120.504 141.127C120.847 140.362 117.999 140.657 117.608 141.536C113.965 149.684 104.733 153.453 96.2548 153.76C86.4636 154.11 77.2564 149.66 70.0665 143.277C69.362 142.674 66.6582 143.752 67.3507 144.373Z" fill="#5D7183"/>
    <path d="M31.9322 266.071C29.4452 231.814 32.9137 195.768 48.5159 164.714C50.8149 160.094 53.4768 155.665 56.4766 151.466C57.8796 149.515 59.361 147.606 60.9507 145.8C62.2273 144.342 63.811 143.048 64.7805 141.35C65.5994 139.917 65.5513 138.736 65.491 137.134C65.3947 134.69 65.3164 132.245 65.2562 129.8C65.1318 124.533 65.0414 119.258 64.9852 113.975C64.8347 97.6804 64.8889 80.5366 74.7885 66.6807C78.522 61.4539 84.0198 56.5341 90.7821 56.4077C97.1772 56.2933 102.753 60.1833 106.734 64.8922C116.675 76.6406 118.422 92.592 118.41 107.345C118.41 117.281 118.47 127.217 118.157 137.159C118.095 137.466 118.103 137.784 118.18 138.088C118.257 138.393 118.401 138.676 118.602 138.917C119.879 140.88 122.215 142.44 123.739 144.3C126.446 147.755 128.89 151.408 131.049 155.23C135.139 162.251 138.611 169.615 141.425 177.239C151.253 203.839 155.132 232.27 152.787 260.531C152.589 262.807 152.33 265.071 151.987 267.329C151.836 268.341 154.751 267.823 154.883 266.92C156.623 255.346 156.581 243.435 155.798 231.801C154.796 215.899 151.924 200.171 147.242 184.941C144.71 176.767 141.499 168.818 137.643 161.179C133.861 153.76 129.49 146.022 123.612 140.055C122.498 138.917 121.246 138.248 121.047 136.767C121.007 135.904 121.027 135.038 121.107 134.178C121.156 131.328 121.19 128.479 121.21 125.633C121.258 119.912 121.29 114.192 121.306 108.471C121.348 93.9349 120.18 79.1215 111.671 66.7529C104.837 56.7931 93.1306 51.4639 81.858 57.6482C68.7729 64.82 63.4798 81.9156 62.2935 95.7775C61.5408 104.569 61.9985 113.56 62.149 122.363C62.2393 127.548 62.4561 132.727 62.5525 137.905C62.6006 140.549 61.7817 142.06 59.9812 143.927C58.24 145.752 56.6035 147.674 55.0795 149.684C42.6869 165.984 35.6777 186.591 31.9201 206.528C28.7106 223.528 27.8073 240.96 28.5058 258.231C28.6182 261.101 28.7808 263.969 28.9936 266.836C29.0538 267.661 31.9743 267.083 31.9021 266.059L31.9322 266.071Z" fill="#5D7183"/>
    <path d="M105.799 61.8935C108.208 50.8497 97.8084 45.7012 88.4748 44.4607C83.5112 43.7661 78.4618 43.9989 73.5831 45.1472C65.9235 47.038 58.0532 56.4077 50.0082 52.1444C49.2314 51.7289 46.7986 52.9212 47.2804 53.1741C53.7416 56.5944 60.6545 53.1018 66.3149 49.7176C71.2896 46.5897 77.1167 45.093 82.983 45.4362C92.6177 45.8457 105.51 50.392 102.921 62.3692C102.752 63.14 105.631 62.6884 105.799 61.8935Z" fill="#5D7183"/>
    <path d="M84.5244 58.6839C83.1094 52.1082 75.4016 51.8252 70.4457 54.4145C66.8327 56.3234 63.6593 59.0272 60.2089 61.2311C54.4762 64.8802 48.8519 62.7064 43.1434 60.2496C42.3365 59.9003 39.6749 61.1046 40.813 61.5984C47.0153 64.266 53.8499 66.5422 60.2269 63.0617C63.5148 61.2552 66.3992 58.7923 69.5425 56.775C72.0836 55.1432 74.962 53.5233 78.021 54.8722C78.949 55.2885 79.7623 55.9233 80.3915 56.7224C81.0207 57.5215 81.447 58.461 81.634 59.4607C81.8327 60.382 84.7533 59.6594 84.5425 58.6839H84.5244Z" fill="#5D7183"/>
    <path d="M76.7126 73.9007C74.6618 72.4537 72.3008 71.5067 69.8185 71.1355C67.3362 70.7643 64.8015 70.9792 62.4171 71.763C57.124 73.5153 49.9582 80.8377 44.5086 75.8879C43.6535 75.1111 40.8956 76.2612 41.8229 77.0922C45.3456 80.2897 50.3617 79.7177 54.4323 77.863C57.4432 76.478 60.1409 74.2861 63.3444 73.3166C67.2164 72.1424 71.1726 73.1721 74.4304 75.4362C75.3336 76.0685 77.9651 74.7799 76.7126 73.9007Z" fill="#5D7183"/>
    <path d="M93.569 61.5382C94.1712 55.2997 89.5887 50.2234 83.3803 49.9043C82.0074 49.832 80.3695 51.8613 82.3627 51.9577C87.5714 52.2286 91.1363 56.6486 90.6304 61.779C90.4859 63.2303 93.4426 62.8148 93.569 61.5382Z" fill="#5D7183"/>
    <path d="M50.5019 69.2159C46.9395 69.7631 43.301 68.9645 40.2952 66.9758C39.2715 66.3134 36.6821 67.7285 38.037 68.6017C41.637 70.9451 45.9702 71.8897 50.2189 71.2572C51.7785 71.0344 52.4831 68.9389 50.5019 69.2279V69.2159Z" fill="#5D7183"/>
    <path d="M113.959 65.1211C114.887 63.2541 115.383 61.2021 115.41 59.1173C115.437 57.0324 114.995 54.9682 114.115 53.0777C113.513 51.771 110.629 52.608 111.207 53.8545C112.028 55.5558 112.449 57.4222 112.439 59.3111C112.428 61.2001 111.986 63.0617 111.147 64.7538C110.418 66.2592 113.357 66.3134 113.935 65.1211H113.959Z" fill="#5D7183"/>
    <path d="M103.865 120.43C104.5 120.691 105.157 120.892 105.828 121.032C107.827 121.291 109.489 121.153 111.043 120.159C112.32 123.808 111.103 127.717 109.273 129.192C107.827 130.36 104.774 130.535 102.426 128.59C100.463 126.958 99.7343 122.062 100.8 120.653C101.511 119.696 102.715 120.033 103.865 120.43Z" fill="#5D7183"/>
    <path d="M50.2242 156.163C34.3269 164.353 18.4176 174.632 8.67451 190.035C3.56812 198.092 0.298335 207.594 0.0153158 217.169C-0.285769 227.153 3.88125 235.655 9.95713 243.333C13.1065 247.313 16.581 251.005 20.0374 254.726C21.4586 256.256 23.518 257.948 24.2888 259.935C25.1258 262.103 23.9214 264.204 22.9158 266.095C22.705 266.487 25.3847 266.324 25.7821 265.583C27.2876 262.759 28.2932 260.368 26.2277 257.599C23.7348 254.262 20.5312 251.36 17.7432 248.265C11.6251 241.46 5.52516 233.843 3.59822 224.72C-0.436313 205.607 11.0591 186.338 24.903 174.186C33.0142 167.068 42.3297 161.456 51.8982 156.53C53.6024 155.651 50.9167 155.79 50.2242 156.145V156.163Z" fill="#5D7183"/>
    <path d="M152.282 272.592C150.204 311.408 132.356 421.979 126.069 421.985C119.343 421.985 115.146 405.262 113.52 397.964C111.262 387.811 110.509 351.82 101.224 326.384C98.5801 319.158 88.4155 318.905 85.3745 326.005C70.6334 360.328 62.2512 423.556 54.5796 423.556C50.4427 423.556 49.7201 418.239 48.6301 413.958C45.9866 403.588 31.2395 306.169 30.2158 273.586C30.2158 273.586 88.3793 285.894 152.282 272.592Z" fill="#EEEEEE"/>
    <path d="M150.287 283.594C148.034 315.419 142.741 347.249 136.75 378.556C134.407 390.774 132.131 403.245 128.319 415.078C127.847 416.645 127.263 418.176 126.573 419.66C126.291 420.074 126.045 420.511 125.838 420.967C125.567 422.003 125.706 420.461 126.254 421.015C125.387 420.136 124.182 419.757 123.351 418.606C122.287 417.056 121.412 415.384 120.744 413.626C119.297 409.927 118.114 406.13 117.203 402.264C111.615 379.983 111.573 356.667 105.648 334.435C104.473 330.039 103.269 324.198 99.5176 321.188C96.5068 318.779 92.2615 318.99 89.2145 321.151C85.2221 323.982 83.0844 328.919 81.2538 333.279C78.941 338.985 76.9783 344.827 75.3767 350.772C71.8299 363.333 69.0479 376.099 66.0671 388.805C64.5918 395.116 63.0864 401.451 61.316 407.653C60.4671 410.893 59.4111 414.075 58.1546 417.179C57.3417 419.076 55.1016 424.405 52.6388 421.214C50.8322 418.805 50.4107 415.114 49.7664 412.211C49.4111 410.598 49.104 408.966 48.7969 407.34C47.7672 401.836 46.8399 396.32 45.9246 390.798C40.5954 358.492 35.5974 325.975 32.7913 293.337C32.5263 290.212 32.2915 287.093 32.1168 283.961C32.0506 282.829 29.1361 283.474 29.2084 284.744C30.0935 300.521 32.1108 316.25 34.1702 331.906C36.4545 349.261 38.9876 366.579 41.7696 383.861C43.3834 393.96 44.7805 404.209 47.141 414.174C47.9117 417.456 48.4958 422.605 52.1149 424.092C55.5894 425.495 58.0944 422.936 59.6179 420.106C62.4601 414.807 63.9174 408.755 65.4469 402.986C67.2113 396.326 68.7528 389.612 70.3064 382.904C73.3172 369.921 76.2137 356.872 80.182 344.142C82.0728 338.084 84.1202 331.605 87.6067 326.24C89.4132 323.458 92.3578 320.055 96.0371 321.952C98.8492 323.41 100.078 326.812 101.059 329.606C105.527 342.354 106.96 356.294 108.725 369.614C110.11 380.074 111.314 390.461 113.741 400.74C114.656 404.847 115.824 408.893 117.239 412.856C118.293 415.698 119.552 418.92 121.744 421.105C124.086 423.442 127.163 423.55 128.903 420.666C130.752 417.559 131.643 413.699 132.601 410.26C134.257 404.281 135.612 398.217 136.912 392.147C143.933 359.39 149.112 326.265 152.424 292.928C152.737 289.724 153.026 286.515 153.243 283.293C153.34 281.938 150.401 282.432 150.317 283.582L150.287 283.594Z" fill="#5D7183"/>
    <path d="M145.619 303.971C140.88 304.038 135.099 304.146 131.703 300.214C128.307 296.282 128.909 290.621 129.523 285.798C129.686 284.491 126.741 284.961 126.597 286.093C125.91 291.513 125.314 297.908 129.607 302.045C133.552 305.82 139.423 305.904 144.523 305.838C145.728 305.838 147.534 303.947 145.601 303.971H145.619Z" fill="#5D7183"/>
    <path d="M40.7209 306.218C46.0561 306.29 51.9694 306.133 56.2328 302.454C61.014 298.335 60.4841 291.717 59.7675 286.063C59.6471 285.13 56.7265 285.78 56.859 286.846C57.419 291.23 58.0634 296.21 55.5222 300.142C52.5535 304.736 46.7426 304.676 41.865 304.61C40.7931 304.61 38.7638 306.187 40.7209 306.218Z" fill="#5D7183"/>
    <path d="M29.9117 278.753C30.4596 279.529 38.8057 280.914 42.0032 281.27C52.1156 282.402 62.2582 283.175 72.4308 283.588C85.8231 284.122 99.2213 284.018 112.626 283.275C119.358 282.902 126.076 282.368 132.78 281.673C136.16 281.324 139.535 280.937 142.903 280.511C144.595 280.294 146.281 280.071 147.973 279.837C148.942 279.704 151.357 279.626 152.278 279.234C154.302 278.421 154.163 271.189 154.163 271.189C154.163 271.189 149.743 271.792 149.057 271.936C108.29 279.644 70.2028 278.711 29.2914 270.888C29.2914 270.906 28.9964 277.464 29.9117 278.753Z" fill="white"/>
    <path d="M81.3088 275.995C64.0108 275.206 46.7933 273.158 29.7933 269.865C29.1309 269.738 27.8543 270.214 27.8181 271.069C27.7278 273.255 27.0353 277.982 28.7937 279.65C29.6006 280.421 31.1481 280.577 32.1839 280.812C34.436 281.324 36.7182 281.715 39.0004 282.053C52.9707 284.124 67.3024 284.696 81.4112 284.973C83.0792 285.009 83.6332 282.877 81.6641 282.835C68.5248 282.576 55.3312 281.812 42.2762 280.24C40.5902 280.035 38.9161 279.776 37.2421 279.487C35.5681 279.198 33.1172 279.168 31.7443 278.283C30.01 277.187 30.6784 272.827 30.7627 270.828L28.7876 272.002C45.7883 275.29 63.0056 277.337 80.3032 278.126C81.7183 278.187 83.2719 276.091 81.3088 276.007V275.995Z" fill="#5D7183"/>
    <path d="M106.575 284.485C119.69 283.919 132.759 282.771 145.782 281.041C148.323 280.698 152.713 281.149 154.339 278.71C155.706 276.651 155.664 273.435 155.628 271.057C155.628 270.388 154.911 270.202 154.333 270.28C147.625 271.219 140.983 272.55 134.275 273.484C124.893 274.788 115.459 275.651 105.973 276.073C104.431 276.145 103.643 278.018 105.642 277.928C115.108 277.494 124.542 276.631 133.944 275.338C140.652 274.399 147.294 273.068 154.002 272.129L152.695 271.352C152.695 273.158 152.948 276.121 152.003 277.675C151.16 279.054 149.678 278.735 148.137 278.909C145.505 279.21 142.886 279.614 140.254 279.933C129.179 281.266 118.07 282.161 106.93 282.618C105.389 282.685 104.6 284.551 106.599 284.467L106.575 284.485Z" fill="#5D7183"/>
    <path d="M91.4236 315.738C96.0483 315.78 98.7099 312.287 99.0712 307.91C99.559 302.02 98.469 295.661 97.7886 289.845C97.6501 288.706 94.7295 289.387 94.8801 290.621C95.3438 294.529 95.6328 298.45 95.964 302.352C96.1928 305.067 97.2707 313.937 92.4955 313.889C91.2912 313.889 89.4847 315.732 91.4236 315.756V315.738Z" fill="#5D7183"/>
    <path d="M101.98 276.597C101.42 275.995 100.264 276.187 99.5353 276.163C98.4213 276.127 97.3012 276.103 96.1812 276.091C93.616 276.055 91.0568 276.163 88.4915 276.163C86.9319 276.205 84.2763 276.272 83.7284 278.108C83.608 278.544 83.5956 279.003 83.6922 279.445C84.1077 281.649 85.3241 284.991 87.6906 285.744C89.2683 286.25 91.0206 286.087 92.6525 286.081C94.4028 286.081 96.1491 285.997 97.8914 285.828C99.2824 285.702 100.716 285.587 101.854 284.684C102.278 284.356 102.631 283.945 102.89 283.476C103.15 283.007 103.312 282.49 103.365 281.956C103.394 280.96 103.234 279.967 102.895 279.03C102.757 278.608 102.636 278.181 102.498 277.759C102.413 277.338 102.237 276.941 101.98 276.597Z" fill="white"/>
    <path d="M103.106 275.736C101.071 274.531 98.0481 275.013 95.7658 275.001C92.6707 275.001 89.2383 274.688 86.1853 275.302C81.1572 276.308 81.5607 281.191 84.2162 284.684C85.7036 286.641 87.7931 287.093 90.1476 287.129C93.3162 287.296 96.4936 287.125 99.6257 286.617C105.112 285.539 105.882 280.318 103.317 275.934C102.667 274.82 99.8907 275.934 100.649 277.205C101.348 278.409 102.077 280.728 101.89 282.022C101.505 284.816 98.1263 284.762 95.9344 284.889C92.0926 285.105 87.7028 285.846 85.9324 281.685C85.4266 280.481 84.4872 278.337 86.0047 277.398C86.914 276.838 89.0155 277.169 90.0091 277.157C91.8156 277.157 93.6703 277.079 95.5009 277.091C96.5426 277.091 99.7643 276.729 100.86 277.386C101.956 278.042 104.521 276.597 103.106 275.736Z" fill="#5D7183"/>
    <path d="M134.631 274.652C137.118 275.531 135.727 279.867 134.679 281.276C134.264 281.83 135.035 282.077 135.456 282.095C135.816 282.116 136.175 282.057 136.509 281.922C136.842 281.786 137.141 281.578 137.383 281.312C138.834 279.349 140.141 274.393 136.95 273.267C136.607 273.163 136.246 273.134 135.892 273.183C135.537 273.232 135.198 273.357 134.896 273.55C134.571 273.755 133.951 274.411 134.631 274.652Z" fill="#5D7183"/>
    <path d="M52.362 281.209C49.8569 280.33 51.2359 275.886 52.2837 274.477C52.9581 273.568 50.1038 273.875 49.6101 274.549C48.1588 276.506 46.8341 281.36 50.0135 282.48C50.3588 282.566 50.7178 282.582 51.0695 282.527C51.4211 282.472 51.7582 282.348 52.0609 282.161C52.3559 281.974 53.0183 281.444 52.362 281.209Z" fill="#5D7183"/>
    <path d="M160.271 107.893C158.344 116.992 163.083 124.621 168.502 131.504C175.162 139.935 181.666 148.365 185.568 158.511C189.012 167.466 190.638 178.052 185.857 186.856C181.076 195.659 171.465 197.954 162.535 193.979C152.9 189.686 146.463 180.184 142.139 170.916C141.621 169.796 138.755 170.681 139.231 171.699C143.356 180.533 149.142 189.318 157.802 194.256C164.931 198.321 174.139 199.387 181.334 194.907C188.982 190.137 192.173 180.774 191.734 172.108C191.132 160.45 185.405 149.425 178.769 140.067C171.898 130.372 160.403 120.755 163.191 107.592C163.456 106.352 160.505 106.773 160.271 107.893Z" fill="#5D7183"/>
</svg>
