<svg width="413" height="430" viewBox="0 0 413 430" fill="none" xmlns="http://www.w3.org/2000/svg">
<path d="M225.813 420.002C235.406 423.308 211.667 427.792 208.366 428.116C172.435 431.598 133.559 429.974 97.9632 425.537C96.5269 425.435 95.114 425.115 93.7717 424.587C84.9749 420.469 113.241 417.688 115.866 417.46C125.622 416.653 135.534 416.133 145.369 416.043C159.331 415.899 213.93 415.883 225.813 420.002Z" fill="#EEEEEE"/>
<path opacity="0.5" d="M242.391 113.254C260.716 94.9292 260.716 65.2196 242.391 46.8952C224.067 28.5708 194.357 28.5708 176.033 46.8952C157.708 65.2196 157.708 94.9292 176.033 113.254C194.357 131.578 224.067 131.578 242.391 113.254Z" fill="#F8F8F8"/>
<path d="M239.71 206.994L225.66 137.591C239.366 133.705 251.227 125.038 259.092 113.159C277.336 85.6577 269.802 48.4378 242.3 30.1964C214.799 11.9549 177.579 19.4864 159.324 46.9904C141.07 74.4944 148.617 111.709 176.118 129.966C186.275 136.718 198.261 140.188 210.454 139.905L213.834 139.6L227.985 209.371C228.301 210.928 229.223 212.295 230.548 213.172C231.872 214.049 233.491 214.364 235.047 214.048C236.604 213.731 237.971 212.81 238.848 211.485C239.725 210.161 240.04 208.542 239.724 206.986L239.71 206.994ZM183.276 119.177C161.716 104.861 155.809 75.7006 170.111 54.1375C184.413 32.5743 213.588 26.6706 235.151 40.9727C256.714 55.2747 262.62 84.4489 248.318 106.012C234.016 127.575 204.839 133.479 183.276 119.177Z" fill="white"/>
<path d="M179.076 139.393C177.141 137.912 175.675 135.903 174.853 133.609C173.372 129.601 173.737 124.564 173.724 120.354C173.683 112.079 174.461 103.821 176.046 95.6997C177.494 88.4386 180.598 82.0816 182.711 75.1042C183.808 71.4882 187.382 59.6887 189.384 61.547C190.115 62.2256 190.47 63.4796 190.86 64.365C191.738 66.3532 192.31 69.1368 193.697 70.8281C194.919 72.3206 198.05 71.5704 199.775 71.5916C206.082 71.6605 212.381 71.7772 218.69 71.7772C222.266 71.7772 226.89 62.7638 228.483 61.7379C228.789 61.5015 229.158 61.3597 229.543 61.3296C229.77 61.3502 229.988 61.426 230.179 61.5503C230.37 61.6746 230.528 61.8436 230.638 62.0427C230.855 62.4424 231.005 62.875 231.081 63.3232C232.08 67.7556 233.135 72.2729 234.758 76.5251C240.9 92.6245 244.225 111.918 242.401 129.147C242.291 130.149 242.087 131.137 241.791 132.1C241.115 134.325 240.097 135.48 238.215 136.758C234.583 139.218 230.052 140.228 225.821 141.106C222.184 141.851 218.441 142.116 214.73 142.262C208.615 142.521 202.496 142.514 196.374 142.238C193.267 142.1 190.166 141.891 187.069 141.612C184.479 141.379 181.855 141.225 179.607 139.756C179.432 139.648 179.251 139.523 179.076 139.393Z" fill="white"/>
<path d="M224.134 134.407C223.923 134.407 223.721 134.323 223.571 134.174C223.422 134.025 223.338 133.822 223.338 133.611C223.338 132.75 223.338 131.864 223.317 131.008C223.235 125.197 223.15 119.185 227.577 114.469C227.648 114.391 227.734 114.327 227.83 114.283C227.926 114.238 228.029 114.213 228.135 114.209C228.24 114.204 228.346 114.221 228.445 114.258C228.543 114.295 228.634 114.352 228.711 114.424C228.788 114.496 228.85 114.583 228.893 114.68C228.936 114.776 228.959 114.88 228.961 114.986C228.964 115.091 228.945 115.196 228.906 115.295C228.867 115.393 228.81 115.483 228.736 115.558C224.759 119.8 224.828 125.237 224.908 130.987C224.908 131.849 224.932 132.742 224.929 133.617C224.928 133.827 224.843 134.028 224.694 134.176C224.545 134.324 224.344 134.407 224.134 134.407Z" fill="#5D7183"/>
<path d="M209.334 88.2531C209.143 88.2535 208.959 88.1853 208.814 88.0609C208.669 87.9366 208.574 87.7644 208.546 87.5757C208.518 87.387 208.558 87.1944 208.66 87.0331C208.762 86.8718 208.918 86.7525 209.101 86.6969C209.361 86.6032 209.591 86.4411 209.766 86.2277L209.79 86.1986C209.988 85.9957 210.159 85.7685 210.299 85.5226C210.295 85.3439 210.272 85.1662 210.23 84.9924C210.206 84.8572 210.182 84.7273 210.167 84.6133C210.14 84.4023 210.199 84.1896 210.329 84.0218C210.46 83.854 210.651 83.7449 210.862 83.7185C211.073 83.6922 211.286 83.7507 211.454 83.8812C211.622 84.0117 211.731 84.2035 211.757 84.4144C211.757 84.4993 211.789 84.5947 211.807 84.6795C211.912 85.0831 211.928 85.5047 211.853 85.9149C211.667 86.4142 211.373 86.8667 210.994 87.2404L210.97 87.2669C210.602 87.7003 210.123 88.0241 209.583 88.2027C209.503 88.2327 209.419 88.2498 209.334 88.2531Z" fill="#5D7183"/>
<path d="M211.175 85.1859L212.808 83.9611C212.848 83.9318 212.877 83.8901 212.891 83.8424C212.905 83.7948 212.902 83.744 212.883 83.698C212.865 83.6521 212.831 83.6137 212.789 83.5888C212.746 83.5639 212.696 83.5541 212.647 83.5608L209.084 84.0088C209.034 84.0141 208.987 84.0361 208.952 84.071C208.916 84.106 208.893 84.152 208.887 84.2016C208.88 84.2512 208.891 84.3015 208.916 84.3445C208.942 84.3874 208.981 84.4204 209.028 84.4383L210.958 85.215C210.994 85.2288 211.032 85.2334 211.07 85.2283C211.108 85.2232 211.144 85.2086 211.175 85.1859Z" fill="#5D7183"/>
<path d="M212.978 87.9164C212.839 87.9163 212.703 87.8787 212.583 87.8077C212.162 87.5665 210.754 86.6625 210.37 85.2415C210.319 85.0394 210.349 84.8252 210.455 84.6452C210.56 84.4653 210.732 84.3338 210.933 84.2793C211.134 84.2247 211.349 84.2513 211.531 84.3535C211.712 84.4556 211.847 84.6251 211.905 84.8253C212.053 85.3714 212.631 85.9997 213.376 86.4318C213.528 86.5193 213.647 86.6544 213.714 86.8162C213.781 86.9781 213.793 87.1576 213.748 87.3269C213.702 87.4961 213.602 87.6457 213.463 87.7523C213.324 87.8589 213.154 87.9166 212.978 87.9164Z" fill="#5D7183"/>
<path d="M198.056 81.1007C198.011 81.3322 198.036 81.5718 198.126 81.7895C198.217 82.0072 198.369 82.1936 198.565 82.3254C198.76 82.4308 198.975 82.4949 199.196 82.5136C199.418 82.5323 199.64 82.5052 199.85 82.4341C200.168 82.3594 200.456 82.1936 200.68 81.957C200.868 81.7146 200.964 81.4143 200.953 81.1082C200.942 80.8021 200.824 80.5096 200.619 80.2815C199.779 79.3563 198.294 79.9369 198.056 81.1007Z" fill="#5D7183"/>
<path d="M220.496 78.6565C220.452 78.8881 220.476 79.1276 220.567 79.3453C220.657 79.5631 220.81 79.7494 221.005 79.8813C221.2 79.9861 221.415 80.0499 221.635 80.0686C221.856 80.0873 222.078 80.0605 222.288 79.99C222.606 79.9156 222.895 79.7486 223.118 79.5101C223.306 79.2688 223.403 78.9689 223.393 78.6632C223.382 78.3574 223.264 78.0651 223.06 77.8374C222.219 76.9016 220.727 77.4927 220.496 78.6565Z" fill="#5D7183"/>
<path d="M225.688 93.4611C228.726 93.4102 231.147 90.9065 231.096 87.8689C231.045 84.8313 228.542 82.4101 225.504 82.461C222.466 82.5119 220.045 85.0156 220.096 88.0532C220.147 91.0908 222.651 93.512 225.688 93.4611Z" fill="#FFCAC1"/>
<path d="M201.202 95.0557C202.959 92.5772 202.374 89.1438 199.896 87.3869C197.417 85.6301 193.984 86.2151 192.227 88.6936C190.47 91.1722 191.055 94.6056 193.534 96.3624C196.012 98.1193 199.446 97.5342 201.202 95.0557Z" fill="#FFCAC1"/>
<path d="M215.99 132.766C215.9 132.767 215.81 132.753 215.725 132.723C215.301 132.58 214.8 132.177 214.805 131.077V130.316C214.842 126.748 214.866 124.171 212.634 121.2C211.438 119.609 209.935 118.533 208.392 118.175C206.33 117.692 203.872 118.464 201.977 120.187C200.495 121.534 199.498 123.294 198.639 124.998C198.541 125.18 198.376 125.317 198.179 125.379C197.981 125.441 197.768 125.423 197.583 125.331C197.398 125.238 197.257 125.077 197.189 124.882C197.121 124.687 197.131 124.473 197.218 124.285C198.146 122.43 199.233 120.529 200.906 119.01C203.183 116.939 206.189 116.028 208.755 116.624C211.181 117.191 212.888 118.904 213.893 120.243C216.451 123.644 216.419 126.605 216.382 130.316V131.072C216.376 131.143 216.376 131.215 216.382 131.287C216.526 131.38 216.637 131.517 216.696 131.678C216.756 131.838 216.762 132.014 216.714 132.179C216.666 132.343 216.565 132.488 216.428 132.591C216.291 132.694 216.124 132.749 215.953 132.75L215.99 132.766Z" fill="#5D7183"/>
<path d="M242.3 108.902C242.102 108.903 241.911 108.83 241.764 108.698C241.617 108.567 241.525 108.385 241.504 108.189C240.362 97.4499 237.844 86.9026 234.013 76.8061C232.422 72.6043 231.383 68.2938 230.301 63.4955C230.241 63.1345 230.125 62.785 229.959 62.4589C229.916 62.3738 229.854 62.2994 229.779 62.2412C229.703 62.1829 229.615 62.1423 229.522 62.1223C229.298 62.1697 229.087 62.2656 228.904 62.4033C228.509 62.6684 227.547 64.0151 226.698 65.2107C224.376 68.4899 221.487 72.5698 218.685 72.5698C214.204 72.5698 209.653 72.5088 205.252 72.4505C203.423 72.4276 201.592 72.4055 199.759 72.3843C199.383 72.3843 198.906 72.4161 198.399 72.4585C196.559 72.6043 194.269 72.7872 193.076 71.3292C192.053 70.0805 191.469 68.3945 190.907 66.7642C190.642 66.0139 190.401 65.3061 190.128 64.6831C190.033 64.4711 189.94 64.2351 189.844 63.9912C189.579 63.3285 189.29 62.5809 188.885 62.1726C188.62 62.3291 187.732 63.1588 186.061 67.5303C184.945 70.4464 183.941 73.7495 183.466 75.3322C182.671 77.9222 181.762 80.4857 180.871 82.967C179.49 86.8083 178.061 90.7821 177.159 94.8487L176.863 96.1742C176.067 99.6735 175.452 102.436 175.007 106.227C174.983 106.438 174.876 106.631 174.71 106.763C174.544 106.895 174.332 106.956 174.121 106.932C173.91 106.908 173.718 106.801 173.585 106.635C173.453 106.469 173.392 106.257 173.416 106.047C173.862 102.171 174.493 99.3713 175.29 95.827L175.587 94.5015C176.518 90.3368 177.973 86.3152 179.36 82.4289C180.245 79.9661 181.16 77.4211 181.931 74.8709C184.847 65.2133 186.767 61.0857 188.524 60.6033C188.766 60.5358 189.02 60.5334 189.263 60.5963C189.506 60.6591 189.727 60.785 189.905 60.9611C190.603 61.6053 190.979 62.5517 191.31 63.408C191.398 63.6307 191.483 63.8454 191.576 64.0416C191.875 64.7229 192.132 65.4625 192.403 66.2446C192.92 67.7424 193.463 69.2932 194.298 70.3218C194.963 71.1356 196.795 70.9898 198.275 70.8705C198.805 70.8281 199.335 70.7884 199.778 70.7937C201.609 70.8113 203.44 70.8334 205.273 70.8599C209.669 70.9183 214.212 70.9792 218.685 70.9792C220.665 70.9792 223.515 66.955 225.402 64.2934C226.672 62.4987 227.42 61.4648 228.053 61.0645C228.482 60.7481 228.995 60.5638 229.527 60.5343H229.572C229.932 60.5563 230.28 60.6674 230.586 60.8576C230.892 61.0478 231.146 61.3112 231.324 61.6239C231.586 62.0982 231.766 62.6137 231.855 63.1482C232.915 67.8855 233.936 72.1404 235.5 76.2414C239.384 86.466 241.937 97.148 243.095 108.024C243.105 108.128 243.096 108.233 243.066 108.333C243.036 108.433 242.986 108.526 242.92 108.607C242.854 108.688 242.773 108.756 242.681 108.805C242.589 108.855 242.488 108.886 242.384 108.896L242.3 108.902Z" fill="#5D7183"/>
<path d="M232.542 83.0836C232.365 83.0832 232.192 83.0232 232.052 82.9132C231.913 82.8032 231.814 82.6495 231.772 82.4767C231.73 82.304 231.747 82.1221 231.82 81.9601C231.893 81.7981 232.019 81.6654 232.177 81.5832C237.351 78.8977 242.515 76.0161 247.52 73.0523C247.702 72.949 247.916 72.9211 248.118 72.9745C248.319 73.0278 248.492 73.1582 248.598 73.3376C248.705 73.517 248.736 73.7309 248.686 73.9334C248.637 74.1359 248.509 74.3107 248.332 74.4202C243.295 77.4132 238.112 80.2974 232.908 82.9935C232.795 83.0524 232.67 83.0833 232.542 83.0836Z" fill="#5D7183"/>
<path d="M233.817 85.8619C233.631 85.8627 233.451 85.7983 233.307 85.6798C233.164 85.5613 233.067 85.3963 233.032 85.2135C232.998 85.0306 233.029 84.8416 233.119 84.6791C233.21 84.5166 233.355 84.3911 233.528 84.3243C240.402 81.6574 244.769 80.5679 251.322 79.0223C251.527 78.9735 251.743 79.0082 251.923 79.1188C252.103 79.2294 252.231 79.4069 252.28 79.6122C252.329 79.8175 252.294 80.0338 252.184 80.2135C252.073 80.3932 251.896 80.5216 251.69 80.5705C245.201 82.1107 240.88 83.1897 234.104 85.8168C234.012 85.8492 233.915 85.8645 233.817 85.8619Z" fill="#5D7183"/>
<path d="M233.346 88.375C233.135 88.3796 232.931 88.3002 232.778 88.1542C232.626 88.0083 232.538 87.8079 232.533 87.5969C232.529 87.386 232.608 87.1819 232.754 87.0295C232.9 86.8772 233.101 86.789 233.311 86.7844C239.258 86.5193 244.019 86.4795 249.748 86.6121C249.852 86.6145 249.955 86.6375 250.051 86.6797C250.146 86.722 250.232 86.7826 250.305 86.8582C250.377 86.9337 250.433 87.0228 250.471 87.1202C250.509 87.2176 250.527 87.3215 250.524 87.426C250.522 87.5304 250.499 87.6333 250.457 87.7289C250.414 87.8244 250.354 87.9108 250.278 87.9829C250.203 88.055 250.114 88.1115 250.016 88.1492C249.919 88.187 249.815 88.2051 249.71 88.2027C244.024 88.0701 239.295 88.1205 233.386 88.3724L233.346 88.375Z" fill="#5D7183"/>
<path d="M188.965 85.6763C188.893 85.6773 188.82 85.6683 188.75 85.6498L171.731 80.7216C171.528 80.6629 171.357 80.526 171.255 80.341C171.153 80.1561 171.129 79.9383 171.188 79.7354C171.246 79.5326 171.383 79.3614 171.568 79.2594C171.753 79.1575 171.971 79.1333 172.174 79.192L189.185 84.1149C189.371 84.1666 189.532 84.284 189.637 84.4454C189.743 84.6068 189.786 84.801 189.759 84.992C189.733 85.183 189.637 85.3576 189.491 85.4835C189.345 85.6094 189.158 85.6779 188.965 85.6763Z" fill="#5D7183"/>
<path d="M186.786 88.4916C186.726 88.4911 186.665 88.484 186.606 88.4704C183.65 87.7918 180.527 87.6089 177.511 87.4286C174.356 87.2404 171.093 87.0469 167.941 86.2993C167.839 86.2751 167.743 86.2311 167.658 86.1698C167.574 86.1086 167.502 86.0313 167.447 85.9423C167.392 85.8533 167.356 85.7544 167.339 85.6512C167.323 85.548 167.327 85.4426 167.351 85.3409C167.375 85.2393 167.419 85.1434 167.48 85.0587C167.541 84.9741 167.619 84.9023 167.708 84.8475C167.797 84.7928 167.896 84.7561 167.999 84.7395C168.102 84.723 168.207 84.7269 168.309 84.7511C171.326 85.4669 174.518 85.6577 177.603 85.8406C180.689 86.0236 183.876 86.2118 186.961 86.9196C187.153 86.9618 187.323 87.0734 187.437 87.2331C187.552 87.3928 187.603 87.5891 187.581 87.7843C187.559 87.9795 187.466 88.1598 187.319 88.2904C187.173 88.421 186.983 88.4927 186.786 88.4916Z" fill="#5D7183"/>
<path d="M170.881 93.0567C170.67 93.0718 170.461 93.0025 170.302 92.864C170.142 92.7256 170.044 92.5293 170.028 92.3184C170.013 92.1075 170.083 91.8992 170.221 91.7393C170.359 91.5795 170.556 91.4812 170.767 91.4661C175.923 90.7132 181.169 90.0982 186.36 89.6369C186.571 89.6183 186.78 89.6842 186.943 89.8202C187.105 89.9561 187.207 90.151 187.225 90.3619C187.244 90.5729 187.178 90.7826 187.042 90.9449C186.906 91.1072 186.711 91.2088 186.5 91.2275C181.339 91.6861 176.122 92.2879 170.995 93.0461C170.957 93.0522 170.919 93.0558 170.881 93.0567Z" fill="#5D7183"/>
<path d="M190.606 128.087C190.41 128.088 190.221 128.017 190.074 127.888C189.927 127.758 189.834 127.579 189.811 127.384C189.374 123.734 188.422 120.164 186.982 116.78C186.939 116.684 186.916 116.58 186.914 116.475C186.912 116.369 186.931 116.265 186.97 116.167C187.008 116.069 187.066 115.979 187.14 115.904C187.213 115.828 187.301 115.768 187.398 115.727C187.495 115.686 187.599 115.664 187.704 115.663C187.81 115.663 187.914 115.683 188.012 115.723C188.109 115.763 188.198 115.822 188.272 115.897C188.347 115.971 188.405 116.06 188.445 116.157C189.944 119.679 190.935 123.394 191.391 127.193C191.403 127.297 191.395 127.402 191.367 127.503C191.339 127.604 191.291 127.698 191.227 127.78C191.162 127.862 191.082 127.931 190.991 127.982C190.9 128.034 190.8 128.066 190.696 128.079L190.606 128.087Z" fill="#5D7183"/>
<path d="M233.816 214.968C232.254 214.963 230.742 214.419 229.534 213.428C228.327 212.436 227.498 211.059 227.189 209.528L213.202 140.44L210.533 140.684H210.488C202.554 140.874 194.661 139.49 187.265 136.612C187.168 136.574 187.079 136.518 187.003 136.445C186.928 136.373 186.868 136.287 186.826 136.191C186.784 136.095 186.761 135.992 186.759 135.888C186.757 135.784 186.775 135.68 186.813 135.583C186.851 135.485 186.908 135.396 186.98 135.321C187.052 135.246 187.139 135.185 187.234 135.143C187.33 135.101 187.433 135.079 187.537 135.076C187.642 135.074 187.746 135.093 187.843 135.131C195.035 137.932 202.71 139.284 210.427 139.107L213.78 138.805C213.975 138.787 214.17 138.842 214.327 138.959C214.484 139.076 214.592 139.247 214.631 139.438L228.758 209.223C229.042 210.562 229.844 211.735 230.988 212.486C232.132 213.237 233.527 213.506 234.868 213.235C236.21 212.963 237.39 212.173 238.152 211.036C238.914 209.899 239.197 208.507 238.938 207.163L224.888 137.758C224.848 137.561 224.884 137.357 224.988 137.186C225.092 137.015 225.257 136.89 225.45 136.835C238.965 132.984 250.662 124.436 258.436 112.73C276.439 85.5941 269.006 48.87 241.867 30.8697C231.261 23.8327 218.664 20.4117 205.955 21.1165C193.245 21.8214 181.104 26.6144 171.341 34.7812C161.577 42.948 154.714 54.0512 151.775 66.4359C148.835 78.8206 149.977 91.8236 155.029 103.507C155.073 103.603 155.098 103.708 155.101 103.814C155.105 103.92 155.087 104.025 155.049 104.125C155.011 104.224 154.953 104.314 154.88 104.391C154.806 104.467 154.718 104.528 154.621 104.57C154.523 104.612 154.418 104.634 154.312 104.635C154.206 104.636 154.101 104.615 154.003 104.574C153.905 104.534 153.816 104.474 153.741 104.399C153.666 104.323 153.608 104.234 153.568 104.135C148.389 92.1377 147.224 78.7883 150.245 66.0748C153.267 53.3614 160.313 41.9638 170.337 33.5792C180.36 25.1947 192.823 20.2716 205.87 19.5431C218.917 18.8146 231.851 22.3196 242.745 29.5363C270.615 48.0216 278.25 85.7373 259.762 113.602C251.912 125.409 240.173 134.092 226.584 138.139L240.489 206.827C240.686 207.813 240.661 208.83 240.418 209.806C240.174 210.781 239.717 211.69 239.079 212.468C238.442 213.246 237.64 213.872 236.731 214.303C235.823 214.733 234.83 214.957 233.824 214.957L233.816 214.968ZM209.133 127.779C199.777 127.787 190.629 125.027 182.838 119.848C172.302 112.843 164.975 101.946 162.464 89.5456C159.954 77.1455 162.466 64.2559 169.448 53.7054C183.994 31.7711 213.669 25.7639 235.59 40.3179C244.131 45.9899 250.619 54.2623 254.091 63.9097C257.563 73.5571 257.836 84.0664 254.868 93.8808C251.901 103.695 245.851 112.293 237.614 118.4C229.378 124.507 219.394 127.798 209.141 127.787L209.133 127.779ZM183.713 118.522C204.921 132.572 233.591 126.777 247.652 105.58C254.401 95.3815 256.829 82.9224 254.403 70.936C251.977 58.9496 244.896 48.415 234.712 41.6434C213.504 27.5931 184.834 33.3882 170.773 54.5855C164.024 64.7839 161.596 77.2431 164.022 89.2295C166.448 101.216 173.529 111.75 183.713 118.522Z" fill="#5D7183"/>
<path d="M162.111 379.833C162.111 380.881 162.118 381.928 162.132 382.974C162.294 394.904 162.203 407.445 158.598 418.879C157.851 421.247 156.573 424.287 154.224 424.446C152.297 424.584 149.953 422.707 148.755 421.101C148.03 420.1 147.37 419.053 146.78 417.967C142.658 410.595 139.97 402.215 137.361 394.145C133.875 383.356 130.826 372.362 127.99 361.337C125.295 350.86 122.807 340.326 120.527 329.734C118.531 320.379 114.3 295.802 117.229 286.338C118.398 282.568 162.27 283.655 165.056 288.138C168.834 294.211 164.881 320.109 165.056 327.372C165.257 336.121 162.437 344.469 162.466 353.034C162.487 361.976 162.095 370.896 162.111 379.833Z" fill="#E3E3E3"/>
<path d="M154.023 425.26C151.706 425.26 149.251 423.097 148.122 421.586C144.625 416.888 138.342 402.764 128.261 362.148C122.084 337.276 116.57 310.321 115.289 300.751C115.261 300.54 115.318 300.327 115.447 300.158C115.576 299.989 115.768 299.878 115.979 299.85C116.189 299.822 116.403 299.878 116.572 300.008C116.741 300.137 116.852 300.328 116.88 300.539C119.396 319.38 138.088 405.436 149.41 420.629C150.582 422.204 152.689 423.765 154.182 423.659C155.985 423.529 157.339 421.008 157.835 418.704C160.348 407.114 161.334 397.093 161.353 382.966C161.353 382.755 161.437 382.553 161.586 382.404C161.735 382.255 161.937 382.171 162.148 382.171C162.359 382.171 162.561 382.255 162.711 382.404C162.86 382.553 162.943 382.755 162.943 382.966C162.925 397.215 161.928 407.329 159.391 419.038C158.795 421.795 157.093 425.048 154.288 425.242C154.195 425.257 154.108 425.26 154.023 425.26Z" fill="#5D7183"/>
<path d="M170.674 293.66C174.354 290.974 178.41 290.526 182.362 288.71C185.628 287.21 188.356 285.662 192.017 285.161C199.233 284.169 214.415 282.51 215.452 284.896C216.886 288.225 215.82 293.395 215.534 296.844C215.054 302.644 214.397 308.436 213.413 314.176C210.852 329.353 205.699 343.53 200.879 358.071C194.538 377.2 188.356 396.738 180.077 415.049C178.486 418.569 175.056 426.294 170.353 425.122C165.95 424.014 165.096 413.225 164.489 408.501C163.512 400.913 162.717 393.302 162.103 385.668C161.137 373.558 160.633 361.42 160.592 349.254C160.576 343.822 160.876 339 160.163 333.613C159.368 327.592 158.872 321.477 159.556 315.414C160.529 306.978 164.07 298.479 170.674 293.66Z" fill="#E3E3E3"/>
<path d="M171.352 426.037C170.953 426.036 170.556 425.986 170.17 425.888C165.645 424.748 164.547 415.55 163.89 410.043C163.826 409.513 163.768 409.031 163.712 408.596C162.739 401.033 161.936 393.337 161.326 385.726C160.072 370.024 159.611 344.617 159.887 329.127C159.887 329.021 159.908 328.917 159.949 328.819C159.99 328.722 160.05 328.633 160.125 328.559C160.201 328.485 160.29 328.427 160.389 328.388C160.487 328.349 160.592 328.33 160.698 328.332C160.906 328.336 161.104 328.422 161.25 328.57C161.396 328.719 161.477 328.919 161.477 329.127C161.212 344.238 161.679 370.125 162.911 385.572C163.518 393.159 164.316 400.829 165.297 408.371C165.356 408.808 165.414 409.299 165.478 409.831C166.008 414.251 167.103 423.45 170.567 424.322C174.573 425.329 177.897 417.959 179.316 414.828L179.371 414.707C186.762 398.355 192.552 380.808 198.148 363.839C198.815 361.825 199.48 359.813 200.144 357.806C206.345 339.092 210.833 322.675 215.404 294.132C215.437 293.923 215.551 293.736 215.722 293.612C215.893 293.488 216.106 293.437 216.314 293.47C216.523 293.503 216.709 293.618 216.834 293.788C216.958 293.959 217.009 294.172 216.976 294.381C212.387 323.033 207.883 339.517 201.653 358.304C200.988 360.314 200.324 362.325 199.659 364.338C194.047 381.346 188.26 398.933 180.819 415.361L180.766 415.483C179.173 419.022 175.999 426.037 171.352 426.037Z" fill="#5D7183"/>
<path d="M182.51 320.763C180.825 320.765 179.144 320.608 177.489 320.294C177.287 320.249 177.11 320.127 176.997 319.955C176.883 319.782 176.841 319.571 176.88 319.368C176.919 319.165 177.036 318.985 177.206 318.866C177.375 318.748 177.584 318.7 177.788 318.733C182.711 319.655 187.796 319.123 192.422 317.203C192.615 317.129 192.829 317.134 193.019 317.215C193.209 317.296 193.359 317.448 193.439 317.638C193.519 317.829 193.522 318.043 193.447 318.235C193.372 318.428 193.225 318.583 193.037 318.669C189.701 320.055 186.123 320.767 182.51 320.763Z" fill="#5D7183"/>
<path d="M145.352 320.944C141.026 320.944 136.715 320.418 132.516 319.377C132.318 319.32 132.151 319.189 132.048 319.011C131.945 318.832 131.915 318.621 131.965 318.422C132.014 318.222 132.139 318.05 132.313 317.94C132.487 317.83 132.696 317.792 132.898 317.834C137.922 319.079 143.105 319.563 148.273 319.271C148.484 319.259 148.691 319.332 148.849 319.473C149.006 319.614 149.101 319.812 149.112 320.022C149.124 320.233 149.051 320.44 148.91 320.598C148.77 320.755 148.572 320.85 148.361 320.862C147.355 320.916 146.352 320.944 145.352 320.944Z" fill="#5D7183"/>
<path d="M116.112 296.854C112.764 279.93 113.281 262.444 115.94 245.539C117.501 235.486 119.684 225.54 122.475 215.758C125.258 206.119 130.2 196.952 132.548 187.273C136.58 170.739 132.392 156.802 135.236 139.876C138.137 122.618 150.941 116.141 163.239 123.175C173.108 128.821 175.052 143.529 175.852 153.73C176.96 167.878 180.757 178.872 188.179 191.231C219.501 243.384 216.492 289.476 215.524 290.001C187.249 305.462 146.638 306.366 116.112 296.854Z" fill="white"/>
<path d="M152.54 190.894C146.472 190.894 140.455 189.956 135.19 188.01C135.092 187.974 135.002 187.918 134.925 187.848C134.848 187.777 134.787 187.691 134.743 187.596C134.655 187.405 134.646 187.186 134.719 186.988C134.792 186.79 134.941 186.629 135.133 186.541C135.324 186.453 135.543 186.444 135.741 186.517C142.037 188.845 149.844 189.746 157.718 189.052C165.854 188.339 173.343 185.945 178.809 182.318C178.985 182.21 179.196 182.175 179.397 182.22C179.598 182.264 179.774 182.385 179.888 182.557C180.002 182.729 180.044 182.938 180.007 183.141C179.969 183.344 179.854 183.524 179.687 183.644C172.561 188.386 162.482 190.894 152.54 190.894Z" fill="#5D7183"/>
<path d="M123.985 136.957C124.945 133.065 127.696 129.555 131.633 128.474C127.553 124.383 127.744 117.305 131.954 113.379C136.238 109.384 144.019 109.053 148.698 112.669C152.815 103.674 167.307 106.343 172.44 112.632C175.139 115.937 176.74 121.258 175.001 125.298C179.102 126.093 183.113 128.315 184.52 132.514C185.758 136.207 184.396 140.504 181.18 143.044C182.46 144.72 183.26 146.714 183.493 148.81C183.727 150.906 183.385 153.027 182.506 154.944C180.244 159.766 174.288 160.212 169.717 159.88C172.986 164.048 169.717 170.442 165.55 172.735C162.78 174.254 159.339 174.355 156.404 173.212H156.38C155.061 172.681 153.851 171.913 152.809 170.945C154.638 172.623 149.429 175.036 148.621 175.386C141.924 178.273 127.988 175.651 133.929 165.376C130.202 164.965 126.906 161.951 126.169 158.271C125.432 154.591 127.304 150.543 130.583 148.727C126.92 150.761 124.515 145.318 123.876 142.548C123.476 140.701 123.514 138.787 123.985 136.957Z" fill="#96E296"/>
<path d="M158.485 303.826C143.756 303.826 128.892 301.682 115.878 297.628C115.741 297.586 115.619 297.507 115.523 297.401C115.428 297.294 115.362 297.164 115.335 297.024C112.267 281.523 112.209 264.151 115.157 245.428C116.716 235.342 118.9 225.363 121.697 215.548C122.983 211.105 124.74 206.71 126.442 202.458C128.441 197.463 130.509 192.299 131.776 187.098C133.923 178.302 133.717 170.381 133.499 161.993C133.316 154.941 133.125 147.648 134.454 139.756C135.975 130.703 140.222 124.116 146.415 121.17C151.669 118.681 157.785 119.153 163.646 122.496C173.455 128.105 175.751 142.113 176.66 153.682C177.689 166.799 181.23 177.568 188.884 190.849C204.872 218.586 211.629 243.058 214.482 258.714C217.663 276.176 217.019 287.902 216.435 289.977C216.407 290.13 216.347 290.275 216.26 290.403C216.173 290.531 216.06 290.64 215.929 290.722C202.396 298.119 185.382 302.575 166.724 303.609C163.983 303.739 161.234 303.826 158.485 303.826ZM116.803 296.236C131.97 300.892 149.641 302.941 166.621 301.997C184.939 300.984 201.632 296.639 214.919 289.431C215.356 287.708 216.064 276.797 213.063 259.814C210.28 244.113 203.586 219.538 187.5 191.631C179.719 178.13 176.116 167.168 175.069 153.793C174.192 142.612 172.01 129.105 162.854 123.866C157.467 120.786 151.876 120.335 147.104 122.594C141.396 125.298 137.462 131.483 136.028 140.008C134.729 147.747 134.915 154.963 135.098 161.94C135.307 170.06 135.527 178.458 133.33 187.461C132.036 192.763 129.947 197.988 127.927 203.036C126.241 207.251 124.496 211.609 123.235 215.978C120.454 225.73 118.284 235.646 116.737 245.669C113.839 264.024 113.863 281.028 116.803 296.236Z" fill="#5D7183"/>
<path d="M109.995 288.981C109.865 288.981 109.737 288.949 109.621 288.887C109.506 288.826 109.408 288.738 109.335 288.629C109.263 288.521 109.217 288.397 109.204 288.267C109.191 288.138 109.209 288.007 109.258 287.886C112.148 280.757 109.184 273.287 106.316 266.063C105.703 264.515 105.123 263.054 104.598 261.591C100.574 250.382 102.103 237.578 108.906 225.537C111.793 220.423 115.326 215.652 118.741 211.036C122.428 206.058 126.238 200.912 129.207 195.366C129.255 195.273 129.322 195.19 129.403 195.122C129.484 195.054 129.577 195.003 129.678 194.972C129.778 194.941 129.884 194.93 129.989 194.94C130.094 194.95 130.196 194.981 130.289 195.03C130.382 195.08 130.464 195.148 130.53 195.229C130.597 195.311 130.646 195.405 130.676 195.506C130.706 195.607 130.716 195.713 130.704 195.818C130.693 195.923 130.66 196.024 130.609 196.117C127.587 201.763 123.741 206.959 120.021 211.983C116.633 216.558 113.129 221.29 110.29 226.319C107.135 231.902 105.136 237.618 104.343 243.309C103.468 249.279 104.07 255.372 106.096 261.055C106.61 262.495 107.185 263.945 107.795 265.477C110.64 272.635 113.863 280.768 110.732 288.485C110.673 288.632 110.571 288.757 110.439 288.845C110.308 288.934 110.154 288.981 109.995 288.981Z" fill="#5D7183"/>
<path d="M228.396 222.043C226.751 222.038 225.11 221.898 223.489 221.624C210.13 219.424 196.221 209 190.412 196.843C190.362 196.748 190.331 196.644 190.321 196.537C190.312 196.43 190.325 196.322 190.358 196.22C190.392 196.118 190.446 196.023 190.517 195.943C190.588 195.862 190.674 195.797 190.771 195.75C190.868 195.704 190.974 195.678 191.081 195.673C191.189 195.669 191.296 195.686 191.396 195.725C191.497 195.763 191.588 195.821 191.666 195.896C191.743 195.97 191.805 196.06 191.846 196.159C197.448 207.882 210.865 217.934 223.743 220.055C228.87 220.901 236.07 220.795 241.24 215.493C248.472 208.07 250.72 196.223 246.836 186.011C243.453 177.125 236.333 171.659 227.295 171.014C227.191 171.007 227.089 170.979 226.996 170.932C226.902 170.885 226.819 170.821 226.751 170.742C226.682 170.663 226.63 170.571 226.597 170.472C226.564 170.372 226.551 170.268 226.558 170.163C226.566 170.059 226.594 169.957 226.641 169.864C226.687 169.77 226.752 169.687 226.831 169.618C226.91 169.55 227.002 169.498 227.101 169.465C227.2 169.432 227.305 169.419 227.409 169.426C232.425 169.787 236.86 171.499 240.59 174.524C243.973 177.265 246.648 181.043 248.32 185.444C252.422 196.225 250.036 208.746 242.38 216.603C238.875 220.201 234.101 222.043 228.396 222.043Z" fill="#5D7183"/>
<path d="M6.73366 220.002H103.898C107.177 220.002 109.836 217.343 109.836 214.064L109.836 45.3309C109.836 42.0513 107.177 39.3927 103.898 39.3927H6.73366C3.45407 39.3927 0.795433 42.0513 0.795433 45.3309L0.795433 214.064C0.795433 217.343 3.45407 220.002 6.73366 220.002Z" fill="white"/>
<path d="M103.898 220.8H6.73351C4.94832 220.798 3.23685 220.088 1.97453 218.825C0.712203 217.563 0.00210477 215.852 0 214.066V45.3336C0.00140418 43.5481 0.711278 41.8363 1.97375 40.5738C3.23623 39.3113 4.9481 38.6014 6.73351 38.6H103.898C105.683 38.6014 107.395 39.3113 108.657 40.5738C109.92 41.8363 110.63 43.5481 110.631 45.3336V214.066C110.629 215.852 109.919 217.563 108.657 218.825C107.394 220.088 105.683 220.798 103.898 220.8ZM6.73351 40.1906C5.36996 40.192 4.06265 40.7343 3.09847 41.6985C2.13429 42.6627 1.592 43.97 1.59059 45.3336V214.066C1.592 215.43 2.13429 216.737 3.09847 217.701C4.06265 218.666 5.36996 219.208 6.73351 219.209H103.898C105.261 219.208 106.568 218.666 107.533 217.701C108.497 216.737 109.039 215.43 109.041 214.066V45.3336C109.039 43.97 108.497 42.6627 107.533 41.6985C106.568 40.7343 105.261 40.192 103.898 40.1906H6.73351Z" fill="#5D7183"/>
<path d="M55.3164 131.292C77.0173 131.292 94.6094 113.692 94.6094 91.9804C94.6094 70.2692 77.0173 52.6688 55.3164 52.6688C33.6155 52.6688 16.0234 70.2692 16.0234 91.9804C16.0234 113.692 33.6155 131.292 55.3164 131.292Z" fill="#F8F8F8"/>
<path d="M68.6886 112.716C68.072 110.557 67.7116 108.333 67.6149 106.089C67.3896 99.9917 68.3731 93.8944 67.5592 87.8183C66.7639 81.9199 63.254 74.3115 56.2819 74.513C49.9593 74.6959 45.617 80.1199 44.5937 85.9706C43.1807 94.0694 44.6229 102.407 43.5519 110.553C43.2661 112.863 42.7145 115.132 41.9083 117.316C39.859 122.729 36.6991 127.636 34.5385 133.002C29.8728 144.576 27.5903 156.985 27.5664 169.456C27.5664 171.02 27.7069 191.321 27.6512 191.324C28.7302 191.276 29.886 190.117 30.8801 189.675C39.6602 185.746 49.8612 184.871 59.3544 184.142C67.0927 183.548 75.4857 184.566 82.9297 181.947C82.9297 181.947 84.0272 166.433 83.725 161.511C83.2107 153.481 81.9276 145.493 79.4834 137.816C78.1579 133.67 76.8828 129.267 74.6188 125.537C72.1958 121.547 69.9584 117.263 68.6886 112.716Z" fill="#EEEEEE"/>
<path d="M70.3556 125.949C70.3592 122.544 67.6037 119.78 64.2012 119.777C60.7986 119.773 58.0374 122.531 58.0338 125.937C58.0302 129.342 60.7857 132.106 64.1882 132.109C67.5908 132.113 70.352 129.355 70.3556 125.949Z" fill="white"/>
<path d="M46.3186 121.541C46.3227 118.136 43.5678 115.372 40.1652 115.367C36.7626 115.363 34.001 118.121 33.9968 121.526C33.9926 124.932 36.7476 127.696 40.1501 127.7C43.5527 127.704 46.3144 124.947 46.3186 121.541Z" fill="white"/>
<path d="M67.8259 96.3837C68.1732 79.7885 63.017 74.5872 56.2809 74.6243C49.5447 74.6615 43.4951 80.2895 43.5561 92.6988C43.5561 92.9851 43.5773 96.0788 43.58 96.5851C43.5959 99.7266 43.9087 111.121 43.8769 111.895C43.8027 113.636 47.4849 115.98 48.699 116.855C50.9162 118.502 53.6008 119.4 56.3631 119.418C60.541 119.418 65.1113 119.315 68.3561 111.465C68.5974 110.882 67.8206 96.6859 67.8259 96.3837Z" fill="white"/>
<path d="M56.3483 120.566C53.4293 120.537 50.5941 119.587 48.2469 117.851L47.8333 117.562C46.8418 116.865 45.3414 115.815 44.5726 114.599C44.4597 114.42 44.4223 114.205 44.4686 113.999C44.5148 113.793 44.6409 113.614 44.8191 113.501C44.9974 113.388 45.2131 113.351 45.4189 113.397C45.6248 113.443 45.8038 113.569 45.9166 113.748C46.5158 114.697 47.8572 115.635 48.7452 116.258C48.9017 116.367 49.0475 116.468 49.1747 116.56C51.2537 118.101 53.766 118.946 56.3536 118.975H56.3721C59.5851 118.975 65.1893 116.767 66.3187 113.459C66.3508 113.358 66.4026 113.265 66.4712 113.184C66.5398 113.104 66.6238 113.038 66.7181 112.99C66.8125 112.943 66.9154 112.914 67.0208 112.907C67.1263 112.9 67.2321 112.913 67.3322 112.947C67.4323 112.981 67.5246 113.035 67.6037 113.105C67.6828 113.175 67.7472 113.26 67.793 113.356C67.8388 113.451 67.8652 113.554 67.8706 113.66C67.876 113.765 67.8603 113.871 67.8244 113.97C66.4353 118.048 60.2187 120.561 56.3748 120.566H56.3483Z" fill="#5D7183"/>
<path d="M59.3801 101.919C59.115 103.422 57.9167 104.472 56.6867 104.26C55.7668 104.103 55.1597 103.297 54.9556 102.431C54.6719 101.232 54.5367 99.989 54.3564 98.7669L59.0752 98.629C59.1968 98.6145 59.3199 98.6347 59.4304 98.6874C59.624 98.7987 59.6505 99.0638 59.6505 99.2865C59.6337 100.17 59.5433 101.05 59.3801 101.919Z" fill="#5D7183"/>
<path d="M59.6847 87.5744C59.9869 87.0787 59.7244 86.3735 60.0585 85.899L60.5516 87.3199C60.575 87.413 60.6215 87.4987 60.6868 87.5691C60.7807 87.6354 60.8926 87.6715 61.0075 87.6725C63.0992 87.9138 65.1166 87.4472 67.2533 87.8183C67.3236 87.8235 67.3913 87.8473 67.4494 87.8873C67.5084 87.9459 67.549 88.0206 67.5661 88.102C68.4223 90.8166 67.7914 94.0322 67.7066 96.8503C67.7066 96.9616 68.8651 96.3201 68.9897 96.222C69.4879 95.7569 69.9149 95.221 70.2568 94.6314C70.9507 93.4852 71.4471 92.2306 71.7255 90.92C72.6162 86.9196 72.5208 82.5111 70.4 78.9004C67.9505 74.733 62.9268 71.5306 58.3115 70.4835C61.3018 70.2555 65.8668 69.7227 67.8312 67.0929C68.4196 66.2591 68.7755 65.2837 68.8624 64.2669C69.4933 58.501 64.2311 55.6936 59.2393 55.1767C54.6929 54.7048 45.7855 55.972 44.3328 61.2448C44.0461 62.3933 44.13 63.603 44.5723 64.701C45.0146 65.799 45.7928 66.729 46.7956 67.358C48.5108 68.3786 51.9915 70.5657 54.0036 70.6399C51.676 70.0912 49.4492 71.475 47.7022 72.8694C44.9187 75.0936 42.4824 77.8294 41.3531 81.2651C39.9958 85.4086 40.0435 89.7668 41.6818 93.7804C42.0582 94.7003 42.5248 95.6494 43.3599 96.1849C43.9723 94.7719 43.9166 93.8281 43.8901 92.3833C43.8583 90.6231 44.2983 88.8655 44.2983 87.1079C44.2983 87.7255 47.7446 87.9217 48.2271 87.9032C48.2869 87.9059 48.3462 87.8902 48.3968 87.8581C48.4452 87.812 48.4777 87.7516 48.4896 87.6858C48.9403 86.2009 49.2614 84.6797 49.4492 83.1393C49.3957 84.4517 49.4338 85.7663 49.5632 87.0734C49.5612 87.232 49.6157 87.3861 49.717 87.5082C49.8018 87.5751 49.902 87.6198 50.0086 87.6381C50.4845 87.7999 50.9852 87.8771 51.4878 87.866C54.2183 87.6646 56.9568 87.7706 59.6847 87.5744Z" fill="#FFAC98"/>
<path d="M38.2625 125.963C38.137 125.964 38.0132 125.934 37.902 125.876C37.7165 125.78 37.5762 125.615 37.5112 125.417C37.4462 125.218 37.4618 125.002 37.5547 124.816C38.9518 122.085 40.1871 119.617 41.1654 117.035C41.9494 114.909 42.4832 112.699 42.756 110.45C43.2517 106.693 43.2013 102.804 43.1536 99.0506C43.0979 94.7109 43.0423 90.2254 43.8057 85.846C44.3256 82.7532 45.7371 79.8795 47.8671 77.5775C50.1708 75.1519 53.071 73.8211 56.2521 73.7283C59.6507 73.6302 62.6384 75.2579 64.8811 78.4312C66.6175 80.8833 67.8794 84.2633 68.3406 87.7229C68.8364 91.4184 68.6773 95.1457 68.5236 98.7775C68.4202 101.163 68.3141 103.653 68.4043 106.07C68.5015 108.249 68.8538 110.408 69.4541 112.504C70.4455 116.051 72.1051 119.739 74.6898 124.11C74.7532 124.201 74.7971 124.303 74.8189 124.411C74.8406 124.519 74.8396 124.631 74.8159 124.738C74.7923 124.846 74.7465 124.948 74.6815 125.037C74.6165 125.126 74.5336 125.2 74.4383 125.256C74.3429 125.311 74.2371 125.346 74.1275 125.358C74.0179 125.37 73.907 125.36 73.8018 125.327C73.6966 125.294 73.5993 125.239 73.5162 125.167C73.4332 125.094 73.3661 125.005 73.3192 124.906C70.6682 120.399 68.953 116.603 67.9218 112.918C67.2879 110.695 66.9177 108.406 66.819 106.097C66.7288 103.616 66.8349 101.105 66.9383 98.6741C67.092 95.1271 67.2484 91.4581 66.7713 87.9005C66.3418 84.6954 65.1807 81.5646 63.5901 79.3139C61.639 76.5569 59.1815 75.2023 56.3052 75.2844C51.9284 75.4117 46.6423 78.8447 45.3778 86.0846C44.6382 90.3262 44.6965 94.7295 44.7495 98.9949C44.7999 102.815 44.8502 106.765 44.3386 110.635C44.0486 113.006 43.4828 115.334 42.6526 117.573C41.6452 120.224 40.3886 122.742 38.973 125.526C38.9067 125.658 38.8052 125.768 38.6797 125.845C38.5543 125.923 38.4098 125.963 38.2625 125.963Z" fill="#5D7183"/>
<path d="M51.6935 70.6426C51.8234 70.9368 52.1919 71.0217 52.51 71.0694C53.7003 71.247 60.9507 72.3233 59.49 70.0567C58.2944 68.2063 51.1129 69.3383 51.6935 70.6426Z" fill="#5D7183"/>
<path d="M55.3158 132.087C33.2119 132.087 15.2275 114.095 15.2275 91.9804C15.2275 69.8658 33.2119 51.8735 55.3158 51.8735C77.4198 51.8735 95.4067 69.8658 95.4067 91.9804C95.4067 114.095 77.4224 132.087 55.3158 132.087ZM55.3158 53.4641C34.0867 53.4641 16.8181 70.7406 16.8181 91.9804C16.8181 113.22 34.0867 130.497 55.3158 130.497C76.5449 130.497 93.8161 113.22 93.8161 91.9804C93.8161 70.7406 76.5449 53.4641 55.3158 53.4641Z" fill="#5D7183"/>
<path d="M35.0914 188.773H23.5623C22.6121 188.773 21.8418 189.544 21.8418 190.494V202.023C21.8418 202.973 22.6121 203.743 23.5623 203.743H35.0914C36.0416 203.743 36.8119 202.973 36.8119 202.023V190.494C36.8119 189.544 36.0416 188.773 35.0914 188.773Z" fill="white"/>
<path d="M35.0918 204.539H23.5627C22.8956 204.538 22.2562 204.273 21.7845 203.801C21.3129 203.329 21.0476 202.69 21.0469 202.023V190.494C21.0476 189.827 21.3129 189.187 21.7845 188.716C22.2562 188.244 22.8956 187.979 23.5627 187.978H35.0918C35.7588 187.979 36.3983 188.244 36.87 188.716C37.3416 189.187 37.6069 189.827 37.6076 190.494V202.028C37.6055 202.694 37.3396 203.332 36.8681 203.803C36.3966 204.273 35.7579 204.538 35.0918 204.539ZM23.5627 189.569C23.3173 189.569 23.082 189.666 22.9084 189.84C22.7349 190.013 22.6375 190.248 22.6375 190.494V202.028C22.6375 202.274 22.7349 202.509 22.9084 202.682C23.082 202.856 23.3173 202.953 23.5627 202.953H35.0918C35.3372 202.953 35.5725 202.856 35.746 202.682C35.9195 202.509 36.017 202.274 36.017 202.028V190.494C36.017 190.248 35.9195 190.013 35.746 189.84C35.5725 189.666 35.3372 189.569 35.0918 189.569H23.5627Z" fill="#5D7183"/>
<path d="M35.0914 166.256H23.5623C22.6121 166.256 21.8418 167.026 21.8418 167.976V179.505C21.8418 180.456 22.6121 181.226 23.5623 181.226H35.0914C36.0416 181.226 36.8119 180.456 36.8119 179.505V167.976C36.8119 167.026 36.0416 166.256 35.0914 166.256Z" fill="white"/>
<path d="M35.0914 143.741H23.5623C22.6121 143.741 21.8418 144.511 21.8418 145.461V156.991C21.8418 157.941 22.6121 158.711 23.5623 158.711H35.0914C36.0416 158.711 36.8119 157.941 36.8119 156.991V145.461C36.8119 144.511 36.0416 143.741 35.0914 143.741Z" fill="white"/>
<path d="M88.789 199.449H50.3842C50.1732 199.449 49.971 199.365 49.8218 199.216C49.6727 199.067 49.5889 198.864 49.5889 198.654C49.5889 198.443 49.6727 198.24 49.8218 198.091C49.971 197.942 50.1732 197.858 50.3842 197.858H88.789C89 197.858 89.2023 197.942 89.3514 198.091C89.5006 198.24 89.5843 198.443 89.5843 198.654C89.5843 198.864 89.5006 199.067 89.3514 199.216C89.2023 199.365 89 199.449 88.789 199.449Z" fill="#5D7183"/>
<path d="M33.7042 159.475H24.956C23.9212 159.474 22.9291 159.063 22.1974 158.331C21.4658 157.599 21.0544 156.607 21.0537 155.572V146.824C21.0523 145.789 21.4616 144.796 22.1916 144.062C22.9217 143.329 23.913 142.915 24.948 142.911H33.6963C34.209 142.91 34.7168 143.01 35.1905 143.206C35.6642 143.402 36.0943 143.69 36.456 144.054C36.6054 144.203 36.6894 144.405 36.6897 144.616C36.6899 144.827 36.6063 145.03 36.4573 145.179C36.3082 145.329 36.1059 145.413 35.8949 145.413C35.6838 145.413 35.4813 145.33 35.3319 145.18C35.1177 144.965 34.8629 144.794 34.5821 144.677C34.3013 144.561 34.0002 144.501 33.6963 144.502H24.948C24.3351 144.503 23.7476 144.746 23.3142 145.18C22.8808 145.613 22.6371 146.201 22.6364 146.813V155.562C22.6371 156.175 22.8808 156.762 23.3142 157.196C23.7476 157.629 24.3351 157.873 24.948 157.873H33.6963C34.3092 157.873 34.8967 157.629 35.3301 157.196C35.7635 156.762 36.0072 156.175 36.0079 155.562V151.394C36.0079 151.183 36.0917 150.981 36.2409 150.832C36.39 150.683 36.5923 150.599 36.8032 150.599C37.0142 150.599 37.2165 150.683 37.3656 150.832C37.5147 150.981 37.5985 151.183 37.5985 151.394V155.575C37.5964 156.608 37.1856 157.598 36.4559 158.328C35.7262 159.059 34.7369 159.471 33.7042 159.475Z" fill="#5D7183"/>
<path d="M88.789 154.385H50.3842C50.1732 154.385 49.971 154.301 49.8218 154.152C49.6727 154.003 49.5889 153.8 49.5889 153.589C49.5889 153.378 49.6727 153.176 49.8218 153.027C49.971 152.878 50.1732 152.794 50.3842 152.794H88.789C89 152.794 89.2023 152.878 89.3514 153.027C89.5006 153.176 89.5843 153.378 89.5843 153.589C89.5843 153.8 89.5006 154.003 89.3514 154.152C89.2023 154.301 89 154.385 88.789 154.385Z" fill="#5D7183"/>
<path d="M30.0652 155.23C29.8922 155.231 29.7237 155.175 29.5853 155.071C27.5896 153.555 25.9084 151.664 24.6359 149.504C24.5514 149.324 24.5374 149.119 24.5968 148.929C24.6562 148.739 24.7846 148.578 24.9567 148.478C25.1288 148.379 25.3321 148.347 25.5264 148.389C25.7208 148.432 25.8921 148.546 26.0065 148.709C27.0494 150.471 28.3904 152.039 29.9697 153.343C32.9981 149.976 36.4132 146.978 40.1442 144.412C40.318 144.3 40.5284 144.26 40.7309 144.301C40.9334 144.342 41.1121 144.46 41.2292 144.63C41.3463 144.8 41.3926 145.009 41.3583 145.213C41.3241 145.416 41.2119 145.599 41.0455 145.721C37.2153 148.357 33.7281 151.46 30.6643 154.957C30.5897 155.043 30.4976 155.112 30.3943 155.159C30.291 155.206 30.1787 155.23 30.0652 155.23Z" fill="#5D7183"/>
<path d="M33.7042 182.008H24.956C23.921 182.007 22.9289 181.595 22.1973 180.863C21.4657 180.13 21.0544 179.138 21.0537 178.103V169.355C21.053 168.32 21.4626 167.328 22.1926 166.595C22.9226 165.862 23.9135 165.448 24.948 165.445H33.6963C34.2091 165.444 34.7171 165.544 35.1907 165.741C35.6644 165.938 36.0944 166.226 36.456 166.59C36.5341 166.663 36.5968 166.75 36.6402 166.848C36.6837 166.946 36.7071 167.051 36.709 167.158C36.7108 167.264 36.6912 167.37 36.6512 167.47C36.6112 167.569 36.5517 167.659 36.4761 167.734C36.4006 167.81 36.3107 167.869 36.2116 167.909C36.1126 167.949 36.0065 167.969 35.8998 167.967C35.793 167.965 35.6877 167.942 35.5901 167.898C35.4925 167.855 35.4047 167.792 35.3319 167.714C35.1177 167.498 34.8629 167.327 34.5821 167.211C34.3013 167.094 34.0002 167.035 33.6963 167.035H24.948C24.3349 167.037 23.7473 167.281 23.314 167.715C22.8807 168.149 22.6371 168.736 22.6364 169.349V178.098C22.6371 178.711 22.8807 179.299 23.314 179.733C23.7473 180.166 24.3349 180.411 24.948 180.412H33.6963C34.3094 180.411 34.897 180.166 35.3303 179.733C35.7635 179.299 36.0072 178.711 36.0079 178.098V173.928C36.0079 173.717 36.0917 173.515 36.2409 173.365C36.39 173.216 36.5923 173.132 36.8032 173.132C37.0142 173.132 37.2165 173.216 37.3656 173.365C37.5147 173.515 37.5985 173.717 37.5985 173.928V178.106C37.5964 179.139 37.1857 180.129 36.4561 180.86C35.7264 181.591 34.7372 182.004 33.7042 182.008Z" fill="#5D7183"/>
<path d="M88.789 176.915H50.3842C50.1732 176.915 49.971 176.832 49.8218 176.682C49.6727 176.533 49.5889 176.331 49.5889 176.12C49.5889 175.909 49.6727 175.707 49.8218 175.558C49.971 175.409 50.1732 175.325 50.3842 175.325H88.789C89 175.325 89.2023 175.409 89.3514 175.558C89.5006 175.707 89.5843 175.909 89.5843 176.12C89.5843 176.331 89.5006 176.533 89.3514 176.682C89.2023 176.832 89 176.915 88.789 176.915Z" fill="#5D7183"/>
<path d="M30.0652 177.764C29.8919 177.764 29.7234 177.707 29.5853 177.602C27.5909 176.09 25.9099 174.205 24.6359 172.051C24.5514 171.871 24.5374 171.665 24.5968 171.476C24.6562 171.286 24.7846 171.125 24.9567 171.025C25.1288 170.925 25.3321 170.893 25.5264 170.936C25.7208 170.979 25.8921 171.093 26.0065 171.256C27.0486 173.019 28.3897 174.588 29.9697 175.892C32.9981 172.524 36.4132 169.526 40.1442 166.958C40.318 166.847 40.5284 166.807 40.7309 166.848C40.9334 166.888 41.1121 167.006 41.2292 167.176C41.3463 167.347 41.3926 167.556 41.3583 167.759C41.3241 167.963 41.2119 168.145 41.0455 168.268C37.2154 170.904 33.7282 174.007 30.6643 177.504C30.5885 177.587 30.4959 177.653 30.3926 177.698C30.2893 177.743 30.1777 177.765 30.0652 177.764Z" fill="#5D7183"/>
<path d="M308.596 220.002H405.76C409.04 220.002 411.698 217.343 411.698 214.064V45.3309C411.698 42.0513 409.04 39.3927 405.76 39.3927H308.596C305.316 39.3927 302.658 42.0513 302.658 45.3309V214.064C302.658 217.343 305.316 220.002 308.596 220.002Z" fill="white"/>
<path d="M405.761 220.8H308.597C306.812 220.798 305.1 220.088 303.838 218.825C302.575 217.563 301.865 215.852 301.863 214.066V45.3336C301.865 43.5481 302.575 41.8363 303.837 40.5738C305.1 39.3113 306.811 38.6014 308.597 38.6H405.761C407.546 38.6014 409.258 39.3113 410.521 40.5738C411.783 41.8363 412.493 43.5481 412.494 45.3336V214.066C412.492 215.852 411.782 217.563 410.52 218.825C409.258 220.088 407.546 220.798 405.761 220.8ZM308.597 40.1906C307.233 40.192 305.926 40.7343 304.962 41.6985C303.998 42.6627 303.455 43.97 303.454 45.3336V214.066C303.455 215.43 303.998 216.737 304.962 217.701C305.926 218.666 307.233 219.208 308.597 219.209H405.761C407.124 219.208 408.432 218.666 409.396 217.701C410.36 216.737 410.902 215.43 410.904 214.066V45.3336C410.902 43.97 410.36 42.6627 409.396 41.6985C408.432 40.7343 407.124 40.192 405.761 40.1906H308.597Z" fill="#5D7183"/>
<path d="M357.179 131.249C378.88 131.249 396.472 113.657 396.472 91.9565C396.472 70.2556 378.88 52.6635 357.179 52.6635C335.478 52.6635 317.886 70.2556 317.886 91.9565C317.886 113.657 335.478 131.249 357.179 131.249Z" fill="#F8F8F8"/>
<path d="M338.746 171.696C337.792 171.627 337.405 166.394 337.264 165.577C335.673 156.513 335.631 146.36 337.307 137.212C339.104 127.403 341.548 119.588 343.536 110.034C344.546 105.15 343.955 99.5595 344.029 94.573C344.098 89.8436 343.719 84.8386 345.355 80.3425C346.927 76.0532 350.188 71.1462 355.254 70.9633C362.043 70.7194 367.875 79.6002 368.278 90.8006C368.278 91.0657 368.334 92.3647 368.35 92.8074C368.472 96.2166 368.88 99.4084 368.933 102.82C368.933 103.719 369.614 107.547 369.702 107.87C371.465 114.328 382.326 118.021 385.531 136.525C385.541 136.53 344.788 172.136 338.746 171.696Z" fill="white"/>
<path d="M359.655 66.4248C365.278 67.342 370.45 69.2004 373.599 75.0591C376.452 80.361 375.847 86.8931 374.076 92.651C373.642 94.0693 372.438 97.7674 370.582 98.0113C368.435 98.295 369.382 97.1551 368.485 95.4372C366.685 91.9909 366.423 88.0145 363.518 85.0613C359.377 80.8674 354.671 84.0141 349.997 83.7835C347.376 83.6562 344.608 82.1929 342.75 80.4035C336.594 74.4811 339.924 67.7688 341.159 60.8418C343.169 63.347 346.074 64.5903 349.197 65.0993C352.611 65.656 356.217 65.8654 359.655 66.4248Z" fill="#96E296"/>
<path d="M353.982 123.22C347.619 123.22 341.421 121.815 334.701 118.875L335.974 115.959C350.448 122.286 362.818 121.332 381.616 112.433L382.976 115.309C372.902 120.081 364.724 122.549 357.213 123.1C356.13 123.18 355.053 123.22 353.982 123.22Z" fill="#EEEEEE"/>
<path d="M355.358 130.539C348.131 130.539 341.265 128.72 333.821 125.157L335.195 122.289C343.619 126.319 350.835 127.843 358.603 127.228C366.529 126.602 375.15 123.758 386.555 118.01L387.986 120.852C375.06 127.366 364.899 130.539 355.358 130.539Z" fill="#EEEEEE"/>
<path d="M379.341 121.968C379.206 121.969 379.074 121.935 378.957 121.871C378.839 121.806 378.739 121.713 378.667 121.6C376.422 118.021 373.771 114.713 370.767 111.741L370.105 112.287L370.081 112.305C365.766 115.583 360.472 117.306 355.055 117.197C350.548 117.13 346.222 115.799 343.77 113.724C343.69 113.656 343.624 113.574 343.576 113.481C343.529 113.388 343.5 113.286 343.491 113.182C343.482 113.078 343.494 112.973 343.526 112.874C343.558 112.774 343.609 112.682 343.677 112.602C343.744 112.523 343.827 112.457 343.92 112.409C344.013 112.361 344.114 112.332 344.218 112.324C344.322 112.315 344.427 112.327 344.527 112.359C344.626 112.391 344.718 112.442 344.798 112.51C348.602 115.728 359.972 117.992 369.105 111.046L370.301 110.06C370.451 109.934 370.642 109.868 370.838 109.875C371.033 109.881 371.22 109.959 371.361 110.095C374.672 113.276 377.579 116.853 380.017 120.744C380.093 120.864 380.136 121.002 380.14 121.144C380.145 121.286 380.112 121.427 380.043 121.552C379.975 121.677 379.875 121.781 379.752 121.854C379.63 121.926 379.491 121.965 379.349 121.966L379.341 121.968Z" fill="#5D7183"/>
<path d="M340.271 124.619C340.208 124.619 340.145 124.611 340.083 124.595C339.879 124.545 339.703 124.416 339.593 124.236C339.484 124.056 339.45 123.84 339.5 123.636L339.741 122.642C340.677 118.8 342.244 112.372 342.761 109.885C343.458 106.513 343.37 102.727 343.291 99.0823C343.256 97.5872 343.222 96.0417 343.243 94.5757C343.243 93.7247 343.243 92.8472 343.243 91.9963C343.243 88.0198 343.225 83.8975 344.619 80.0827C345.449 77.8188 348.662 70.4172 355.223 70.1813C358.791 70.054 362.206 72.1801 364.825 76.1672C367.362 80.035 368.87 85.2256 369.066 90.7847L369.138 92.7942C369.191 94.2841 369.305 95.7633 369.403 97.1948C369.544 99.0134 369.689 100.906 369.711 102.823C369.711 103.618 370.363 107.33 370.453 107.677C370.48 107.778 370.486 107.883 370.472 107.987C370.458 108.091 370.424 108.191 370.371 108.281C370.318 108.371 370.248 108.451 370.165 108.514C370.082 108.577 369.987 108.623 369.886 108.65C369.684 108.703 369.469 108.674 369.288 108.571C369.107 108.467 368.974 108.296 368.918 108.096C368.828 107.77 368.123 103.854 368.123 102.844C368.101 100.967 367.958 99.1115 367.82 97.3168C367.709 95.8694 367.595 94.3742 367.539 92.8499L367.468 90.8431C367.277 85.5703 365.861 80.6686 363.491 77.0394C361.19 73.5348 358.274 71.6632 355.273 71.7718C353.86 71.8222 349.028 72.6096 346.093 80.6288C344.794 84.1785 344.805 88.1497 344.812 91.9936C344.812 92.8499 344.812 93.7353 344.812 94.5995C344.791 96.0337 344.812 97.4971 344.86 99.0452C344.948 102.788 345.038 106.659 344.304 110.206C343.773 112.722 342.212 119.166 341.273 123.018L341.032 124.012C340.991 124.183 340.893 124.336 340.755 124.446C340.618 124.556 340.448 124.617 340.271 124.619Z" fill="#5D7183"/>
<path d="M353.797 101.845C352.276 101.845 351.027 100.784 350.473 99.0081C350.411 98.8063 350.431 98.5881 350.53 98.4014C350.628 98.2147 350.797 98.0749 350.999 98.0127C351.201 97.9504 351.419 97.9709 351.606 98.0696C351.792 98.1683 351.932 98.3371 351.995 98.5389C352.169 99.1115 352.726 100.424 354.062 100.236C354.391 100.18 354.698 100.034 354.948 99.8124C355.198 99.5911 355.381 99.3042 355.475 98.9842C355.503 98.8834 355.55 98.789 355.614 98.7065C355.678 98.6239 355.758 98.5548 355.849 98.5031C355.94 98.4514 356.04 98.4181 356.144 98.4051C356.247 98.3922 356.353 98.3998 356.453 98.4275C356.657 98.4833 356.829 98.6173 356.934 98.8002C357.038 98.9831 357.065 99.1999 357.01 99.4031C356.836 100.024 356.486 100.582 356.003 101.009C355.519 101.436 354.923 101.714 354.285 101.81C354.123 101.832 353.96 101.844 353.797 101.845Z" fill="#5D7183"/>
<path d="M357.178 132.042C335.071 132.042 317.09 114.058 317.09 91.9538C317.09 69.8499 335.085 51.8656 357.178 51.8656C379.271 51.8656 397.266 69.8499 397.266 91.9565C397.266 114.063 379.282 132.042 357.178 132.042ZM357.178 53.4535C335.949 53.4535 318.68 70.7247 318.68 91.9538C318.68 113.183 335.949 130.452 357.178 130.452C378.407 130.452 395.676 113.18 395.676 91.9538C395.676 70.7274 378.407 53.4562 357.178 53.4562V53.4535Z" fill="#5D7183"/>
<path d="M336.954 167.351H325.425C324.474 167.351 323.704 168.121 323.704 169.071V180.6C323.704 181.55 324.474 182.321 325.425 182.321H336.954C337.904 182.321 338.674 181.55 338.674 180.6V169.071C338.674 168.121 337.904 167.351 336.954 167.351Z" fill="white"/>
<path d="M336.954 183.116H325.422C324.756 183.115 324.117 182.85 323.646 182.379C323.175 181.908 322.91 181.269 322.909 180.603V169.071C322.91 168.405 323.175 167.765 323.646 167.294C324.117 166.822 324.756 166.557 325.422 166.555H336.954C337.621 166.556 338.261 166.821 338.732 167.293C339.204 167.765 339.469 168.404 339.47 169.071V180.603C339.469 181.269 339.203 181.908 338.731 182.379C338.26 182.85 337.621 183.115 336.954 183.116ZM325.422 168.146C325.177 168.147 324.943 168.244 324.77 168.418C324.597 168.591 324.5 168.826 324.5 169.071V180.603C324.5 180.848 324.597 181.082 324.77 181.255C324.943 181.428 325.178 181.525 325.422 181.525H336.954C337.199 181.525 337.434 181.428 337.607 181.255C337.781 181.082 337.879 180.848 337.879 180.603V169.071C337.879 168.826 337.781 168.591 337.608 168.418C337.434 168.244 337.199 168.147 336.954 168.146H325.422Z" fill="#5D7183"/>
<path d="M336.954 144.836H325.425C324.474 144.836 323.704 145.606 323.704 146.556V158.085C323.704 159.036 324.474 159.806 325.425 159.806H336.954C337.904 159.806 338.674 159.036 338.674 158.085V146.556C338.674 145.606 337.904 144.836 336.954 144.836Z" fill="white"/>
<path d="M335.566 160.569H326.817C325.783 160.568 324.791 160.156 324.06 159.425C323.328 158.693 322.916 157.702 322.915 156.667V147.919C322.916 146.884 323.327 145.892 324.059 145.16C324.79 144.429 325.783 144.017 326.817 144.017H335.566C336.079 144.015 336.587 144.115 337.061 144.312C337.535 144.508 337.966 144.796 338.328 145.159C338.477 145.309 338.561 145.511 338.56 145.722C338.56 145.933 338.476 146.136 338.327 146.285C338.177 146.434 337.975 146.517 337.764 146.517C337.553 146.517 337.35 146.433 337.201 146.283C336.987 146.068 336.732 145.898 336.451 145.782C336.17 145.666 335.869 145.607 335.566 145.607H326.817C326.204 145.608 325.617 145.852 325.183 146.285C324.75 146.718 324.506 147.306 324.506 147.919V156.667C324.506 157.28 324.75 157.868 325.183 158.301C325.617 158.734 326.204 158.978 326.817 158.979H335.566C336.179 158.978 336.767 158.734 337.2 158.301C337.634 157.868 337.878 157.28 337.88 156.667V152.487C337.88 152.276 337.964 152.073 338.113 151.924C338.262 151.775 338.464 151.691 338.675 151.691C338.886 151.691 339.088 151.775 339.238 151.924C339.387 152.073 339.47 152.276 339.47 152.487V156.667C339.468 157.702 339.056 158.694 338.324 159.425C337.592 160.157 336.6 160.568 335.566 160.569Z" fill="#5D7183"/>
<path d="M390.652 155.48H352.247C352.037 155.48 351.834 155.396 351.685 155.247C351.536 155.097 351.452 154.895 351.452 154.684C351.452 154.473 351.536 154.271 351.685 154.122C351.834 153.973 352.037 153.889 352.247 153.889H390.652C390.863 153.889 391.066 153.973 391.215 154.122C391.364 154.271 391.448 154.473 391.448 154.684C391.448 154.895 391.364 155.097 391.215 155.247C391.066 155.396 390.863 155.48 390.652 155.48Z" fill="#5D7183"/>
<path d="M331.928 156.325C331.755 156.326 331.587 156.27 331.448 156.166C329.452 154.65 327.77 152.759 326.496 150.599C326.412 150.419 326.398 150.214 326.457 150.024C326.517 149.834 326.645 149.673 326.817 149.573C326.989 149.473 327.192 149.442 327.387 149.484C327.581 149.527 327.752 149.641 327.867 149.804C328.915 151.566 330.261 153.134 331.843 154.438C334.873 151.071 338.289 148.074 342.02 145.506C342.106 145.443 342.204 145.398 342.308 145.373C342.411 145.349 342.519 145.345 342.624 145.363C342.729 145.38 342.829 145.419 342.919 145.476C343.009 145.533 343.087 145.608 343.147 145.696C343.208 145.784 343.25 145.883 343.271 145.987C343.292 146.092 343.293 146.199 343.272 146.304C343.251 146.408 343.209 146.507 343.149 146.595C343.089 146.683 343.011 146.758 342.922 146.816C339.091 149.452 335.603 152.555 332.538 156.052C332.462 156.139 332.368 156.209 332.263 156.256C332.158 156.303 332.043 156.327 331.928 156.325Z" fill="#5D7183"/>
<path d="M390.652 178.01H352.247C352.037 178.01 351.834 177.926 351.685 177.777C351.536 177.628 351.452 177.426 351.452 177.215C351.452 177.004 351.536 176.802 351.685 176.653C351.834 176.503 352.037 176.42 352.247 176.42H390.652C390.863 176.42 391.066 176.503 391.215 176.653C391.364 176.802 391.448 177.004 391.448 177.215C391.448 177.426 391.364 177.628 391.215 177.777C391.066 177.926 390.863 178.01 390.652 178.01Z" fill="#5D7183"/>
<path d="M336.954 189.868H325.425C324.474 189.868 323.704 190.638 323.704 191.589V203.118C323.704 204.068 324.474 204.838 325.425 204.838H336.954C337.904 204.838 338.674 204.068 338.674 203.118V191.589C338.674 190.638 337.904 189.868 336.954 189.868Z" fill="white"/>
<path d="M335.566 205.634H326.817C325.782 205.632 324.79 205.22 324.059 204.488C323.327 203.756 322.916 202.764 322.915 201.729V192.98C322.916 191.946 323.327 190.954 324.059 190.222C324.79 189.49 325.783 189.079 326.817 189.078H335.566C336.079 189.077 336.587 189.177 337.061 189.373C337.535 189.569 337.966 189.857 338.328 190.221C338.477 190.37 338.561 190.573 338.56 190.784C338.56 190.995 338.476 191.197 338.327 191.346C338.177 191.495 337.975 191.579 337.764 191.578C337.553 191.578 337.35 191.494 337.201 191.345C336.987 191.129 336.732 190.959 336.451 190.843C336.17 190.727 335.869 190.668 335.566 190.669H326.817C326.204 190.669 325.617 190.913 325.183 191.347C324.75 191.78 324.506 192.368 324.506 192.98V201.729C324.506 202.342 324.75 202.93 325.183 203.363C325.617 203.797 326.204 204.042 326.817 204.043H335.566C336.179 204.042 336.767 203.798 337.201 203.364C337.635 202.93 337.879 202.342 337.88 201.729V197.551C337.88 197.34 337.964 197.137 338.113 196.988C338.262 196.839 338.464 196.755 338.675 196.755C338.886 196.755 339.088 196.839 339.238 196.988C339.387 197.137 339.47 197.34 339.47 197.551V201.729C339.469 202.764 339.057 203.756 338.325 204.488C337.593 205.22 336.601 205.632 335.566 205.634Z" fill="#5D7183"/>
<path d="M390.652 200.544H352.247C352.037 200.544 351.834 200.46 351.685 200.311C351.536 200.162 351.452 199.959 351.452 199.748C351.452 199.537 351.536 199.335 351.685 199.186C351.834 199.037 352.037 198.953 352.247 198.953H390.652C390.863 198.953 391.066 199.037 391.215 199.186C391.364 199.335 391.448 199.537 391.448 199.748C391.448 199.959 391.364 200.162 391.215 200.311C391.066 200.46 390.863 200.544 390.652 200.544Z" fill="#5D7183"/>
<path d="M331.928 201.389C331.755 201.389 331.586 201.332 331.448 201.228C329.453 199.712 327.771 197.823 326.496 195.666C326.412 195.486 326.398 195.28 326.457 195.091C326.517 194.901 326.645 194.74 326.817 194.64C326.989 194.54 327.192 194.508 327.387 194.551C327.581 194.594 327.752 194.708 327.867 194.871C328.915 196.634 330.26 198.203 331.843 199.507C334.873 196.14 338.289 193.141 342.02 190.573C342.108 190.514 342.205 190.473 342.308 190.451C342.411 190.43 342.518 190.429 342.621 190.449C342.724 190.468 342.823 190.508 342.911 190.566C342.999 190.624 343.075 190.698 343.134 190.785C343.193 190.872 343.235 190.97 343.256 191.073C343.277 191.176 343.278 191.283 343.258 191.386C343.239 191.489 343.199 191.588 343.141 191.676C343.083 191.764 343.009 191.84 342.922 191.899C339.091 194.535 335.603 197.637 332.538 201.135C332.46 201.218 332.366 201.284 332.261 201.328C332.155 201.372 332.042 201.393 331.928 201.389Z" fill="#5D7183"/>
<path d="M206.091 11.5122C205.86 11.512 205.636 11.4366 205.452 11.2975C203.429 9.76445 201.725 7.8519 200.434 5.66679C200.3 5.42504 200.265 5.14053 200.338 4.87385C200.411 4.60718 200.585 4.37942 200.823 4.23909C201.061 4.09877 201.344 4.05697 201.613 4.12261C201.881 4.18825 202.114 4.35613 202.26 4.59049C203.245 6.25394 204.499 7.74202 205.972 8.99378C208.972 5.68903 212.345 2.74193 216.022 0.211054C216.136 0.125656 216.266 0.064184 216.405 0.0303194C216.543 -0.00354518 216.687 -0.00910798 216.828 0.0139651C216.969 0.0370382 217.103 0.0882714 217.224 0.1646C217.344 0.240929 217.448 0.340785 217.529 0.458189C217.61 0.575593 217.667 0.708133 217.695 0.847876C217.724 0.98762 217.724 1.1317 217.696 1.27148C217.667 1.41126 217.611 1.54388 217.53 1.66139C217.449 1.77891 217.346 1.87891 217.225 1.9554C213.411 4.57988 209.938 7.66809 206.886 11.149C206.787 11.2626 206.665 11.3538 206.528 11.4164C206.391 11.479 206.242 11.5117 206.091 11.5122Z" fill="#96E296"/>
<path d="M363.207 31.6703C362.928 31.6706 362.66 31.5611 362.462 31.3655L350.405 19.4997C350.306 19.4018 350.227 19.2854 350.173 19.1571C350.118 19.0287 350.09 18.8909 350.089 18.7516C350.088 18.6123 350.114 18.4741 350.167 18.345C350.219 18.2159 350.297 18.0984 350.394 17.9992C350.492 17.9 350.609 17.821 350.737 17.7668C350.865 17.7125 351.003 17.6841 351.142 17.6831C351.282 17.6821 351.42 17.7086 351.549 17.761C351.678 17.8134 351.796 17.8908 351.895 17.9886L363.949 29.8544C364.099 30.002 364.201 30.1907 364.244 30.3967C364.286 30.6026 364.266 30.8165 364.186 31.0112C364.107 31.2058 363.971 31.3724 363.797 31.4898C363.622 31.6071 363.417 31.67 363.207 31.6703Z" fill="#FF8F7F"/>
<path d="M351.444 31.437C351.231 31.4379 351.022 31.3746 350.846 31.2553C350.669 31.136 350.533 30.9663 350.454 30.7683C350.375 30.5703 350.358 30.3531 350.404 30.1452C350.451 29.9373 350.559 29.7482 350.715 29.6026C350.797 29.5283 358.84 21.9385 362.082 17.8348C362.258 17.6144 362.514 17.4728 362.794 17.4413C363.074 17.4097 363.355 17.4907 363.576 17.6665C363.796 17.8422 363.938 18.0984 363.969 18.3785C364.001 18.6587 363.92 18.9399 363.744 19.1603C360.407 23.386 352.504 30.8432 352.17 31.1587C351.972 31.3401 351.712 31.4396 351.444 31.437Z" fill="#FF8F7F"/>
<path d="M61.3431 31.6703C61.0644 31.6706 60.7968 31.5611 60.5982 31.3655L48.5442 19.4996C48.441 19.4029 48.3582 19.2865 48.3007 19.1573C48.2431 19.0281 48.212 18.8888 48.2092 18.7474C48.2064 18.606 48.2318 18.4654 48.2841 18.334C48.3364 18.2026 48.4144 18.083 48.5136 17.9822C48.6128 17.8814 48.7312 17.8015 48.8617 17.7471C48.9923 17.6927 49.1324 17.665 49.2738 17.6656C49.4153 17.6662 49.5551 17.6951 49.6852 17.7506C49.8153 17.806 49.933 17.887 50.0314 17.9886L62.0881 29.8544C62.238 30.0021 62.3407 30.1911 62.3829 30.3973C62.4251 30.6035 62.405 30.8176 62.3251 31.0124C62.2452 31.2071 62.1091 31.3737 61.9343 31.4909C61.7594 31.608 61.5536 31.6705 61.3431 31.6703Z" fill="#FF8F7F"/>
<path d="M49.5735 31.4371C49.3604 31.4379 49.152 31.3746 48.9755 31.2553C48.799 31.136 48.6624 30.9663 48.5837 30.7683C48.5051 30.5703 48.4879 30.3532 48.5344 30.1452C48.5809 29.9373 48.6889 29.7482 48.8445 29.6026C48.9267 29.5283 56.9698 21.9386 60.2119 17.8348C60.2989 17.7257 60.4066 17.6348 60.5288 17.5672C60.651 17.4997 60.7852 17.4569 60.924 17.4413C61.0627 17.4256 61.2031 17.4375 61.3373 17.4761C61.4714 17.5148 61.5966 17.5795 61.7058 17.6665C61.8149 17.7535 61.9058 17.8612 61.9733 17.9834C62.0409 18.1055 62.0837 18.2398 62.0993 18.3785C62.1149 18.5173 62.1031 18.6577 62.0644 18.7918C62.0258 18.926 61.9611 19.0512 61.8741 19.1603C58.5365 23.386 50.6339 30.8432 50.2999 31.1587C50.1017 31.3402 49.8421 31.4396 49.5735 31.4371Z" fill="#FF8F7F"/>
</svg>
