<svg width="478" height="430" viewBox="0 0 478 430" fill="none" xmlns="http://www.w3.org/2000/svg">
    <path d="M123.207 422.708C113.088 420.519 -8.4869 400.806 0.47137 255.401C9.42964 109.995 20.6478 66.2641 67.914 50.2635C115.18 34.2628 230.075 -41.4358 320.236 30.5457C410.397 102.527 507.686 167.084 469.077 282.017C430.468 396.951 424.166 435.292 323.418 429.425C222.67 423.558 171.323 433.118 123.207 422.708Z" fill="#F2F2F5"/>
    <path d="M155.269 383.726C155.235 384.638 155.442 385.543 155.871 386.349C157.477 389.564 161.7 391.796 165.938 393.406C179.717 398.661 195.856 398.332 210.748 399.617C228.162 401.114 245.594 402.375 263.046 403.401C277.194 404.251 291.341 404.944 305.486 405.479C323.293 406.181 341.678 406.621 358.175 401.867C362.953 400.501 367.802 398.523 369.608 395.078C372.093 390.358 367.506 384.677 361.219 381.944C353.899 378.767 342.977 377.41 334.731 375.676C322.562 373.119 309.06 372.575 296.614 371.376C274.331 369.211 251.923 367.826 229.578 367.83C218.116 367.821 156.019 370.401 155.269 383.726Z" fill="#E5E5E5"/>
    <path d="M244.584 156.449C255.674 150.171 267.04 143.654 276.184 134.638C283.055 127.864 290.193 117.386 283.203 108.227C282.62 107.467 280.408 108.327 281.077 109.211C287.99 118.26 280.121 128.542 273.356 134.949C264.637 143.219 253.992 149.335 243.595 155.221C242.229 155.995 243.476 157.075 244.584 156.449Z" fill="#6A79A8"/>
    <path d="M350.679 381.533C349.859 381.539 349.065 381.244 348.448 380.703C347.831 380.162 347.435 379.414 347.334 378.599C337.898 305.667 328.142 230.251 293.212 163.725C263.031 106.244 201.709 43.4504 120.114 39.5996C119.223 39.5577 118.385 39.1635 117.784 38.5036C117.183 37.8437 116.869 36.9722 116.911 36.0807C116.953 35.1893 117.347 34.351 118.007 33.7502C118.667 33.1495 119.538 32.8354 120.43 32.8773C156.831 34.5925 193.243 48.467 225.731 73.0103C255.487 95.4657 280.885 125.771 299.175 160.601C334.669 228.191 344.506 304.215 354.023 377.735C354.088 378.21 354.05 378.695 353.912 379.154C353.773 379.614 353.537 380.039 353.22 380.399C352.902 380.759 352.511 381.047 352.073 381.243C351.634 381.439 351.159 381.537 350.679 381.533Z" fill="white"/>
    <path d="M351.076 380.716C348.386 380.468 348.434 377.849 348.166 375.776L347.407 369.899C346.897 365.972 346.383 362.045 345.863 358.117C344.822 350.237 343.74 342.363 342.619 334.496C340.355 318.706 337.842 302.963 334.855 287.287C328.902 256.141 321 225.267 309.223 195.779C299.385 171.116 286.892 147.634 270.862 126.397C255.679 106.302 237.667 88.1749 217.122 73.5693C195.785 58.3856 171.61 47.1627 145.886 41.9359C139.126 40.5579 132.287 39.6005 125.409 39.0692C123.813 38.945 122.098 39.0453 120.526 38.7682C119.269 38.5484 118.319 37.7744 118.137 36.4558C117.913 34.645 119.093 33.8041 120.803 33.7229C124.415 33.5461 128.299 34.2437 131.878 34.6785C147.071 36.5377 161.959 40.355 176.172 46.0352C205.092 57.5017 230.94 75.9582 252.588 98.1699C274.044 120.186 291.259 145.9 304.364 173.658C317.942 202.42 327.412 232.936 334.421 263.905C341.41 294.784 346.011 326.135 350.187 357.501C350.684 361.275 351.178 365.05 351.668 368.824L352.428 374.682C352.676 376.593 353.814 380.496 350.78 380.692C349.494 380.773 348.988 382.441 350.565 382.34C352.734 382.202 354.865 380.816 355.166 378.518C355.376 376.951 354.884 375.174 354.688 373.64L353.866 367.41C352.812 359.291 351.73 351.169 350.622 343.044C348.367 326.737 345.916 310.45 342.978 294.248C337.101 261.659 329.289 229.305 317.431 198.34C305.964 168.441 290.805 139.999 270.609 115.074C250.93 90.7978 226.869 69.685 199.34 54.7498C185.344 47.0932 170.45 41.2065 155.002 37.225C147.663 35.3535 140.21 33.9602 132.69 33.054C128.892 32.6001 125.046 32.194 121.223 32.0985C118.959 32.0125 116.57 32.9346 115.901 35.3569C115.766 35.885 115.738 36.4352 115.821 36.9741C115.904 37.513 116.095 38.0295 116.383 38.4925C116.671 38.9555 117.05 39.3554 117.497 39.668C117.944 39.9806 118.449 40.1995 118.983 40.3114C120.521 40.6745 122.275 40.5551 123.856 40.6698C125.719 40.8035 127.581 40.9628 129.441 41.1475C136.647 41.9094 143.796 43.1431 150.841 44.8407C164.393 48.1442 177.51 53.0287 189.923 59.3937C213.959 71.663 235.268 88.9058 253.376 108.839C270.918 128.24 285.582 150.061 296.915 173.634C311.311 203.404 321.134 235.162 328.315 267.383C335.496 299.604 340.106 332.322 344.387 365.031C344.897 368.955 345.406 372.876 345.916 376.793C346.289 379.689 346.962 382.049 350.268 382.336C351.377 382.46 352.633 380.859 351.076 380.716Z" fill="#6A79A8"/>
    <path d="M178.81 266.174C178.81 266.174 182.398 296.532 182.732 299.619C183.21 304.038 184.753 312.691 181.218 316.374C179.627 318.032 178.098 318.238 175.871 317.884C171.175 317.134 167.62 313.283 163.177 312.356C157.329 311.128 159.632 315.223 162.365 319.045C166.736 325.175 172.307 330.144 179.249 333.173C182.718 334.697 186.664 335.423 190.324 334.458C196.592 332.805 201.313 326.689 205.675 322.203C211.595 316.083 216 308.935 220.72 301.912C225.116 295.376 230.395 289.49 238.006 286.795C265.984 276.829 292.391 338.342 306.839 336.832C312.859 336.202 289.591 272.171 283.834 252.931C282.21 247.489 280.924 244.225 275.865 231.722C275.865 231.722 244.117 247.966 232.97 252.013C219.831 256.786 178.915 266.151 178.81 266.174Z" fill="#D1D1D1"/>
    <path d="M183.774 265.496C184.567 272.185 186.444 279.614 187.118 286.313C188.131 296.188 191.896 308.711 187.061 318.042C185.15 321.763 179.545 321.864 175.862 321.252C171.165 320.507 167.61 316.656 163.167 315.724C157.319 314.501 159.622 315.218 162.355 319.069C166.736 325.175 172.307 330.144 179.249 333.173C182.718 334.697 186.664 335.423 190.324 334.458C196.592 332.805 201.313 326.689 205.675 322.203C211.594 316.083 215.999 308.935 220.72 301.912C225.115 295.376 230.481 289.743 238.006 286.795C271.732 273.575 300.456 339.097 306.839 336.832C312.543 334.802 289.591 272.171 283.834 252.931C282.209 247.489 280.924 244.225 275.865 231.722C275.865 231.722 244.116 247.966 232.97 252.013C219.831 256.786 183.879 265.472 183.774 265.496Z" fill="#E5E5E5"/>
    <path d="M273.538 226.06C273.538 225.998 273.485 225.931 273.457 225.869C273.065 224.914 272.659 223.958 272.248 223.003C272.191 222.874 272.138 222.74 272.081 222.611C271.66 221.622 271.225 220.619 270.786 219.611L270.528 219.013C270.088 218.005 269.634 216.983 269.176 215.951C269.104 215.784 269.028 215.616 268.951 215.444C268.467 214.371 267.978 213.286 267.484 212.191V212.148C266.981 211.055 266.472 209.953 265.956 208.841L265.698 208.297C265.194 207.227 264.686 206.155 264.173 205.081C264.073 204.876 263.973 204.671 263.877 204.465C263.348 203.369 262.813 202.272 262.272 201.173L262.076 200.786C261.541 199.706 260.998 198.625 260.447 197.542L260.284 197.217C259.721 196.115 259.149 195.013 258.569 193.911C258.464 193.706 258.359 193.505 258.249 193.304C257.679 192.218 257.102 191.14 256.519 190.07L256.209 189.501C255.604 188.386 254.989 187.272 254.365 186.157L254.274 185.99C253.662 184.915 253.051 183.849 252.43 182.788C252.339 182.631 252.248 182.473 252.153 182.311C251.536 181.26 250.915 180.223 250.285 179.191L249.921 178.594C249.284 177.565 248.647 176.549 248.01 175.545C247.915 175.393 247.814 175.244 247.719 175.096C247.082 174.083 246.424 173.082 245.746 172.091L245.655 171.948C244.981 170.949 244.298 169.965 243.615 169C243.543 168.895 243.476 168.79 243.405 168.689C245.225 165.369 246.883 162.173 248.708 158.852C247.021 158.263 245.445 157.396 244.045 156.286C242.707 155.226 241.79 153.515 240.485 152.56C239.807 154.313 238.985 155.904 236.988 156.415C235.373 156.845 233.787 156.234 232.292 155.207C230.377 153.253 228.334 151.428 226.176 149.746C226.176 149.746 226.176 149.746 226.176 149.722C216.081 141.944 205.527 140.023 195.278 148.618C191.695 151.623 188.728 155.756 186.291 160.797L186.191 161.021C185.904 161.618 185.623 162.22 185.355 162.846C185.259 163.061 185.169 163.286 185.073 163.506C184.887 163.955 184.7 164.408 184.519 164.867C184.466 165.006 184.404 165.139 184.352 165.278C184.091 165.869 183.866 166.475 183.678 167.094C183.649 167.208 183.597 167.318 183.563 167.438C183.477 167.676 183.396 167.915 183.315 168.164C183.179 168.481 183.019 168.788 182.837 169.081C182.402 169.793 181.638 170.858 180.835 171.183C180.119 171.475 178.972 170.782 178.403 170.333C178.068 170.061 177.766 169.75 177.505 169.406C177.386 169.253 176.755 168.513 176.817 168.321C175.464 172.441 173.516 176.341 171.036 179.898C174.127 181.809 177.19 185.125 178.141 188.718C178.302 189.343 178.398 189.984 178.427 190.629C178.04 193.658 177.72 196.787 177.472 199.993C177.472 200.041 177.472 200.089 177.472 200.136V200.242C177.19 203.849 176.994 207.561 176.855 211.355V211.412C176.855 211.46 176.855 211.507 176.855 211.55C176.822 212.506 176.798 213.419 176.774 214.36V215.038C176.774 215.846 176.741 216.653 176.731 217.465C176.731 217.647 176.731 217.833 176.731 218.015C176.731 218.97 176.731 219.926 176.707 220.881V221.55C176.707 222.367 176.707 223.184 176.707 224.001C176.707 224.207 176.707 224.407 176.707 224.613C176.707 225.568 176.717 226.538 176.736 227.522C176.736 227.742 176.736 227.962 176.736 228.177C176.736 229.004 176.765 229.835 176.784 230.666V231.311C176.806 232.289 176.833 233.272 176.865 234.259C176.865 234.474 176.865 234.689 176.865 234.904C176.894 235.735 176.922 236.572 176.956 237.403C176.956 237.637 176.956 237.881 176.98 238.096C177.018 239.089 177.059 240.083 177.104 241.077L177.133 241.674L177.262 244.235C177.262 244.469 177.285 244.713 177.295 244.933C177.352 245.936 177.405 246.934 177.467 247.938C177.467 248.129 177.491 248.32 177.5 248.511C177.553 249.376 177.606 250.236 177.663 251.101C177.663 251.34 177.696 251.578 177.711 251.817C177.778 252.825 177.844 253.834 177.921 254.842C177.921 255.014 177.945 255.181 177.959 255.353C178.021 256.227 178.088 257.101 178.155 257.976L178.212 258.721C178.289 259.728 178.37 260.736 178.456 261.745C178.456 261.894 178.48 262.046 178.494 262.223L178.724 264.894C178.724 265.033 178.747 265.176 178.762 265.314C178.79 265.615 178.814 265.916 178.843 266.217C178.843 266.217 219.826 256.743 232.98 251.965C244.093 247.871 275.865 231.722 275.865 231.722C275.129 229.911 274.355 228.015 273.538 226.056V226.06Z" fill="#E5E5E5"/>
    <path d="M273.514 226.07C265.493 206.926 256.558 188.111 244.905 170.94C244.366 170.278 244.011 169.485 243.878 168.642C243.821 167.753 244.26 166.917 244.69 166.138L248.613 158.971C245.404 157.547 242.597 155.351 240.443 152.579C240.4 155.488 236.52 156.95 233.783 155.947C231.045 154.944 229.167 152.493 227.07 150.472C221.169 144.805 210.386 140.916 202.379 144.108C197.042 146.229 192.67 150.247 189.479 154.968C187.837 157.41 186.484 160.035 185.446 162.789C184.553 165.13 184.257 168.006 182.236 169.717C180.535 171.15 177.209 170.768 176.837 168.565C175.174 172.535 175.695 173.18 173.454 176.85C177.401 178.336 181.462 184.145 182.207 188.316C182.952 192.487 181.624 199.358 181.533 203.572C181.084 224.216 182.489 243.466 184.223 264.607C232.244 255.611 245.713 248.444 275.836 231.679C275.088 229.797 274.314 227.927 273.514 226.07Z" fill="white"/>
    <path d="M179.158 268.697C179.186 268.916 179.26 269.126 179.375 269.314C179.491 269.502 179.645 269.663 179.827 269.786C180.458 270.188 181.523 269.686 182.187 269.524C183.114 269.299 183.993 268.922 184.925 268.74C185.857 268.559 186.836 268.291 187.792 268.09C192.455 267.106 197.118 266.117 201.767 265.056C206.215 264.044 210.648 262.973 215.058 261.793C217.288 261.198 219.503 260.57 221.704 259.911C222.808 259.581 223.911 259.247 225.01 258.898C225.928 258.606 226.883 258.157 227.877 258.148C232.12 258.1 236.405 255.964 240.223 254.273C248.679 250.527 257.05 246.594 265.334 242.472C267.15 241.569 268.923 240.561 270.838 239.935C272.915 239.242 274.865 238.217 276.615 236.901C276.931 236.636 277.182 236.303 277.349 235.926C277.515 235.549 277.594 235.139 277.578 234.727C277.562 234.315 277.451 233.912 277.255 233.55C277.059 233.187 276.783 232.874 276.448 232.635C274.976 231.603 273.418 232.582 272.066 233.304C258.134 240.695 244.064 249.07 229.253 254.082C219.626 257.34 209.731 259.758 199.798 261.927C198.336 262.534 196.454 262.658 194.882 262.988L189.822 264.048C186.827 264.674 183.869 264.97 180.859 265.51C180.478 265.552 180.109 265.671 179.775 265.859C178.953 266.385 179.001 267.861 179.158 268.697Z" fill="#D1D1D1"/>
    <path d="M182.555 265.959C195.698 262.854 208.909 260.054 221.976 256.624C226.983 255.31 232.009 253.943 236.758 251.927C242.907 249.328 248.879 246.309 254.832 243.327C261.044 240.183 267.255 236.935 273.466 233.8C274.899 233.089 273.604 232.033 272.51 232.596C261.044 238.368 249.768 244.541 238.043 249.763C226.902 254.732 214.604 257.073 202.779 259.825C195.918 261.421 189.048 262.94 182.196 264.56C180.763 264.899 181.16 266.318 182.574 265.993L182.555 265.959Z" fill="#6A79A8"/>
    <path d="M180.248 270.603C194.457 267.536 208.671 264.392 222.712 260.661C235.092 257.359 246.506 252.214 258.068 246.724C264.61 243.615 271.117 240.441 277.59 237.202C278.956 236.524 276.83 236.528 276.237 236.82C264.317 242.759 252.349 248.693 240.108 253.939C228.212 259.032 215.469 261.765 202.899 264.689C195.497 266.409 188.082 268.068 180.654 269.667C179.698 269.868 178.643 270.952 180.248 270.622V270.603Z" fill="#6A79A8"/>
    <path d="M206.444 176.3L196.072 172.387C192.804 171.155 188.676 170.276 185.695 168.47C182.89 166.778 184.792 164.275 185.953 161.532C186.962 159.1 188.18 156.76 189.593 154.538C195.212 145.847 204.075 141.772 214.28 144.223C220.257 145.656 225.68 149.129 230.242 153.157C233.286 155.847 231.079 158.584 229.287 161.757C227.678 164.593 225.739 167.23 223.511 169.611C221.599 171.671 217.901 175.149 216.425 173.911C215.47 173.109 212.603 171.169 210.171 168.981C208.752 171.346 207.859 173.94 206.444 176.3Z" fill="white"/>
    <path d="M230.152 160.099C228.358 164.217 225.729 167.919 222.431 170.968C221.061 172.277 219.612 173.501 218.093 174.633L212.092 168.833C211.136 167.906 209.292 168.933 208.834 169.908L205.489 177.041L188.179 169.459C186.536 168.742 183.741 171.499 185.824 172.411L205.054 180.83C206.086 181.283 207.525 180.5 207.974 179.554L210.955 173.209L214.046 176.2C215.608 177.71 216.359 178.742 218.552 177.576C225.24 174.017 230.553 167.227 233.64 160.496C234.667 158.236 230.921 158.422 230.152 160.099Z" fill="#E5E5E5"/>
    <path d="M229.038 159.01C227.382 163.174 224.876 166.947 221.681 170.089C220.725 170.992 219.722 171.814 218.694 172.631C218.217 173.023 217.705 173.415 217.204 173.797C216.626 174.232 215.551 174.58 216.783 174.394L217.677 174.513L211.561 169.062C211.026 168.584 209.65 169.105 209.335 169.659C207.889 172.335 206.443 175.013 204.997 177.695L207.075 177.017L188.757 168.369C188.174 168.092 186.053 168.986 186.894 169.382L205.212 178.03C205.586 178.136 205.984 178.128 206.354 178.008C206.724 177.887 207.05 177.658 207.29 177.351C208.736 174.669 210.182 171.991 211.628 169.315L209.402 169.912L214.137 174.131C215.45 175.302 216.114 175.942 217.815 174.9C223.931 171.174 228.589 165.211 231.336 158.694C231.58 158.116 229.33 158.355 229.043 159.034L229.038 159.01Z" fill="#6A79A8"/>
    <path d="M219.448 115.91C214.264 94.9784 200.849 80.2916 189.482 83.1057C178.116 85.9198 173.099 105.169 178.283 126.105L179.21 129.856C182.077 141.461 185.072 149.301 188.192 154.504C194.609 165.192 209.692 166.582 209.692 166.582C209.692 166.582 222.745 158.322 223.825 147.08C224.417 140.926 223.481 132.207 220.375 119.665L219.448 115.91Z" fill="#E5E5E5"/>
    <path d="M219.448 115.91C214.265 94.9784 200.849 80.2916 189.482 83.1057C178.016 85.9484 178.613 101.237 179.554 110.387C180.28 117.012 181.486 123.577 183.162 130.028C184.752 136.296 186.984 142.393 188.47 148.685C188.794 150.032 190.099 153.831 188.713 154.987C179.134 162.97 209.692 166.578 209.692 166.578C209.692 166.578 222.745 158.317 223.825 147.075C224.417 140.921 223.481 132.202 220.375 119.66L219.448 115.91Z" fill="white"/>
    <path d="M207.037 88.4281C208.117 86.0392 209.861 82.0498 208.982 79.4602C211.012 81.9542 212.446 85.1219 214.428 87.7592C215.594 89.1869 216.586 90.7473 217.386 92.4079C218.513 95.0166 218.652 97.9692 218.246 100.779C217.84 103.588 216.469 108.471 216.335 108.088L214.438 103.201C214.242 103.631 213.344 104.543 213.143 104.973C212.72 105.91 212.293 106.846 211.863 107.783C211.933 107.468 211.933 107.142 211.863 106.827C211.832 106.502 211.763 106.181 211.657 105.872C211.552 105.555 211.408 105.254 211.227 104.973C210.993 104.596 210.864 104.199 210.348 104.376C210.279 104.393 210.214 104.428 210.162 104.477C210.12 104.522 210.086 104.573 210.062 104.629C209.723 105.343 209.321 106.026 208.862 106.669C208.69 106.904 208.504 107.147 208.327 107.362C208.303 107.391 208.155 107.596 208.189 107.572C207.862 106.757 207.388 106.008 206.789 105.365C205.642 104.147 204.022 103.454 202.895 102.245C201.17 100.377 202.326 100.2 202.67 97.9788C203.206 94.663 205.676 91.438 207.037 88.4281Z" fill="#BBDFF5"/>
    <path d="M163.325 103.234C163.516 102.753 163.693 102.266 163.855 101.772C160.989 103.296 157.998 103.655 154.83 104.161C158.112 103.406 160.955 101.333 163.291 98.9057C171.036 90.9221 175.637 79.4985 186.086 74.3911C190.214 72.3749 194.896 72.7045 199.148 74.1283C202.737 75.3323 208.814 76.8325 207.514 81.5003C204.406 92.4638 197.861 102.14 188.843 109.106C187.529 110.119 185.847 110.898 185.021 112.336C184.624 113.043 183.702 116.297 184.008 117.032C183.86 116.679 181.194 113.1 180.859 113.645C179.673 115.522 178.899 117.629 178.59 119.827C178.38 121.705 180.272 123.898 179.584 125.589C177.004 125.589 175.8 122.694 174.772 120.778C173.884 119.106 171.629 122.689 171.203 123.277C170.1 124.844 166.731 127.692 166.65 129.431L167.037 121.213C164.855 122.468 162.637 123.661 160.382 124.791C162.212 123.874 163.416 119.35 163.898 117.539C164.577 115.002 165.379 111.868 165.332 109.269C164.276 109.808 163.42 110.702 162.259 111.137C161.666 111.396 161.02 111.509 160.374 111.466C159.728 111.424 159.101 111.227 158.547 110.893C160.463 108.495 162.183 106.096 163.325 103.234Z" fill="#BBDFF5"/>
    <path d="M177.654 266.485C178.939 277.34 180.244 288.19 181.476 299.05C181.863 302.423 182.398 305.815 182.317 309.222C182.269 311.429 182.016 313.909 180.717 315.777C178.495 318.978 174.453 316.971 171.734 315.49C168.39 313.675 164.367 310.713 160.335 311.878C156.555 312.982 159.446 316.838 160.855 318.863C166.455 326.914 175.953 335.476 186.388 335.375C191.036 335.332 195.179 333.216 198.671 330.277C202.814 326.79 206.645 322.494 210.104 318.333C213.927 313.761 217.156 308.778 220.448 303.818C223.74 298.859 227.233 293.971 232.101 290.441C238.589 285.734 245.512 285.185 252.679 288.529C258.914 291.425 264.231 296.121 269.038 300.952C274.231 306.169 278.947 311.84 283.61 317.526C287.666 322.475 291.613 327.559 296.123 332.126C298.454 334.477 301.598 337.735 305.201 337.563C308.722 337.396 309.128 335.079 308.889 332.069C308.449 326.479 306.801 320.908 305.296 315.533C300.996 300.178 295.741 285.099 290.652 270.001C288.741 264.321 286.792 258.645 285.053 252.907C282.822 245.568 279.869 238.483 276.983 231.407C269.186 212.234 260.529 193.233 249.406 175.737C248.613 174.491 247.806 173.254 246.984 172.024C246.148 170.772 244.595 169.349 244.958 167.724C245.235 166.468 246.544 164.776 247.156 163.635C248.035 161.991 248.914 160.347 249.807 158.713C249.889 158.565 249.712 158.494 249.616 158.455C247.867 157.841 246.248 156.908 244.839 155.703C243.639 154.633 242.789 153.262 241.552 152.225C241.126 151.872 239.526 152.321 239.325 152.822C238.995 153.644 238.637 154.691 237.978 155.307C236.521 156.673 234.996 155.904 233.678 155.101C232.12 154.146 230.811 152.784 229.512 151.509C228.666 150.682 227.753 149.922 226.936 149.077C226.416 148.542 225.15 147.471 224.939 146.764C224.648 145.809 225.13 143.95 225.13 142.894C225.13 141.275 225.035 139.655 224.892 138.04C224.525 134.084 223.932 130.151 223.114 126.263C220.2 112.068 216.005 96.0486 204.07 86.6077C200.171 83.5309 195.365 81.5816 190.353 82.5037C185.423 83.4114 181.629 86.7224 179.245 91.0319C171.663 104.73 175.638 121.977 179.646 136.105C180.785 140.25 182.178 144.32 183.817 148.293C184.5 149.918 185.251 151.523 186.082 153.071C186.818 154.442 186.913 154.566 186.507 156.028C185.876 158.469 185.078 160.864 184.118 163.195C183.273 165.144 182.785 167.452 181.686 169.263C180.97 170.438 180.592 170.811 179.479 169.912C178.808 169.424 178.282 168.764 177.955 168.001C177.797 167.438 175.81 168.078 175.662 168.508C174.281 172.605 172.342 176.492 169.9 180.06C169.88 180.094 169.875 180.134 169.885 180.171C169.895 180.209 169.919 180.241 169.952 180.261C173.473 182.535 176.765 186.056 177.238 190.399C177.606 193.782 176.546 197.141 176.283 200.5C176.01 204.14 175.843 207.805 175.676 211.45C174.849 229.453 176.006 247.622 177.587 265.553C177.63 266.031 179.952 265.582 179.895 264.932C178.418 248.186 177.506 231.349 177.874 214.532C177.96 210.652 178.208 206.787 178.423 202.917C178.495 201.632 178.533 200.342 178.662 199.061C179.025 195.574 180.191 191.871 179.288 188.374C178.784 186.622 177.92 184.995 176.751 183.596C176.168 182.861 175.529 182.173 174.84 181.537C174.338 181.059 173.034 180.433 172.742 179.869C172.16 178.756 174.916 175.24 175.48 174.103C176.436 172.166 177.258 170.165 177.941 168.116L175.623 168.656C176.235 170.787 178.968 172.211 181.046 171.523C184.142 170.51 184.83 166.578 185.9 163.955C186.929 161.513 187.812 159.013 188.547 156.468C188.719 155.842 189.254 154.777 189.202 154.122C189.116 153.128 187.993 151.762 187.539 150.83C183.975 143.554 181.878 135.637 179.938 127.806C177.836 119.311 176.622 110.573 177.95 101.844C178.906 95.609 181.233 88.0793 186.956 84.5868C192.68 81.0942 199.331 84.9499 203.607 88.8867C209.536 94.3429 213.535 101.811 216.22 109.316C219.039 117.204 220.873 125.757 222.063 134.032C222.665 137.823 222.913 141.661 222.804 145.498C222.746 146.769 222.536 147.223 223.339 148.159C224.114 149.099 224.952 149.985 225.847 150.811C228.413 153.095 230.888 156.578 234.557 157.022C237.949 157.428 240.405 155.359 241.604 152.383L239.359 152.99C240.596 154.026 241.451 155.379 242.646 156.468C243.316 157.05 244.042 157.564 244.815 158.002C245.292 158.293 246.582 158.608 246.869 159.01C247.614 160.066 245.875 162.134 245.312 163.181C244.289 165.092 243.267 167.003 242.225 168.914V169.029C254.848 186.916 264.451 207.05 272.741 227.25C275.545 234.082 278.44 240.9 280.92 247.857C282.702 252.859 284.145 257.99 285.817 263.031C290.595 277.469 295.65 291.836 300.151 306.379C302.1 312.719 304.001 319.102 305.435 325.586C306.118 328.686 307.575 333.23 306.333 336.379C306.156 336.828 306.514 336.675 305.97 336.57C305.241 336.436 304.537 336.191 303.882 335.843C302.192 334.869 300.645 333.665 299.286 332.265C295.029 328.194 291.359 323.503 287.633 318.949C278.985 308.381 270.118 296.628 258.221 289.504C253.525 286.695 248.188 284.808 242.65 285.371C234.256 286.222 227.256 291.946 222.269 298.4C218.924 302.7 216.143 307.44 213.014 311.907C209.56 316.828 205.637 321.209 201.547 325.59C197.071 330.368 192.035 335.423 184.883 334.166C179.517 333.211 174.424 329.938 170.392 326.388C168.355 324.589 166.49 322.604 164.821 320.459C163.431 318.682 161.749 316.637 160.999 314.463C160.789 313.861 160.406 312.987 161.109 312.643C161.921 312.246 164.659 313.598 165.313 313.909C167.63 315.017 169.728 316.537 172.112 317.511C175.432 318.868 179.627 319.112 182.288 316.303C184.95 313.493 184.806 308.978 184.567 305.428C183.755 293.484 181.835 281.54 180.43 269.619L179.986 265.869C179.928 265.391 177.597 265.869 177.678 266.485H177.654Z" fill="#6A79A8"/>
    <path d="M191.135 159.736C195.756 163.668 202.932 167.533 209.21 166.219C215.626 164.872 220.796 158.25 223.414 152.617C223.892 151.585 221.589 151.819 221.259 152.541C219.123 157.132 214.8 163.467 209.601 164.843C204.169 166.277 197.246 162.201 193.271 158.814C192.636 158.274 190.476 159.172 191.135 159.736Z" fill="#6A79A8"/>
    <path d="M175.169 172.846C163.277 159.798 153.865 144.414 150.119 127.004C145.857 107.243 149.641 86.947 155.021 67.7834C156.631 62.0215 158.733 56.3169 159.56 50.3495C159.976 47.6708 159.976 44.9441 159.56 42.2655C159.464 41.6874 159.335 41.1141 159.192 40.5503C159.149 40.3783 158.442 38.6392 158.432 39.2412L158.079 39.3463L158.91 39.3129C159.41 39.2685 159.905 39.1855 160.391 39.0644C161.825 38.7682 161.409 37.2202 159.98 37.5164C159.025 37.7123 157.443 37.4448 156.731 38.2952C155.776 39.4323 157.047 41.6779 157.257 42.8819C158.213 48.5435 156.665 54.3484 155.088 59.7377C151.963 70.4494 148.958 81.185 147.305 92.2264C144.438 111.404 146.316 130.381 154.949 147.892C159.646 157.404 165.938 166.009 173.047 173.835C173.74 174.595 175.914 173.673 175.164 172.827L175.169 172.846Z" fill="#6A79A8"/>
    <path d="M196.195 275.367C195.947 277.617 195.249 279.795 194.143 281.771C193.036 283.746 191.544 285.479 189.755 286.867C188.537 287.822 190.443 288.329 191.226 287.698C195.201 284.516 197.973 280.259 198.512 275.123C198.622 274.091 196.286 274.483 196.195 275.367Z" fill="#6A79A8"/>
    <path d="M263.17 255.745C265.526 260.298 269.582 263.279 274.427 264.76C275.191 264.99 277.136 263.872 275.831 263.47C271.417 262.123 267.618 259.266 265.478 255.128C265.062 254.321 262.817 255.057 263.17 255.745Z" fill="#6A79A8"/>
    <path d="M208.718 186.281C208.895 193.5 209.043 200.719 209.268 207.939C209.531 216.476 208.188 224.489 204.796 231.407C205.814 233.796 212.211 241.139 212.569 243.767C214.084 242.138 219.884 235.129 221.408 233.394C224.452 229.926 220.281 207.867 218.594 201.426C217.744 198.187 214.327 183.438 211.251 183.691L210.123 183.782C209.239 183.854 208.609 184.896 208.69 186.109C208.714 186.166 208.714 186.224 208.718 186.281Z" fill="#E5E5E5"/>
    <path d="M211.279 185.655C211.757 192.86 212.235 200.065 212.77 207.265C213.405 215.784 212.416 223.844 209.325 230.91C210.448 233.227 217.161 240.308 217.629 242.916C219.062 241.225 224.561 233.968 226.009 232.171C228.9 228.569 223.768 206.711 221.805 200.351C220.816 197.155 216.759 182.569 213.682 182.956L212.555 183.094C211.681 183.204 211.093 184.274 211.246 185.483C211.265 185.54 211.274 185.598 211.279 185.655Z" fill="#BBDFF5"/>
    <path d="M210.123 185.966C210.572 192.54 210.997 199.119 211.48 205.693C211.924 211.799 211.958 217.852 210.558 223.848C210.258 225.164 209.895 226.459 209.468 227.733C209.21 228.507 208.068 230.384 208.178 231.154C208.322 232.176 209.722 233.514 210.343 234.307C212.388 236.925 215.67 239.906 216.477 243.222C216.63 243.853 218.446 243.136 218.685 242.854C220.448 240.747 222.086 238.554 223.763 236.357C224.963 234.794 226.726 233.136 227.519 231.311C228.269 229.572 228.068 227.288 227.958 225.458C227.75 222.52 227.373 219.596 226.831 216.701C225.894 211.219 224.643 205.795 223.085 200.457C221.652 195.679 220.314 190.743 218.092 186.257C217.328 184.719 216.334 182.526 214.375 182.435C212.11 182.32 209.879 183.424 210.123 185.961C210.171 186.467 212.512 186.023 212.431 185.34C212.067 181.589 214.509 184.537 215.297 185.904C216.394 187.982 217.313 190.149 218.044 192.382C219.32 195.985 220.433 199.659 221.441 203.371C222.784 208.345 223.897 213.404 224.743 218.473C225.373 222.296 226.745 227.704 225.345 231.478C224.638 233.39 222.727 235.143 221.523 236.734C219.908 238.831 218.326 240.967 216.621 242.998L218.828 242.63C218.087 239.591 215.106 236.748 213.228 234.374C212.225 233.112 210.529 231.65 210.84 230.002C211.059 228.765 211.795 227.451 212.182 226.232C212.607 224.799 212.961 223.366 213.243 221.899C214.318 216.328 214.26 210.729 213.85 205.096C213.372 198.522 212.942 191.943 212.493 185.364C212.397 184.852 210.075 185.273 210.123 185.966Z" fill="#6A79A8"/>
    <path d="M209.994 176.62C210.314 175.889 210.858 175.469 211.905 175.975C213.41 176.706 214.771 178.336 215.923 179.497C216.878 180.452 217.413 181.169 215.923 181.967C214.59 182.669 212.846 182.956 211.408 183.4C209.1 184.141 209.286 180.056 209.497 178.895C209.581 178.121 209.747 177.359 209.994 176.62Z" fill="#BBDFF5"/>
    <path d="M211.136 176.434C211.136 176.434 214.528 179.578 214.843 179.907C215.674 180.767 216.066 181.455 214.652 182.024C213.716 182.429 212.731 182.713 211.723 182.87C211.217 182.922 211.499 183.042 211.174 182.784C210.989 182.586 210.855 182.347 210.782 182.086C210.612 181.56 210.525 181.01 210.524 180.457C210.477 179.09 210.684 177.726 211.136 176.434C211.322 175.918 209.081 176.171 208.852 176.811C208.259 178.469 207.605 181.761 208.795 183.338C209.354 184.074 210.228 184.098 211.073 183.935C212.731 183.626 214.351 183.146 215.909 182.502C216.659 182.182 218.145 181.546 218.001 180.505C217.93 179.96 217.366 179.477 217.012 179.11C216.391 178.465 215.775 177.805 215.101 177.198C214.146 176.286 212.985 175.264 211.589 175.287C211.029 175.269 210.474 175.406 209.987 175.684C209.499 175.961 209.098 176.368 208.828 176.859C208.637 177.227 210.815 177.06 211.136 176.434Z" fill="#6A79A8"/>
    <path d="M200.601 144.17C200.155 143.404 199.986 142.508 200.123 141.633C200.405 140.362 201.824 140.773 202.67 141.385C203.516 141.996 203.501 142.909 203.625 143.812C203.86 145.197 204.691 145.809 205.537 146.903C206.124 147.686 208.097 146.855 207.448 145.976C206.798 145.097 205.962 144.543 205.761 143.377C205.7 142.726 205.562 142.084 205.35 141.466C204.686 139.918 202.78 139.206 201.189 139.225C197.935 139.263 197.367 142.708 198.69 145.092C199.168 145.938 201.131 145.14 200.601 144.16V144.17Z" fill="#6A79A8"/>
    <path d="M197.003 144.223C200.854 146.855 210.988 150.228 212.531 143.191C212.731 142.278 210.62 142.565 210.438 143.396C209.745 146.545 205.737 146.11 203.367 145.436C201.673 144.921 200.073 144.137 198.628 143.114C197.959 142.636 196.091 143.592 197.003 144.223Z" fill="#6A79A8"/>
    <path d="M202.292 144.7C202.203 144.701 202.115 144.676 202.039 144.628C201.963 144.581 201.902 144.513 201.862 144.433C201.493 143.678 201.237 142.873 201.103 142.044C201.093 141.981 201.095 141.917 201.11 141.855C201.125 141.793 201.151 141.735 201.189 141.684C201.226 141.632 201.273 141.589 201.327 141.555C201.381 141.522 201.441 141.5 201.504 141.49C201.567 141.48 201.631 141.482 201.693 141.497C201.755 141.512 201.813 141.538 201.864 141.576C201.916 141.613 201.959 141.66 201.993 141.714C202.026 141.768 202.048 141.828 202.058 141.891C202.176 142.628 202.404 143.343 202.732 144.012C202.76 144.069 202.776 144.13 202.78 144.193C202.784 144.256 202.775 144.319 202.755 144.378C202.735 144.438 202.703 144.492 202.661 144.54C202.619 144.587 202.569 144.625 202.512 144.653C202.444 144.686 202.368 144.702 202.292 144.7Z" fill="#6A79A8"/>
    <path d="M283.203 108.237C279.591 104.066 274.053 103.215 268.803 103.234C265.845 103.234 262.902 103.397 259.94 103.234C257.713 103.105 254.651 103.024 253.934 100.435C253.676 99.479 251.369 100.114 251.627 101.051C252.735 105.074 258.459 104.787 261.755 104.84C268.368 104.94 276.208 103.578 281.077 109.206C281.679 109.899 283.886 109.034 283.203 108.251V108.237Z" fill="#6A79A8"/>
    <path d="M339.251 380.272C338.684 380.656 338.209 381.16 337.86 381.749C337.51 382.337 337.295 382.996 337.23 383.677C337.165 384.359 337.251 385.046 337.482 385.691C337.713 386.335 338.084 386.92 338.568 387.405C340.999 389.87 345.065 389.249 347.927 388.016C348.281 387.863 348.548 387.682 348.214 387.438C347.879 387.195 346.9 387.605 346.604 387.734C344.267 388.743 341.128 387.906 339.987 385.522C339.179 383.841 339.322 381.418 341.009 380.319C341.965 379.708 339.662 380.004 339.251 380.272Z" fill="#6A79A8"/>
    <path d="M327.698 382.221C327.221 390.41 333.26 396.554 341.076 397.863C348.429 399.115 355.782 396.177 361.745 392.068C362.7 391.404 360.412 391.648 359.967 391.953C353.952 396.105 346.656 398.704 339.485 396.01C336.557 394.961 334.049 392.987 332.341 390.388C330.633 387.789 329.817 384.704 330.016 381.6C330.016 381.223 327.751 381.504 327.708 382.221H327.698Z" fill="#6A79A8"/>
</svg>
