<svg width="478" height="430" viewBox="0 0 478 430" fill="none" xmlns="http://www.w3.org/2000/svg">
<path d="M123.275 422.586C113.15 420.397 -8.49094 400.689 0.471558 255.325C9.43406 109.961 20.6671 66.2446 67.9604 50.2486C115.254 34.2526 230.198 -41.4226 320.407 30.5355C343.829 49.2166 367.685 67.2909 390.481 86.8416C421.8 113.712 454.008 144.734 469.39 185.378C476.64 204.566 479.36 225.168 477.339 245.579C474.982 269.568 471.665 292.902 465.623 316.29C463.568 324.253 461.511 332.216 459.452 340.178C458.219 344.956 456.976 349.763 455.03 354.263C442.521 383.264 426.742 402.294 400.304 417.736C377.36 431.114 348.929 430.784 323.585 429.308C222.808 423.436 171.414 432.992 123.275 422.586Z" fill="#F2F2F5"/>
<path d="M129.658 307.532C129.694 307.644 129.731 307.753 129.764 307.864C130.247 309.457 130.642 311.124 131.102 312.738C132.088 316.196 133.01 319.68 133.867 323.189C135.551 330.096 136.953 337.07 137.999 344.103C139.504 354.218 139.971 363.134 138.396 373.047C136.607 384.31 134.229 395.457 132.359 406.705C131.951 409.161 131.585 411.705 132.222 414.11C132.86 416.514 134.771 418.752 137.237 418.98C140.077 419.24 142.445 416.905 144.315 414.74C152.428 405.31 159.878 395.413 165.747 384.456C167.921 380.399 170.049 376.317 172.13 372.209C173.909 368.679 175.642 365.124 177.294 361.534C178.72 358.451 180.088 355.338 181.374 352.198C188.506 334.741 192.478 317.564 192.669 298.253C192.669 297.216 192.881 296.178 192.992 295.125C193.048 294.575 192.793 287.298 192.937 286.772C193.562 284.471 187.987 282.822 185.614 280.731C178.901 274.831 168.409 279.953 161.197 282.471C151.302 285.939 141.813 290.485 132.584 295.439C131.218 296.173 129.805 296.961 128.938 298.25C128 299.643 127.838 301.446 128.135 303.1C128.429 304.669 129.165 306.059 129.658 307.532Z" fill="#CACEDE"/>
<path d="M133 323.712C136.935 340.051 140.088 357.148 137.418 373.944C136.055 382.511 134.355 391.039 132.797 399.582C132.078 403.559 131 407.728 131 411.783C131.013 414.899 132.263 418.312 135.336 419.571C138.26 420.758 141.292 419.312 143.469 417.31C146.195 414.805 148.475 411.646 150.786 408.744C155.764 402.513 160.408 395.997 164.436 389.095C168.692 381.797 172.474 374.155 176.127 366.53C179.58 359.329 182.827 351.993 185.369 344.415C190.261 329.764 193.113 314.496 193.841 299.05C193.928 297.228 193.981 295.404 194 293.578C194 292.576 191.769 293.017 191.759 293.838C191.597 308.635 189.317 323.432 185.292 337.653C181.023 352.709 174.117 366.805 166.89 380.611C163.26 387.545 159.337 394.24 154.783 400.6C152.549 403.715 150.211 406.763 147.797 409.746C146.611 411.211 145.406 412.663 144.18 414.102C143.02 415.47 141.831 416.957 140.293 417.915C136.84 420.062 133.911 416.438 133.375 413.201C133.051 411.254 133.326 409.268 133.631 407.336C133.978 405.166 134.363 402.999 134.751 400.834C136.186 392.786 137.783 384.775 139.136 376.714C140.607 367.945 141.043 359.321 140.129 350.466C139.177 341.248 137.372 332.102 135.203 323.105C134.997 322.253 132.761 322.845 132.972 323.71L133 323.712Z" fill="#5D7183"/>
<path d="M33.8742 403.499C29.5506 396.355 42.3533 382.634 48.4674 377.052C61.164 365.483 78.2954 355.879 80.1403 339.752C82.2905 320.944 78.0496 304.069 82.8493 284.592C84.4018 278.302 86.6399 271.68 91.6958 266.497C105.151 252.719 131.025 267.853 135.317 278.989C138.914 288.323 142.614 299.973 140.26 310.754C136.831 326.435 130.495 343.185 118.711 357.404C107.844 370.508 91.2663 379.606 76.2229 387.548C69.2084 391.255 38.0969 410.442 33.8742 403.499Z" fill="#CACEDE"/>
<path d="M138.817 318.808C135.666 327.225 131.434 335.31 126.96 343.073C124.732 347.021 122.288 350.84 119.639 354.511C116.574 358.597 113.071 362.325 109.193 365.628C100.874 372.821 91.3687 378.444 81.7731 383.702C76.1661 386.765 70.6109 389.895 65.0272 392.998C58.7455 396.487 52.3398 399.963 45.6006 402.463C43.2043 403.353 40.6011 404.271 38.0212 404.323C35.9842 404.365 34.8442 403.502 34.4203 401.415C33.6913 397.836 35.8472 393.986 37.6645 391.086C39.9264 387.476 42.7312 384.196 45.6575 381.125C51.9986 374.476 59.521 369.169 66.3378 363.078C72.9271 357.19 79.3431 350.209 81.0725 341.185C82.1427 335.621 82.0497 329.708 82.0212 324.066C81.9902 318.102 81.7498 312.144 81.6826 306.183C81.6516 303.368 81.6645 300.554 81.7705 297.742C81.8144 296.57 79.5318 296.905 79.4956 297.92C79.0407 310.114 80.2376 322.316 79.5112 334.505C79.2061 339.608 78.4978 344.365 76.0369 348.89C73.7672 353.075 70.5437 356.669 67.134 359.934C60.2009 366.567 52.2312 371.997 45.4196 378.766C42.3879 381.732 39.6118 384.955 37.1217 388.399C34.8908 391.538 32.6289 395.134 32.0912 399.045C31.768 401.399 32.2333 404.459 34.6348 405.495C36.7029 406.382 39.2078 405.929 41.3042 405.44C48.0512 403.871 54.4673 400.47 60.5628 397.261C65.9061 394.439 71.0865 391.329 76.3884 388.436C85.9143 383.244 95.4971 378.149 104.278 371.696C108.719 368.485 112.863 364.875 116.661 360.909C119.822 357.559 122.524 353.868 125.018 349.994C130.27 341.804 134.876 333.206 138.791 324.283C139.551 322.554 140.278 320.812 140.939 319.052C141.394 317.838 139.145 317.867 138.794 318.79L138.817 318.808Z" fill="#5D7183"/>
<path d="M191.934 290.717C193.783 289.922 192.669 279.217 192.651 277.501C192.446 258.15 188.656 237.136 181.684 218.873C174.207 199.294 166.129 184.063 158.373 165.068C154.412 155.362 153.49 143.571 151.426 133.291C149.469 123.54 148.33 114.971 143.2 106.292C138.31 98.0268 129.681 92.7077 119.137 94.273C105.005 96.3732 96.3583 111.477 99.8212 134.789C99.9068 135.357 100.307 138.044 100.444 138.968C101.511 146.073 101.851 152.833 103.069 159.913C103.39 161.777 103.476 169.949 103.416 170.652C102.251 184.671 71.8951 259.37 79.1064 294.728C79.1142 294.717 143.543 311.228 191.934 290.717Z" fill="white"/>
<path d="M192.65 277.426C192.443 258.006 188.654 236.915 181.677 218.586C174.861 200.661 166.892 184.831 159.775 168C156.27 178.354 149.448 182.33 140.898 183.836C128.227 186.05 113.634 182.106 102.209 176.382C96.8469 198.006 72.6416 263.013 79.0811 294.695C79.0811 294.695 143.528 311.265 191.936 290.68C193.783 289.883 192.669 279.138 192.65 277.426Z" fill="white"/>
<path d="M120.196 138.929C116.861 139.366 113.186 137.243 112.469 133.936C111.914 138.209 108.5 141.981 104.303 142.823C100.107 143.665 95.4586 141.438 93.5566 137.578C91.6545 133.718 92.7539 128.572 96.1374 125.923C91.7035 126.201 87.4271 123.064 85.8141 118.906C84.2011 114.747 85.0863 109.827 87.5768 106.123C90.0673 102.42 94.0082 99.8568 98.2382 98.4948C96.4161 96.114 97.3891 92.5169 99.3454 90.2478C101.113 88.1997 103.702 86.7624 106.396 86.8326C109.091 86.9028 111.775 88.7014 112.484 91.3187C114.183 87.55 116.743 84.0645 120.273 81.9488C123.804 79.8332 128.385 79.2666 132.057 81.1171C135.73 82.9677 138.089 87.4772 136.92 91.4434C139.008 89.5981 141.428 87.9502 144.18 87.5941C148.216 87.0743 152.438 89.793 153.641 93.7021C154.844 97.6111 152.931 102.264 149.318 104.148C148.487 104.582 147.416 105.188 147.581 106.105C147.695 106.729 148.335 107.08 148.871 107.405C152.345 109.614 153.15 114.817 151.127 118.417C149.104 122.017 144.876 123.99 140.781 124.101C137.567 124.192 134.47 121.965 131.562 122.022C129.332 122.066 129.384 123.132 129.151 125.255C128.516 131.049 127.342 138.004 120.196 138.929Z" fill="#96E296"/>
<path d="M104.279 173.004C104.69 171.131 104.651 169.277 104.626 167.368C104.592 164.884 104.61 162.357 104.315 159.886C103.797 155.592 103.129 151.32 102.669 147.013C102.247 143.068 101.726 139.144 101.146 135.219C99.3862 123.316 99.5259 107.931 109.448 99.357C111.605 97.4968 114.145 96.141 116.887 95.3877C119.628 94.6344 122.502 94.5023 125.301 95.001C133.274 96.4417 139.694 102.613 143.421 109.564C147.467 117.135 148.793 125.933 150.411 134.27C152.034 142.701 152.88 151.301 155.241 159.577C156.465 163.868 158.259 167.956 160.012 172.06C161.764 176.163 163.607 180.293 165.448 184.386C169.072 192.417 172.763 200.422 176.168 208.554C179.68 216.946 182.898 225.434 185.269 234.232C187.605 242.934 189.28 251.802 190.281 260.758C191.057 267.671 191.179 274.601 191.552 281.537C191.686 284.021 191.875 286.629 191.448 289.097C191.391 289.433 191.334 289.901 191.125 290.182C191.145 290.153 191.215 290.135 191.246 290.106C190.943 290.395 190.156 290.564 189.76 290.725C187.929 291.472 186.079 292.166 184.208 292.806C169.944 297.684 154.842 299.736 139.823 300.168C126.968 300.535 114.084 299.7 101.343 297.965C94.4056 297.019 87.4707 295.841 80.6548 294.22C80.4081 294.146 80.1575 294.087 79.9041 294.041C79.7022 294.015 79.5288 293.945 79.8886 294.041L80.3727 294.532C78.9412 287.378 79.1379 279.953 79.7825 272.721C80.559 263.994 82.1122 255.339 83.9683 246.783C87.6752 229.686 92.6997 212.92 97.7812 196.196C99.7512 189.715 101.812 183.242 103.448 176.665L101.442 177.414C103.045 178.35 104.711 179.174 106.427 179.88C109.874 181.235 113.394 182.394 116.971 183.349C122.637 184.844 128.472 185.796 134.343 185.689C141.7 185.538 149.587 183.567 154.982 178.252C156.874 176.384 158.397 174.132 159.067 171.537C159.36 170.406 157.05 170.642 156.781 171.685C155.565 176.39 151.027 179.747 146.802 181.567C138.433 185.161 128.643 184.264 120.018 182.225C114.206 180.852 108.392 178.99 103.168 176.077C102.436 175.669 101.379 175.96 101.165 176.826C99.7253 182.608 97.9288 188.303 96.1996 193.99C93.7999 201.888 91.3976 209.781 89.1378 217.718C84.2194 234.945 79.653 252.491 77.7478 270.347C76.8728 278.536 76.5027 287.017 78.1257 295.141C78.1623 295.255 78.2252 295.359 78.3093 295.444C78.3935 295.529 78.4964 295.593 78.6098 295.63C83.6292 296.93 88.7521 297.848 93.862 298.683C106.018 300.688 118.304 301.79 130.621 301.978C145.894 302.191 161.335 300.878 176.157 297C179.989 296.004 183.769 294.814 187.482 293.435C188.333 293.118 189.181 292.792 190.027 292.457C190.853 292.13 191.868 291.867 192.592 291.336C193.26 290.847 193.509 290.036 193.672 289.256C194.19 286.764 193.972 284.055 193.84 281.535C193.706 278.973 193.612 276.424 193.527 273.863C192.919 255.583 189.527 237.228 183.216 220.062C176.786 202.57 168.316 185.936 161.109 168.772C159.341 164.565 157.744 160.372 156.675 155.923C155.611 151.523 154.886 147.049 154.167 142.582C153.447 138.114 152.632 133.607 151.754 129.134C150.897 124.757 150.012 120.37 148.648 116.131C146.168 108.459 141.798 101.279 134.928 96.8578C128.948 93.0193 121.594 91.8386 114.851 94.2572C103.145 98.4806 98.4827 111.122 98.0478 122.705C97.7605 130.354 99.3603 137.83 100.202 145.393C101.022 152.776 102.272 160.089 102.366 167.524C102.392 169.433 102.43 171.287 102.019 173.16C101.76 174.312 104.072 174.067 104.305 173.011L104.279 173.004Z" fill="#5D7183"/>
<path d="M135.422 149.753L135.326 149.413C135.089 148.735 134.98 148.021 135.003 147.305C135.019 146.946 135.121 146.596 135.301 146.284C135.481 145.971 135.734 145.706 136.039 145.509C137.374 144.766 139.088 145.943 140.519 145.432C141.053 145.24 141.478 144.834 141.937 144.5C142.396 144.165 142.97 143.897 143.523 144.039C144.308 144.239 144.647 145.14 144.797 145.928C145.501 149.684 144.53 155.392 139.414 154.979C136.626 154.744 136.071 152.084 135.422 149.753Z" fill="#5D7183"/>
<path d="M90.0791 317.983C96.7396 316.873 102.385 312.116 103.982 305.637C104.234 304.612 101.806 304.925 101.579 305.859C100.289 311.084 95.848 315.528 90.3315 316.448C89.8843 316.52 89.0312 316.758 89.001 317.325C88.9708 317.892 89.6182 318.058 90.0764 317.983H90.0791Z" fill="#5D7183"/>
<path d="M174 300.826C174.179 305.761 174.779 311.674 179.993 313.958C180.541 314.195 182.606 313.359 181.826 313.018C176.857 310.846 176.426 304.861 176.26 300.232C176.242 299.722 173.974 300.112 174 300.826Z" fill="#5D7183"/>
<path d="M45.4438 138.375C47.4924 139.765 46.6724 142.67 45.7024 144.442C44.6936 146.289 43.5607 148.02 42.7355 149.965C41.2269 153.575 40.3343 157.411 40.0945 161.314C39.5565 169.345 41.3491 177.488 44.5979 184.817C47.8933 192.253 52.6735 199.306 59.6756 203.691C65.9716 207.635 73.5686 209.753 81.0027 208.755C84.7223 208.257 88.4161 207.016 91.4399 204.754C94.8931 202.174 96.7581 198.661 97.9738 194.603C98.2687 193.62 95.9795 193.891 95.7053 194.804C94.637 198.367 93.0152 201.553 89.9733 203.833C87.3866 205.765 84.2567 206.841 81.0725 207.251C73.7833 208.184 66.3803 205.86 60.3792 201.774C53.8194 197.314 49.316 190.205 46.3207 182.99C43.3744 175.891 41.7655 168.068 42.4251 160.373C42.75 156.119 43.9018 151.969 45.8163 148.154C47.3838 145.112 51.3672 139.966 47.195 137.137C46.4319 136.621 44.4272 137.683 45.4464 138.375H45.4438Z" fill="#5D7183"/>
<path d="M142.039 194.073C152.142 219.547 153.906 247.7 154.966 274.817C155.259 282.319 155.466 289.82 155.728 297.322C155.767 298.437 158.031 298.04 158 297.117C157.054 269.761 156.842 242.028 150.86 215.19C149.243 207.786 147.047 200.522 144.29 193.465C143.917 192.518 141.681 193.168 142.039 194.07V194.073Z" fill="#5D7183"/>
<path d="M104.145 190.775C110.546 193.075 116.964 195.313 123.307 197.751C125.864 198.732 128.813 200.013 131.613 200C133.98 200 135.636 198.436 136.811 196.578C137.935 194.789 138.774 192.865 139.995 191.14C140.388 190.586 141.204 189.318 141.942 189.152C143.032 188.897 144.81 190.087 145.722 190.578C147.586 191.6 149.15 192.781 150.855 194.015C152.255 195.037 153.462 195.311 155.118 194.603C156.925 193.836 158.186 192.155 159.31 190.632C160.598 188.886 161.656 186.995 162.96 185.265C163.221 184.923 162.131 185.01 162.045 185.01C161.581 185.081 161.002 185.247 160.72 185.633C159.738 186.952 158.895 188.373 157.97 189.722C157.386 190.576 156.784 191.419 156.116 192.214C155.532 192.906 154.813 193.417 154.203 194.056C153.801 194.473 154.112 193.737 154.372 194.056C154.228 193.977 154.077 193.908 153.921 193.852C153.575 193.596 153.199 193.389 152.852 193.134C152.042 192.538 151.288 191.856 150.457 191.296C148.857 190.192 147.123 189.289 145.295 188.608C141.123 187.131 138.475 190.09 136.587 193.34C135.602 195.035 134.817 197.043 133.407 198.451C132.927 198.934 132.77 199.047 132.103 198.942C131.4 198.829 130.704 198.679 130.017 198.492C128.587 198.101 127.177 197.638 125.794 197.107C119.222 194.628 112.613 192.252 106.002 189.888C105.48 189.702 103.444 190.524 104.145 190.777V190.775Z" fill="#5D7183"/>
<path d="M350.868 416.72C356.326 414.485 355.164 399.525 355.565 395.253C356.666 383.682 359.461 372.336 363.859 361.582C372.271 341 394.953 323.104 403.185 302.373C405.525 296.517 402.314 292.619 399.991 286.721C398.054 281.815 394.199 277.948 390.448 274.236C384.896 268.741 378.709 262.934 370.979 262.111C365.227 261.499 359.217 263.455 354.845 267.209C333.142 285.845 327.923 320.274 328.001 347.252C328.04 360.761 329.581 374.371 333.174 387.411C334.689 392.918 335.986 398.522 338.183 403.811C339.836 407.789 343.238 415.342 347.733 416.728C348.978 417.109 349.999 417.075 350.868 416.72Z" fill="#CACEDE"/>
<path d="M351.572 416.448C355.097 414.893 355.789 410.349 356.189 406.963C356.655 403.011 356.448 399.053 356.707 395.096C357.181 387.904 358.711 380.66 360.681 373.74C362.534 367.221 364.828 360.734 368.133 354.796C374.268 343.764 382.907 334.359 390.595 324.433C394.351 319.593 397.969 314.606 400.939 309.235C402.355 306.673 403.881 303.914 404.651 301.074C405.46 298.092 404.763 295.216 403.578 292.444C402.261 289.368 401.038 286.076 399.265 283.236C397.539 280.471 395.307 278.054 393.018 275.766C388.529 271.248 383.83 266.416 377.925 263.781C372.199 261.227 365.706 261.54 359.983 263.955C354.649 266.204 350.421 270.53 346.821 274.953C332.402 292.649 328.039 316.873 327.156 339.09C326.601 353.047 327.487 367.105 330.499 380.764C331.311 384.438 332.314 388.057 333.301 391.689C334.289 395.322 335.266 398.91 336.611 402.403C338.361 406.944 340.551 412.331 344.473 415.44C345.417 416.207 346.546 416.714 347.747 416.91C348.948 417.105 350.179 416.982 351.318 416.554C351.554 416.471 352.205 416.238 351.99 415.911C351.774 415.585 350.745 415.966 350.538 416.038C349.263 416.489 347.565 415.44 346.598 414.67C345.611 413.854 344.739 412.908 344.006 411.857C342.521 409.815 341.36 407.54 340.323 405.245C337.594 399.195 336.028 392.757 334.294 386.376C330.593 372.748 329.146 358.594 329.276 344.497C329.47 323.039 332.645 300.027 344.138 281.466C350.017 271.979 359.563 260.519 372.101 263.315C378.205 264.675 383.161 269.015 387.547 273.225C389.841 275.43 392.147 277.655 394.221 280.075C396.476 282.705 397.982 285.482 399.345 288.638C400.548 291.415 402.16 294.159 402.65 297.188C403.169 300.328 401.961 303.113 400.649 305.89C398.187 311.108 394.999 315.953 391.577 320.596C384.465 330.291 376.284 339.18 369.592 349.199C362.371 360.029 358.187 372.538 355.854 385.293C354.948 390.125 354.442 395.023 354.343 399.939C354.281 404.05 354.268 408.413 352.949 412.352C352.472 413.771 351.733 415.51 350.268 416.152C349.911 416.308 349.675 416.489 349.994 416.738C350.312 416.987 351.285 416.572 351.572 416.448Z" fill="#5D7183"/>
<path d="M275.08 358.972C282.245 357.953 284.707 345.181 285.227 339.534C286.611 324.194 283.317 316.388 299.659 311.443C317.772 305.961 341.693 310.784 360.504 311.544C363.054 311.647 361.024 303.155 362.9 301.436C364.981 299.557 365.06 296.395 364.981 293.604L364.177 258.264C364.021 251.417 363.701 244.074 359.572 238.598C357.968 236.509 355.893 234.823 353.515 233.678C351.137 232.532 348.523 231.958 345.882 232.002C336.516 232.241 320.702 242.206 312.84 247.41C298.106 257.168 279.615 265.811 268.904 279.98C257.211 295.452 258.991 312.047 263.227 330.064C264.468 335.343 268.094 359.949 275.08 358.972Z" fill="#CACEDE"/>
<path d="M309.229 249.305C292.234 260.056 271.106 269.809 262.622 289.284C258.551 298.633 258.369 308.86 259.846 318.802C260.505 323.229 261.568 327.555 262.469 331.932C263.023 334.638 263.529 337.354 264.117 340.055C264.83 343.46 265.723 346.826 266.792 350.137C267.688 352.817 268.735 355.691 270.551 357.913C272.067 359.761 274.02 360.429 276.341 359.727C279.727 358.713 281.904 355.707 283.295 352.641C286.368 345.868 286.66 338.414 286.941 331.129C287.061 328.091 287.139 324.955 288.012 322.019C288.825 319.268 290.624 316.91 293.067 315.391C300.36 310.726 309.997 310.451 318.369 310.498C328.175 310.552 337.95 311.535 347.754 311.677C349.775 311.706 351.793 311.677 353.812 311.586C355 311.529 355.635 310.104 354.072 310.179C344.875 310.627 335.629 309.622 326.445 309.254C317.642 308.904 308.286 308.567 299.743 311.091C293.536 312.924 287.395 316.016 285.611 322.679C284.829 325.59 284.764 328.661 284.647 331.655C284.506 335.283 284.412 338.912 283.881 342.504C283.35 346.096 282.514 349.671 280.959 352.928C279.977 354.986 277.698 358.993 274.885 358.63C272.801 358.353 271.415 355.347 270.665 353.727C269.314 350.819 268.397 347.706 267.589 344.609C266.063 338.764 265.006 332.795 263.716 326.894C261.562 317.045 260.122 306.753 262.354 296.792C267.087 275.695 287.22 264.421 304.348 254.027C306.463 252.747 308.57 251.456 310.656 250.14C311.057 249.881 311.222 249.466 310.826 249.147C310.43 248.828 309.586 249.093 309.213 249.329L309.229 249.305Z" fill="#5D7183"/>
<path d="M350.076 163.54C350.846 160.502 351.34 157.399 351.549 154.272C352.015 147.138 352.807 140.131 353.525 133C353.624 132.014 353.904 129.231 353.959 128.67C356.386 104.508 370.159 85.6258 384.663 87.0785C399.166 88.5312 408.905 109.764 406.478 133.926C405.479 143.859 403.759 153.693 402.535 163.59L402.134 169.499C404.913 178.402 408.957 191.466 410.743 198.743C417.043 224.443 418.234 248.973 411.263 274.564C409.963 279.353 403.738 298.637 402.038 297.984C349.894 277.884 315.907 246.802 315 243.746C325.854 226.318 335.947 208.25 343.011 188.927C345.084 183.272 346.862 177.514 348.339 171.676L350.076 163.54Z" fill="white"/>
<path d="M396.311 126.015C394.846 127.084 392.726 126.848 391.203 125.861C389.681 124.874 388.653 123.281 387.82 121.658C385.788 117.636 385.718 112.885 383.719 108.941C381.885 112.149 379.956 117.353 375.728 117.845C373.906 118.057 372.137 117.245 370.453 116.509C363.924 113.655 357.557 112.665 350.697 111.144C349.956 110.981 349.17 110.79 348.647 110.238C347.967 109.515 347.944 108.405 348.043 107.407C350.177 85.9334 377.268 72.0543 396.121 78.6534C409.276 83.2571 417.631 95.9369 422.115 108.598C425.581 118.395 431.626 140.389 421.038 147.779C418.516 149.537 415.313 149.874 412.234 149.982C411.014 150.029 409.723 150.029 408.664 149.414C407.03 148.463 406.476 146.347 406.47 144.438C406.465 142.529 406.856 140.615 406.47 138.755C404.573 140.489 402.169 142.05 399.634 141.683C396.59 141.246 394.531 138.069 394.289 134.984C394.047 131.9 395.195 128.901 396.311 126.015Z" fill="#ABDFF5"/>
<path d="M351.29 163.175C352.811 156.972 352.946 150.589 353.55 144.253C354.045 139.075 354.586 133.903 355.105 128.728C356.103 118.825 358.819 108.901 364.176 100.445C368.064 94.3117 374.113 87.8301 381.831 87.3391C389.283 86.8637 395.241 92.3997 398.839 98.3929C403.797 106.659 405.609 116.788 405.627 126.322C405.648 138.719 402.646 150.947 401.356 163.23C401.239 164.339 401.19 165.456 401.114 166.568C401.042 167.628 400.762 168.87 401.029 169.906C402.278 174.723 403.989 179.458 405.412 184.228C408.488 194.523 411.21 204.871 412.855 215.509C414.755 227.776 415.315 240.248 414.084 252.611C413.032 263.187 410.474 273.503 407.661 283.725C407.032 286.014 406.366 288.29 405.565 290.524C405.282 291.316 407.542 291.043 407.822 290.264C409.424 285.762 410.569 281.104 411.731 276.472C413.104 270.999 414.478 265.561 415.359 259.976C417.316 247.6 417.464 234.99 416.116 222.541C414.88 211.126 412.402 199.922 409.216 188.904C407.739 183.789 406.187 178.695 404.613 173.608C404.278 172.517 403.941 171.428 403.603 170.34C403.375 169.602 403.178 169.179 403.227 168.441C403.329 166.962 403.429 165.485 403.527 164.009C403.893 158.621 404.943 153.226 405.702 147.882C406.588 141.647 407.568 135.386 407.825 129.099C408.226 119.173 406.788 108.745 402.216 99.8269C398.886 93.3323 393.425 87.217 385.844 86.1649C378.384 85.1258 371.444 89.129 366.55 94.478C360.003 101.645 356.134 111.104 354.133 120.501C353.158 125.081 352.77 129.731 352.298 134.381C351.629 140.969 350.95 147.554 350.484 154.161C350.258 157.291 349.766 160.396 349.014 163.443C348.801 164.308 351.075 163.978 351.271 163.183L351.29 163.175Z" fill="#5D7183"/>
<path d="M404.639 300.971C403.859 301.332 396.077 298.267 393.51 297.206C385.411 293.855 377.548 290.008 369.631 286.288C340.39 272.606 311.744 248.785 311.141 248.016C309.995 246.555 316.224 242 316.224 242C316.224 242 318.967 245.12 319.422 245.51C346.469 268.358 372.723 283.54 407 294.614C407 294.614 405.907 300.373 404.639 300.971Z" fill="white"/>
<path d="M404.316 299.549C404.598 299.459 404.575 299.593 404.445 299.495C404.182 299.396 403.907 299.329 403.628 299.294C402.882 299.09 402.15 298.843 401.421 298.593C399.746 298.02 398.09 297.391 396.441 296.749C391.968 295.001 387.578 293.042 383.216 291.036C373.4 286.522 363.602 281.984 354.248 276.572C340.465 268.591 327.331 259.551 314.968 249.535C314.313 249.004 313.67 248.468 313.015 247.918C312.823 247.753 312.34 247.467 312.252 247.209C311.946 246.284 313.994 244.704 314.552 244.201C315.344 243.488 316.171 242.816 317.032 242.187L315.264 242.226C316.499 243.623 317.699 245.062 319.135 246.274C321.923 248.603 324.747 250.885 327.608 253.121C333.302 257.563 339.159 261.802 345.192 265.775C357.048 273.583 369.59 280.314 382.663 285.885C390.361 289.162 398.22 292.052 406.187 294.62L405.72 294.04C405.556 294.89 405.354 295.733 405.128 296.571C404.902 297.409 404.593 299.312 403.77 299.791C403.347 300.049 403.23 300.511 403.617 300.823C404.004 301.135 404.83 300.885 405.227 300.653C406.385 299.977 406.81 298.332 407.174 297.139C407.505 296.046 407.778 294.936 407.992 293.815C408.051 293.506 407.779 293.315 407.524 293.233C393.687 288.772 380.187 283.317 367.312 276.575C354.951 270.051 343.167 262.501 332.087 254.006C328.811 251.512 325.587 248.952 322.416 246.328C320.593 244.781 318.897 243.093 317.343 241.28C316.933 240.816 316.011 241.001 315.578 241.316C313.719 242.672 311.51 244.278 310.346 246.294C309.531 247.707 310.282 248.303 311.286 249.151C315.64 252.822 320.209 256.256 324.81 259.613C332.648 265.334 340.719 270.753 349.05 275.745C358.76 281.564 368.909 286.408 379.166 291.178C384.418 293.619 389.702 296.017 395.102 298.126C396.968 298.856 398.848 299.567 400.751 300.189C401.875 300.56 403.469 301.274 404.679 300.89C406.024 300.477 405.686 299.113 404.316 299.549Z" fill="#5D7183"/>
<path d="M330.238 255.068C331.188 255.679 332.143 256.285 333.104 256.887C333.759 257.298 335.668 256.502 334.759 255.933C333.8 255.333 332.845 254.727 331.894 254.115C331.246 253.704 329.335 254.486 330.238 255.068Z" fill="#5D7183"/>
<path d="M361.403 282.979C363.08 283.171 364.23 282.023 365.222 280.74C366.439 279.171 367.157 277.415 366.971 275.357C366.904 274.62 364.67 275.12 364.749 275.987C364.866 277.263 364.576 278.544 363.926 279.627C363.693 280.004 363.437 280.365 363.159 280.708C363.009 280.902 362.858 281.096 362.694 281.277C362.375 281.637 362.073 281.65 362.771 281.731C362.26 281.672 361.569 281.758 361.201 282.174C360.923 282.487 360.884 282.914 361.403 282.984V282.979Z" fill="#5D7183"/>
<path d="M334.377 265.981C337.755 266.329 340.251 261.917 339.98 259.228C339.929 258.717 337.673 259.134 337.753 259.792C337.869 260.939 337.592 262.09 336.961 263.076C336.696 263.469 336.399 263.842 336.074 264.192C335.897 264.393 335.72 264.594 335.523 264.778C335.438 264.865 335.347 264.946 335.249 265.02C334.89 265.267 335.071 265.267 335.792 265.02C335.32 264.971 334.567 265.092 334.216 265.419C333.929 265.685 333.877 265.937 334.377 265.988V265.981Z" fill="#5D7183"/>
<path d="M385.655 294.984C387.263 295.179 388.586 293.513 389.517 292.327C390.947 290.502 391.178 288.808 390.894 286.456C390.785 285.553 388.571 286.11 388.69 287.095C388.883 288.707 388.944 290.159 387.973 291.487C387.673 291.896 387.355 292.288 387.019 292.662C386.844 292.86 386.669 293.06 386.477 293.239L386.248 293.45C385.908 293.664 385.995 293.675 386.477 293.486C385.543 293.373 384.171 294.798 385.655 294.976V294.984Z" fill="#5D7183"/>
<path d="M402.137 181.424C396.618 185.546 390.007 188.254 383.355 189.655C377.091 190.973 369.77 190.883 363.884 188.017C360.004 186.126 358.49 182.505 357.247 178.496C356.94 177.51 354.725 178.14 355.029 179.111C356.141 182.679 357.484 186.303 360.662 188.428C363.682 190.448 367.427 191.232 370.944 191.701C378.321 192.687 385.693 191.142 392.585 188.41C396.491 186.898 400.191 184.87 403.592 182.376C404.812 181.466 402.987 180.793 402.145 181.424H402.137Z" fill="#5D7183"/>
<path d="M398.983 172.361C393.321 177.671 386.04 180.856 378.297 180.772C370.726 180.681 362.799 177.782 357.202 172.526C356.653 171.995 354.535 172.879 355.093 173.402C361.208 179.152 369.994 182.133 378.255 181.995C386.607 181.857 394.642 178.411 400.772 172.672C401.712 171.79 399.47 171.875 398.975 172.361H398.983Z" fill="#5D7183"/>
<path d="M362.875 146.945C364.299 147.19 365.79 146.593 366.812 145.613C367.835 144.633 368.448 143.328 368.836 141.996C369.001 141.431 369.12 140.788 368.793 140.289C368.466 139.79 367.791 139.611 367.183 139.476L360.488 138.001C359.97 137.878 359.041 146.267 362.875 146.945Z" fill="#5D7183"/>
<path d="M343.853 181.529C341.805 188.009 337.871 193.728 334.415 199.529C330.914 205.393 327.118 211.292 322.746 216.548C320.877 218.788 317.783 222.496 317.801 222.954C317.944 226.25 317 239 317 239C320.371 236.719 331.295 237.066 331.295 237.066C331.866 237.084 343.288 210.798 347.203 192.638C347.917 189.338 349.778 184.028 348.64 180.654C348.471 180.153 348.36 179.51 347.753 179.369L346.457 179.039C345.453 178.782 344.317 179.811 343.921 181.333C343.898 181.392 343.876 181.457 343.853 181.529Z" fill="#ABDFF5"/>
<path d="M342.659 181.354C340.894 186.923 337.861 191.896 334.879 196.862C331.791 201.999 328.791 207.167 325.292 212.034C323.702 214.243 321.994 216.346 320.286 218.459C319.182 219.823 317.89 221.197 317.031 222.74C316.539 223.625 316.807 224.999 316.774 225.99C316.717 227.768 316.624 229.543 316.516 231.315C316.362 234.048 316.19 236.778 316.002 239.507C315.943 240.332 317.453 239.924 317.803 239.69C319.902 238.31 323.028 238.271 325.442 238.128C327.243 238.021 329.044 238.128 330.845 238.04C332.221 237.969 332.599 237.108 333.127 236.01C333.983 234.232 334.755 232.411 335.514 230.589C338.058 224.501 340.392 218.328 342.515 212.07C344.905 205.07 346.768 198.017 348.533 190.832C349.048 188.734 349.621 186.637 349.863 184.485C350.051 182.816 350.19 180.581 349.258 179.09C348.713 178.215 346.943 177.898 345.988 178.028C344.187 178.27 343.114 179.688 342.644 181.354C342.422 182.135 344.663 181.825 344.879 181.065C344.981 180.625 345.149 180.203 345.376 179.813C345.446 179.704 345.816 179.238 345.68 179.293C345.878 179.225 346.781 179.53 346.966 179.675C347.385 180.029 347.54 181.086 347.627 181.606C347.771 182.594 347.782 183.596 347.658 184.586C347.316 187.907 346.307 191.191 345.556 194.441C344.028 201.065 341.967 207.563 339.736 213.975C337.755 219.674 335.611 225.313 333.304 230.891C332.602 232.572 331.892 234.256 331.11 235.9C330.881 236.286 330.678 236.685 330.502 237.098C330.374 237.511 330.147 237.321 331.099 237.004C332.18 236.642 331.737 236.822 331.341 236.78C329.064 236.538 326.576 236.814 324.304 237.017C321.698 237.254 318.685 237.569 316.437 239.049L318.238 239.232C318.409 236.945 318.559 234.656 318.688 232.364C318.793 230.579 318.891 228.793 318.963 227.005C318.994 226.266 319.02 225.525 319.035 224.786C319.035 224.249 318.904 223.484 319.035 222.964C319.153 222.508 319.583 222.063 319.858 221.689C320.517 220.796 321.212 219.927 321.917 219.06C323.46 217.132 325.05 215.235 326.525 213.244C330.155 208.346 333.258 203.113 336.381 197.89C339.603 192.49 342.983 187.126 344.903 181.078C345.144 180.303 342.898 180.599 342.659 181.354Z" fill="#5D7183"/>
<path d="M348.68 168.27C349.497 167.816 350.294 167.832 350.871 169.128C351.698 170.982 351.718 173.566 351.933 175.574C352.111 177.239 352.063 178.319 350.122 177.915C348.412 177.558 346.64 176.495 345.016 175.826C342.406 174.763 345.527 171.02 346.566 170.059C347.184 169.48 347.939 168.682 348.68 168.27Z" fill="#ABDFF5"/>
<path d="M349.052 169.253C350.02 168.776 350.582 174.67 350.642 175.373C350.686 175.905 350.763 176.437 350.783 176.969C350.783 177.251 350.604 177.821 350.656 178.033C350.572 177.677 351.437 178.097 350.724 177.751C350.403 177.597 350 177.552 349.659 177.429C349.015 177.195 348.39 176.897 347.769 176.597C347.045 176.253 345.572 175.937 345.239 175.083C344.96 174.372 345.411 173.486 345.749 172.89C346.645 171.359 347.86 170.07 349.298 169.125C350.542 168.327 348.624 168.164 347.988 168.566C346.122 169.74 343.525 172.148 343.053 174.556C342.836 175.66 343.301 176.328 344.194 176.799C345.886 177.68 347.838 178.723 349.726 178.965C350.721 179.092 352.102 178.901 352.696 177.924C353.291 176.948 352.845 175.242 352.756 174.149C352.614 172.446 352.554 170.325 351.592 168.877C350.793 167.677 349.353 167.89 348.234 168.441C346.863 169.12 348.129 169.708 349.052 169.253Z" fill="#5D7183"/>
<path d="M339.751 188.116C333.925 189.305 328.351 187.704 324.279 183.274C320.41 179.062 318.217 173.496 316.68 168.053C314.991 162.058 314.218 155.925 313.654 149.732C313.068 143.291 312.616 136.759 310.847 130.51C308.861 123.464 305.005 117.388 299.031 113.142C298.309 112.617 296.277 113.667 297.266 114.365C302.866 118.338 306.513 124.046 308.449 130.636C310.33 137.032 310.784 143.745 311.397 150.354C311.975 156.707 312.78 162.998 314.555 169.137C316.143 174.624 318.448 180.269 322.397 184.463C327.123 189.465 333.538 190.862 340.117 189.518C341.524 189.229 341.137 187.854 339.751 188.137V188.116Z" fill="#5D7183"/>
<path d="M372.126 303.08C375.31 305.625 379.301 307.011 383.416 307C383.879 307 384.754 306.856 384.947 306.36C385.139 305.863 384.783 305.62 384.296 305.62C380.649 305.635 377.109 304.414 374.281 302.165C373.604 301.627 371.433 302.531 372.14 303.08H372.126Z" fill="#5D7183"/>
<path d="M337.111 281.126C339.876 284.627 343.629 287.318 347.94 288.889C348.206 288.986 348.493 289.02 348.776 288.989C349.06 288.958 349.331 288.862 349.566 288.71C349.829 288.525 350.293 287.975 349.743 287.776C345.548 286.262 341.896 283.65 339.214 280.245C338.687 279.595 336.492 280.362 337.108 281.126H337.111Z" fill="#5D7183"/>
<path d="M378.02 213.848C382.893 225.852 394.926 232.528 406.212 237.572C418.661 243.124 432.74 248.23 439.927 260.624C443.451 266.702 444.981 274.005 442.398 280.72C442.199 281.236 444.39 280.994 444.631 280.362C449.39 268.002 440.985 255.154 431.052 248.207C419.734 240.29 405.896 237.072 394.436 229.382C388.378 225.323 383.04 220.073 380.268 213.242C380.009 212.625 377.802 213.322 378.014 213.843L378.02 213.848Z" fill="#5D7183"/>
<path d="M217.193 101.342C210.216 104.794 212.57 114.428 213.544 120.454C214.905 128.879 215.737 137.712 214.452 146.19C212.286 160.487 205.341 174.86 193.917 184.159C190.289 187.11 186.282 189.275 181.67 190.286C177.923 191.105 173.116 191.48 170.218 188.503C169.723 187.983 167.561 188.812 168.08 189.345C170.473 191.804 174.198 192.166 177.471 191.945C181.42 191.641 185.277 190.61 188.841 188.903C195.639 185.677 201.297 179.844 205.564 173.805C209.958 167.531 213.215 160.552 215.19 153.177C216.205 149.494 216.877 145.728 217.198 141.924C217.58 137.135 217.261 132.331 216.793 127.558C216.345 123.048 215.498 118.606 214.989 114.106C214.521 109.985 214.131 104.087 218.583 101.888C218.978 101.693 219.168 101.396 218.812 101.108C218.457 100.819 217.533 101.183 217.198 101.35L217.193 101.342Z" fill="#5D7183"/>
<path d="M220.61 106.138C216.543 107.245 212.735 109.136 209.405 111.703C206.074 114.269 203.287 117.461 201.201 121.096C199.115 124.731 197.772 128.737 197.248 132.887C196.725 137.036 197.031 141.247 198.149 145.279L203.343 164L212.276 161.564L207.154 143.084C206.358 140.216 206.139 137.22 206.511 134.268C206.883 131.316 207.838 128.465 209.322 125.879C210.805 123.293 212.788 121.022 215.156 119.195C217.525 117.369 220.234 116.023 223.127 115.234C226.021 114.445 229.043 114.228 232.021 114.597C234.999 114.966 237.874 115.913 240.483 117.384C243.092 118.855 245.382 120.821 247.225 123.169C249.067 125.518 250.425 128.203 251.22 131.072L254.065 141.351L263 138.914L260.085 128.4C257.827 120.259 252.401 113.339 244.998 109.165C237.595 104.99 228.823 103.901 220.61 106.138Z" fill="white"/>
<path d="M261.992 132.554C261.322 130.11 260.737 127.619 259.849 125.236C258.424 121.434 256.305 117.933 253.601 114.912C248.196 108.925 240.802 105.121 232.805 104.212C216.437 102.354 200.231 112.886 196.045 129.02C194.912 133.399 194.698 137.966 195.415 142.433C195.871 145.253 196.745 148.005 197.498 150.755C197.662 151.348 199.924 150.755 199.763 150.146C199.242 148.222 198.667 146.304 198.201 144.364C196.809 138.703 196.98 132.768 198.694 127.197C200.408 121.626 203.601 116.628 207.929 112.74C213.859 107.405 221.654 104.648 229.605 105.072C235.644 105.445 241.453 107.529 246.358 111.083C251.264 114.636 255.065 119.514 257.321 125.149C258.362 127.734 258.995 130.465 259.729 133.147C259.891 133.74 262.156 133.147 261.992 132.538V132.554Z" fill="#5D7183"/>
<path d="M209.254 147.049C208.17 143.14 206.988 139.325 207.312 135.208C207.75 129.623 210.31 124.409 214.475 120.619C223.293 112.687 237.072 113.942 244.841 122.678C248.181 126.436 249.466 130.915 250.751 135.613C250.964 136.376 253.197 135.786 252.986 135.02C251.766 130.625 250.599 126.391 247.683 122.736C243.913 118.061 238.467 115.006 232.48 114.206C220.389 112.618 208.306 120.342 205.567 132.274C204.815 135.574 204.811 138.998 205.554 142.3C205.963 144.099 206.52 145.863 207.014 147.644C207.224 148.408 209.46 147.817 209.246 147.051L209.254 147.049Z" fill="#5D7183"/>
<path d="M258.652 194.018L232.828 201.109C229.667 201.976 226.365 202.213 223.112 201.808C219.859 201.402 216.717 200.362 213.867 198.746C211.017 197.13 208.515 194.97 206.502 192.39C204.489 189.81 203.006 186.86 202.137 183.708L195.151 158.384C194.854 157.308 194.999 156.157 195.552 155.187C196.106 154.216 197.023 153.504 198.103 153.207L263.928 135.151C265.008 134.855 266.162 134.999 267.135 135.55C268.109 136.102 268.823 137.017 269.121 138.094L276.106 163.417C277.862 169.783 277.009 176.583 273.736 182.322C270.463 188.06 265.037 192.268 258.652 194.018Z" fill="#96E296"/>
<path d="M273.455 177.238C271.036 184.387 265.874 190.38 258.898 193.227C256.283 194.294 253.443 194.907 250.731 195.663L238.813 198.986C236.032 199.768 233.212 200.722 230.33 201.03C218.046 202.334 206.324 194.004 202.825 182.097C200.959 175.718 199.339 169.256 197.599 162.84C196.895 160.232 195.319 156.79 196.987 154.297C198.015 152.732 199.558 152.557 201.182 152.101L219.246 147.063L243.803 140.212L260.99 135.418C261.504 135.272 262.044 135.095 262.576 134.975C264.252 134.597 265.99 135.497 266.946 136.9C267.53 137.766 267.738 138.811 268.008 139.808L269.234 144.337C270.329 148.38 271.425 152.422 272.522 156.464C273.311 159.382 274.28 162.34 274.648 165.349C275.108 169.354 274.696 173.413 273.439 177.238C273.324 177.598 275.463 177.374 275.64 176.819C277.426 171.248 277.398 165.605 275.876 159.987L272.907 149.034C271.956 145.533 271.006 142.029 270.057 138.522C269.663 137.072 269.075 135.747 267.782 134.871C266.201 133.804 264.296 133.846 262.525 134.313C257.995 135.505 253.497 136.829 248.988 138.089L223.981 145.073L202.848 150.969C201.457 151.355 200.062 151.726 198.676 152.132C196.753 152.698 194.979 153.799 194.27 155.799C193.782 157.179 194.036 158.485 194.401 159.833L200.208 181.26C201.424 185.751 203.414 189.84 206.542 193.29C210.65 197.788 216.131 200.752 222.102 201.703C230.23 202.991 238.297 199.802 246.037 197.645L256.062 194.847C261.476 193.337 266.465 190.606 270.234 186.316C272.644 183.547 274.485 180.318 275.65 176.819C275.774 176.469 273.645 176.683 273.455 177.238Z" fill="#5D7183"/>
<path d="M248 182.331L234.893 186L233.906 169.887C232.803 169.606 231.794 169.031 230.982 168.221C230.17 167.41 229.586 166.394 229.289 165.277C229.036 164.461 228.948 163.601 229.029 162.75C229.11 161.898 229.359 161.072 229.761 160.321C230.163 159.57 230.709 158.908 231.368 158.377C232.026 157.845 232.783 157.455 233.594 157.228C234.404 157.001 235.251 156.943 236.083 157.057C236.916 157.171 237.718 157.454 238.44 157.891C239.163 158.327 239.792 158.908 240.289 159.597C240.787 160.287 241.142 161.071 241.335 161.904C241.974 164.266 241.265 166.679 240.743 167.967L248 182.331Z" fill="white"/>
<path d="M234.731 169.31C230.784 168.251 228.884 163.412 231.639 160.263C234.53 156.958 239.557 159.124 240.488 162.918C240.742 164.057 240.727 165.236 240.446 166.369C240.295 167.049 239.721 167.932 239.885 168.604C239.98 168.988 240.308 169.403 240.491 169.75L243.621 175.634L246.452 180.965C246.523 181.121 246.604 181.273 246.695 181.42C246.859 181.655 247.018 181.456 246.774 181.584C246.108 181.937 245.102 182.029 244.375 182.223L237.388 184.08C237.049 184.199 236.701 184.291 236.348 184.357C235.866 184.403 236.221 184.518 236.152 184.252C236.033 183.804 236.086 183.246 236.057 182.786C235.782 178.509 235.506 174.232 235.229 169.955C235.155 168.804 232.848 169.162 232.901 170.132C233.096 173.182 233.293 176.235 233.491 179.289C233.595 180.86 233.696 182.431 233.795 184.004C233.895 185.538 234.93 186.27 236.559 185.909C239.959 185.162 243.314 184.119 246.676 183.221C248.047 182.858 249.56 182.052 248.793 180.445C248.293 179.392 247.69 178.368 247.142 177.337L242.033 167.717C242.047 167.919 242.062 168.121 242.076 168.326C243.316 165.307 243.504 161.675 241.017 159.173C238.88 157.024 235.589 156.456 232.747 157.526C229.906 158.595 227.906 161.314 228.003 164.292C228.064 165.789 228.619 167.227 229.589 168.396C230.558 169.565 231.889 170.402 233.387 170.784C233.916 170.927 234.657 170.817 235.014 170.364C235.327 169.988 235.279 169.456 234.731 169.31Z" fill="#5D7183"/>
<path d="M282.067 119.955C288.544 129.313 303.054 129.82 309.928 118.622C311.532 116.01 312.392 111.373 311.825 108.37C309.687 97.0449 298.893 92.0617 289.941 95.3079C289.771 95.3713 289.584 95.3763 289.41 95.3219C289.237 95.2675 289.086 95.1569 288.982 95.0076L264.994 60.3529C264.933 60.2644 264.855 60.1889 264.765 60.1306C264.674 60.0723 264.573 60.0324 264.467 60.0132C264.361 59.994 264.253 59.9958 264.148 60.0185C264.042 60.0413 263.943 60.0845 263.854 60.1458L259.45 63.1952C259.361 63.2562 259.285 63.334 259.226 63.4244C259.168 63.5147 259.128 63.6158 259.108 63.7216C259.089 63.8275 259.091 63.9362 259.114 64.0413C259.137 64.1465 259.181 64.246 259.242 64.3343L260.965 66.8246C261.027 66.9128 261.071 67.0124 261.093 67.1175C261.116 67.2227 261.118 67.3313 261.099 67.4372C261.08 67.5431 261.04 67.6441 260.981 67.7345C260.923 67.8248 260.847 67.9027 260.758 67.9636L256.353 71.0157C256.265 71.0768 256.189 71.1548 256.131 71.2451C256.072 71.3355 256.032 71.4365 256.013 71.5422C255.994 71.648 255.996 71.7566 256.019 71.8617C256.041 71.9668 256.085 72.0663 256.146 72.1547L258.535 75.6054C258.596 75.6938 258.674 75.7694 258.765 75.8277C258.855 75.8859 258.956 75.9259 259.062 75.9451C259.168 75.9643 259.276 75.9625 259.382 75.9398C259.487 75.917 259.586 75.8738 259.675 75.8125L264.08 72.763C264.168 72.7018 264.268 72.6585 264.373 72.6358C264.478 72.613 264.587 72.6112 264.693 72.6304C264.799 72.6497 264.9 72.6896 264.99 72.7479C265.081 72.8061 265.159 72.8817 265.22 72.9701L267.609 76.4208C267.67 76.5094 267.713 76.6091 267.736 76.7142C267.758 76.8194 267.76 76.928 267.74 77.0338C267.721 77.1396 267.681 77.2406 267.622 77.3308C267.563 77.4211 267.488 77.4989 267.399 77.5599L264.896 79.2813C264.807 79.3422 264.731 79.4201 264.673 79.5105C264.614 79.6008 264.574 79.7018 264.555 79.8077C264.536 79.9136 264.537 80.0222 264.56 80.1274C264.583 80.2325 264.627 80.3321 264.689 80.4203L267.078 83.8711C267.139 83.9598 267.217 84.0356 267.307 84.0941C267.397 84.1525 267.498 84.1926 267.604 84.2118C267.71 84.2311 267.819 84.2292 267.924 84.2062C268.03 84.1833 268.129 84.1398 268.218 84.0782L270.71 82.3567C270.799 82.2951 270.898 82.2516 271.003 82.2286C271.109 82.2057 271.217 82.2038 271.323 82.223C271.429 82.2423 271.531 82.2823 271.621 82.3408C271.711 82.3993 271.789 82.475 271.85 82.5638L283.207 98.9683C283.31 99.1193 283.361 99.3005 283.35 99.4832C283.339 99.666 283.268 99.84 283.147 99.9778C280.776 102.717 279.383 106.166 279.188 109.782C278.992 113.398 280.005 116.976 282.067 119.955ZM299.29 102C308.187 106.592 305.933 118.943 295.986 120.105C294.524 120.274 293.044 120.003 291.737 119.328C282.842 114.733 285.096 102.383 295.04 101.207C296.504 101.043 297.984 101.319 299.29 102Z" fill="#ABDFF5"/>
<path d="M280.953 120.842C284.785 126.289 291.311 128.831 297.827 127.759C304.785 126.618 311.084 121.664 312.63 114.581C314.231 107.254 310.515 99.5119 303.787 96.1868C300.902 94.7873 297.688 94.2138 294.499 94.5294C293.692 94.6069 292.889 94.7343 292.097 94.9107C291.694 95.0015 291.293 95.1001 290.895 95.2142C290.696 95.2712 290.499 95.3309 290.303 95.3931C289.424 95.6758 290.277 95.362 290.303 95.4191C290.207 95.2323 289.918 94.9781 289.786 94.7888C284.694 87.4072 279.603 80.024 274.515 72.6389L267.275 62.1424C266.905 61.6055 266.564 60.9104 266.096 60.4513C264.482 58.877 261.255 61.8571 259.97 62.7467C259.406 63.1383 258.137 63.7167 258.026 64.5C257.894 65.4208 259.267 66.6398 259.706 67.353C260.363 68.432 259.37 68.8444 258.581 69.3917C257.614 70.0608 256.601 70.6885 255.667 71.4121C254.892 72.0139 254.799 72.5663 255.355 73.3729C256.014 74.33 256.624 75.3545 257.346 76.2623C258.794 78.0778 261.602 75.5776 262.915 74.6646L264.35 73.6712C264.523 73.5493 264.715 73.4352 264.88 73.3029C264.966 73.2355 265.209 73.1499 265.043 73.2225L263.68 73.5623C264.35 73.5623 265.077 75.1444 265.4 75.6113C265.723 76.0781 266.582 76.9081 266.649 77.5358C266.739 78.415 264.981 79.1905 264.407 79.5899C263.724 80.062 263.264 80.477 263.686 81.3459C264.081 82.1655 264.779 82.9306 265.297 83.6802C265.702 84.2689 266.044 85.034 266.814 85.1534C268.769 85.4542 270.359 83.4234 271.683 82.8528L270.31 83.1718C270.786 83.1718 271.12 83.9084 271.344 84.243C271.912 85.0643 272.479 85.8874 273.046 86.7121L277.873 93.715L281.633 99.1617C282.117 99.8594 282.409 100.16 281.798 101.042C280.531 102.858 279.407 104.585 278.765 106.748C278.064 109.114 277.896 111.607 278.274 114.046C278.651 116.485 279.566 118.809 280.95 120.85C281.289 121.351 283.327 120.435 283.2 120.246C281.332 117.551 280.321 114.352 280.3 111.069C280.279 107.787 281.25 104.575 283.084 101.857C283.601 101.078 284.782 100.21 284.327 99.2058C284.082 98.6663 283.601 98.1554 283.267 97.6704L273.46 83.4441C272.811 82.5 272.229 82.1162 270.962 82.4559C269.615 82.8191 268.296 84.2119 267.321 84.632L268.694 84.3104C267.96 84.3104 267.047 82.3652 266.695 81.8542C266.202 81.1384 265.325 80.3421 266.134 79.5562C266.796 78.913 267.766 78.5914 268.438 77.9585C269.351 77.0948 268.536 76.3038 267.988 75.5075C267.471 74.7631 267.006 73.8216 266.375 73.1732C265.509 72.2706 264.017 72.8257 263.091 73.3885C262.336 73.845 261.627 74.4052 260.901 74.9058L259.388 75.9562C259.243 76.0574 258.641 76.4075 258.775 76.3505L260.148 76.0289C259.458 76.0289 258.631 74.2678 258.289 73.7724C257.85 73.1369 256.8 72.141 257.454 71.368C257.971 70.7637 258.956 70.3306 259.608 69.8741C260.311 69.3865 261.159 68.943 261.798 68.3542C263.549 66.7176 259.267 65.0577 260.554 63.5326C261.1 62.8868 262.225 62.3732 262.913 61.896L264.221 60.9882C264.366 60.887 264.968 60.5369 264.834 60.5966L263.458 60.9156C263.921 60.9156 264.234 61.5977 264.459 61.9245C264.976 62.6905 265.503 63.4548 266.039 64.2173L271.231 71.7389L283.691 89.8116L287.417 95.2194C287.727 95.6681 287.934 96.109 288.511 96.2568C289.473 96.5162 290.58 95.9041 291.497 95.6707C292.72 95.3704 293.978 95.242 295.236 95.2894C297.648 95.391 300.006 96.0353 302.137 97.1748C304.267 98.3143 306.114 99.9196 307.542 101.872C309.185 104.095 310.242 106.699 310.613 109.442C310.984 112.184 310.658 114.976 309.665 117.559C307.658 122.774 302.344 126.989 296.713 127.155C291.35 127.321 286.264 124.585 283.197 120.225C282.853 119.729 280.834 120.666 280.953 120.842Z" fill="#5D7183"/>
<path d="M298.208 102.602C301.2 104.209 303.386 106.984 303.698 110.463C303.837 112.026 303.582 113.598 302.955 115.034C302.328 116.47 301.35 117.723 300.113 118.676C296.457 121.422 291.774 119.878 289.172 116.443C288.235 115.203 287.617 113.749 287.373 112.21C287.129 110.671 287.266 109.096 287.773 107.623C289.29 103.328 293.866 100.514 298.219 102.616C298.622 102.809 299.278 102.587 299.665 102.448C299.756 102.414 300.67 102.018 300.358 101.869C296.265 99.893 290.588 101.47 287.549 104.751C286.282 106.131 285.443 107.853 285.133 109.707C284.823 111.56 285.057 113.464 285.806 115.185C286.668 117.045 288.056 118.607 289.797 119.674C292.17 121.162 294.798 121.28 297.459 120.607C301.346 119.627 304.744 117.054 305.733 112.987C306.841 108.375 304.395 104.033 300.358 101.864C299.975 101.659 299.288 101.898 298.914 102.034C298.799 102.06 297.904 102.437 298.208 102.602Z" fill="#5D7183"/>
<path d="M225.79 108.27C226.444 106.225 225.506 103.946 223.879 102.474C221.915 100.709 219.205 100.684 216.744 101.586C216.381 101.719 215.778 102.07 216.084 102.471C216.39 102.872 217.365 102.617 217.714 102.489C221.399 101.134 224.233 105.772 223.326 108.552C223.077 109.319 225.549 109.02 225.79 108.27Z" fill="#5D7183"/>
<path d="M208.872 72.6876C202.846 63.9398 194.408 57.182 184.758 53.0695C183.848 52.682 182.183 54.0164 183.471 54.5652C192.868 58.5605 200.969 65.184 206.842 73.6735C207.405 74.4902 209.522 73.6292 208.88 72.6876H208.872Z" fill="#5D7183"/>
<path d="M220.986 65.0886C218.119 55.8934 214.536 46.9344 210.269 38.2928C209.918 37.5847 207.737 38.3108 208.026 38.8906C212.293 47.5323 215.876 56.4913 218.743 65.6864C218.962 66.3945 221.2 65.7762 220.986 65.0886Z" fill="#5D7183"/>
<path d="M231.35 64.1332C233.02 52.6582 234.323 41.1316 235.993 29.6592C236.148 28.597 233.786 28.9304 233.65 29.866C231.98 41.3409 230.677 52.8676 229.007 64.3399C228.852 65.4021 231.214 65.0713 231.35 64.1332Z" fill="#5D7183"/>
</svg>
