<?xml version="1.0" encoding="UTF-8"?>
<!DOCTYPE svg PUBLIC "-//W3C//DTD SVG 1.1//EN" "http://www.w3.org/Graphics/SVG/1.1/DTD/svg11.dtd">
<!-- Creator: CorelDRAW 2020 (64-Bit) -->
<svg xmlns="http://www.w3.org/2000/svg" xml:space="preserve" width="1053px" height="221px" version="1.1" style="shape-rendering:geometricPrecision; text-rendering:geometricPrecision; image-rendering:optimizeQuality; fill-rule:evenodd; clip-rule:evenodd"
viewBox="0 0 1052.87 220.99"
 xmlns:xlink="http://www.w3.org/1999/xlink"
 xmlns:xodm="http://www.corel.com/coreldraw/odm/2003">
 <defs>
  <style type="text/css">
   <![CDATA[
    .fil3 {fill:#4d5759}
    .fil0 {fill:#22c55e}
    .fil2 {fill:#4d5759;fill-rule:nonzero}
    .fil1 {fill:#22c55e;fill-rule:nonzero}
   ]]>
  </style>
 </defs>
 <g id="Layer_x0020_1">
  <metadata id="CorelCorpID_0Corel-Layer"/>
  <rect class="fil0" y="184.85" width="104.61" height="36.06" rx="15.36" ry="18.03"/>
  <path class="fil1" d="M543.62 138.99c0,-14.18 -6.2,-21.75 -21.43,-21.75 -8.71,0 -17.96,2.53 -17.96,8.72 0,2.63 1.68,6.09 6.09,6.09 2,0 3.16,-0.73 4,-1.05 2.1,-0.94 3.88,-1.68 6.82,-1.68 5.36,0 7.98,2.31 7.98,7.25l0 3.36c-2.73,-0.84 -5.46,-1.05 -8.29,-1.05 -13.87,0 -20.8,5.36 -20.8,16.07l0 0.31c0,9.98 6.51,16.6 18.7,16.6 5.88,0 10.29,-1.58 14.18,-4.73 2.41,3.36 5.04,4.41 8.92,4.41 5.57,0 7.57,-2.1 7.57,-5.46 0,-2.2 -0.85,-3.36 -2.42,-3.99 -1.79,-0.73 -3.36,-0.42 -3.36,-3.57l0 -19.53zm-21.95 10.08c2.1,0 4.83,0.31 7.45,0.84l0 7.56c-2.73,2.1 -5.46,2.73 -8.19,2.73 -4.51,0 -6.51,-1.36 -6.51,-4.83l0 -0.32c0,-3.15 1.16,-5.98 7.25,-5.98zm52.09 2.52l12.81 17.33c1.48,1.99 3.37,2.94 5.99,2.94 3.89,0 6.83,-2.31 7.04,-5.88 0,-1.16 -0.42,-2.73 -1.16,-3.78l-13.23 -17.44 13.23 -17.43c0.74,-1.05 1.16,-2.63 1.16,-3.78 -0.21,-3.57 -3.15,-5.88 -7.04,-5.88 -2.62,0 -4.51,0.94 -5.99,2.94l-12.81 17.33 -1.47 0 0 -13.97c0,-3.47 -3.15,-6.41 -7.25,-6.41 -4.09,0 -7.24,2.94 -7.24,6.41l0 41.38c0,3.67 3.15,6.51 7.24,6.51 4.1,0 7.25,-2.84 7.25,-6.51l0 -13.76 1.47 0zm75.94 -12.6c0,-14.18 -6.2,-21.75 -21.43,-21.75 -8.72,0 -17.96,2.53 -17.96,8.72 0,2.63 1.68,6.09 6.09,6.09 2,0 3.15,-0.73 3.99,-1.05 2.1,-0.94 3.89,-1.68 6.83,-1.68 5.36,0 7.98,2.31 7.98,7.25l0 3.36c-2.73,-0.84 -5.46,-1.05 -8.29,-1.05 -13.87,0 -20.8,5.36 -20.8,16.07l0 0.31c0,9.98 6.51,16.6 18.7,16.6 5.88,0 10.29,-1.58 14.17,-4.73 2.42,3.36 5.05,4.41 8.93,4.41 5.57,0 7.56,-2.1 7.56,-5.46 0,-2.2 -0.84,-3.36 -2.41,-3.99 -1.79,-0.73 -3.36,-0.42 -3.36,-3.57l0 -19.53zm-21.95 10.08c2.1,0 4.83,0.31 7.45,0.84l0 7.56c-2.73,2.1 -5.46,2.73 -8.19,2.73 -4.52,0 -6.51,-1.36 -6.51,-4.83l0 -0.32c0,-3.15 1.15,-5.98 7.25,-5.98zm49.46 -30.99c-3.46,0 -5.98,3.16 -6.09,6.31l-0.94 19.11c-0.42,7.67 -2.1,13.13 -5.36,15.76 -5.04,0 -6.2,4.41 -6.2,6.51l0 13.55c0,3.67 3.16,6.51 7.25,6.51 4.1,0 7.25,-2.84 7.25,-6.51l0 -8.2 28.99 0 0 8.2c0,3.67 3.15,6.51 7.24,6.51 4.1,0 7.25,-2.84 7.25,-6.51l0 -13.55c0,-2.31 -1.37,-6.51 -6.2,-6.51l-0.73 0 0 -34.66c0,-2.31 -1.37,-6.52 -6.2,-6.52l-26.26 0zm6.94 25.63l0.52 -13.76 10.5 0 0 29.31 -14.28 0c1.89,-4.21 2.94,-9.56 3.26,-15.55zm61.12 7.35c14.18,0 20.38,-5.88 20.38,-15.96 0,-10.61 -6.83,-17.86 -20.59,-17.86 -14.6,0 -22.37,8.09 -22.37,18.7l0 17.54c0,10.4 7.98,18.38 21.85,18.38 6.72,0 20.16,-1.89 20.16,-9.24 0,-2.42 -1.47,-5.78 -6.51,-5.78 -1.78,0 -2.73,0.42 -3.15,0.63 -3.36,1.47 -6.09,2.31 -9.45,2.31 -5.67,0 -8.4,-2.31 -8.4,-5.88l0 -3.47c3.04,0.42 5.35,0.63 8.08,0.63zm5.99 -16.7c0,4.52 -2.52,5.89 -6.51,5.89 -1.05,0 -4.2,-0.11 -7.56,-0.42l0 -4.52c0,-4.2 2.73,-6.83 7.77,-6.83 4.09,0 6.3,1.68 6.3,5.88zm53.35 28.99c2.94,0 5.36,-1.47 6.73,-3.78l7.77 -14.6 0 20.38c0,3.57 3.15,6.51 7.25,6.51 3.78,0 7.14,-2.94 7.14,-6.51l0 -41.07c0,-3.88 -3.26,-6.72 -7.57,-6.72 -3.36,0 -5.46,1.47 -6.93,3.89l-14.49 24.68 -14.5 -24.68c-1.47,-2.42 -3.57,-3.89 -6.93,-3.89 -4.3,0 -7.56,2.84 -7.56,6.72l0 41.07c0,3.57 3.15,6.51 7.14,6.51 3.89,0 7.25,-2.94 7.25,-6.51l0 -20.38 7.77 14.6c1.37,2.31 3.78,3.78 6.72,3.78l0.21 0zm50.1 8.72c2.73,0 5.25,-1.37 6.83,-3.47l17.43 -26.88 0 23.63c0,3.57 3.15,6.72 7.25,6.72 4.1,0 7.25,-3.15 7.25,-6.72l0 -40.96c0,-3.99 -3.05,-6.94 -7.56,-6.94 -2.84,0 -5.57,1.27 -6.94,3.58l-17.54 27.09 0 -24.05c0,-3.57 -3.36,-6.62 -7.35,-6.62 -4.09,0 -7.14,3.05 -7.14,6.62l0 41.07c0,3.78 3.15,6.93 7.77,6.93zm86.86 -0.21c4.1,0 7.25,-2.94 7.25,-6.51l0 -40.75c0,-3.47 -3.15,-6.52 -7.25,-6.52l-16.17 0c-13.76,0 -20.59,6.73 -20.59,16.6 0,7.56 2.94,12.81 9.87,15.33l-9.13 12.19c-0.74,1.05 -1.16,2.73 -1.16,3.88 0.21,3.57 3.05,5.78 7.04,5.78 2.52,0 4.41,-0.95 5.98,-2.94l12.5 -17.12 4.41 0 0 13.55c0,3.57 3.15,6.51 7.25,6.51zm-22.37 -36.87c0,-3.36 2.2,-4.93 6.41,-4.93l8.71 0 0 9.87 -7.56 0c-6.41,0 -7.56,-2.52 -7.56,-4.94z"/>
  <path class="fil2" d="M383.69 114.85l0 -82.21 0 -13.85c0,-10.61 -9.09,-18.79 -20.91,-18.79 -11.82,0 -20.91,8.18 -20.91,18.79l0 183.33c0,10.61 9.09,18.79 20.91,18.79 11.82,0 20.91,-8.18 20.91,-18.79l0 -42.12 0 -45.15z"/>
  <path class="fil2" d="M232.48 155.76c0,41.21 12.12,64.24 59.09,64.24 15.15,0 29.09,-2.43 29.09,-20 0,-11.21 -5.76,-16.37 -24.85,-16.37 -0.6,0 -2.42,0.31 -5.15,0.31 -14.54,0 -16.36,-7.88 -16.36,-30.31l0 -52.36 22.42 0c11.21,0 20,-7.58 20,-17.88 0,-10.3 -8.79,-18.18 -20,-18.18l-22.42 0 0 -27.03c0,-10 -7.58,-18.48 -20.91,-18.48 -13.33,0 -20.91,8.18 -20.91,18.48l0 117.58z"/>
  <path class="fil2" d="M190.66 82.73c0,-10 -9.09,-18.49 -20.91,-18.49 -11.81,0 -20.91,8.49 -20.91,18.49l0 119.39c0,10.61 9.1,18.79 20.91,18.79 11.82,0 20.91,-8.18 20.91,-18.79l0 -119.39z"/>
  <circle class="fil3" cx="169.75" cy="25.57" r="22.14"/>
  <rect class="fil3" transform="matrix(1.8206E-14 -1.09574 0.635329 2.68211E-14 101.812 100.302)" width="32.91" height="130.53" rx="16.45" ry="16.45"/>
  <g id="_1473262081200">
   <path class="fil2" d="M484.25 189.39c7.12,7.49 6.83,19.33 -0.66,26.45 -7.48,7.12 -19.32,6.82 -26.44,-0.66l-56.02 -59.13c-6.91,-7.25 -6.84,-18.61 0,-25.78l56.02 -59.12c7.12,-7.49 18.96,-7.78 26.44,-0.66 7.49,7.12 7.78,18.96 0.66,26.44l-43.8 46.23 43.8 46.23z"/>
   <path class="fil1" d="M964.6 189.39c-7.12,7.49 -6.83,19.33 0.66,26.45 7.48,7.12 19.32,6.82 26.44,-0.66l56.02 -59.13c6.91,-7.25 6.84,-18.61 0,-25.78l-56.02 -59.12c-7.12,-7.49 -18.96,-7.78 -26.44,-0.66 -7.49,7.12 -7.78,18.96 -0.66,26.44l43.8 46.23 -43.8 46.23z"/>
  </g>
 </g>
</svg>
