<svg width="489" height="430" viewBox="0 0 489 430" fill="none" xmlns="http://www.w3.org/2000/svg">
    <path d="M62.6413 419.504C37.5032 422.979 99.6345 427.686 108.35 428.021C202.488 431.677 304.349 429.974 397.609 425.313C401.273 425.212 404.928 424.88 408.551 424.319C431.604 419.993 357.55 417.057 350.67 416.83C325.107 415.99 299.136 415.439 273.363 415.348C236.829 415.223 93.8033 415.206 62.6413 419.504Z" fill="#EEEEEE"/>
    <path d="M480.911 141.746H260.069C256.939 141.746 254.402 144.288 254.402 147.424V293.971C254.402 297.106 256.939 299.648 260.069 299.648H480.911C484.041 299.648 486.578 297.106 486.578 293.971V147.424C486.578 144.288 484.041 141.746 480.911 141.746Z" fill="#F8F8F8"/>
    <path d="M253.03 192.993V292.727C253.03 296.81 254.917 300.108 259.49 300.262C270.303 300.608 281.183 300.262 292.001 300.262H439.81C453.093 300.262 466.398 300.466 479.682 300.262C483.036 300.211 486.731 298.831 487.729 295.254C488.125 293.84 487.944 292.143 487.944 290.712V160.318C487.944 155.923 488.188 151.449 487.944 147.055C487.661 142.036 483.41 141.127 479.359 141.127H421.613C420.786 141.127 418.644 142.359 420.48 142.359H477.715C481.455 142.359 484.946 143.279 485.195 147.912C485.275 149.383 485.195 150.882 485.195 152.352V281.911C485.195 286.022 485.467 290.235 485.195 294.334C484.793 300.432 478.191 299.03 474.009 299.03H262.942C262.021 299.079 261.098 299.054 260.182 298.956C255.898 298.235 255.79 294.272 255.79 290.928V192.255C255.79 191.687 253.053 192.124 253.053 192.993H253.03Z" fill="#CFCFCF"/>
    <path d="M482.181 159.807H421.614C420.605 159.807 418.701 161.328 420.537 161.328H481.115C482.119 161.328 484.028 159.807 482.187 159.807H482.181Z" fill="#CFCFCF"/>
    <path d="M345.224 223.834L357.181 231.573C357.583 231.819 357.934 232.141 358.213 232.521C358.418 232.838 358.525 233.21 358.519 233.588C358.54 233.974 358.441 234.357 358.235 234.684C358.15 234.816 358.032 234.923 357.893 234.996C357.754 235.069 357.599 235.104 357.442 235.098C357.268 235.092 357.097 235.054 356.938 234.985C356.664 234.855 356.402 234.701 356.156 234.525L343.184 226.009C343.128 225.984 343.075 225.954 343.026 225.918C342.021 225.278 341.52 224.576 341.524 223.811C341.528 223.047 342.017 222.36 342.992 221.75L343.184 221.608L356.156 213.251C356.392 213.089 356.643 212.948 356.904 212.831C357.083 212.752 357.275 212.709 357.47 212.706C357.624 212.7 357.777 212.732 357.915 212.799C358.054 212.866 358.174 212.967 358.264 213.092C358.469 213.404 358.569 213.774 358.547 214.148C358.554 214.532 358.448 214.909 358.241 215.232C357.964 215.609 357.613 215.926 357.21 216.163L345.224 223.834Z" fill="#CFCFCF"/>
    <path d="M366.81 238.954C366.667 239.507 366.438 240.034 366.13 240.515C366.045 240.639 365.932 240.741 365.8 240.812C365.668 240.884 365.52 240.922 365.37 240.924C365.209 240.917 365.052 240.871 364.913 240.79C364.774 240.709 364.657 240.595 364.571 240.458C364.34 240.126 364.22 239.728 364.231 239.323C364.234 239.179 364.251 239.037 364.282 238.897C364.316 238.722 364.359 238.55 364.412 238.38L374.613 207.584C374.779 207.017 375.021 206.475 375.333 205.972C375.412 205.844 375.522 205.738 375.653 205.664C375.783 205.589 375.93 205.549 376.081 205.546C376.246 205.548 376.409 205.591 376.555 205.672C376.7 205.752 376.823 205.867 376.914 206.006C377.145 206.326 377.265 206.713 377.254 207.108C377.253 207.245 377.239 207.382 377.214 207.516C377.187 207.665 377.147 207.812 377.095 207.954L366.81 238.954Z" fill="#CFCFCF" stroke="#CFCFCF" stroke-width="2" stroke-miterlimit="10"/>
    <path d="M394.883 223.834L382.983 216.186C382.569 215.943 382.209 215.618 381.923 215.232C381.713 214.918 381.605 214.548 381.611 214.171C381.592 213.797 381.693 213.426 381.9 213.114C381.987 212.992 382.103 212.892 382.237 212.825C382.372 212.757 382.521 212.724 382.671 212.728C382.866 212.731 383.059 212.773 383.238 212.853C383.5 212.973 383.752 213.114 383.991 213.273L396.963 221.631L397.161 221.773C398.136 222.38 398.629 223.068 398.629 223.834C398.629 224.6 398.147 225.265 397.19 225.895C397.111 225.935 397.035 225.98 396.963 226.031L383.991 234.548L383.929 234.593C383.564 234.867 383.138 235.048 382.688 235.121C382.535 235.125 382.383 235.089 382.248 235.016C382.113 234.944 381.999 234.837 381.917 234.707C381.721 234.38 381.617 234.006 381.617 233.625C381.617 233.244 381.721 232.87 381.917 232.544C382.202 232.158 382.563 231.835 382.977 231.595L394.883 223.834Z" fill="#CFCFCF"/>
    <path d="M409.713 29.1802H188.87C185.741 29.1802 183.204 31.7222 183.204 34.8579V181.405C183.204 184.541 185.741 187.083 188.87 187.083H409.713C412.843 187.083 415.38 184.541 415.38 181.405V34.8579C415.38 31.7222 412.843 29.1802 409.713 29.1802Z" fill="white"/>
    <path d="M222.707 187.696H405.321C407.174 187.696 409.163 187.872 410.988 187.457C414.258 186.713 416.581 184.385 416.751 180.967C416.791 180.269 416.751 179.559 416.751 178.861V39.7178C416.751 37.7703 416.983 35.6582 416.7 33.7222C415.703 26.8238 405.27 28.5668 400.334 28.5668H195.761C190.236 28.5668 182.025 27.7833 181.866 35.6753C181.673 45.0719 181.866 54.4855 181.866 63.8821V158.518C181.866 159.086 184.603 158.654 184.603 157.785V45.6567C184.603 42.25 184.518 38.781 184.603 35.3516C184.66 32.8818 185.289 30.2417 188.326 29.7932C188.649 29.7478 188.995 29.7932 189.323 29.7932C195.908 29.532 202.567 29.7932 209.157 29.7932H407.225C410.688 29.7932 413.776 31.1331 414.025 35.2722C414.144 37.3843 414.025 39.5361 414.025 41.6482V179.281C414.025 182.256 414.127 185.958 410.115 186.469C408.251 186.702 406.199 186.469 404.324 186.469H223.84C223.013 186.469 220.871 187.696 222.707 187.696Z" fill="#5D7183"/>
    <path d="M410.988 47.2748H215.096C206.091 47.2748 196.888 46.707 187.895 47.2748H187.504C186.495 47.2748 184.591 48.7964 186.427 48.7964H382.313C391.318 48.7964 400.521 49.3642 409.514 48.7964C409.65 48.7964 409.781 48.7964 409.911 48.7964C410.92 48.7964 412.824 47.2748 410.988 47.2748Z" fill="#5D7183"/>
    <path d="M376.845 131.038H397.246C398.113 131.038 399.586 130.794 399.932 129.817C400.012 129.632 400.041 129.428 400.016 129.227C399.991 129.026 399.913 128.836 399.79 128.676C399.667 128.515 399.503 128.391 399.316 128.315C399.129 128.239 398.925 128.215 398.725 128.245H378.324C377.457 128.245 375.984 128.483 375.638 129.465C375.558 129.651 375.529 129.856 375.554 130.057C375.579 130.258 375.658 130.449 375.782 130.61C375.906 130.77 376.07 130.895 376.258 130.97C376.446 131.045 376.651 131.069 376.851 131.038H376.845Z" fill="#FF9A88"/>
    <path d="M304.735 130.947H362.355C363.182 130.947 364.713 130.697 365.047 129.766C365.381 128.835 364.781 128.335 363.879 128.335H306.259C305.432 128.335 303.902 128.585 303.562 129.516C303.222 130.447 303.834 130.947 304.735 130.947Z" fill="#5D7183"/>
    <path d="M280.985 130.527H291.469C292.387 130.527 293.645 130.379 294.37 129.749C294.88 129.306 295.033 128.756 294.104 128.756H283.62C282.702 128.756 281.444 128.903 280.719 129.533C280.209 129.976 280.05 130.527 280.985 130.527Z" fill="#FF9A88"/>
    <path d="M247.233 131.225H272.009C274.406 131.225 275.109 128.051 272.326 128.051H247.551C245.148 128.051 244.451 131.225 247.233 131.225Z" fill="#5D7183"/>
    <path d="M291.446 151.563H304.157C304.939 151.563 306.497 151.41 307.058 150.785C307.455 150.342 307.84 149.962 306.837 149.962H294.109C293.322 149.962 291.769 150.115 291.208 150.745C290.811 151.188 290.42 151.563 291.429 151.563H291.446Z" fill="#5D7183"/>
    <path d="M246.599 151.943H280.169C280.934 151.943 282.555 151.676 282.878 150.808C283.201 149.939 282.611 149.576 281.744 149.576H248.208C247.443 149.576 245.817 149.848 245.499 150.711C245.182 151.574 245.76 151.943 246.633 151.943H246.599Z" fill="#ABDFF5"/>
    <path d="M315.779 151.745H336.129C337.432 151.745 340.566 149.791 337.829 149.791H317.474C316.176 149.791 313.042 151.745 315.773 151.745H315.779Z" fill="#FF9A88"/>
    <path d="M315.796 172.928H323.396C324.178 172.928 325.708 172.638 326.116 171.86C326.524 171.083 325.759 170.844 325.056 170.844H317.457C316.675 170.844 315.145 171.139 314.737 171.917C314.329 172.695 315.094 172.928 315.796 172.928Z" fill="#ABDFF5"/>
    <path d="M268.524 172.752H305.613C306.418 172.752 307.954 172.65 308.52 171.974C308.9 171.514 309.286 170.992 308.254 170.992H271.165C270.36 170.992 268.824 171.094 268.263 171.77C267.884 172.23 267.492 172.752 268.524 172.752Z" fill="#5D7183"/>
    <path d="M246.054 172.701H257.507C258.38 172.701 259.734 172.525 260.414 171.923C260.902 171.486 261.117 171.077 260.188 171.077H248.729C247.856 171.077 246.508 171.253 245.828 171.855C245.34 172.286 245.119 172.701 246.054 172.701Z" fill="#FF9A88"/>
    <path d="M201.071 173.496H225.898C228.312 173.496 228.986 170.282 226.204 170.282H201.383C198.969 170.282 198.295 173.496 201.071 173.496Z" fill="#5D7183"/>
    <path d="M252.35 65.3244H281.529C282.345 65.3244 283.898 65.0689 284.226 64.1547C284.555 63.2406 283.96 62.7751 283.093 62.7751H253.875C253.059 62.7751 251.506 63.0305 251.172 63.9447C250.837 64.8588 251.444 65.3244 252.305 65.3244H252.35Z" fill="#5D7183"/>
    <path d="M233.259 64.8758H244.19C245.08 64.8758 246.394 64.7168 247.091 64.0979C247.584 63.6607 247.783 63.1725 246.848 63.1725H235.916C235.027 63.1725 233.712 63.3314 233.015 63.956C232.522 64.3932 232.324 64.8758 233.259 64.8758Z" fill="#FF9A88"/>
    <path d="M200.471 65.3697H223.274C224.107 65.3697 225.632 65.1199 225.972 64.183C226.278 63.3314 225.7 62.7296 224.793 62.7296H201.984C201.151 62.7296 199.632 62.9794 199.292 63.9162C198.952 64.853 199.558 65.3697 200.471 65.3697Z" fill="#5D7183"/>
    <path d="M292.035 65.3924H308.469C309.314 65.3924 310.821 65.1426 311.161 64.1944C311.467 63.3427 310.889 62.7068 309.971 62.7068H293.543C292.698 62.7068 291.191 62.951 290.851 63.8992C290.545 64.7565 291.123 65.3924 292.041 65.3924H292.035Z" fill="#ABDFF5"/>
    <path d="M280.191 86.451H326.03C326.841 86.451 328.394 86.1955 328.728 85.2871C329.062 84.3787 328.462 83.9131 327.595 83.9131H281.733C280.922 83.9131 279.37 84.1686 279.035 85.077C278.701 85.9855 279.302 86.451 280.169 86.451H280.191Z" fill="#5D7183"/>
    <path d="M245.318 86.61H272.009C274.275 86.61 275.199 83.7314 272.405 83.7314H245.771C243.476 83.7314 242.581 86.61 245.374 86.61H245.318Z" fill="#ABDFF5"/>
    <path d="M200.397 86.2182H233.757C235.146 86.2182 238.166 84.1288 235.418 84.1288H202.057C200.669 84.1288 197.648 86.2182 200.397 86.2182Z" fill="#5D7183"/>
    <path d="M316.465 107.884H362.933C365.336 107.884 366.033 104.71 363.256 104.71H316.777C314.374 104.71 313.671 107.884 316.454 107.884H316.465Z" fill="#ABDFF5"/>
    <path d="M234.398 107.765H305.307C307.619 107.765 308.48 104.824 305.687 104.824H234.777C232.459 104.824 231.604 107.765 234.398 107.765Z" fill="#FFAC98"/>
    <path d="M201.644 107.884H221.613C224.016 107.884 224.713 104.71 221.937 104.71H201.961C199.558 104.71 198.861 107.884 201.644 107.884Z" fill="#5D7183"/>
    <path d="M411.368 15.4116C411.492 10.8356 412.127 6.28788 413.26 1.85331C413.572 0.638281 410.784 0.990305 410.501 2.10881C409.364 6.55246 408.729 11.1099 408.608 15.6955C408.568 17.0298 411.339 16.5699 411.368 15.44V15.4116Z" fill="#5D7183"/>
    <path d="M422.18 19C425.448 15.071 428.721 11.1439 432.001 7.21877C432.12 7.07682 429.825 7.09384 429.303 7.71839C426.035 11.6474 422.762 15.5744 419.482 19.4996C419.363 19.6415 421.659 19.6245 422.18 19Z" fill="#5D7183"/>
    <path d="M426.929 29.0268L441.578 21.8105C443.193 21.0156 440.643 21.1916 440.014 21.4982L425.365 28.7146C423.755 29.5094 426.306 29.3334 426.929 29.0268Z" fill="#5D7183"/>
    <path d="M236.129 138.155C233.562 142.045 234.446 146.663 235.39 150.949C236.306 154.794 236.746 158.739 236.698 162.693C236.401 170.539 234.518 178.241 231.165 185.331C224.672 199.285 211.503 213.134 194.863 211.28C184.16 210.089 177.129 201.461 172.314 192.532C171.86 191.687 169.533 192.532 170.092 193.537C174.432 201.577 180.48 209.33 189.569 212.004C197.425 214.31 206.109 212.662 213.156 208.712C227.324 200.773 236.234 184.371 238.576 168.592C239.232 164.345 239.318 160.028 238.83 155.758C238.141 150.13 234.945 143.572 238.406 138.326C239.095 137.286 236.648 137.346 236.124 138.14L236.129 138.155Z" fill="#5D7183"/>
    <path d="M150.882 160.783C197.905 220.581 211.562 299.353 194.868 370.602C131.399 375.377 69.0183 374.758 4.20654 340.987C47.4446 268.404 98.5312 158.989 103.11 159.829C114.081 161.85 131.631 164.746 142.699 163.344C146.331 162.895 148.881 163.86 150.882 160.783Z" fill="#BBDFF5"/>
    <path d="M149.607 161.317C185.449 207.068 202.677 265.446 200.041 323.352C199.307 339.327 197.11 355.2 193.479 370.773L195.038 369.853C158.288 372.601 121.153 373.492 84.7041 367.15C65.7098 363.876 47.1151 358.594 29.2313 351.395C24.5278 349.502 19.8791 347.468 15.2852 345.291C12.9353 344.186 10.6025 343.05 8.28662 341.885C7.68027 341.578 6.01989 341.107 5.86688 340.34C5.75355 339.852 7.18726 338.12 7.49327 337.592C11.4109 330.953 15.2568 324.272 19.031 317.55C34.5751 289.939 49.2636 261.852 63.7991 233.707C74.5321 212.955 84.8968 191.965 96.3438 171.593C97.8455 168.919 99.3642 166.245 101.036 163.645C101.551 162.82 102.107 162.023 102.702 161.254C102.892 161.064 103.065 160.857 103.218 160.635C103.433 160.198 103.671 160.482 103.456 160.374C103.456 160.374 102.232 160.567 102.232 160.562C102.232 160.556 103.756 160.845 103.637 160.823L105.858 161.22C107.876 161.572 109.888 161.913 111.911 162.231C115.877 162.85 119.805 163.366 123.771 163.798C131.218 164.564 138.426 164.394 145.872 163.9C148.484 163.73 150.53 162.952 152.106 160.794C152.825 159.812 150.088 160.034 149.561 160.749C147.952 162.935 144.614 162.452 142.143 162.679C139.395 162.935 136.633 163.009 133.875 162.901C128.232 162.678 122.605 162.136 117.022 161.277C114.634 160.929 112.253 160.55 109.876 160.141C107.91 159.806 105.552 158.96 103.558 159.046C102.618 159.086 101.728 159.479 101.064 160.147C99.0412 162.015 97.6642 164.86 96.2701 167.193C93.584 171.735 91.0736 176.391 88.5802 181.047C71.234 213.455 54.8681 246.386 37.5786 278.828C26.4205 299.756 15.0188 320.565 2.89744 340.942C2.85324 340.995 2.8224 341.058 2.80751 341.125C2.79263 341.193 2.79413 341.263 2.81191 341.33C2.82968 341.396 2.86319 341.458 2.90963 341.509C2.95608 341.56 3.01409 341.599 3.07878 341.623C26.8489 353.966 52.283 362.783 78.5839 367.797C102.991 372.43 127.885 373.839 152.695 373.413C166.692 373.174 180.678 372.368 194.63 371.323C195.128 371.289 196.058 370.966 196.188 370.404C209.222 314.28 203.583 253.863 178.235 201.941C171.01 187.155 162.25 173.173 152.1 160.227C151.584 159.523 148.966 160.471 149.607 161.317Z" fill="#6A79A8"/>
    <path d="M192.085 283.137C191.966 282.45 147.079 282.002 139.384 282.178C122.95 282.575 73.5689 277.477 73.3876 277.454C72.7246 277.386 73.1722 279.611 73.2176 279.867C73.6449 282.203 74.2011 284.514 74.8836 286.788C75.881 290.336 76.9804 293.851 78.1137 297.36C79.5644 301.841 81.0756 306.302 82.6472 310.742C84.4304 315.875 86.2683 320.985 88.161 326.072C90.1898 331.579 92.2676 337.068 94.3946 342.537C96.5707 348.135 98.7977 353.711 101.076 359.264C103.301 364.669 105.585 370.049 107.927 375.405C110.092 380.326 112.336 385.232 114.659 390.122C116.671 394.318 118.762 398.48 121 402.562C122.721 405.766 124.613 408.874 126.667 411.873C127.965 413.883 129.556 415.686 131.388 417.222C132.816 418.317 134.731 418.136 134.629 416.029C134.21 407.337 134.726 398.491 134.743 389.759C134.743 379.539 134.709 369.319 134.646 359.099C134.59 350.492 134.522 341.886 134.442 333.283C134.442 331.352 134.38 329.416 134.369 327.474C134.369 326.77 134.091 322.853 135.593 323.165C137.293 323.523 136.771 329.121 136.805 330.421C136.873 333.449 136.939 336.458 137.004 339.449L137.531 364.595C137.723 373.63 137.925 382.662 138.137 391.689C138.301 398.36 138.454 405.037 138.704 411.709C138.743 412.844 138.335 415.632 138.987 416.671C139.183 416.976 139.457 417.223 139.782 417.385C140.106 417.546 140.468 417.618 140.829 417.591C142.478 417.443 143.35 415.223 143.968 413.957C148.859 404.061 153.993 394.295 158.668 384.285C160.969 379.363 163.122 374.372 165.253 369.376C167.384 364.379 169.22 359.065 171.577 354.125C171.624 354.024 171.666 353.919 171.702 353.813C177.838 338.741 183.022 323.298 187.223 307.574C188.923 301.107 190.895 294.742 191.881 288.099C192.193 286.464 192.262 284.792 192.085 283.137Z" fill="#D1D1D1"/>
    <path d="M192.085 283.137C191.966 282.45 147.079 282.002 139.384 282.178C122.95 282.575 78.1307 278.022 78.1817 278.203C79.4057 285.249 98.7467 336.468 100.849 341.935C103.065 347.522 129.506 415.774 131.399 417.227C132.827 418.323 134.742 418.141 134.64 416.035C134.221 407.342 134.737 398.497 134.754 389.764C134.754 379.544 134.72 369.325 134.657 359.105C134.601 350.497 134.533 341.892 134.453 333.288C134.453 331.358 134.391 329.422 134.38 327.48C134.38 326.776 134.38 324.124 135.604 323.171C143.09 317.215 141.718 358.145 141.894 366.531C142.087 375.559 140.115 417.63 140.834 417.596C142.483 417.449 143.356 415.229 143.974 413.963C148.864 404.066 153.998 394.301 158.674 384.291C160.974 379.368 163.128 374.378 165.258 369.381C167.389 364.385 169.225 359.071 171.583 354.131C171.63 354.029 171.672 353.925 171.707 353.819C177.843 338.747 183.027 323.303 187.229 307.58C188.929 301.113 190.901 294.748 191.887 288.105C192.197 286.468 192.264 284.794 192.085 283.137Z" fill="#E5E5E5"/>
    <path d="M73.2286 279.481C73.1587 279.739 73.1403 280.008 73.1743 280.273C73.2083 280.538 73.2942 280.793 73.4269 281.025C73.8973 281.78 75.2403 281.74 75.9997 281.888C77.065 282.087 78.1531 282.093 79.2071 282.354C80.2611 282.615 81.3889 282.78 82.4769 283.024C87.7754 284.21 93.0796 285.386 98.3951 286.476C103.495 287.52 108.595 288.491 113.696 289.315C116.28 289.735 118.871 290.113 121.47 290.45C122.768 290.62 124.066 290.785 125.364 290.933C126.457 291.058 127.63 291.024 128.673 291.5C133.105 293.522 138.539 293.238 143.282 293.204C153.792 293.158 164.299 292.859 174.801 292.307C177.102 292.182 179.414 291.915 181.686 292.165C184.168 292.405 186.672 292.213 189.087 291.597C190.98 291.114 191.892 288.565 190.867 286.748C189.841 284.931 187.744 285.21 186.005 285.351C168.131 286.794 149.669 289.269 131.971 287.623C120.467 286.549 109.071 284.403 97.749 281.945C95.9526 281.911 93.9182 281.116 92.1559 280.724L86.404 279.435C83.0039 278.663 79.7965 277.55 76.419 276.676C76.005 276.538 75.5662 276.492 75.1326 276.54C74.0786 276.773 73.4496 278.476 73.2286 279.481Z" fill="#D1D1D1"/>
    <path d="M73.5004 282.654C89.6056 286.169 105.762 289.61 122.031 292.307C136.255 294.64 150.32 294.447 164.697 293.964C172.891 293.684 181.084 293.323 189.274 292.88C190.696 292.806 191.144 290.893 189.467 290.984C174.257 291.79 159.002 292.556 143.769 292.426C128.985 292.301 114.364 289.059 99.9192 286.18C91.3736 284.473 82.8431 282.685 74.3278 280.815C73.0697 280.542 71.874 282.337 73.5004 282.689V282.654Z" fill="#6A79A8"/>
    <path d="M193.343 282.564C192.93 281.996 191.643 282.07 191.077 281.996C189.229 281.848 187.37 281.809 185.517 281.752C179.635 281.564 173.753 281.468 167.871 281.388C157.619 281.246 147.345 281.474 137.094 281.252C124.06 280.968 110.959 279.021 98.0439 277.278C92.1428 276.468 86.2512 275.616 80.369 274.723C78.2496 274.399 74.9458 273.178 72.7924 273.735C70.639 274.291 71.4777 277.448 71.7157 279.061C72.3787 283.603 73.7841 288.06 75.1158 292.454C78.5159 303.565 82.4204 314.529 86.4495 325.43C94.4681 347.233 102.821 369.08 113.016 389.969C115.384 394.81 117.874 399.592 120.485 404.316C122.967 408.796 125.585 413.787 129.472 417.233C131.133 418.703 134.074 419.703 135.57 417.363C136.221 416.342 136.136 414.854 136.165 413.679C136.522 404.725 136.465 395.737 136.51 386.772C136.612 366.088 136.034 345.325 136.867 324.63C136.926 324.275 136.945 323.915 136.924 323.557C136.822 323.091 137.304 323.029 136.743 323.511L134.81 324.028C133.96 323.71 134.425 324.874 134.436 325.425C134.436 326.28 134.459 327.137 134.504 327.997C134.572 330.188 134.623 332.385 134.674 334.577C134.788 339.414 134.886 344.25 134.969 349.084C135.139 358.077 135.328 367.069 135.536 376.058C135.744 385.048 135.982 394.049 136.25 403.061C136.357 406.468 136.437 409.875 136.85 413.281C137.145 415.66 137.417 418.454 140.387 418.522C145.526 418.641 147.187 411.141 148.807 407.604C152.491 399.655 156.282 391.706 160 383.757C166.902 368.961 173.413 353.876 178.944 338.506C182.248 329.325 185.228 320.019 187.807 310.611C189.116 305.837 190.465 301.067 191.643 296.258C192.703 291.932 193.972 287.253 193.508 282.768C193.394 281.667 190.674 282.303 190.771 283.506C191.179 287.481 190.039 291.659 189.133 295.503C188.164 299.602 186.991 303.656 185.897 307.727C183.838 315.415 181.552 323.034 179.04 330.586C173.955 345.541 168.115 360.227 161.541 374.588C158.22 381.918 154.741 389.185 151.341 396.458C149.622 400.1 147.922 403.745 146.24 407.393C145.181 409.665 144.229 413.667 142.478 415.535C139.763 418.437 139.503 412.004 139.333 410.357C138.851 405.639 138.959 400.785 138.823 396.044C138.584 387.792 138.381 379.541 138.211 371.289C138.012 361.938 137.848 352.587 137.644 343.236C137.547 338.432 137.457 333.623 137.315 328.814C137.287 327.741 137.882 322.875 136.454 322.336C136.113 322.254 135.757 322.258 135.418 322.35C135.08 322.441 134.769 322.616 134.516 322.858C133.688 323.562 134.096 326.225 134.079 327.122C134 330.75 133.983 334.378 133.96 338.001C133.887 349.118 133.87 360.235 133.836 371.346C133.802 382.309 133.779 393.273 133.637 404.231C133.592 407.547 133.564 410.863 133.422 414.167C133.331 416.381 133.008 417.267 130.742 414.831C127.341 411.192 124.922 406.61 122.547 402.284C111.882 382.872 103.626 362.284 95.6241 341.663C91.6007 331.303 87.7491 320.873 84.0694 310.373C80.5673 300.335 76.4305 289.933 74.6455 279.441C74.4641 278.362 74.2884 277.266 74.2148 276.176C74.234 275.784 74.2207 275.391 74.1751 275.001C74.0618 274.893 72.6451 275.569 72.5657 275.467C72.6054 275.518 72.8037 275.467 72.8547 275.512C73.3534 275.944 75.3198 275.898 75.9602 276C80.641 276.719 85.3275 277.416 90.0196 278.09C102.991 279.946 116.013 281.752 129.087 282.711C138.091 283.376 147.17 283.018 156.197 283.097C167.049 283.188 177.946 283.166 188.793 283.745C189.359 283.773 189.926 283.858 190.493 283.853C191.292 283.853 191.201 284.21 190.844 283.711C191.468 284.608 194.097 283.586 193.343 282.564Z" fill="#6A79A8"/>
    <path d="M100.928 293.669C100.902 299.177 98.7614 304.463 94.9496 308.431C94.3376 309.073 96.9557 308.789 97.443 308.278C101.41 304.16 103.642 298.671 103.677 292.948C103.677 292.432 100.951 292.829 100.945 293.681L100.928 293.669Z" fill="#6A79A8"/>
    <path d="M164.006 295.611C165.297 301.641 168.494 307.093 173.124 311.157C174.019 311.957 176.411 310.634 175.232 309.584C170.902 305.719 167.923 300.565 166.732 294.879C166.46 293.618 163.717 294.311 163.995 295.611H164.006Z" fill="#6A79A8"/>
    <path d="M70.7637 277.017C71.2728 263.576 72.7882 250.192 75.2972 236.978C76.6402 229.676 78.2382 222.42 80.1366 215.249C81.0811 211.684 82.103 208.143 83.2024 204.626C84.1204 201.708 86.1888 198.148 86.6025 195.19C86.9765 192.351 84.9025 190 83.5708 187.809C85.9905 185.339 89.2093 184.056 91.782 181.842C94.1224 179.832 94.7515 176.442 96.3155 173.796C99.4549 168.42 103.116 163.241 107.649 158.966C115.713 151.404 126.117 148.338 136.663 152.408C137.689 152.8 138.698 153.254 139.69 153.743C168.08 167.869 183.931 228.745 192.743 288.457C192.743 288.457 141.503 288.957 124.565 287.055C110.177 285.42 70.7637 277.017 70.7637 277.017Z" fill="#E5E5E5"/>
    <path d="M153.936 121.964C153.483 95.654 141.548 74.5273 127.302 74.7771C113.055 75.0269 101.852 96.5568 102.305 122.867C102.305 123.475 102.373 126.507 102.39 127.58C102.645 142.171 104.056 152.312 106.357 159.346C111.061 173.813 128.594 179.576 128.594 179.576C128.594 179.576 146.337 173.331 150.695 160.232C153.069 153.073 154.333 142.45 154.061 126.683C154.004 125.638 153.947 122.606 153.936 121.964Z" fill="#E5E5E5"/>
    <path d="M78.1812 279.35C78.8725 257.616 82.4483 225.134 89.7415 198.506C90.1779 196.904 88.7045 197.654 86.5964 194.849C85.2024 192.993 82.9186 187.014 82.9186 187.014C87.3671 184.476 92.813 181.995 94.819 177.072C94.891 176.813 95.0593 176.592 95.2894 176.453C95.7201 176.266 96.1621 176.681 96.4624 177.021C101.563 183.204 108.652 187.48 115.86 190.756C123.533 194.242 131.943 197.484 140.511 196.308C141.378 196.189 144.319 190.557 145.169 190.426C148.422 189.915 149.589 194.815 153.522 194.35C159.189 193.68 163.286 180.104 163.286 180.104C177.498 206.721 186.735 247.833 192.754 288.412C192.754 288.412 141.514 288.912 124.576 287.01C110.176 285.42 78.1812 279.35 78.1812 279.35Z" fill="white"/>
    <path d="M158.747 172.303L152.593 163.031L139.639 173.541L102.668 164.116C101.62 165.546 100.311 166.955 99.4493 168.51C98.5879 170.066 108.59 178.872 113.265 182.137C117.555 185.152 126.735 189.177 131.648 190.971C133.538 191.762 135.53 192.282 137.564 192.515C137.734 192.515 140.868 192.822 140.88 192.731L142.359 181.183L152.48 190.267C152.48 190.267 161.105 182.58 158.747 172.303Z" fill="white"/>
    <path d="M154.021 126.683C154.021 125.638 153.947 122.606 153.936 121.964C153.483 95.654 141.548 74.5273 127.302 74.7771C121.125 74.885 117.628 78.3881 115.804 84.0545C111.061 98.7824 107.927 114.97 107.496 130.458C107.332 136.289 107.655 143.165 107.723 146.782C107.797 150.677 108.125 159.608 108.125 159.608C108.125 159.608 106.34 159.517 106.312 159.784C106.298 159.935 106.298 160.087 106.312 160.238C104.045 161.106 102.186 162.373 102.691 164.116C103.461 166.778 107.791 174.375 110.959 176.839C112.62 178.125 114.42 179.22 116.325 180.104C119.109 181.386 122.043 182.311 125.058 182.858C130.022 183.783 134.436 183.096 139.146 181.279C143.974 179.417 152.247 170.259 152.627 164.445C152.683 163.659 152.523 162.872 152.163 162.171C151.803 161.47 151.258 160.882 150.587 160.471C150.587 160.385 150.649 160.312 150.678 160.226C153.029 153.073 154.293 142.45 154.021 126.683Z" fill="white"/>
    <path d="M141.367 181.387C144.643 184.527 147.873 187.735 151.21 190.806C151.822 191.374 153.052 191.017 153.585 190.511C157.654 186.639 160.385 181.291 160.527 175.63C160.555 174.455 157.807 175 157.784 175.954C157.588 181.303 155.283 186.356 151.375 190.006L153.749 189.716C150.406 186.639 147.181 183.437 143.9 180.297C143.18 179.604 140.596 180.649 141.367 181.387Z" fill="#6A79A8"/>
    <path d="M140.976 181.313C140.496 185.337 140.013 189.359 139.525 193.379L141.39 192.294C136.465 191.363 131.603 189.529 127.002 187.593C117.243 183.488 107.887 178.088 100.708 170.219C99.8915 169.328 97.3074 170.418 98.1971 171.412C105.468 179.36 114.795 184.834 124.639 189.075C129.688 191.249 135.009 193.214 140.432 194.236C141.084 194.361 142.206 193.912 142.297 193.151L143.742 181.092C143.906 179.724 141.118 180.11 140.976 181.313Z" fill="#6A79A8"/>
    <path d="M128.9 146.129C129.551 151.386 138.505 151.347 142.109 149.762C143.872 148.99 142.222 148.468 141.112 148.956C138.193 150.239 132.101 149.149 131.631 145.391C131.552 144.721 128.798 145.288 128.9 146.129Z" fill="#6A79A8"/>
    <path d="M145.203 85.207C147.011 82.5896 149.98 78.161 149.487 74.8623C151.374 78.2973 152.406 82.4136 154.208 86.0132C155.291 87.989 156.139 90.0851 156.735 92.2587C157.517 95.6369 157.041 99.2082 155.942 102.479C154.843 105.749 153.148 108.821 151.442 111.835C151.862 112.097 152.134 111.324 152.043 110.836L150.853 104.591C150.519 105.068 149.244 105.965 148.915 106.436L146.767 109.53C147.013 108.784 147.083 107.991 146.973 107.213C146.863 106.435 146.575 105.693 146.133 105.045L145.419 105.164C144.552 106.811 142.987 107.696 141.542 108.866L142.438 108.463C142.226 107.411 141.821 106.408 141.242 105.505C140.109 103.801 138.341 102.621 137.275 100.912C135.615 98.2941 137.037 98.3338 137.933 95.7391C139.253 91.8556 142.914 88.5171 145.203 85.207Z" fill="#BBDFF5"/>
    <path d="M89.5887 93.434C89.9287 92.8946 90.2461 92.3496 90.5407 91.7932C86.7723 92.9968 83.1115 92.7754 79.207 92.713C83.3042 92.5256 87.1406 90.6576 90.4897 88.2616C101.517 80.3129 109.519 67.6232 123.159 63.7737C128.543 62.2521 134.085 63.6715 138.868 66.3117C142.908 68.543 149.861 71.6657 147.283 76.9914C141.173 89.4776 131.22 99.6663 118.892 106.056C117.096 106.987 114.925 107.554 113.633 109.104C112.998 109.865 111.185 113.573 111.395 114.521C111.293 114.061 108.879 109.184 108.357 109.769C106.529 111.765 105.142 114.125 104.288 116.696C103.631 118.904 105.422 121.947 104.226 123.827C101.138 123.259 100.322 119.523 99.5113 117.013C98.8087 114.811 95.3292 118.609 94.6888 119.233C93.0228 120.88 88.3647 123.56 87.8886 125.627C88.6442 122.368 89.3998 119.107 90.1554 115.844C87.2653 116.877 84.3469 117.824 81.4001 118.683C83.7915 117.984 86.2226 112.812 87.1973 110.734C88.563 107.838 90.2064 104.244 90.7221 101.116C89.3393 101.536 88.1097 102.41 86.6363 102.689C85.1629 102.967 83.3438 102.689 82.2388 101.587C85.0156 99.1231 87.5996 96.6192 89.5887 93.434Z" fill="#BBDFF5"/>
    <path d="M94.4397 199.913C89.1355 196.972 86.3247 190.937 84.2903 185.492L83.7803 186.31C85.9958 184.536 88.4112 183.029 90.9772 181.819C93.3799 180.768 93.9013 180.189 95.131 177.981C98.7011 171.548 102.237 164.871 107.434 159.608C107.581 159.46 107.774 159.21 107.7 158.983C103.909 147.06 103.733 134.098 103.648 121.72C103.575 108.616 106.023 93.8314 114.274 83.2198C117.305 79.3079 121.595 75.748 126.769 75.5947C131.671 75.4527 136.057 78.3143 139.31 81.755C148.314 91.2765 151.635 105.738 152.417 118.427C152.875 126.123 152.866 133.84 152.389 141.535C152.009 147.894 151.255 154.316 149.283 160.391C148.955 161.396 151.709 161.05 152.026 160.073C154.559 152.278 155.154 143.909 155.364 135.761C155.613 126.217 155.625 116.406 153.811 107.009C151.369 94.314 143.911 74.0504 128.072 73.9538C112.483 73.863 104.969 92.6562 102.447 105.306C100.616 114.504 100.781 123.889 101.155 133.212C101.322 138.229 101.747 143.234 102.43 148.207C102.696 150.092 102.997 151.971 103.41 153.833C103.779 155.537 104.663 157.456 104.793 159.182C104.833 159.749 105.11 158.727 104.929 159.386C104.855 159.636 104.028 160.295 103.858 160.471C103.501 160.828 103.127 161.18 102.793 161.561C101.636 162.955 100.58 164.429 99.6305 165.972C97.3297 169.492 95.2217 173.132 93.1646 176.794C92.5294 177.812 91.9505 178.864 91.4305 179.945C91.3172 180.212 92.4789 179.582 91.4305 179.877C90.7789 180.123 90.1446 180.413 89.5321 180.746C86.8719 182.012 84.3642 183.578 82.0576 185.413C81.8366 185.577 81.4172 185.884 81.5476 186.23C83.701 191.993 86.6477 198.187 92.2692 201.293C93.1023 201.753 95.607 200.561 94.434 199.913H94.4397Z" fill="#6A79A8"/>
    <path d="M84.9311 196.808C75.6521 222.707 70.4204 249.887 69.4209 277.386C69.4209 277.579 69.8289 277.653 69.9309 277.675C85.8774 281.082 101.892 284.443 118.014 286.913C136.148 289.701 154.973 289.122 173.294 289.184C179.592 289.184 185.886 289.165 192.176 289.127C192.647 289.127 194.211 288.826 194.103 288.088C191.235 268.744 187.745 249.48 182.934 230.505C178.785 214.182 173.759 197.841 166.199 182.744C162.799 175.977 158.832 169.453 153.902 163.701C153.404 163.134 151.488 163.764 151.267 164.411C150.61 166.279 149.739 168.064 148.672 169.731C147.722 171.307 146.527 172.72 145.13 173.916C142.795 175.812 140.03 175.874 137.117 175.732C126.208 175.21 117.045 168.647 108.516 162.452C107.819 161.947 105.36 163.02 105.955 163.463C116.082 170.844 127.036 178.162 140.149 176.993C147.176 176.368 151.823 170.316 153.982 164.002L151.347 164.712C160.861 175.783 166.902 189.614 171.787 203.247C177.913 220.359 182.203 238.119 185.733 255.936C187.898 266.848 189.734 277.817 191.366 288.826L193.293 287.782C171.696 287.992 149.833 288.446 128.294 286.646C115.73 285.613 103.235 282.768 90.8926 280.31C85.4864 279.231 80.0859 278.128 74.6911 277C74.215 276.898 72.005 276.773 71.6933 276.364C72.1183 276.932 72.26 274.235 72.26 274.331C72.3129 273.196 72.3733 272.06 72.4413 270.925C72.5887 268.546 72.7813 266.172 73.008 263.799C75.1387 240.935 79.9046 218.043 87.6681 196.422C87.9288 195.689 85.2371 196.013 84.9481 196.825L84.9311 196.808Z" fill="#6A79A8"/>
    <path d="M146.886 202.52C147.107 211.326 147.3 220.12 147.578 228.944C147.906 239.362 146.274 249.139 142.149 257.593C143.39 260.477 151.188 269.465 151.63 272.667C153.471 270.68 160.532 262.118 162.397 260.001C166.108 255.765 161.008 228.847 158.945 220.989C157.908 217.015 153.738 199.045 149.992 199.351L148.615 199.465C147.544 199.556 146.773 200.828 146.915 202.304C146.881 202.395 146.886 202.446 146.886 202.52Z" fill="#DDDDDD"/>
    <path d="M145.282 215.113L154.066 225.242C154.228 225.431 154.433 225.577 154.664 225.668C154.895 225.759 155.145 225.792 155.392 225.764L168.687 224.277C168.971 224.245 169.259 224.294 169.517 224.417C169.775 224.541 169.994 224.734 170.148 224.976C170.303 225.217 170.387 225.497 170.391 225.784C170.395 226.071 170.319 226.353 170.171 226.599L163.258 238.073C163.13 238.286 163.055 238.528 163.042 238.776C163.028 239.024 163.075 239.272 163.178 239.498L168.692 251.711C168.812 251.971 168.856 252.26 168.819 252.544C168.783 252.829 168.667 253.097 168.486 253.318C168.304 253.54 168.064 253.706 167.793 253.797C167.522 253.888 167.231 253.901 166.952 253.835L153.919 250.797C153.676 250.741 153.424 250.745 153.183 250.808C152.942 250.872 152.72 250.992 152.536 251.16L142.636 260.194C142.424 260.386 142.163 260.515 141.882 260.567C141.601 260.619 141.311 260.591 141.044 260.487C140.778 260.382 140.546 260.205 140.375 259.976C140.204 259.747 140.1 259.474 140.075 259.189L138.941 245.835C138.92 245.586 138.839 245.347 138.705 245.137C138.57 244.928 138.387 244.754 138.171 244.631L126.542 238.005C126.293 237.864 126.089 237.655 125.952 237.403C125.816 237.151 125.752 236.866 125.769 236.58C125.786 236.294 125.883 236.018 126.049 235.784C126.215 235.55 126.442 235.368 126.706 235.257L139.026 230.039C139.256 229.944 139.458 229.793 139.616 229.601C139.774 229.409 139.883 229.182 139.933 228.938L142.63 215.811C142.688 215.531 142.822 215.273 143.018 215.066C143.214 214.858 143.464 214.71 143.74 214.637C144.016 214.565 144.306 214.571 144.579 214.655C144.851 214.739 145.095 214.897 145.282 215.113Z" fill="#E3E3E3"/>
    <path d="M147.034 201.509C147.986 210.264 148.909 219.03 149.918 227.785C151.114 238.136 150.304 248.021 146.892 256.781C148.371 259.558 156.894 267.858 157.597 271.015C159.268 268.88 165.593 259.756 167.23 257.497C170.574 252.955 163.264 226.565 160.544 218.888C159.183 215.039 153.528 197.455 149.816 198.074L148.456 198.307C147.396 198.483 146.756 199.817 146.977 201.282C147.017 201.367 147.028 201.435 147.034 201.509Z" fill="#BBDFF5"/>
    <path d="M146.008 201.781C146.841 209.446 147.651 217.111 148.519 224.776C149.397 232.526 149.833 240.185 148.388 247.901C148.039 249.767 147.585 251.611 147.028 253.426C146.745 254.351 145.719 256.089 145.866 257.06C146.059 258.326 147.969 259.983 148.751 260.898C151.29 263.895 155.466 267.404 156.571 271.293C156.798 272.088 158.067 271.861 158.464 271.345C160.498 268.71 162.368 265.945 164.289 263.225C165.7 261.227 167.735 259.12 168.653 256.832C169.486 254.737 169.219 252.131 168.998 249.957C168.645 246.417 168.077 242.901 167.298 239.43C164.675 227.115 161.127 214 155.364 202.73C154.429 200.907 152.995 197.733 150.672 197.324C147.793 196.819 145.634 198.926 146.025 201.781C146.161 202.775 148.218 202.258 148.076 201.214C147.838 199.482 149.142 198.375 150.513 199.221C151.386 199.743 152.072 201.106 152.57 201.946C154.076 204.639 155.359 207.452 156.407 210.355C158.016 214.517 159.507 218.752 160.821 223.022C162.64 228.921 164.221 234.916 165.457 240.963C166.095 243.928 166.58 246.924 166.907 249.94C167.106 251.921 167.474 254.482 166.743 256.407C165.882 258.786 163.626 261.057 162.176 263.106C160.391 265.644 158.639 268.216 156.747 270.669L158.64 270.726C157.551 266.91 153.766 263.606 151.273 260.688C150.36 259.626 148.105 257.667 148.128 256.287C148.128 255.05 149.159 253.295 149.493 252.069C149.975 250.322 150.366 248.552 150.666 246.766C151.879 239.618 151.533 232.469 150.717 225.304C149.805 217.276 148.955 209.242 148.082 201.214C147.952 200.243 145.895 200.754 146.008 201.781Z" fill="#6A79A8"/>
    <path d="M144.195 189.75C144.546 188.842 145.186 188.297 146.495 188.87C148.36 189.682 150.071 191.601 151.556 192.958C152.786 194.094 153.454 194.928 151.658 195.973C150.065 196.899 147.963 197.33 146.229 197.966C143.464 198.982 143.486 193.992 143.685 192.567C143.751 191.612 143.922 190.668 144.195 189.75Z" fill="#BBDFF5"/>
    <path d="M145.22 189.608C145.747 188.473 149.873 192.669 150.411 193.18C150.844 193.482 151.212 193.868 151.494 194.315C151.885 195.224 150.978 195.746 150.253 196.07C149.092 196.601 147.878 197.009 146.631 197.285C143.588 197.898 144.744 191.107 145.22 189.586C145.424 188.933 143.379 189.211 143.175 189.864C142.523 191.948 141.973 195.752 143.339 197.711C143.608 198.08 143.981 198.359 144.411 198.512C144.841 198.665 145.307 198.684 145.747 198.568C147.669 198.189 149.536 197.567 151.301 196.717C152.264 196.274 153.959 195.513 153.755 194.196C153.647 193.52 152.967 192.987 152.514 192.55C151.732 191.789 150.944 191.017 150.128 190.278C148.213 188.575 144.682 186.588 143.175 189.847C142.914 190.471 144.926 190.239 145.22 189.608Z" fill="#6A79A8"/>
    <path d="M97.3526 176.078C102.538 187.934 111.684 198.091 119.527 208.26C123.785 213.647 128.358 218.775 133.224 223.618C137.837 228.33 142.585 233.009 148.207 236.506C149.199 237.125 151.607 235.757 150.326 234.956C144.569 231.379 139.763 226.559 135.054 221.739C130.431 217.104 126.079 212.205 122.02 207.067C118.201 202.111 114.433 197.109 110.624 192.146C106.59 186.883 102.747 181.438 100.078 175.34C99.5627 174.159 96.8483 174.954 97.3413 176.078H97.3526Z" fill="#6A79A8"/>
    <path d="M158.367 180.479C159.988 188.013 159.268 195.888 159.302 203.542C159.336 212.251 159.053 222.108 155.902 230.34C155.335 231.788 158.09 231.731 158.509 230.624C161.745 222.181 162.102 212.251 162.068 203.314C162.068 195.496 162.765 187.445 161.099 179.741C160.838 178.514 158.095 179.218 158.367 180.479Z" fill="#6A79A8"/>
    <path d="M147.447 214.823L156.798 224.407C156.97 224.586 157.184 224.72 157.42 224.797C157.656 224.874 157.907 224.892 158.152 224.85L171.333 222.579C171.615 222.529 171.906 222.559 172.172 222.666C172.438 222.773 172.668 222.953 172.837 223.185C173.006 223.417 173.107 223.691 173.127 223.978C173.148 224.264 173.088 224.551 172.954 224.805L166.72 236.671C166.606 236.892 166.546 237.137 166.546 237.386C166.546 237.635 166.606 237.881 166.72 238.102L172.954 249.957C173.088 250.21 173.149 250.496 173.13 250.782C173.11 251.068 173.011 251.343 172.843 251.575C172.676 251.807 172.447 251.988 172.182 252.096C171.917 252.205 171.627 252.237 171.344 252.188L158.158 249.917C157.913 249.875 157.662 249.893 157.426 249.97C157.19 250.047 156.976 250.181 156.803 250.36L147.476 259.966C147.277 260.172 147.024 260.318 146.747 260.387C146.47 260.456 146.179 260.446 145.907 260.358C145.635 260.27 145.393 260.107 145.209 259.889C145.024 259.67 144.905 259.404 144.863 259.12L142.92 245.863C142.881 245.62 142.785 245.39 142.639 245.192C142.493 244.995 142.302 244.835 142.081 244.728L130.078 238.811C129.821 238.685 129.605 238.489 129.453 238.246C129.302 238.003 129.221 237.721 129.221 237.435C129.221 237.148 129.302 236.867 129.453 236.623C129.605 236.38 129.821 236.184 130.078 236.058L142.07 230.113C142.289 230.004 142.479 229.844 142.623 229.647C142.768 229.449 142.864 229.22 142.903 228.978L144.812 215.715C144.845 215.424 144.96 215.149 145.143 214.921C145.326 214.694 145.571 214.523 145.847 214.43C146.124 214.336 146.421 214.323 146.704 214.393C146.988 214.463 147.246 214.612 147.447 214.823Z" fill="#F7E080"/>
    <path d="M146.439 215.289C148.128 217.018 149.814 218.748 151.499 220.478C152.91 221.92 154.633 224.577 156.565 225.389C158.322 226.133 161.258 225.02 162.992 224.719L167.797 223.89C168.557 223.76 170.359 223.067 171.101 223.323C173.232 224.049 169.446 229.432 168.942 230.397C167.916 232.35 166.278 234.547 165.672 236.677C165.105 238.63 166.964 240.889 167.837 242.542C168.592 243.995 169.348 245.445 170.104 246.891C170.608 247.85 171.605 249.116 171.804 250.184C172.11 251.626 171.447 251.404 170.415 251.228L165.672 250.417C163.354 250.025 160.884 249.281 158.532 249.202C156.18 249.122 154.905 251.109 153.432 252.608L150.032 256.111C149.153 257.014 148.184 258.45 147.113 259.12C147.017 259.177 146.671 259.688 146.546 259.688C145.77 259.597 145.98 258.82 145.838 258.382C145.561 257.15 145.371 255.9 145.271 254.641C144.858 251.802 144.642 248.832 144.013 246.033C143.566 244.046 141.871 243.632 140.188 242.803C137.485 241.469 134.221 240.378 131.75 238.647C130.832 237.999 129.965 237.449 130.991 236.376C131.818 235.501 133.921 234.922 134.958 234.394C137.412 233.179 140.115 232.123 142.438 230.687C144.597 229.33 144.342 225.843 144.665 223.589C144.931 221.756 145.192 219.922 145.458 218.088C145.492 217.832 145.606 214.829 146.473 215.431C147.187 215.93 149.153 214.914 148.173 214.238C145.821 212.603 143.855 214.465 143.464 216.776C142.897 220.183 142.483 223.589 141.996 226.996C141.883 227.768 141.939 229 141.395 229.602C140.715 230.346 138.817 230.88 137.939 231.305C135.23 232.651 132.368 233.855 129.75 235.365C127.591 236.614 127.614 238.55 129.75 239.72C132.719 241.332 135.83 242.718 138.862 244.211C139.537 244.54 140.562 244.813 141.129 245.346C142.019 246.158 141.934 247.617 142.098 248.702C142.574 251.955 142.937 255.243 143.526 258.479C143.991 261.028 146.065 262.084 148.281 260.284C150.394 258.581 152.208 256.242 154.1 254.289C155.047 253.312 155.999 251.961 157.115 251.177C157.886 250.644 157.903 250.735 158.968 250.916L168.987 252.62C170.812 252.932 174.325 253.301 174.133 250.348C174.082 249.554 173.436 248.645 173.079 247.998L170.489 243.075C169.452 241.105 167.089 238.363 167.979 236.137C169.186 233.117 171.078 230.215 172.586 227.331C173.657 225.281 175.419 221.619 171.294 221.852C168.075 222.034 164.737 222.988 161.564 223.555C160.464 223.743 158.73 224.435 157.659 223.953C156.815 223.567 155.885 222.136 155.256 221.489L148.326 214.386C147.833 213.71 145.742 214.573 146.439 215.289Z" fill="#6A79A8"/>
    <path d="M81.5305 271.424C83.3156 270.493 85.7353 269.215 84.2336 266.99C83.4062 265.758 81.9668 264.838 80.8335 263.884C79.1674 262.47 77.5184 261.045 75.9033 259.575C69.9305 254.141 63.7593 247.873 61.1128 240.049C58.0471 230.965 62.0422 222.499 67.3861 215.243C72.9546 207.806 79.553 201.203 86.982 195.632C88.1437 194.747 85.4236 194.928 84.8399 195.371C78.0685 200.469 71.9578 206.393 66.6494 213.006C61.7079 219.252 56.9817 226.468 57.2481 234.746C57.4917 242.263 62.0876 248.878 66.961 254.255C69.7418 257.264 72.6955 260.107 75.807 262.771C77.286 264.066 78.8331 265.286 80.2895 266.598C82.2105 268.301 82.6809 269.397 79.8984 270.845C78.2834 271.691 80.7655 271.827 81.5362 271.413L81.5305 271.424Z" fill="#6A79A8"/>
    <path d="M20.4931 161.935C27.322 169.445 35.1383 175.988 43.7272 181.387C44.4129 181.813 46.7476 180.706 46.2999 180.422C37.7112 175.025 29.8949 168.483 23.0659 160.976C22.5728 160.436 20.0114 161.407 20.4931 161.935Z" fill="#6A79A8"/>
    <path d="M0.199958 208.072C9.91351 211.284 20.0172 213.159 30.2343 213.648C30.9539 213.682 33.3907 212.41 31.9626 212.342C21.9194 211.868 11.9871 210.029 2.43835 206.874C1.71866 206.642 -0.746419 207.749 0.222612 208.072H0.199958Z" fill="#6A79A8"/>
    <path d="M5.538 256.276C14.3655 251.543 23.7947 248.036 33.5662 245.852C35.2663 245.471 34.8186 243.927 33.1526 244.302C23.1329 246.537 13.4634 250.128 4.4103 254.976C2.75558 255.862 4.26863 256.957 5.54367 256.276H5.538Z" fill="#6A79A8"/>
    <path d="M68.1286 161.845C64.4005 152.399 61.9699 142.49 60.9033 132.389C60.79 131.287 58.0416 131.923 58.1662 133.121C59.2322 143.222 61.6628 153.131 65.3915 162.577C65.8278 163.684 68.5422 162.895 68.1286 161.845Z" fill="#6A79A8"/>
</svg>
