<svg width="1002" height="855" viewBox="0 0 1002 855" fill="none" xmlns="http://www.w3.org/2000/svg">
    <path d="M258.41 836.27C237.19 831.94 -17.7801 792.94 0.979884 505.27C19.7399 217.6 43.3099 131.09 142.44 99.4401C241.57 67.7901 482.53 -81.9999 671.62 60.4301C860.71 202.86 1064.75 330.56 983.78 557.94C902.81 785.32 859.72 856.37 678.3 849.56C466.85 841.62 359.32 856.87 258.41 836.27Z" fill="#F9F9F9"/>
    <path d="M758.79 834.48C763.45 836.22 767.65 838.33 767.3 841.7C766.57 848.88 742.38 850.7 732.48 851.38C714.96 852.65 697.41 852.51 679.81 852.9C615.87 854.307 551.903 854.72 487.91 854.14C455.07 853.86 422.24 853.347 389.42 852.6C360.6 851.95 328.49 852.98 301.21 847.39C284.84 844.03 269.13 839.85 253.79 835.39C241.09 831.66 224.61 828.12 217.11 821.1C203.97 808.8 250.3 806.23 263.05 804.84C313.19 799.36 364.87 798.27 415.85 797.33C467.72 796.38 519.74 796.72 571.37 799.33C636.11 802.63 705.28 813.59 758.06 834.22L758.79 834.48Z" fill="#E5E5E5"/>
    <path d="M727.27 774.95H585.5V839H727.27V774.95Z" fill="white"/>
    <path d="M583.94 840.37H725.71C726.64 840.37 729.71 840.04 729.71 838.68V777C729.71 776.11 724.88 776.83 724.88 778.29V840L728.88 838.31H587.05C585.96 838.31 581.56 840.39 583.94 840.39V840.37Z" fill="#6A79A8"/>
    <path d="M584.88 774.36L727.32 774.4L682.49 757.09L538.97 757.05L584.88 774.36Z" fill="#F9F9F9"/>
    <path d="M584.69 776.22H709.53H727.13C728.91 776.22 731.13 773.6 728.69 772.66L689.38 757.48C686.84 756.48 684.49 755.29 681.78 755.18C678.07 755.04 674.33 755.18 670.62 755.18H569.49H539.15C537.38 755.18 535.15 757.81 537.59 758.74L583.51 776.05C585.68 776.87 589.15 773.74 586.26 772.65L540.34 755.34L538.78 758.9H615.02H679.02C680.02 758.9 681.02 758.9 682.02 758.9C683.02 758.9 680.73 758.58 681.27 758.79C681.81 759 682.55 759.29 683.2 759.54L725.94 776.04C726.46 774.86 726.94 773.67 727.51 772.48H602.66H585.07C582.24 772.5 581.42 776.22 584.69 776.22Z" fill="#6A79A8"/>
    <path d="M585.6 708.28H443.83V839.33H585.6V708.28Z" fill="white"/>
    <path d="M396.87 690L443.83 708.28V839.33L396.87 821.72V690Z" fill="#E3E3E3"/>
    <path d="M441.41 714.53V835.09C441.41 835.93 446.24 835.23 446.24 833.79V713.23C446.24 712.39 441.41 713.09 441.41 714.53Z" fill="#6A79A8"/>
    <path d="M588 834.68V710.35C588 709.46 583.17 710.18 583.17 711.64V836C583.17 836.88 588 836.17 588 834.7V834.68Z" fill="#6A79A8"/>
    <path d="M442.28 840.37H584.05C585.14 840.37 589.53 838.29 587.15 838.29H445.38C444.29 838.29 439.89 840.37 442.28 840.37Z" fill="#6A79A8"/>
    <path d="M394.45 693.36V822.36C394.45 823.25 399.28 822.53 399.28 821.07V692.07C399.28 691.18 394.45 691.9 394.45 693.36Z" fill="#6A79A8"/>
    <path d="M443.22 707.69L585.65 707.73L540.82 690.42L397.3 690.38L443.22 707.69Z" fill="#F9F9F9"/>
    <path d="M443 709.56H567.84H585.43C587.21 709.56 589.43 706.94 587 706L547.68 690.82C545.15 689.82 542.8 688.63 540.08 688.53C536.38 688.38 532.63 688.53 528.92 688.53H427.79H397.49C395.72 688.53 393.49 691.17 395.92 692.09L441.84 709.4C444.01 710.22 447.48 707.1 444.59 706.01L398.67 688.69L397.11 692.25H473.35H522.86H537.33C538.33 692.25 539.33 692.25 540.33 692.25C541.33 692.25 539.04 691.94 539.58 692.15L541.51 692.89L584.25 709.4C584.78 708.21 585.3 707.02 585.82 705.84H460.98H443.4C440.58 705.83 439.76 709.56 443 709.56Z" fill="#6A79A8"/>
    <path d="M444.34 742.28H301.5V839.16H444.34V742.28Z" fill="white"/>
    <path d="M254.53 724L301.5 742.28V839.33L254.53 821.72V724Z" fill="#E3E3E3"/>
    <path d="M299.08 748.53V839.09C299.08 839.93 303.91 839.23 303.91 837.79V747.23C303.91 746.39 299.08 747.09 299.08 748.53Z" fill="#6A79A8"/>
    <path d="M252.12 727.36V822.36C252.159 822.448 252.221 822.524 252.297 822.582C252.374 822.639 252.465 822.677 252.56 822.69L291.83 837.41C294.62 838.41 297.56 840.03 300.53 840.41C303.84 840.77 307.4 840.41 310.72 840.41H441.72C442.82 840.41 447.21 838.33 444.83 838.33H319.36C314.17 838.33 308.28 839.12 303.13 838.33C303.88 838.45 302.41 838.01 302.02 837.85C300.07 837.09 298.09 836.38 296.13 835.65L278.13 828.9L261.26 822.58C260.06 822.13 258.08 821.82 257.08 821.01C256.23 820.32 257.14 821.7 256.94 820.46C256.47 817.68 256.94 814.46 256.94 811.62V726.07C256.94 725.18 252.11 725.9 252.11 727.36H252.12Z" fill="#6A79A8"/>
    <path d="M300.88 741.69L443.32 741.73L398.49 724.42L254.96 724.38L300.88 741.69Z" fill="#F9F9F9"/>
    <path d="M300.69 743.56H425.53H443.13C444.91 743.56 447.13 740.94 444.69 740L405.38 724.82C402.84 723.82 400.49 722.63 397.78 722.53C394.07 722.38 390.33 722.53 386.62 722.53H285.49H255.15C253.38 722.53 251.15 725.17 253.59 726.09L299.51 743.4C301.68 744.22 305.15 741.1 302.26 740.01L256.34 722.69L254.78 726.25H331.02H380.53H395C396 726.25 397 726.25 398 726.25C399 726.25 396.71 725.94 397.25 726.15L399.18 726.89L441.92 743.4C442.44 742.21 442.92 741.02 443.49 739.84H318.64H301.07C298.24 739.83 297.42 743.56 300.69 743.56Z" fill="#6A79A8"/>
    <path d="M441.41 714.53V835.09C441.41 836.22 446.24 835.43 446.24 833.79V713.23C446.24 712.1 441.41 712.89 441.41 714.53Z" fill="#6A79A8"/>
    <path d="M523.38 240.68C606.36 346 630.46 484.74 601 610.23C489 618.64 378.92 617.55 264.55 558.07C340.85 430.23 431 237.52 439.08 239C458.44 242.56 489.41 247.66 508.94 245.19C515.35 244.4 519.85 246.1 523.38 240.68Z" fill="#BBDFF5"/>
    <path d="M521.13 241.62C584.38 322.2 614.78 425.02 610.13 527.01C608.834 555.146 604.957 583.103 598.55 610.53L601.3 608.91C536.45 613.75 470.92 615.32 406.6 604.15C373.082 598.382 340.268 589.081 308.71 576.4C300.41 573.067 292.207 569.483 284.1 565.65C279.953 563.703 275.837 561.703 271.75 559.65C270.68 559.11 267.75 558.28 267.48 556.93C267.28 556.07 269.81 553.02 270.35 552.09C277.263 540.397 284.05 528.63 290.71 516.79C318.14 468.16 344.06 418.69 369.71 369.12C388.65 332.57 406.94 295.6 427.14 259.72C429.79 255.01 432.47 250.3 435.42 245.72C436.329 244.268 437.31 242.863 438.36 241.51C438.696 241.175 439 240.81 439.27 240.42C439.65 239.65 440.07 240.15 439.69 239.96C439.69 239.96 437.53 240.3 437.53 240.29C437.53 240.28 440.22 240.79 440.01 240.75L443.93 241.45C447.49 242.07 451.04 242.67 454.61 243.23C461.61 244.32 468.54 245.23 475.54 245.99C488.68 247.34 501.4 247.04 514.54 246.17C519.15 245.87 522.76 244.5 525.54 240.7C526.81 238.97 521.98 239.36 521.05 240.62C518.21 244.47 512.32 243.62 507.96 244.02C503.11 244.47 498.236 244.6 493.37 244.41C483.411 244.017 473.481 243.062 463.63 241.55C459.417 240.937 455.213 240.27 451.02 239.55C447.55 238.96 443.39 237.47 439.87 237.62C438.212 237.691 436.641 238.384 435.47 239.56C431.9 242.85 429.47 247.86 427.01 251.97C422.27 259.97 417.84 268.17 413.44 276.37C382.83 333.45 353.95 391.45 323.44 448.59C303.75 485.45 283.63 522.1 262.24 557.99C262.162 558.083 262.107 558.194 262.081 558.313C262.055 558.432 262.058 558.555 262.089 558.673C262.12 558.791 262.179 558.899 262.261 558.989C262.343 559.079 262.446 559.148 262.56 559.19C304.506 580.93 349.388 596.458 395.8 605.29C438.87 613.45 482.8 615.93 526.58 615.18C551.28 614.76 575.96 613.34 600.58 611.5C601.46 611.44 603.1 610.87 603.33 609.88C626.33 511.03 616.38 404.62 571.65 313.17C558.899 287.128 543.441 262.502 525.53 239.7C524.62 238.46 520 240.13 521.13 241.62Z" fill="#6A79A8"/>
    <path d="M596.09 458.21C595.88 457 516.67 456.21 503.09 456.52C474.09 457.22 386.95 448.24 386.63 448.2C385.46 448.08 386.25 452 386.33 452.45C387.084 456.565 388.066 460.634 389.27 464.64C391.03 470.89 392.97 477.08 394.97 483.26C397.53 491.153 400.197 499.01 402.97 506.83C406.117 515.87 409.36 524.87 412.7 533.83C416.28 543.53 419.947 553.197 423.7 562.83C427.54 572.69 431.47 582.51 435.49 592.29C439.417 601.81 443.447 611.287 447.58 620.72C451.4 629.387 455.36 638.027 459.46 646.64C463.01 654.03 466.7 661.36 470.65 668.55C473.686 674.193 477.024 679.667 480.65 684.95C482.939 688.49 485.747 691.665 488.98 694.37C491.5 696.3 494.88 695.98 494.7 692.27C493.96 676.96 494.87 661.38 494.9 646C494.9 628 494.84 610 494.73 592C494.63 576.84 494.51 561.683 494.37 546.53C494.37 543.13 494.26 539.72 494.24 536.3C494.24 535.06 493.75 528.16 496.4 528.71C499.4 529.34 498.48 539.2 498.54 541.49C498.66 546.823 498.777 552.123 498.89 557.39L499.82 601.68C500.16 617.593 500.517 633.5 500.89 649.4C501.18 661.15 501.45 672.91 501.89 684.66C501.96 686.66 501.24 691.57 502.39 693.4C502.736 693.938 503.22 694.372 503.792 694.657C504.364 694.942 505.003 695.068 505.64 695.02C508.55 694.76 510.09 690.85 511.18 688.62C519.81 671.19 528.87 653.99 537.12 636.36C541.18 627.69 544.98 618.9 548.74 610.1C552.5 601.3 555.74 591.94 559.9 583.24C559.984 583.061 560.057 582.877 560.12 582.69C570.948 556.144 580.096 528.944 587.51 501.25C590.51 489.86 593.99 478.65 595.73 466.95C596.28 464.07 596.401 461.125 596.09 458.21Z" fill="#D1D1D1"/>
    <path d="M596.09 458.21C595.88 457 516.67 456.21 503.09 456.52C474.09 457.22 395 449.2 395.09 449.52C397.25 461.93 431.38 552.14 435.09 561.77C439 571.61 485.66 691.82 489 694.38C491.52 696.31 494.9 695.99 494.72 692.28C493.98 676.97 494.89 661.39 494.92 646.01C494.92 628.01 494.86 610.01 494.75 592.01C494.65 576.85 494.53 561.693 494.39 546.54C494.39 543.14 494.28 539.73 494.26 536.31C494.26 535.07 494.26 530.4 496.42 528.72C509.63 518.23 507.21 590.32 507.52 605.09C507.86 620.99 504.38 695.09 505.65 695.03C508.56 694.77 510.1 690.86 511.19 688.63C519.82 671.2 528.88 654 537.13 636.37C541.19 627.7 544.99 618.91 548.75 610.11C552.51 601.31 555.75 591.95 559.91 583.25C559.994 583.071 560.067 582.887 560.13 582.7C570.958 556.154 580.106 528.954 587.52 501.26C590.52 489.87 594 478.66 595.74 466.96C596.287 464.077 596.405 461.128 596.09 458.21Z" fill="#E5E5E5"/>
    <path d="M386.35 451.77C386.227 452.224 386.194 452.698 386.254 453.165C386.314 453.632 386.466 454.082 386.7 454.49C387.53 455.82 389.9 455.75 391.24 456.01C393.12 456.36 395.04 456.37 396.9 456.83C398.76 457.29 400.75 457.58 402.67 458.01C412.02 460.1 421.38 462.17 430.76 464.09C439.76 465.93 448.76 467.64 457.76 469.09C462.32 469.83 466.893 470.497 471.48 471.09C473.77 471.39 476.06 471.68 478.35 471.94C480.28 472.16 482.35 472.1 484.19 472.94C492.01 476.5 501.6 476 509.97 475.94C528.517 475.86 547.057 475.333 565.59 474.36C569.65 474.14 573.73 473.67 577.74 474.11C582.118 474.534 586.537 474.196 590.8 473.11C594.14 472.26 595.75 467.77 593.94 464.57C592.13 461.37 588.43 461.86 585.36 462.11C553.82 464.65 521.24 469.01 490.01 466.11C469.71 464.22 449.6 460.44 429.62 456.11C426.45 456.05 422.86 454.65 419.75 453.96L409.6 451.69C403.6 450.33 397.94 448.37 391.98 446.83C391.249 446.588 390.475 446.506 389.71 446.59C387.85 447 386.74 450 386.35 451.77Z" fill="#D1D1D1"/>
    <path d="M386.83 457.36C415.25 463.55 443.76 469.61 472.47 474.36C497.57 478.47 522.39 478.13 547.76 477.28C562.22 476.787 576.676 476.15 591.13 475.37C593.64 475.24 594.43 471.87 591.47 472.03C564.63 473.45 537.71 474.8 510.83 474.57C484.74 474.35 458.94 468.64 433.45 463.57C418.37 460.563 403.316 457.413 388.29 454.12C386.07 453.64 383.96 456.8 386.83 457.42V457.36Z" fill="#6A79A8"/>
    <path d="M598.31 457.2C597.58 456.2 595.31 456.33 594.31 456.2C591.05 455.94 587.77 455.87 584.5 455.77C574.12 455.44 563.74 455.27 553.36 455.13C535.27 454.88 517.14 455.28 499.05 454.89C476.05 454.39 452.93 450.96 430.14 447.89C419.727 446.463 409.33 444.963 398.95 443.39C395.21 442.82 389.38 440.67 385.58 441.65C381.78 442.63 383.26 448.19 383.68 451.03C384.85 459.03 387.33 466.88 389.68 474.62C395.68 494.19 402.57 513.5 409.68 532.7C423.83 571.1 438.57 609.58 456.56 646.37C460.74 654.897 465.133 663.32 469.74 671.64C474.12 679.53 478.74 688.32 485.6 694.39C488.53 696.98 493.72 698.74 496.36 694.62C497.51 692.82 497.36 690.2 497.41 688.13C498.04 672.36 497.94 656.53 498.02 640.74C498.2 604.31 497.18 567.74 498.65 531.29C498.753 530.666 498.786 530.032 498.75 529.4C498.57 528.58 499.42 528.47 498.43 529.32L495.02 530.23C493.52 529.67 494.34 531.72 494.36 532.69C494.36 534.197 494.4 535.707 494.48 537.22C494.6 541.08 494.69 544.95 494.78 548.81C494.98 557.33 495.153 565.847 495.3 574.36C495.6 590.2 495.933 606.037 496.3 621.87C496.667 637.703 497.087 653.557 497.56 669.43C497.75 675.43 497.89 681.43 498.62 687.43C499.14 691.62 499.62 696.54 504.86 696.66C513.93 696.87 516.86 683.66 519.72 677.43C526.22 663.43 532.91 649.43 539.47 635.43C551.65 609.37 563.14 582.8 572.9 555.73C578.73 539.56 583.99 523.17 588.54 506.6C590.85 498.19 593.23 489.79 595.31 481.32C597.18 473.7 599.42 465.46 598.6 457.56C598.4 455.62 593.6 456.74 593.77 458.86C594.49 465.86 592.48 473.22 590.88 479.99C589.17 487.21 587.1 494.35 585.17 501.52C581.537 515.06 577.503 528.48 573.07 541.78C564.097 568.12 553.79 593.987 542.19 619.28C536.33 632.19 530.19 644.99 524.19 657.8C521.157 664.213 518.157 670.633 515.19 677.06C513.32 681.06 511.64 688.11 508.55 691.4C503.76 696.51 503.3 685.18 503 682.28C502.15 673.97 502.34 665.42 502.1 657.07C501.68 642.537 501.32 628.003 501.02 613.47C500.67 597 500.38 580.53 500.02 564.06C499.85 555.6 499.69 547.13 499.44 538.66C499.39 536.77 500.44 528.2 497.92 527.25C497.318 527.105 496.69 527.114 496.093 527.274C495.495 527.435 494.948 527.743 494.5 528.17C493.04 529.41 493.76 534.1 493.73 535.68C493.59 542.07 493.56 548.46 493.52 554.84C493.39 574.42 493.36 594 493.3 613.57C493.24 632.88 493.2 652.19 492.95 671.49C492.87 677.33 492.82 683.17 492.57 688.99C492.41 692.89 491.84 694.45 487.84 690.16C481.84 683.75 477.57 675.68 473.38 668.06C454.56 633.87 439.99 597.61 425.87 561.29C418.77 543.043 411.973 524.673 405.48 506.18C399.3 488.5 392 470.18 388.85 451.7C388.53 449.8 388.22 447.87 388.09 445.95C388.124 445.259 388.101 444.567 388.02 443.88C387.82 443.69 385.32 444.88 385.18 444.7C385.25 444.79 385.6 444.7 385.69 444.78C386.57 445.54 390.04 445.46 391.17 445.64C399.43 446.907 407.7 448.133 415.98 449.32C438.87 452.59 461.85 455.77 484.92 457.46C500.81 458.63 516.83 458 532.76 458.14C551.91 458.3 571.14 458.26 590.28 459.28C591.28 459.33 592.28 459.48 593.28 459.47C594.69 459.47 594.53 460.1 593.9 459.22C595 460.8 599.64 459 598.31 457.2Z" fill="#6A79A8"/>
    <path d="M435.23 476.76C435.184 486.46 431.406 495.771 424.68 502.76C423.6 503.89 428.22 503.39 429.08 502.49C436.08 495.238 440.019 485.569 440.08 475.49C440.08 474.58 435.27 475.28 435.26 476.78L435.23 476.76Z" fill="#6A79A8"/>
    <path d="M546.54 480.18C548.817 490.8 554.46 500.403 562.63 507.56C564.21 508.97 568.43 506.64 566.35 504.79C558.708 497.983 553.451 488.906 551.35 478.89C550.87 476.67 546.03 477.89 546.52 480.18H546.54Z" fill="#6A79A8"/>
    <path d="M382 445.4C382.898 421.726 385.573 398.153 390 374.88C392.37 362.02 395.19 349.24 398.54 336.61C400.207 330.33 402.01 324.093 403.95 317.9C405.57 312.76 409.22 306.49 409.95 301.28C410.61 296.28 406.95 292.14 404.6 288.28C408.87 283.93 414.55 281.67 419.09 277.77C423.22 274.23 424.33 268.26 427.09 263.6C432.63 254.13 439.09 245.01 447.09 237.48C461.32 224.16 479.68 218.76 498.29 225.93C500.1 226.62 501.88 227.42 503.63 228.28C553.73 253.16 581.7 360.38 597.25 465.55C597.25 465.55 506.83 466.43 476.94 463.08C451.55 460.2 382 445.4 382 445.4Z" fill="#E5E5E5"/>
    <path d="M528.77 174.34C527.97 128 506.91 90.7901 481.77 91.2301C456.63 91.6701 436.86 129.59 437.66 175.93C437.66 177 437.78 182.34 437.81 184.23C438.26 209.93 440.75 227.79 444.81 240.18C453.11 265.66 484.05 275.81 484.05 275.81C484.05 275.81 515.36 264.81 523.05 241.74C527.24 229.13 529.47 210.42 528.99 182.65C528.89 180.81 528.79 175.47 528.77 174.34Z" fill="#E5E5E5"/>
    <path d="M395.09 449.51C396.31 411.23 402.62 354.02 415.49 307.12C416.26 304.3 413.66 305.62 409.94 300.68C407.48 297.41 403.45 286.88 403.45 286.88C411.3 282.41 420.91 278.04 424.45 269.37C424.577 268.914 424.874 268.524 425.28 268.28C426.04 267.95 426.82 268.68 427.35 269.28C436.35 280.17 448.86 287.7 461.58 293.47C475.12 299.61 489.96 305.32 505.08 303.25C506.61 303.04 511.8 293.12 513.3 292.89C519.04 291.99 521.1 300.62 528.04 299.8C538.04 298.62 545.27 274.71 545.27 274.71C570.35 321.59 586.65 394 597.27 465.47C597.27 465.47 506.85 466.35 476.96 463C451.55 460.2 395.09 449.51 395.09 449.51Z" fill="white"/>
    <path d="M537.26 263L526.4 246.67L503.54 265.18L438.3 248.58C436.45 251.1 434.14 253.58 432.62 256.32C431.1 259.06 448.75 274.57 457 280.32C464.57 285.63 480.77 292.72 489.44 295.88C492.775 297.273 496.289 298.189 499.88 298.6C500.18 298.6 505.71 299.14 505.73 298.98L508.34 278.64L526.2 294.64C526.2 294.64 541.42 281.1 537.26 263Z" fill="white"/>
    <path d="M528.92 182.65C528.92 180.81 528.79 175.47 528.77 174.34C527.97 128 506.91 90.7901 481.77 91.2301C470.87 91.4201 464.7 97.5901 461.48 107.57C453.11 133.51 447.58 162.02 446.82 189.3C446.53 199.57 447.1 211.68 447.22 218.05C447.35 224.91 447.93 240.64 447.93 240.64C447.93 240.64 444.78 240.48 444.73 240.95C444.705 241.216 444.705 241.484 444.73 241.75C440.73 243.28 437.45 245.51 438.34 248.58C439.7 253.27 447.34 266.65 452.93 270.99C455.862 273.254 459.039 275.183 462.4 276.74C467.312 278.997 472.49 280.627 477.81 281.59C486.57 283.22 494.36 282.01 502.67 278.81C511.19 275.53 525.79 259.4 526.46 249.16C526.559 247.775 526.276 246.39 525.641 245.155C525.006 243.921 524.044 242.885 522.86 242.16C522.86 242.01 522.97 241.88 523.02 241.73C527.17 229.13 529.4 210.42 528.92 182.65Z" fill="white"/>
    <path d="M506.59 279C512.37 284.53 518.07 290.18 523.96 295.59C525.04 296.59 527.21 295.96 528.15 295.07C535.33 288.25 540.15 278.83 540.4 268.86C540.45 266.79 535.6 267.75 535.56 269.43C535.214 278.852 531.147 287.752 524.25 294.18L528.44 293.67C522.54 288.25 516.85 282.61 511.06 277.08C509.79 275.86 505.23 277.7 506.59 279Z" fill="#6A79A8"/>
    <path d="M505.9 278.87C505.053 285.957 504.2 293.04 503.34 300.12L506.63 298.21C497.94 296.57 489.36 293.34 481.24 289.93C464.02 282.7 447.51 273.19 434.84 259.33C433.4 257.76 428.84 259.68 430.41 261.43C443.24 275.43 459.7 285.07 477.07 292.54C485.98 296.37 495.37 299.83 504.94 301.63C506.09 301.85 508.07 301.06 508.23 299.72L510.78 278.48C511.07 276.07 506.15 276.75 505.9 278.87Z" fill="#6A79A8"/>
    <path d="M484.59 216.9C485.74 226.16 501.54 226.09 507.9 223.3C511.01 221.94 508.1 221.02 506.14 221.88C500.99 224.14 490.24 222.22 489.41 215.6C489.27 214.42 484.41 215.42 484.59 216.9Z" fill="#6A79A8"/>
    <path d="M513.36 109.6C516.55 104.99 521.79 97.19 520.92 91.38C524.25 97.43 526.07 104.68 529.25 111.02C531.161 114.5 532.658 118.192 533.71 122.02C535.09 127.97 534.25 134.26 532.31 140.02C530.37 145.78 527.38 151.19 524.37 156.5C525.11 156.96 525.59 155.6 525.43 154.74L523.33 143.74C522.74 144.58 520.49 146.16 519.91 146.99L516.12 152.44C516.553 151.126 516.678 149.729 516.483 148.359C516.289 146.989 515.781 145.682 515 144.54L513.74 144.75C512.21 147.65 509.45 149.21 506.9 151.27L508.48 150.56C508.107 148.707 507.391 146.94 506.37 145.35C504.37 142.35 501.25 140.27 499.37 137.26C496.44 132.65 498.95 132.72 500.53 128.15C502.86 121.31 509.32 115.43 513.36 109.6Z" fill="#BBDFF5"/>
    <path d="M415.22 124.09C415.82 123.14 416.38 122.18 416.9 121.2C410.25 123.32 403.79 122.93 396.9 122.82C404.13 122.49 410.9 119.2 416.81 114.98C436.27 100.98 450.39 78.63 474.46 71.85C483.96 69.17 493.74 71.67 502.18 76.32C509.31 80.25 521.58 85.75 517.03 95.13C506.248 117.122 488.684 135.067 466.93 146.32C463.76 147.96 459.93 148.96 457.65 151.69C456.53 153.03 453.33 159.56 453.7 161.23C453.52 160.42 449.26 151.83 448.34 152.86C445.114 156.375 442.667 160.533 441.16 165.06C440 168.95 443.16 174.31 441.05 177.62C435.6 176.62 434.16 170.04 432.73 165.62C431.49 161.74 425.35 168.43 424.22 169.53C421.28 172.43 413.06 177.15 412.22 180.79C413.553 175.05 414.887 169.307 416.22 163.56C411.12 165.38 405.97 167.047 400.77 168.56C404.99 167.33 409.28 158.22 411 154.56C413.41 149.46 416.31 143.13 417.22 137.62C414.78 138.36 412.61 139.9 410.01 140.39C407.41 140.88 404.2 140.39 402.25 138.45C407.15 134.11 411.71 129.7 415.22 124.09Z" fill="#BBDFF5"/>
    <path d="M423.78 311.63C414.42 306.45 409.46 295.82 405.87 286.23L404.97 287.67C408.879 284.546 413.142 281.891 417.67 279.76C421.91 277.91 422.83 276.89 425 273C431.3 261.67 437.54 249.91 446.71 240.64C446.97 240.38 447.31 239.94 447.18 239.54C440.49 218.54 440.18 195.71 440.03 173.91C439.9 150.83 444.22 124.79 458.78 106.1C464.13 99.21 471.7 92.94 480.83 92.67C489.48 92.42 497.22 97.46 502.96 103.52C518.85 120.29 524.71 145.76 526.09 168.11C526.898 181.665 526.881 195.257 526.04 208.81C525.37 220.01 524.04 231.32 520.56 242.02C519.98 243.79 524.84 243.18 525.4 241.46C529.87 227.73 530.92 212.99 531.29 198.64C531.73 181.83 531.75 164.55 528.55 148C524.24 125.64 511.08 89.95 483.13 89.78C455.62 89.62 442.36 122.72 437.91 145C434.68 161.2 434.97 177.73 435.63 194.15C435.924 202.986 436.675 211.801 437.88 220.56C438.35 223.88 438.88 227.19 439.61 230.47C440.26 233.47 441.82 236.85 442.05 239.89C442.12 240.89 442.61 239.09 442.29 240.25C442.16 240.69 440.7 241.85 440.4 242.16C439.77 242.79 439.11 243.41 438.52 244.08C436.479 246.536 434.615 249.132 432.94 251.85C428.88 258.05 425.16 264.46 421.53 270.91C420.409 272.703 419.387 274.555 418.47 276.46C418.27 276.93 420.32 275.82 418.47 276.34C417.32 276.774 416.201 277.285 415.12 277.87C410.425 280.101 406 282.858 401.93 286.09C401.54 286.38 400.8 286.92 401.03 287.53C404.83 297.68 410.03 308.59 419.95 314.06C421.42 314.87 425.84 312.77 423.77 311.63H423.78Z" fill="#6A79A8"/>
    <path d="M407 304.13C390.626 349.746 381.394 397.617 379.63 446.05C379.63 446.39 380.35 446.52 380.53 446.56C408.67 452.56 436.93 458.48 465.38 462.83C497.38 467.74 530.6 466.72 562.93 466.83C574.043 466.83 585.15 466.797 596.25 466.73C597.08 466.73 599.84 466.2 599.65 464.9C594.59 430.83 588.43 396.9 579.94 363.48C572.62 334.73 563.75 305.95 550.41 279.36C544.41 267.44 537.41 255.95 528.71 245.82C527.83 244.82 524.45 245.93 524.06 247.07C522.9 250.36 521.363 253.504 519.48 256.44C517.804 259.215 515.694 261.704 513.23 263.81C509.11 267.15 504.23 267.26 499.09 267.01C479.84 266.09 463.67 254.53 448.62 243.62C447.39 242.73 443.05 244.62 444.1 245.4C461.97 258.4 481.3 271.29 504.44 269.23C516.84 268.13 525.04 257.47 528.85 246.35L524.2 247.6C540.99 267.1 551.65 291.46 560.27 315.47C571.08 345.61 578.65 376.89 584.88 408.27C588.7 427.49 591.94 446.81 594.82 466.2L598.22 464.36C560.11 464.73 521.53 465.53 483.52 462.36C461.35 460.54 439.3 455.53 417.52 451.2C407.98 449.3 398.45 447.357 388.93 445.37C388.09 445.19 384.19 444.97 383.64 444.25C384.39 445.25 384.64 440.5 384.64 440.67C384.733 438.67 384.84 436.67 384.96 434.67C385.22 430.48 385.56 426.3 385.96 422.12C389.72 381.85 398.13 341.53 411.83 303.45C412.29 302.16 407.54 302.73 407.03 304.16L407 304.13Z" fill="#6A79A8"/>
    <path d="M516.33 316.22C516.72 331.73 517.06 347.22 517.55 362.76C518.13 381.11 515.25 398.33 507.97 413.22C510.16 418.3 523.92 434.13 524.7 439.77C527.95 436.27 540.41 421.19 543.7 417.46C550.25 410 541.25 362.59 537.61 348.75C535.78 341.75 528.42 310.1 521.81 310.64L519.38 310.84C517.49 311 516.13 313.24 516.38 315.84C516.32 316 516.33 316.09 516.33 316.22Z" fill="#DDDDDD"/>
    <path d="M513.5 338.4L529 356.24C529.285 356.573 529.647 356.831 530.055 356.992C530.463 357.152 530.904 357.21 531.34 357.16L554.8 354.54C555.302 354.485 555.809 354.571 556.265 354.788C556.721 355.006 557.107 355.347 557.379 355.772C557.652 356.197 557.8 356.69 557.807 357.195C557.814 357.7 557.68 358.197 557.42 358.63L545.22 378.84C544.994 379.215 544.863 379.64 544.839 380.078C544.814 380.515 544.897 380.952 545.08 381.35L554.81 402.86C555.021 403.319 555.098 403.827 555.034 404.328C554.969 404.828 554.765 405.301 554.445 405.691C554.125 406.081 553.701 406.373 553.223 406.534C552.745 406.695 552.231 406.718 551.74 406.6L528.74 401.25C528.312 401.152 527.866 401.159 527.441 401.27C527.016 401.382 526.625 401.594 526.3 401.89L508.83 417.8C508.456 418.139 507.995 418.367 507.499 418.458C507.003 418.549 506.491 418.5 506.021 418.316C505.552 418.132 505.142 417.821 504.84 417.417C504.538 417.013 504.354 416.533 504.31 416.03L502.31 392.51C502.273 392.073 502.129 391.651 501.892 391.282C501.655 390.912 501.332 390.606 500.95 390.39L480.43 378.72C479.991 378.471 479.63 378.104 479.389 377.66C479.148 377.216 479.036 376.714 479.066 376.21C479.096 375.706 479.267 375.22 479.56 374.808C479.852 374.396 480.254 374.075 480.72 373.88L502.46 364.69C502.864 364.522 503.222 364.257 503.501 363.919C503.779 363.58 503.971 363.179 504.06 362.75L508.82 339.63C508.921 339.137 509.158 338.683 509.504 338.317C509.85 337.952 510.292 337.691 510.778 337.563C511.265 337.435 511.777 337.446 512.258 337.593C512.739 337.741 513.169 338.021 513.5 338.4Z" fill="#E3E3E3"/>
    <path d="M516.59 314.44C518.27 329.86 519.9 345.3 521.68 360.72C523.79 378.95 522.36 396.36 516.34 411.79C518.95 416.68 533.99 431.3 535.23 436.86C538.18 433.1 549.34 417.03 552.23 413.05C558.13 405.05 545.23 358.57 540.43 345.05C538.03 338.27 528.05 307.3 521.5 308.39L519.1 308.8C517.23 309.11 516.1 311.46 516.49 314.04C516.56 314.19 516.58 314.31 516.59 314.44Z" fill="#BBDFF5"/>
    <path d="M514.78 314.92C516.25 328.42 517.68 341.92 519.21 355.42C520.76 369.07 521.53 382.56 518.98 396.15C518.364 399.436 517.563 402.685 516.58 405.88C516.08 407.51 514.27 410.57 514.53 412.28C514.87 414.51 518.24 417.43 519.62 419.04C524.1 424.32 531.47 430.5 533.42 437.35C533.82 438.75 536.06 438.35 536.76 437.44C540.35 432.8 543.65 427.93 547.04 423.14C549.53 419.62 553.12 415.91 554.74 411.88C556.21 408.19 555.74 403.6 555.35 399.77C554.725 393.535 553.724 387.344 552.35 381.23C547.72 359.54 541.46 336.44 531.29 316.59C529.64 313.38 527.11 307.79 523.01 307.07C517.93 306.18 514.12 309.89 514.81 314.92C515.05 316.67 518.68 315.76 518.43 313.92C518.01 310.87 520.31 308.92 522.73 310.41C524.27 311.33 525.48 313.73 526.36 315.21C529.017 319.953 531.281 324.907 533.13 330.02C535.97 337.35 538.6 344.81 540.92 352.33C544.13 362.72 546.92 373.28 549.1 383.93C550.227 389.152 551.081 394.429 551.66 399.74C552.01 403.23 552.66 407.74 551.37 411.13C549.85 415.32 545.87 419.32 543.31 422.93C540.16 427.4 537.07 431.93 533.73 436.25L537.07 436.35C535.15 429.63 528.47 423.81 524.07 418.67C522.46 416.8 518.48 413.35 518.52 410.92C518.52 408.74 520.34 405.65 520.93 403.49C521.779 400.414 522.47 397.297 523 394.15C525.14 381.56 524.53 368.97 523.09 356.35C521.48 342.21 519.98 328.06 518.44 313.92C518.21 312.21 514.58 313.11 514.78 314.92Z" fill="#6A79A8"/>
    <path d="M511.58 293.73C512.2 292.13 513.33 291.17 515.64 292.18C518.93 293.61 521.95 296.99 524.57 299.38C526.74 301.38 527.92 302.85 524.75 304.69C521.94 306.32 518.23 307.08 515.17 308.2C510.29 309.99 510.33 301.2 510.68 298.69C510.798 297.009 511.1 295.346 511.58 293.73Z" fill="#BBDFF5"/>
    <path d="M513.39 293.48C514.32 291.48 521.6 298.87 522.55 299.77C523.313 300.303 523.963 300.983 524.46 301.77C525.15 303.37 523.55 304.29 522.27 304.86C520.221 305.796 518.079 306.514 515.88 307C510.51 308.08 512.55 296.12 513.39 293.44C513.75 292.29 510.14 292.78 509.78 293.93C508.63 297.6 507.66 304.3 510.07 307.75C510.544 308.4 511.204 308.892 511.962 309.161C512.72 309.431 513.542 309.465 514.32 309.26C517.712 308.593 521.005 307.498 524.12 306C525.82 305.22 528.81 303.88 528.45 301.56C528.26 300.37 527.06 299.43 526.26 298.66C524.88 297.32 523.49 295.96 522.05 294.66C518.67 291.66 512.44 288.16 509.78 293.9C509.32 295 512.87 294.59 513.39 293.48Z" fill="#6A79A8"/>
    <path d="M428.92 269.65C438.07 290.53 454.21 308.42 468.05 326.33C475.563 335.818 483.634 344.85 492.22 353.38C500.36 361.68 508.74 369.92 518.66 376.08C520.41 377.17 524.66 374.76 522.4 373.35C512.24 367.05 503.76 358.56 495.45 350.07C487.292 341.907 479.612 333.279 472.45 324.23C465.71 315.5 459.06 306.69 452.34 297.95C445.22 288.68 438.44 279.09 433.73 268.35C432.82 266.27 428.03 267.67 428.9 269.65H428.92Z" fill="#6A79A8"/>
    <path d="M536.59 277.4C539.45 290.67 538.18 304.54 538.24 318.02C538.3 333.36 537.8 350.72 532.24 365.22C531.24 367.77 536.1 367.67 536.84 365.72C542.55 350.85 543.18 333.36 543.12 317.62C543.12 303.85 544.35 289.67 541.41 276.1C540.95 273.94 536.11 275.18 536.59 277.4Z" fill="#6A79A8"/>
    <path d="M517.32 337.89L533.82 354.77C534.125 355.085 534.502 355.32 534.918 355.456C535.335 355.592 535.778 355.624 536.21 355.55L559.47 351.55C559.968 351.461 560.481 351.514 560.95 351.703C561.419 351.892 561.826 352.208 562.124 352.617C562.422 353.025 562.599 353.51 562.636 354.014C562.672 354.518 562.566 355.023 562.33 355.47L551.33 376.37C551.128 376.759 551.023 377.191 551.023 377.63C551.023 378.068 551.128 378.501 551.33 378.89L562.33 399.77C562.567 400.216 562.675 400.719 562.64 401.223C562.606 401.727 562.431 402.211 562.135 402.62C561.839 403.03 561.435 403.348 560.967 403.539C560.499 403.73 559.988 403.785 559.49 403.7L536.22 399.7C535.788 399.626 535.345 399.658 534.928 399.794C534.512 399.93 534.135 400.165 533.83 400.48L517.37 417.4C517.019 417.762 516.573 418.018 516.084 418.14C515.595 418.262 515.081 418.245 514.601 418.089C514.121 417.934 513.695 417.648 513.369 417.263C513.044 416.878 512.833 416.409 512.76 415.91L509.33 392.56C509.262 392.132 509.093 391.727 508.835 391.379C508.577 391.03 508.239 390.75 507.85 390.56L486.67 380.14C486.216 379.918 485.834 379.573 485.566 379.144C485.299 378.715 485.157 378.22 485.157 377.715C485.157 377.21 485.299 376.715 485.566 376.286C485.834 375.857 486.216 375.512 486.67 375.29L507.83 364.82C508.216 364.628 508.552 364.346 508.807 363.998C509.063 363.65 509.232 363.246 509.3 362.82L512.67 339.46C512.728 338.948 512.93 338.464 513.254 338.063C513.577 337.662 514.008 337.362 514.496 337.197C514.984 337.032 515.508 337.01 516.009 337.133C516.509 337.255 516.964 337.518 517.32 337.89Z" fill="#F7E080"/>
    <path d="M515.54 338.71C518.52 341.757 521.496 344.803 524.47 347.85C526.96 350.39 530 355.07 533.41 356.5C536.51 357.81 541.69 355.85 544.75 355.32L553.23 353.86C554.57 353.63 557.75 352.41 559.06 352.86C562.82 354.14 556.14 363.62 555.25 365.32C553.44 368.76 550.55 372.63 549.48 376.38C548.48 379.82 551.76 383.8 553.3 386.71C554.633 389.27 555.966 391.823 557.3 394.37C558.19 396.06 559.95 398.29 560.3 400.17C560.84 402.71 559.67 402.32 557.85 402.01L549.48 400.58C545.39 399.89 541.03 398.58 536.88 398.44C532.73 398.3 530.48 401.8 527.88 404.44L521.88 410.61C520.33 412.2 518.62 414.73 516.73 415.91C516.56 416.01 515.95 416.91 515.73 416.91C514.36 416.75 514.73 415.38 514.48 414.61C513.99 412.44 513.656 410.238 513.48 408.02C512.75 403.02 512.37 397.79 511.26 392.86C510.47 389.36 507.48 388.63 504.51 387.17C499.74 384.82 493.98 382.9 489.62 379.85C488 378.71 486.47 377.74 488.28 375.85C489.74 374.31 493.45 373.29 495.28 372.36C499.61 370.22 504.38 368.36 508.48 365.83C512.29 363.44 511.84 357.3 512.41 353.33C512.88 350.1 513.34 346.87 513.81 343.64C513.87 343.19 514.07 337.9 515.6 338.96C516.86 339.84 520.33 338.05 518.6 336.86C514.45 333.98 510.98 337.26 510.29 341.33C509.29 347.33 508.56 353.33 507.7 359.33C507.5 360.69 507.6 362.86 506.64 363.92C505.44 365.23 502.09 366.17 500.54 366.92C495.76 369.29 490.71 371.41 486.09 374.07C482.28 376.27 482.32 379.68 486.09 381.74C491.33 384.58 496.82 387.02 502.17 389.65C503.36 390.23 505.17 390.71 506.17 391.65C507.74 393.08 507.59 395.65 507.88 397.56C508.72 403.29 509.36 409.08 510.4 414.78C511.22 419.27 514.88 421.13 518.79 417.96C522.52 414.96 525.72 410.84 529.06 407.4C530.73 405.68 532.41 403.3 534.38 401.92C535.74 400.98 535.77 401.14 537.65 401.46L555.33 404.46C558.55 405.01 564.75 405.66 564.41 400.46C564.32 399.06 563.18 397.46 562.55 396.32L557.98 387.65C556.15 384.18 551.98 379.35 553.55 375.43C555.68 370.11 559.02 365 561.68 359.92C563.57 356.31 566.68 349.86 559.4 350.27C553.72 350.59 547.83 352.27 542.23 353.27C540.29 353.6 537.23 354.82 535.34 353.97C533.85 353.29 532.21 350.77 531.1 349.63L518.87 337.12C518 335.93 514.31 337.45 515.54 338.71Z" fill="#6A79A8"/>
    <path d="M590.12 446.34C586.71 444.72 583.83 443.06 585.47 439.04C586.77 435.87 589.7 432.91 591.69 430.13C596.385 423.705 600.724 417.029 604.69 410.13C612.55 396.13 618.37 380.2 616.1 363.96C613.76 347.27 603.72 333.26 593.1 320.69C581.637 307.019 568.5 294.844 554 284.45C552.77 283.58 548.46 285.45 549.48 286.22C564.477 296.958 578.013 309.601 589.75 323.83C600.83 337.21 610.96 352.35 611.75 370.27C612.5 387.98 604.19 404.77 594.84 419.27C590.61 425.82 585.32 431.85 581.4 438.57C578.4 443.71 581.56 446.2 586.26 448.44C587.46 449 591.89 447.16 590.17 446.34H590.12Z" fill="#6A79A8"/>
    <path d="M401 437.58C404.15 435.94 408.42 433.69 405.77 429.77C404.31 427.6 401.77 425.98 399.77 424.3C396.83 421.81 393.92 419.3 391.07 416.71C380.53 407.14 369.64 396.1 364.97 382.32C359.56 366.32 366.61 351.41 376.04 338.63C385.866 325.532 397.51 313.901 410.62 304.09C412.67 302.53 407.87 302.85 406.84 303.63C394.891 312.609 384.107 323.043 374.74 334.69C366.02 345.69 357.68 358.4 358.15 372.98C358.58 386.22 366.69 397.87 375.29 407.34C380.197 412.639 385.409 417.648 390.9 422.34C393.51 424.62 396.24 426.77 398.81 429.08C402.2 432.08 403.03 434.01 398.12 436.56C395.27 438.05 399.65 438.29 401.01 437.56L401 437.58Z" fill="#6A79A8"/>
    <path d="M691.58 245.38C678.999 257.646 664.809 268.146 649.4 276.59C646.59 278.13 651 278.05 652.22 277.38C668.21 268.657 682.939 257.797 696 245.1C697.09 244.04 692.5 244.51 691.61 245.38H691.58Z" fill="#6A79A8"/>
    <path d="M724.74 327.28C707.86 331.732 690.455 333.874 673 333.65C671.42 333.65 667.79 335.96 671 336C689.312 336.212 707.569 333.938 725.27 329.24C728.12 328.49 727.63 326.52 724.75 327.24L724.74 327.28Z" fill="#6A79A8"/>
    <path d="M715.38 411.32C699.979 401.88 683.367 394.576 666 389.61C664.27 389.11 660.31 391.61 663.1 392.45C680.136 397.349 696.428 404.538 711.53 413.82C713.03 414.74 717.43 412.61 715.34 411.32H715.38Z" fill="#6A79A8"/>
    <path d="M684.57 480.71C674.993 465.486 663.39 451.636 650.08 439.54C648.99 438.54 644.52 440.37 645.57 441.31C658.752 453.261 670.247 466.95 679.74 482C680.62 483.39 685.16 481.64 684.57 480.7V480.71Z" fill="#6A79A8"/>
    <path d="M616.75 242C624.39 225.658 629.773 208.353 632.75 190.56C633.12 188.38 628.21 189.1 627.89 191.03C624.981 208.535 619.709 225.563 612.22 241.65C611.14 243.98 615.99 243.72 616.79 242H616.75Z" fill="#6A79A8"/>
    <path d="M293.29 244.74C305.34 257.966 319.134 269.491 334.29 279C335.5 279.75 339.62 277.8 338.83 277.3C323.674 267.795 309.881 256.273 297.83 243.05C296.96 242.1 292.44 243.81 293.29 244.74Z" fill="#6A79A8"/>
    <path d="M257.48 326C274.621 331.656 292.45 334.96 310.48 335.82C311.75 335.88 316.05 333.64 313.53 333.52C295.807 332.685 278.28 329.446 261.43 323.89C260.16 323.48 255.81 325.43 257.52 326H257.48Z" fill="#6A79A8"/>
    <path d="M266.9 410.9C282.477 402.565 299.117 396.388 316.36 392.54C319.36 391.87 318.57 389.15 315.63 389.81C297.949 393.747 280.886 400.072 264.91 408.61C261.99 410.17 264.66 412.1 266.91 410.9H266.9Z" fill="#6A79A8"/>
    <path d="M377.35 244.58C370.771 227.944 366.482 210.491 364.6 192.7C364.4 190.76 359.55 191.88 359.77 193.99C361.651 211.781 365.94 229.234 372.52 245.87C373.29 247.82 378.08 246.43 377.35 244.58Z" fill="#6A79A8"/>
</svg>
