<?xml version="1.0" encoding="UTF-8"?>
<svg xmlns="http://www.w3.org/2000/svg" width="1617" height="437" viewBox="0 0 1617 437" fill="none">
    <path d="M435.92 0.870514C435.92 3.63051 435.92 5.77054 435.92 7.90054C435.92 114.411 435.86 220.921 435.97 327.431C435.99 346.541 431.19 364.251 421.93 380.781C411.15 400.011 395.62 414.47 376.02 424.34C360.69 432.05 344.31 436.021 327.03 436.011C253.54 435.991 180.05 436.32 106.56 435.82C81.67 435.65 59.42 426.7 40.03 410.72C21.12 395.14 9.39995 375.221 3.39995 351.781C1.89995 345.931 1.00996 339.76 0.999957 333.73C0.839957 258.22 0.949953 182.711 0.839953 107.211C0.819953 93.9705 3.54996 81.3305 8.34996 69.1905C13.54 56.0805 21.1 44.3705 31.02 34.1805C46.76 18.0105 65.5699 7.51049 87.6099 2.97049C93.5399 1.75049 99.68 0.960541 105.73 0.960541C213.38 0.840541 321.03 0.870514 428.69 0.870514C430.84 0.870514 432.99 0.870514 435.92 0.870514ZM358.04 166.151C358.51 165.601 358.98 165.051 359.45 164.501C358.93 164.361 358.42 164.221 357.9 164.081C342.29 164.031 326.67 163.901 311.06 164.021C309.34 164.031 307.2 165.081 305.99 166.341C299.44 173.171 293.16 180.251 286.72 187.191C277.48 197.151 268.18 207.05 258.91 216.98L258.87 216.951C258.87 181.361 258.87 145.761 258.87 110.081C244.49 110.081 231.46 110.081 217.9 110.081C217.9 118.371 217.9 126.241 217.9 134.461C213.38 130.401 209.6 126.391 205.24 123.201C193.77 114.811 180.9 110.141 166.63 108.771C152.86 107.451 139.16 106.68 125.82 110.91C102.79 118.21 87.8299 133.521 80.3699 156.681C73.4699 178.101 82.2999 202.951 98.3999 216.331C113.69 229.041 132.28 232.58 151.02 235.98C162.61 238.08 174.38 239.831 185.61 243.241C200.4 247.731 204.36 267.331 193.4 278.281C186.84 284.841 178.52 287.361 169.67 288.421C160.45 289.521 151.12 290.02 142.17 286.97C129.07 282.5 121.05 273.26 118.04 259.72C117.61 259.67 117.18 259.611 116.75 259.561C103.52 259.561 90.2799 259.561 77.0499 259.561C76.6399 259.661 76.2299 259.761 75.8299 259.861C75.7499 260.851 75.67 261.85 75.59 262.84C75.62 263.25 75.6499 263.66 75.6799 264.07C76.4499 268.12 76.93 272.26 78.03 276.22C84.27 298.63 98.7299 314.311 119.93 322.631C135.58 328.771 152.23 331.67 169.47 329.09C183.4 327 196.74 323.641 208.73 316.011C211.62 314.171 214.35 312.091 218.06 309.491C218.06 315.771 218.06 321.12 218.06 326.45C231.95 326.45 245.14 326.45 258.66 326.45C258.66 310.53 258.63 295.06 258.7 279.58C258.71 277.81 258.65 275.551 259.64 274.361C263.55 269.671 267.87 265.33 272.4 260.47C273.93 262.63 275.27 264.29 276.37 266.09C287.91 284.98 299.42 303.9 310.92 322.82C312.32 325.13 313.52 327.061 316.94 326.991C330.59 326.711 344.25 326.801 357.9 326.761C358.29 326.131 358.67 325.491 359.06 324.861C340.85 294.651 322.72 264.391 304.33 234.281C301.84 230.211 301.8 227.791 305.23 224.091C323.03 204.951 340.47 185.491 358.04 166.151Z"
          fill="#BAED55"></path>
    <path d="M1396.98 312.91C1396.98 331.79 1396.8 349.9 1397.09 368C1397.17 372.94 1395.61 374.33 1390.86 374.08C1383.71 373.71 1376.53 373.87 1369.37 374.03C1366.21 374.1 1364.92 373.14 1364.92 369.78C1364.99 316.95 1364.99 264.11 1364.92 211.28C1364.92 208.07 1365.91 206.81 1369.22 206.88C1377.54 207.04 1385.88 206.93 1394.65 206.93C1394.65 212.44 1394.65 217.85 1394.65 224.24C1398.34 219.99 1401.28 216.45 1404.39 213.06C1410.27 206.62 1417.93 204.5 1426.34 203.89C1439.98 202.9 1452.22 206.01 1462.92 214.89C1471.17 221.74 1476.08 230.73 1478.73 240.69C1483.73 259.43 1483.05 278.25 1477.03 296.75C1471.69 313.14 1461.47 324.88 1444.28 329.18C1428.69 333.08 1414.12 331.37 1402.07 319.49C1400.35 317.78 1399.07 315.64 1396.98 312.91ZM1396.11 267.65C1395.6 267.76 1395.09 267.87 1394.58 267.98C1396.38 275.16 1397.86 282.45 1400.07 289.51C1402.8 298.21 1409.85 302.51 1418.22 303.77C1426.48 305.01 1434.45 303.47 1440.24 296.34C1451.99 281.85 1452.09 256.66 1441.31 240.47C1433.28 228.4 1409.97 229.34 1402.78 241.13C1397.69 249.47 1395.19 257.99 1396.11 267.65Z"
          fill="#ffffff70"></path>
    <path d="M1272.99 244.78C1263.95 244.78 1253.64 244.78 1243.33 244.78C1244 236.03 1246.99 228.37 1252 221.36C1258.68 212.02 1268.33 207.05 1278.95 205.22C1294.21 202.59 1309.8 202.2 1324.65 208.02C1336.76 212.77 1344.43 220.59 1344.84 232.93C1345.65 257.34 1345.62 281.78 1346.02 306.21C1346.06 308.96 1346.28 311.821 1347.08 314.421C1347.81 316.801 1349.41 318.92 1350.69 321.11C1351.63 322.71 1352.68 324.24 1354.43 326.96C1341.92 326.96 1330.98 327.22 1320.09 326.65C1318.61 326.57 1317.11 322.46 1316.08 320.02C1315.35 318.3 1315.41 316.261 1315.11 314.301C1310.37 318.011 1306.17 322 1301.34 324.95C1287.63 333.3 1263.92 333.86 1250.41 321.77C1243.93 315.98 1241.04 307.991 1240.14 299.681C1238.98 289.041 1240.61 278.91 1247.87 270.12C1254.02 262.67 1261.75 258.46 1271.02 256.99C1282.94 255.1 1294.98 253.93 1306.82 251.65C1309.53 251.13 1312.98 247.72 1313.72 244.99C1315.52 238.38 1313.03 232.86 1307.6 230.97C1298.61 227.84 1289.11 226.69 1280.95 232.77C1277.6 235.26 1275.99 240.08 1272.99 244.78ZM1314.84 269.28C1310.09 270.72 1306.43 272.001 1302.7 272.931C1295.48 274.721 1288.15 276.06 1281 278.07C1275.12 279.73 1270.75 286.6 1271.04 293.46C1271.35 301 1273.87 305.59 1280.16 307.4C1284.02 308.51 1288.5 308.51 1292.5 307.82C1301.64 306.24 1309.45 301.78 1311.93 292.33C1313.85 285.02 1313.91 277.22 1314.84 269.28Z"
          fill="#ffffff70"></path>
    <path d="M731.14 290.96C730.19 302.68 724.33 311.13 716.26 317.75C703.6 328.13 688.4 331.75 672.31 330.87C658.72 330.12 645.94 326.17 635.99 316.38C626.5 307.05 621.61 295.15 620.04 282.08C619.14 274.56 618.52 266.85 619.08 259.33C620.7 237.28 628.78 218.61 650.01 208.64C655.86 205.89 662.74 204.65 669.26 204.14C678.41 203.43 687.75 203.17 696.68 206.28C713.01 211.98 723.66 223.38 727.76 239.97C730.68 251.79 731.89 264.04 733.99 276.82C705.27 276.82 677.71 276.82 649.33 276.82C651.04 282.48 651.9 287.7 654.16 292.23C658.08 300.07 665.06 303.97 673.77 305.03C680.4 305.84 686.64 305.15 691.98 300.91C694.11 299.22 696.75 297.13 697.35 294.77C698.34 290.84 700.6 290.93 703.55 290.95C712.51 291.01 721.49 290.96 731.14 290.96ZM699.88 255.81C700.16 245.46 697.22 236.9 688.18 231.89C679.82 227.26 670.61 227.17 662.61 232.28C654.47 237.48 651.33 246.02 651.08 255.81C667.41 255.81 683.33 255.81 699.88 255.81Z"
          fill="#ffffff70"></path>
    <path d="M1042.57 203.481C1060.63 203.301 1076.09 209.001 1088.16 222.691C1095.86 231.431 1100.44 241.651 1102 253.261C1103.79 266.581 1103.78 279.691 1099.08 292.561C1091.04 314.561 1075.16 326.451 1052.32 330.041C1038.99 332.141 1026.3 330.541 1014.11 324.971C998.57 317.871 988.59 306.091 983.8 289.571C978.52 271.351 979 253.601 986.93 236.301C994.83 219.061 1008.51 208.861 1026.89 205.021C1032 203.961 1037.34 203.961 1042.57 203.481ZM1012.7 268.471C1013.32 272.291 1013.71 277.551 1015.07 282.551C1018.31 294.421 1026.78 303.121 1039.18 303.991C1054.29 305.051 1063.95 297.391 1068.02 284.901C1071.92 272.911 1071.89 260.921 1068.01 248.931C1064.52 238.181 1057.24 231.521 1046.05 230.121C1036.5 228.931 1027.81 231.571 1021.32 239.151C1014.43 247.171 1013.52 257.101 1012.7 268.471Z"
          fill="#ffffff70"></path>
    <path d="M1540.74 276.421C1536.71 280.561 1532.67 284.471 1528.97 288.681C1528.06 289.711 1528.04 291.731 1528.02 293.291C1527.94 304.281 1527.98 315.271 1527.98 326.621C1517.75 326.621 1507.69 326.621 1497.3 326.621C1497.3 287.001 1497.3 247.271 1497.3 207.241C1507.33 207.241 1517.39 207.241 1527.95 207.241C1527.95 222.001 1527.95 236.701 1527.95 252.641C1538.64 241.901 1548.44 232.011 1558.28 222.161C1563.34 217.101 1567.64 210.141 1573.76 207.611C1579.89 205.071 1587.86 206.971 1595.02 206.951C1601.25 206.931 1607.49 206.951 1614.82 206.951C1606.33 215.671 1598.74 223.561 1591.06 231.361C1583.69 238.841 1576.37 246.371 1568.73 253.571C1565.83 256.311 1565.72 258.321 1568.03 261.381C1580.96 278.571 1593.78 295.851 1606.6 313.121C1609.78 317.401 1612.84 321.771 1616.59 326.991C1614.15 326.991 1612.43 326.991 1610.72 326.991C1600.56 326.991 1590.39 326.931 1580.23 327.031C1577.39 327.061 1575.59 326.391 1573.78 323.751C1563.11 308.031 1552.08 292.571 1540.74 276.421Z"
          fill="#ffffff70"></path>
    <path d="M934.92 249.581C934.92 235.451 934.92 221.511 934.92 207.251C945.27 207.251 955.33 207.251 965.67 207.251C965.67 247.001 965.67 286.731 965.67 326.721C955.52 326.721 945.46 326.721 935.1 326.721C935.1 309.931 935.1 293.321 935.1 276.341C919.75 276.341 904.69 276.341 889.15 276.341C889.15 292.891 889.15 309.631 889.15 326.671C878.62 326.671 868.56 326.671 858.22 326.671C858.22 286.921 858.22 247.201 858.22 207.211C868.37 207.211 878.43 207.211 888.79 207.211C888.79 221.331 888.79 235.271 888.79 249.591C904.15 249.581 919.21 249.581 934.92 249.581Z"
          fill="#ffffff70"></path>
    <path d="M1118.29 207.091C1154.2 207.091 1189.8 207.091 1225.68 207.091C1225.68 246.971 1225.68 286.691 1225.68 326.701C1215.57 326.701 1205.51 326.701 1194.97 326.701C1194.97 324.791 1194.97 323.011 1194.97 321.231C1194.97 293.241 1194.89 265.241 1195.06 237.251C1195.08 233.081 1193.88 231.781 1189.68 231.861C1176.36 232.101 1163.04 231.951 1149.25 231.951C1149.25 263.481 1149.25 294.881 1149.25 326.621C1138.73 326.621 1128.67 326.621 1118.29 326.621C1118.29 287.001 1118.29 247.281 1118.29 207.091Z"
          fill="#ffffff70"></path>
    <path d="M636.77 164.921C636.77 174.481 636.77 183.421 636.77 192.841C620.55 192.841 604.49 192.841 587.98 192.841C587.98 237.701 587.98 282.091 587.98 326.731C576.59 326.731 565.65 326.731 554.25 326.731C554.25 282.481 554.25 238.081 554.25 193.221C537.41 193.221 521.02 193.221 503.95 193.221C503.95 184.351 503.86 175.921 504.08 167.511C504.1 166.631 505.86 165.221 506.96 165.051C509.4 164.671 511.94 164.931 514.44 164.931C553.25 164.931 592.07 164.931 630.88 164.931C632.69 164.921 634.5 164.921 636.77 164.921Z"
          fill="#ffffff70"></path>
    <path d="M730.05 326.97C742.97 307.43 755.49 288.32 768.26 269.38C770.08 266.68 770.05 265.21 768.25 262.51C756.67 245.26 745.36 227.82 733.97 210.44C733.36 209.51 732.85 208.51 731.95 206.94C744.39 206.94 756.28 206.79 768.15 207.12C769.65 207.16 771.51 209.44 772.46 211.11C777.85 220.56 783.01 230.14 788.28 239.65C788.57 240.18 789.2 240.53 790.12 241.37C795.84 231.31 801.56 221.59 806.9 211.66C808.78 208.17 810.88 206.69 814.98 206.82C825.42 207.14 835.87 206.93 847.24 206.93C833.9 226.96 820.98 246.39 807.95 265.96C821.27 285.96 834.65 306.04 848.59 326.97C835.48 326.97 823.25 327.03 811.02 326.86C810.01 326.85 808.69 325.41 808.08 324.32C802.84 314.97 797.74 305.54 792.55 296.15C791.77 294.74 790.76 293.47 789.48 291.57C784.66 299.61 780.13 307.17 775.6 314.74C775.27 315.3 775.01 315.9 774.75 316.49C771.12 324.8 769.5 327.21 755.81 327.21C747.5 327.21 739 326.97 730.05 326.97Z"
          fill="#ffffff70"></path>
    <path d="M118.04 259.711C121.05 273.251 129.07 282.491 142.17 286.961C151.12 290.011 160.45 289.511 169.67 288.411C178.51 287.361 186.84 284.831 193.4 278.271C204.36 267.321 200.4 247.721 185.61 243.231C174.38 239.821 162.62 238.081 151.02 235.971C132.28 232.571 113.69 229.031 98.4 216.321C82.3 202.941 73.47 178.091 80.37 156.671C87.83 133.511 102.79 118.191 125.82 110.901C139.16 106.671 152.86 107.451 166.63 108.761C180.9 110.121 193.77 114.791 205.24 123.191C209.6 126.381 213.38 130.381 217.9 134.451C217.9 126.231 217.9 118.361 217.9 110.071C231.46 110.071 244.49 110.071 258.87 110.071C258.87 145.761 258.87 181.351 258.87 216.941C258.75 216.981 258.62 217.021 258.5 217.061C258.59 217.151 258.68 217.251 258.77 217.341C258.82 217.221 258.86 217.101 258.91 216.971C268.18 207.041 277.48 197.141 286.72 187.181C293.16 180.241 299.44 173.161 305.99 166.331C307.2 165.061 309.34 164.021 311.06 164.011C326.67 163.891 342.29 164.011 357.9 164.061C357.95 164.751 358 165.441 358.04 166.131C340.47 185.471 323.03 204.921 305.23 224.041C301.79 227.731 301.84 230.151 304.33 234.231C322.71 264.341 340.84 294.601 359.06 324.811C358.67 325.441 358.29 326.081 357.9 326.711C344.25 326.761 330.59 326.661 316.94 326.941C313.52 327.011 312.32 325.081 310.92 322.771C299.42 303.851 287.91 284.941 276.37 266.041C275.27 264.241 273.93 262.571 272.4 260.421C267.87 265.281 263.55 269.631 259.64 274.311C258.65 275.491 258.71 277.761 258.7 279.531C258.63 295.011 258.66 310.481 258.66 326.401C245.15 326.401 231.96 326.401 218.06 326.401C218.06 321.071 218.06 315.721 218.06 309.441C214.35 312.041 211.62 314.121 208.73 315.961C196.74 323.591 183.41 326.961 169.47 329.041C152.23 331.621 135.58 328.721 119.93 322.581C98.73 314.261 84.27 298.581 78.03 276.171C76.93 272.211 76.45 268.071 75.68 264.021C75.65 263.611 75.62 263.201 75.59 262.791C75.67 261.801 75.75 260.801 75.83 259.811C76.24 259.711 76.65 259.611 77.05 259.511C90.28 259.511 103.52 259.511 116.75 259.521C117.18 259.601 117.61 259.661 118.04 259.711ZM217.76 174.921C211.82 174.921 206.47 174.551 201.19 175.021C196.06 175.481 194.01 173.481 192.73 168.631C189.77 157.391 178.23 148.041 166.56 146.951C160.32 146.371 154.03 146.381 147.78 145.861C141.06 145.311 135.39 148.041 130.12 151.531C124.09 155.521 119.65 161.061 119 168.481C118.15 178.161 123.73 184.421 131.71 188.581C142.55 194.231 154.61 195.111 166.43 197.011C177.26 198.751 188.1 200.761 198.7 203.531C205.27 205.241 211.41 208.601 217.75 211.211C217.76 199.401 217.76 187.461 217.76 174.921Z"
          fill="#445555"></path>
    <path d="M358.04 166.15C357.99 165.46 357.94 164.77 357.9 164.08C358.42 164.22 358.93 164.36 359.45 164.5C358.97 165.05 358.5 165.6 358.04 166.15Z"
          fill="#556655"></path>
    <path d="M357.89 326.73C358.28 326.1 358.66 325.46 359.05 324.83C358.67 325.47 358.28 326.1 357.89 326.73Z"
          fill="#667855"></path>
    <path d="M77.05 259.551C76.64 259.651 76.23 259.751 75.83 259.851C76.23 259.741 76.64 259.651 77.05 259.551Z"
          fill="#79AA55"></path>
    <path d="M118.04 259.711C117.61 259.661 117.18 259.611 116.75 259.551C117.18 259.601 117.61 259.651 118.04 259.711Z"
          fill="#79AA55"></path>
    <path d="M217.76 174.921C217.76 187.451 217.76 199.391 217.76 211.221C211.42 208.601 205.28 205.251 198.71 203.541C188.11 200.771 177.27 198.761 166.44 197.021C154.62 195.121 142.55 194.241 131.72 188.591C123.73 184.421 118.16 178.171 119.01 168.491C119.66 161.081 124.1 155.531 130.13 151.541C135.4 148.051 141.07 145.321 147.79 145.871C154.04 146.381 160.33 146.381 166.57 146.961C178.24 148.041 189.78 157.401 192.74 168.641C194.02 173.491 196.07 175.491 201.2 175.031C206.47 174.561 211.82 174.921 217.76 174.921Z"
          fill="#B9EC55"></path>
    <path d="M258.9 216.98C258.85 217.1 258.81 217.22 258.76 217.35C258.67 217.26 258.58 217.16 258.49 217.07C258.61 217.03 258.74 216.99 258.86 216.95L258.9 216.98Z"
          fill="#769855"></path>
</svg> 