<svg width="24" height="24" viewBox="0 0 24 24" fill="none" xmlns="http://www.w3.org/2000/svg">
<path d="M1.3999 7.00799C1.3999 7.56028 1.84762 8.00799 2.3999 8.00799C2.95219 8.00799 3.3999 7.56028 3.3999 7.00799H1.3999ZM7.0079 3.39999C7.56019 3.39999 8.0079 2.95228 8.0079 2.39999C8.0079 1.84771 7.56019 1.39999 7.0079 1.39999V3.39999ZM16.9919 1.39999C16.4396 1.39999 15.9919 1.84771 15.9919 2.39999C15.9919 2.95228 16.4396 3.39999 16.9919 3.39999L16.9919 1.39999ZM17.7599 2.39999L17.7599 1.39999L17.7599 2.39999ZM21.5999 6.23999L20.5999 6.23999V6.23999H21.5999ZM20.5999 7.00799C20.5999 7.56028 21.0476 8.00799 21.5999 8.00799C22.1522 8.00799 22.5999 7.56028 22.5999 7.00799H20.5999ZM6.56301 19.6191C6.95353 19.2286 6.95353 18.5954 6.56301 18.2049C6.17248 17.8144 5.53932 17.8144 5.14879 18.2049L6.56301 19.6191ZM2.4608 20.8929C2.07027 21.2834 2.07027 21.9166 2.4608 22.3071C2.85132 22.6976 3.48448 22.6976 3.87501 22.3071L2.4608 20.8929ZM20.1248 22.3071C20.5153 22.6976 21.1485 22.6976 21.539 22.3071C21.9295 21.9166 21.9295 21.2834 21.539 20.8929L20.1248 22.3071ZM18.851 18.2049C18.4605 17.8144 17.8273 17.8144 17.4368 18.2049C17.0463 18.5954 17.0463 19.2286 17.4368 19.6191L18.851 18.2049ZM12.9999 9.59999C12.9999 9.04771 12.5522 8.59999 11.9999 8.59999C11.4476 8.59999 10.9999 9.04771 10.9999 9.59999H12.9999ZM10.9999 15.6C10.9999 16.1523 11.4476 16.6 11.9999 16.6C12.5522 16.6 12.9999 16.1523 12.9999 15.6H10.9999ZM14.9999 13.6C15.5522 13.6 15.9999 13.1523 15.9999 12.6C15.9999 12.0477 15.5522 11.6 14.9999 11.6V13.6ZM8.9999 11.6C8.44762 11.6 7.9999 12.0477 7.9999 12.6C7.9999 13.1523 8.44762 13.6 8.9999 13.6V11.6ZM3.3999 7.00799V6.23999H1.3999V7.00799H3.3999ZM6.2399 3.39999H7.0079V1.39999H6.2399V3.39999ZM3.3999 6.23999C3.3999 4.67151 4.67141 3.39999 6.2399 3.39999V1.39999C3.56684 1.39999 1.3999 3.56694 1.3999 6.23999H3.3999ZM16.9919 3.39999L17.7599 3.39999L17.7599 1.39999L16.9919 1.39999L16.9919 3.39999ZM20.5999 6.23999V7.00799H22.5999V6.23999H20.5999ZM17.7599 3.39999C19.3284 3.39999 20.5999 4.67151 20.5999 6.23999L22.5999 6.23999C22.5999 3.56694 20.433 1.39999 17.7599 1.39999L17.7599 3.39999ZM5.14879 18.2049L2.4608 20.8929L3.87501 22.3071L6.56301 19.6191L5.14879 18.2049ZM21.539 20.8929L18.851 18.2049L17.4368 19.6191L20.1248 22.3071L21.539 20.8929ZM19.4479 12.768C19.4479 16.8814 16.1133 20.216 11.9999 20.216V22.216C17.2179 22.216 21.4479 17.986 21.4479 12.768H19.4479ZM11.9999 20.216C7.88648 20.216 4.5519 16.8814 4.5519 12.768H2.5519C2.5519 17.986 6.78192 22.216 11.9999 22.216V20.216ZM4.5519 12.768C4.5519 8.65458 7.88648 5.31999 11.9999 5.31999V3.31999C6.78192 3.31999 2.5519 7.55001 2.5519 12.768H4.5519ZM11.9999 5.31999C16.1133 5.31999 19.4479 8.65458 19.4479 12.768H21.4479C21.4479 7.55001 17.2179 3.31999 11.9999 3.31999V5.31999ZM10.9999 9.59999V12.6H12.9999V9.59999H10.9999ZM10.9999 12.6V15.6H12.9999V12.6H10.9999ZM14.9999 11.6H11.9999V13.6H14.9999V11.6ZM11.9999 11.6H8.9999V13.6H11.9999V11.6Z" fill="black"/>
</svg>
