<?xml version="1.0" encoding="UTF-8"?>
<svg xmlns="http://www.w3.org/2000/svg" xmlns:xlink="http://www.w3.org/1999/xlink" width="24px" height="24px" viewBox="0 0 24 24" version="1.1">
<g id="surface1">
<path style=" stroke:none;fill-rule:nonzero;fill:rgb(0%,0%,0%);fill-opacity:1;" d="M 21.195312 4.96875 L 16.792969 0.566406 C 16.421875 0.199219 15.941406 0 15.425781 0 L 4.167969 0 C 3.101562 0 2.238281 0.863281 2.238281 1.925781 L 2.238281 22.074219 C 2.238281 23.136719 3.101562 24 4.167969 24 L 19.832031 24 C 20.898438 24 21.761719 23.136719 21.761719 22.074219 L 21.761719 6.328125 C 21.757812 5.816406 21.558594 5.332031 21.195312 4.96875 Z M 16.613281 2.277344 L 19.480469 5.140625 L 16.613281 5.140625 Z M 20.425781 22.074219 C 20.425781 22.398438 20.160156 22.664062 19.828125 22.664062 L 4.167969 22.664062 C 3.839844 22.664062 3.574219 22.398438 3.574219 22.074219 L 3.574219 1.925781 C 3.574219 1.601562 3.839844 1.335938 4.167969 1.335938 L 15.285156 1.335938 L 15.285156 5.808594 C 15.285156 6.179688 15.582031 6.476562 15.953125 6.476562 L 20.425781 6.476562 Z M 20.425781 22.074219 "/>
<path style=" stroke:none;fill-rule:nonzero;fill:rgb(0%,0%,0%);fill-opacity:1;" d="M 10.28125 9.355469 L 8.921875 9.355469 L 6.195312 15.664062 L 7.695312 15.664062 L 8.28125 14.300781 L 10.925781 14.300781 L 11.511719 15.664062 L 13.007812 15.664062 Z M 8.8125 13.066406 L 9.609375 11.234375 L 10.390625 13.066406 Z M 8.8125 13.066406 "/>
<path style=" stroke:none;fill-rule:nonzero;fill:rgb(0%,0%,0%);fill-opacity:1;" d="M 16.21875 11.945312 L 16.21875 10.320312 L 14.972656 10.320312 L 14.972656 11.945312 L 13.394531 11.945312 L 13.394531 13.054688 L 14.972656 13.054688 L 14.972656 14.679688 L 16.21875 14.679688 L 16.21875 13.054688 L 17.796875 13.054688 L 17.796875 11.945312 Z M 16.21875 11.945312 "/>
</g>
</svg>
