<?xml version="1.0" encoding="UTF-8"?>
<svg xmlns="http://www.w3.org/2000/svg" xmlns:xlink="http://www.w3.org/1999/xlink" width="24px" height="24px" viewBox="0 0 24 24" version="1.1">
<g id="surface1">
<path style=" stroke-width: .75px; fill-rule:nonzero;" d="M 23.347656 14.273438 L 23.21875 14.273438 L 23.21875 7.226562 C 23.21875 6.519531 22.644531 5.941406 21.9375 5.941406 L 18.320312 5.941406 C 19.839844 5.808594 21.03125 4.527344 21.03125 2.976562 C 21.03125 1.335938 19.695312 0 18.054688 0 C 16.414062 0 15.078125 1.335938 15.078125 2.976562 C 15.078125 4.527344 16.269531 5.808594 17.789062 5.941406 L 14.171875 5.941406 C 13.464844 5.941406 12.890625 6.519531 12.890625 7.226562 L 12.890625 14.273438 L 11.074219 14.273438 C 11.308594 14.039062 11.453125 13.71875 11.453125 13.363281 L 11.453125 7.226562 C 11.453125 6.519531 10.878906 5.941406 10.171875 5.941406 L 6.554688 5.941406 C 8.074219 5.808594 9.265625 4.527344 9.265625 2.976562 C 9.265625 1.335938 7.929688 0 6.289062 0 C 4.648438 0 3.3125 1.335938 3.3125 2.976562 C 3.3125 4.527344 4.503906 5.808594 6.023438 5.941406 L 2.40625 5.941406 C 1.699219 5.941406 1.125 6.519531 1.125 7.226562 L 1.125 13.363281 C 1.125 13.71875 1.269531 14.039062 1.503906 14.273438 L 0.652344 14.273438 C 0.300781 14.273438 0.0117188 14.558594 0.0117188 14.910156 C 0.0117188 15.261719 0.300781 15.546875 0.652344 15.546875 L 2.457031 15.546875 L 2.457031 22.296875 C 2.457031 23.238281 3.222656 24 4.160156 24 L 4.535156 24 C 5.414062 24 6.109375 23.332031 6.230469 22.378906 C 6.246094 22.25 6.265625 22.101562 6.289062 21.933594 C 6.3125 22.105469 6.332031 22.253906 6.347656 22.378906 C 6.472656 23.332031 7.167969 24 8.042969 24 L 8.417969 24 C 9.355469 24 10.121094 23.238281 10.121094 22.296875 L 10.121094 15.546875 L 23.347656 15.546875 C 23.703125 15.546875 23.988281 15.261719 23.988281 14.910156 C 23.988281 14.558594 23.699219 14.273438 23.347656 14.273438 Z M 16.351562 2.976562 C 16.351562 2.039062 17.117188 1.273438 18.054688 1.273438 C 18.992188 1.273438 19.757812 2.039062 19.757812 2.976562 C 19.757812 3.917969 18.992188 4.679688 18.054688 4.679688 C 17.117188 4.679688 16.351562 3.917969 16.351562 2.976562 Z M 4.585938 2.976562 C 4.585938 2.039062 5.351562 1.273438 6.289062 1.273438 C 7.226562 1.273438 7.992188 2.039062 7.992188 2.976562 C 7.992188 3.917969 7.226562 4.679688 6.289062 4.679688 C 5.351562 4.679688 4.585938 3.917969 4.585938 2.976562 Z M 14.164062 7.226562 C 14.164062 7.222656 14.167969 7.21875 14.171875 7.21875 L 16.878906 7.21875 L 17.378906 7.839844 L 16.753906 11.566406 C 16.722656 11.757812 16.773438 11.949219 16.902344 12.09375 L 17.574219 12.863281 C 17.695312 13.003906 17.871094 13.082031 18.054688 13.082031 C 18.238281 13.082031 18.414062 13.003906 18.535156 12.863281 L 19.207031 12.09375 C 19.332031 11.949219 19.386719 11.757812 19.355469 11.566406 L 18.730469 7.839844 L 19.226562 7.21875 L 21.9375 7.21875 C 21.941406 7.21875 21.945312 7.222656 21.945312 7.226562 L 21.945312 14.273438 L 14.164062 14.273438 Z M 8.84375 14.011719 L 8.84375 22.296875 C 8.84375 22.535156 8.652344 22.726562 8.417969 22.726562 L 8.042969 22.726562 C 7.753906 22.726562 7.636719 22.40625 7.613281 22.214844 C 7.453125 20.984375 6.925781 17.234375 6.921875 17.195312 C 6.875 16.882812 6.605469 16.648438 6.289062 16.648438 C 5.972656 16.648438 5.703125 16.882812 5.65625 17.195312 C 5.652344 17.234375 5.128906 20.9375 4.964844 22.21875 C 4.941406 22.40625 4.824219 22.726562 4.535156 22.726562 L 4.160156 22.726562 C 3.925781 22.726562 3.734375 22.535156 3.734375 22.296875 L 3.734375 14.011719 C 3.734375 13.660156 3.449219 13.371094 3.097656 13.371094 L 2.40625 13.371094 C 2.402344 13.371094 2.398438 13.367188 2.398438 13.363281 L 2.398438 7.226562 C 2.398438 7.222656 2.402344 7.21875 2.40625 7.21875 L 10.171875 7.21875 C 10.175781 7.21875 10.179688 7.222656 10.179688 7.226562 L 10.179688 13.363281 C 10.179688 13.367188 10.175781 13.371094 10.171875 13.371094 L 9.480469 13.371094 C 9.128906 13.371094 8.84375 13.660156 8.84375 14.011719 Z M 8.84375 14.011719 "/>
</g>
</svg>
