<svg width="24" height="24" viewBox="0 0 24 24" fill="none" xmlns="http://www.w3.org/2000/svg">
<path d="M17.982 18.725C17.2833 17.7999 16.3792 17.0496 15.3412 16.5334C14.3031 16.0171 13.1594 15.749 12 15.75C10.8406 15.749 9.69688 16.0171 8.65882 16.5334C7.62075 17.0496 6.71674 17.7999 6.018 18.725M17.982 18.725C19.3455 17.5122 20.3071 15.9136 20.7412 14.1411C21.1752 12.3686 21.0603 10.5061 20.4115 8.80049C19.7627 7.09488 18.6107 5.62679 17.1084 4.59091C15.6061 3.55503 13.8243 3.00031 11.9995 3.00031C10.1747 3.00031 8.39293 3.55503 6.8906 4.59091C5.38827 5.62679 4.23633 7.09488 3.58753 8.80049C2.93874 10.5061 2.82375 12.3686 3.25782 14.1411C3.69188 15.9136 4.6545 17.5122 6.018 18.725M17.982 18.725C16.336 20.1932 14.2056 21.0032 12 21C9.79403 21.0034 7.66423 20.1934 6.018 18.725M15 9.75001C15 10.5457 14.6839 11.3087 14.1213 11.8713C13.5587 12.4339 12.7956 12.75 12 12.75C11.2043 12.75 10.4413 12.4339 9.87868 11.8713C9.31607 11.3087 9 10.5457 9 9.75001C9 8.95436 9.31607 8.1913 9.87868 7.62869C10.4413 7.06608 11.2043 6.75001 12 6.75001C12.7956 6.75001 13.5587 7.06608 14.1213 7.62869C14.6839 8.1913 15 8.95436 15 9.75001Z" stroke="#8E9AB6" stroke-width="1.5" stroke-linecap="round" stroke-linejoin="round"/>
</svg>
