<?xml version="1.0" encoding="UTF-8"?>
<svg xmlns="http://www.w3.org/2000/svg" xmlns:xlink="http://www.w3.org/1999/xlink" width="24px" height="24px" viewBox="0 0 24 24" version="1.1">
<defs>
<filter id="alpha" filterUnits="objectBoundingBox" x="0%" y="0%" width="100%" height="100%">
  <feColorMatrix type="matrix" in="SourceGraphic" values="0 0 0 0 1 0 0 0 0 1 0 0 0 0 1 0 0 0 1 0"/>
</filter>
<mask id="mask0">
  <g filter="url(#alpha)">
<rect x="0" y="0" width="24" height="24" style="fill:rgb(0%,0%,0%);fill-opacity:0.4;stroke:none;"/>
  </g>
</mask>
<clipPath id="clip1">
  <rect x="0" y="0" width="24" height="24"/>
</clipPath>
<g id="surface5" clip-path="url(#clip1)">
<path style="fill:none;stroke-width:1.5;stroke-linecap:round;stroke-linejoin:round;stroke:rgb(16.078431%,17.647059%,19.607843%);stroke-opacity:1;stroke-miterlimit:4;" d="M 12.121094 12.78125 C 12.050781 12.769531 11.960938 12.769531 11.878906 12.78125 C 10.121094 12.71875 8.71875 11.28125 8.71875 9.511719 C 8.71875 7.699219 10.179688 6.230469 12 6.230469 C 13.8125 6.230469 15.28125 7.699219 15.28125 9.511719 C 15.269531 11.28125 13.878906 12.71875 12.121094 12.78125 Z M 12.121094 12.78125 "/>
</g>
<mask id="mask1">
  <g filter="url(#alpha)">
<rect x="0" y="0" width="24" height="24" style="fill:rgb(0%,0%,0%);fill-opacity:0.341176;stroke:none;"/>
  </g>
</mask>
<clipPath id="clip2">
  <rect x="0" y="0" width="24" height="24"/>
</clipPath>
<g id="surface8" clip-path="url(#clip2)">
<path style="fill:none;stroke-width:1.5;stroke-linecap:round;stroke-linejoin:round;stroke:rgb(16.078431%,17.647059%,19.607843%);stroke-opacity:1;stroke-miterlimit:4;" d="M 18.738281 19.378906 C 16.960938 21.011719 14.601562 22 12 22 C 9.398438 22 7.039062 21.011719 5.261719 19.378906 C 5.359375 18.441406 5.960938 17.519531 7.03125 16.800781 C 9.769531 14.980469 14.25 14.980469 16.96875 16.800781 C 18.039062 17.519531 18.640625 18.441406 18.738281 19.378906 Z M 18.738281 19.378906 "/>
</g>
</defs>
<g id="surface1">
<use xlink:href="#surface5" mask="url(#mask0)"/>
<use xlink:href="#surface8" mask="url(#mask1)"/>
<path style="fill:none;stroke-width:1.5;stroke-linecap:round;stroke-linejoin:round;stroke:rgb(16.078431%,17.647059%,19.607843%);stroke-opacity:1;stroke-miterlimit:4;" d="M 12 22 C 17.523438 22 22 17.523438 22 12 C 22 6.476562 17.523438 2 12 2 C 6.476562 2 2 6.476562 2 12 C 2 17.523438 6.476562 22 12 22 Z M 12 22 "/>
</g>
</svg>
