<svg width="24" height="25" viewBox="0 0 24 25" fill="none" xmlns="http://www.w3.org/2000/svg">
<path fill-rule="evenodd" clip-rule="evenodd" d="M2.25 12.5C2.25 7.115 6.615 2.75 12 2.75C17.385 2.75 21.75 7.115 21.75 12.5C21.75 17.885 17.385 22.25 12 22.25C6.615 22.25 2.25 17.885 2.25 12.5ZM12 8.75C12.1989 8.75 12.3897 8.82902 12.5303 8.96967C12.671 9.11032 12.75 9.30109 12.75 9.5V13.25C12.75 13.4489 12.671 13.6397 12.5303 13.7803C12.3897 13.921 12.1989 14 12 14C11.8011 14 11.6103 13.921 11.4697 13.7803C11.329 13.6397 11.25 13.4489 11.25 13.25V9.5C11.25 9.30109 11.329 9.11032 11.4697 8.96967C11.6103 8.82902 11.8011 8.75 12 8.75ZM12 17C12.1989 17 12.3897 16.921 12.5303 16.7803C12.671 16.6397 12.75 16.4489 12.75 16.25C12.75 16.0511 12.671 15.8603 12.5303 15.7197C12.3897 15.579 12.1989 15.5 12 15.5C11.8011 15.5 11.6103 15.579 11.4697 15.7197C11.329 15.8603 11.25 16.0511 11.25 16.25C11.25 16.4489 11.329 16.6397 11.4697 16.7803C11.6103 16.921 11.8011 17 12 17Z" fill="#FE5757"/>
</svg>
