<svg width="24" height="24" viewBox="0 0 24 24" fill="none" xmlns="http://www.w3.org/2000/svg">
<path d="M4.7998 2.39999H19.1998M4.7998 21.6H19.1998M17.3998 2.39999V5.32472C17.3998 5.99666 17.1742 6.64915 16.7592 7.17761L13.7495 11.0101C13.226 11.6766 13.2385 12.6181 13.7794 13.2706L16.7094 16.8053C17.1556 17.3435 17.3998 18.0207 17.3998 18.7198V21.6M6.5998 2.39999V5.32472C6.5998 5.99666 6.82539 6.64915 7.2404 7.17761L10.2501 11.0101C10.7736 11.6766 10.7611 12.6181 10.2203 13.2706L7.29017 16.8053C6.84399 17.3435 6.5998 18.0207 6.5998 18.7198V21.6" stroke="black" stroke-width="2" stroke-linecap="round" stroke-linejoin="round"/>
</svg>
